<svg width="440" height="482" viewBox="0 0 440 482" fill="none" xmlns="http://www.w3.org/2000/svg">
<path d="M332.591 202.251C332.591 202.251 374.52 295.964 428.082 315.031C430.962 316.052 431.746 319.776 429.545 321.892C415.026 335.864 367.758 371.302 297.556 325.101L303.889 221.779L332.598 202.251H332.591Z" fill="#04804C"/>
<path d="M298.394 316.65C308.451 324.053 334.431 338.607 357.898 337.602C387.231 336.344 405.249 327.964 422.011 312.878" stroke="#005C36"/>
<path d="M326.888 206.861C333.313 220.41 349.767 251.866 364.182 269.298C382.201 291.088 396.449 304.916 416.563 317.907" stroke="#005C36"/>
<path d="M325.212 376.824L325.483 387.98C325.559 389.729 326.836 391.199 328.558 391.499L354.084 392.258C354.633 392.244 355.077 391.791 355.084 391.241L355.126 389.011C355.209 384.579 351.738 380.9 347.33 380.747L344.463 380.649C344.102 380.635 343.803 380.349 343.782 379.98L343.623 377.074C343.609 376.789 343.373 376.566 343.088 376.573L325.212 376.83V376.824Z" fill="#E95442"/>
<path d="M325.329 379.555C328.404 379.652 331.223 380.816 333.41 382.691C335.687 384.642 337.29 387.359 337.825 390.446C337.881 390.774 337.922 391.108 337.957 391.443L336.103 391.387C336.076 391.178 336.048 390.969 336.013 390.76C335.555 388.112 334.18 385.771 332.216 384.091C330.355 382.503 327.988 381.506 325.378 381.402L325.336 379.555H325.329Z" fill="#D7EFFE"/>
<path d="M355.119 389.011L355.078 391.241C355.064 391.791 354.626 392.244 354.078 392.258L328.552 391.499C326.892 391.206 325.65 389.833 325.497 388.168L354.932 388.809L355.119 389.011Z" fill="#41B07E"/>
<path d="M347.1 383.952C347.031 382.809 347.239 381.729 347.655 380.767C351.911 381.088 355.209 384.69 355.125 389.011L355.097 390.307C354.285 390.446 353.431 390.439 352.564 390.265C349.551 389.645 347.288 387.032 347.1 383.952Z" fill="#F3EDA7"/>
<path d="M337.632 376.775L340.374 376.733C340.922 376.726 341.381 377.158 341.394 377.715L341.512 381.464C341.547 382.656 342.519 383.604 343.713 383.611H345.997" stroke="#232323" stroke-miterlimit="10"/>
<path d="M343.762 379.666L341.478 379.757" stroke="#232323" stroke-miterlimit="10"/>
<path d="M344.677 380.656L344.636 383.611" stroke="#232323" stroke-miterlimit="10"/>
<path d="M278.52 382.271L276.229 382.181" stroke="#232323" stroke-miterlimit="10"/>
<path d="M294.785 379.338L294.514 390.494C294.438 392.243 293.161 393.713 291.439 394.013L265.913 394.772C265.364 394.759 264.92 394.306 264.913 393.755L264.871 391.525C264.788 387.093 268.259 383.414 272.667 383.261L275.535 383.163C275.896 383.149 276.194 382.864 276.215 382.494L276.375 379.589C276.388 379.303 276.624 379.08 276.909 379.087L294.785 379.345V379.338Z" fill="#E95442"/>
<path d="M294.668 382.07C291.592 382.167 288.774 383.331 286.587 385.205C284.31 387.156 282.706 389.874 282.172 392.961C282.116 393.288 282.075 393.623 282.04 393.957L283.894 393.902C283.921 393.693 283.949 393.484 283.984 393.275C284.442 390.627 285.817 388.285 287.781 386.606C289.642 385.017 292.009 384.021 294.619 383.916L294.661 382.07H294.668Z" fill="#D7EFFE"/>
<path d="M264.878 391.525L264.92 393.755C264.933 394.305 265.371 394.758 265.919 394.772L291.446 394.013C293.105 393.72 294.347 392.347 294.5 390.682L265.065 391.323L264.878 391.525Z" fill="#41B07E"/>
<path d="M272.897 386.466C272.966 385.323 272.758 384.243 272.341 383.281C268.086 383.602 264.788 387.205 264.872 391.525L264.899 392.821C265.712 392.96 266.565 392.953 267.433 392.779C270.446 392.159 272.709 389.546 272.897 386.466Z" fill="#F3EDA7"/>
<path d="M282.366 379.289L279.624 379.247C279.076 379.24 278.618 379.672 278.604 380.229L278.486 383.978C278.451 385.17 277.479 386.118 276.285 386.125H274.001" stroke="#232323" stroke-miterlimit="10"/>
<path d="M275.313 383.17L275.362 386.125" stroke="#232323" stroke-miterlimit="10"/>
<path d="M341.391 299.482L357.17 371.101C357.17 371.101 349.631 377.129 334.56 378.195C319.488 379.261 310.304 376.774 310.304 376.774V301.844L341.391 299.482Z" fill="#9ED2FA"/>
<path d="M349.221 375.178C348.09 375.596 346.833 376 345.458 376.384L334.136 300.046L336.989 299.83L349.221 375.185V375.178Z" fill="#6FB7F6"/>
<path d="M339.862 377.596C338.397 377.833 336.828 378.021 335.176 378.153L326.228 300.645L329.643 300.387L339.862 377.596Z" fill="#6FB7F6"/>
<path d="M328.79 378.453C327.374 378.474 326.027 378.467 324.757 378.439L317.856 301.28L321.05 301.036L328.783 378.453H328.79Z" fill="#6FB7F6"/>
<path d="M315.433 377.721C314.434 377.589 313.573 377.45 312.851 377.317L311.747 301.739L314.795 301.51L315.433 377.721Z" fill="#6FB7F6"/>
<path d="M330.56 300.311C330.56 300.311 333.253 313.028 344.007 311.342" stroke="#2F505B" stroke-miterlimit="10"/>
<path d="M276.001 301.565L260.222 373.185C260.222 373.185 267.761 379.212 282.832 380.279C297.904 381.345 307.088 378.857 307.088 378.857V303.927L276.001 301.565Z" fill="#D7EFFE"/>
<path d="M268.171 377.261C269.302 377.679 270.559 378.083 271.934 378.467L283.256 302.129L280.403 301.913L268.171 377.268V377.261Z" fill="#9ED2FA"/>
<path d="M277.528 379.679C278.993 379.916 280.562 380.104 282.214 380.237L291.163 302.729L287.747 302.471L277.528 379.679Z" fill="#9ED2FA"/>
<path d="M288.601 380.536C290.017 380.557 291.364 380.55 292.634 380.522L299.535 303.363L296.341 303.119L288.608 380.536H288.601Z" fill="#9ED2FA"/>
<path d="M301.958 379.805C302.958 379.672 303.819 379.533 304.541 379.4L305.644 303.823L302.597 303.593L301.958 379.805Z" fill="#9ED2FA"/>
<path d="M286.839 302.387C286.839 302.387 284.145 315.105 273.392 313.418" stroke="#2F505B" stroke-miterlimit="10"/>
<path d="M234.029 233.799C223.338 225.095 218.728 215.493 217.347 208.107C216.097 201.445 217.708 192.707 218.409 191.014C219.11 189.32 221.713 185.049 227.649 183.746C233.584 182.436 236.722 187.906 236.722 187.906C236.722 187.906 238.708 184.547 239.923 184.512C241.138 184.478 241.353 185.418 241.276 185.899C241.054 187.237 239.978 188.784 239.451 191.014C239.451 191.014 237.673 203.675 236.708 205.975C235.75 208.274 230.1 213.479 230.1 213.479L244.963 220.705" fill="#F0C2AA"/>
<path d="M236.341 187.348C236.341 187.348 237.008 189.063 235.099 189.362" stroke="#311402" stroke-miterlimit="10"/>
<path d="M233.89 194.707C233.89 194.707 237.742 191.258 235.097 189.37C232.633 187.607 227.933 186.986 225.538 188.129" stroke="#311402" stroke-miterlimit="10"/>
<path d="M233.564 200.463C233.564 200.463 236.646 196.393 233.092 194.226C229.538 192.052 223.88 193.62 223.88 193.62" stroke="#311402" stroke-miterlimit="10"/>
<path d="M227.448 207.341C227.448 207.341 234.474 206.672 234.481 203.383C234.488 200.094 232.717 199.348 229.246 198.77C225.775 198.192 223.554 199.3 223.554 199.3" stroke="#311402" stroke-miterlimit="10"/>
<path d="M227.594 212.288C227.594 212.288 231.37 208.177 224.657 205.717" stroke="#311402" stroke-miterlimit="10"/>
<path d="M225.331 205.989C225.331 205.989 229.101 204.379 229.545 203.947" stroke="#311402" stroke-miterlimit="10"/>
<path d="M283.034 208.63L270.475 218.162C267.747 220.232 264.172 220.803 260.937 219.681L246.657 214.727L229.017 237.13C229.017 237.13 246.143 247.164 263.033 248.279C279.924 249.394 302.999 236.566 302.999 236.566L287.581 202.965L283.041 208.623L283.034 208.63Z" fill="#F35629"/>
<path d="M288.247 192.031L289.156 204.811L333.767 203.947L330.622 181.244L288.247 192.031Z" fill="#E5AD95"/>
<path d="M315.966 190.483C365.428 178.242 396.301 130.768 384.923 84.4453C373.545 38.1231 324.225 10.4945 274.763 22.7351C225.301 34.9757 194.428 82.4503 205.806 128.773C217.184 175.095 266.504 202.723 315.966 190.483Z" fill="#F0C2AA"/>
<path d="M217.142 150.402C217.925 141.508 210.684 133.599 200.968 132.738C191.252 131.876 182.741 138.387 181.958 147.281C181.175 156.174 188.416 164.083 198.132 164.945C207.848 165.807 216.359 159.295 217.142 150.402Z" fill="#F0C2AA"/>
<path d="M195.472 140.48C195.472 140.48 206.301 141.512 206.787 152.11" stroke="#311402" stroke-miterlimit="10"/>
<path d="M409.732 122.004C417.935 116.707 420.682 106.325 415.869 98.8168C411.056 91.3085 400.504 89.5166 392.302 94.8144C384.1 100.112 381.352 110.494 386.165 118.002C390.979 125.51 401.53 127.302 409.732 122.004Z" fill="#F0C2AA"/>
<path d="M400.752 99.1096C400.752 99.1096 391.644 105.081 396.122 114.691" stroke="#311402" stroke-miterlimit="10"/>
<path d="M295.599 124.711C295.169 119.861 298.293 115.624 302.569 115.241C306.845 114.858 310.664 118.481 311.094 123.324" fill="#DA8769"/>
<path d="M305.116 137.902C300.292 138.111 286.727 133.191 286.838 141.511C286.949 149.831 298.799 155.81 306.067 154.967C313.336 154.124 319.91 149.427 321.778 145.344C323.09 142.48 323.284 136.738 318.029 135.686C314.46 134.968 311.385 137.623 305.109 137.902H305.116Z" fill="#0A0C09"/>
<path d="M318.009 135.693C314.843 135.059 312.059 137.073 307.089 137.728C307.367 139.393 307.991 142.515 308.97 143.651C310.241 145.128 318.863 141.003 321.577 138C320.876 136.906 319.744 136.042 318.009 135.693Z" fill="#FCFFF8"/>
<path d="M306.782 137.763C306.248 137.818 305.706 137.874 305.123 137.895C301.173 138.069 291.371 134.808 288.011 138.181C288.025 138.188 297.098 144.571 301.819 144.522C306.546 144.466 306.789 137.763 306.789 137.763H306.782Z" fill="#FCFFF8"/>
<path d="M312.83 153.065C313.233 152.444 313.504 151.741 313.587 150.988L313.649 150.431C313.795 149.114 312.962 147.88 311.685 147.532L311.622 147.511C307.568 147.1 304.312 147.365 300.494 149.142L300.105 149.385C298.89 150.138 298.398 151.664 298.932 152.995L299.425 154.221C301.758 154.918 304.083 155.197 306.062 154.967C308.436 154.695 310.734 153.998 312.816 153.058L312.83 153.065Z" fill="#F49F8A"/>
<path d="M271.386 150.185C271.985 143.38 265.192 137.219 256.213 136.422C247.234 135.626 239.47 140.496 238.871 147.301C238.272 154.105 245.065 160.267 254.044 161.063C263.023 161.86 270.787 156.989 271.386 150.185Z" fill="#E79879"/>
<path d="M360.364 139.073C367.945 134.177 371.104 125.551 367.422 119.807C363.739 114.062 354.609 113.374 347.029 118.27C339.448 123.166 336.289 131.792 339.971 137.536C343.654 143.281 352.784 143.969 360.364 139.073Z" fill="#E79879"/>
<path d="M276.087 120.978C281.23 120.094 284.592 114.648 283.597 108.814C282.601 102.98 277.625 98.9674 272.482 99.8517C267.338 100.736 263.976 106.182 264.972 112.016C265.967 117.85 270.944 121.863 276.087 120.978Z" fill="#FCFFF8"/>
<path d="M278.115 118.599C281.335 117.802 283.194 114.099 282.268 110.329C281.342 106.559 277.981 104.149 274.761 104.946C271.541 105.742 269.681 109.445 270.607 113.215C271.534 116.985 274.895 119.396 278.115 118.599Z" fill="#311402"/>
<path d="M321.804 111.067C326.947 110.183 330.309 104.737 329.314 98.9027C328.318 93.0687 323.342 89.0563 318.198 89.9406C313.055 90.8249 309.693 96.2711 310.688 102.105C311.684 107.939 316.66 111.952 321.804 111.067Z" fill="#FCFFF8"/>
<path d="M322.209 109.742C325.51 109.418 327.88 106.022 327.503 102.158C327.126 98.2931 324.145 95.4231 320.845 95.7473C317.544 96.0716 315.174 99.4674 315.55 103.332C315.927 107.197 318.909 110.067 322.209 109.742Z" fill="#311402"/>
<path d="M211.522 73.6265C208.273 80.5321 205.948 87.8278 204.65 95.3466C230.551 92.4826 259.375 87.347 289.414 79.9119C319.001 72.5883 346.513 63.8361 370.512 54.4429C365.854 48.3457 360.383 42.9244 354.267 38.2905C332.899 46.1507 309.122 53.4534 283.818 59.7179C258.521 65.9824 234.084 70.6093 211.522 73.6265Z" fill="#FEDB49"/>
<path d="M257.556 66.9514L271.725 2.948L307.539 56.067L257.556 66.9514Z" fill="#FEDB49"/>
<path d="M204.519 94.817L212.585 31.594L244.047 86.5317L204.519 94.817Z" fill="#FEDB49"/>
<path d="M330.899 62.4008L339.855 2.78735L370.407 54.0319L330.899 62.4008Z" fill="#FEDB49"/>
<path d="M234.368 79.1385L243.074 54.0876L259.179 73.5569L234.368 79.1385Z" fill="#FEDB49"/>
<path d="M393.934 213.041C401.522 201.508 403.035 190.958 402.147 183.502C401.341 176.771 397.19 168.925 396.01 167.517C394.829 166.109 391.074 162.827 385.013 163.371C378.96 163.914 377.613 170.081 377.613 170.081C377.613 170.081 374.711 167.475 373.545 167.81C372.378 168.144 372.455 169.106 372.67 169.538C373.281 170.75 374.774 171.893 375.947 173.865C375.947 173.865 381.438 185.405 383.049 187.307C384.652 189.209 391.601 192.463 391.601 192.463L379.591 203.843" fill="#F0C2AA"/>
<path d="M377.801 169.447C377.801 169.447 377.683 171.28 379.592 170.994" stroke="#311402" stroke-miterlimit="10"/>
<path d="M382.342 175.719C382.342 175.719 377.635 173.594 379.593 170.988C381.412 168.563 385.716 166.549 388.34 166.918" stroke="#311402" stroke-miterlimit="10"/>
<path d="M384.382 181.112C384.382 181.112 380.224 178.165 382.966 175.022C385.708 171.879 391.567 171.663 391.567 171.663" stroke="#311402" stroke-miterlimit="10"/>
<path d="M392.276 185.823C392.276 185.823 385.375 187.307 384.383 184.171C383.39 181.036 384.855 179.788 387.993 178.193C391.131 176.59 393.581 176.98 393.581 176.98" stroke="#311402" stroke-miterlimit="10"/>
<path d="M393.616 190.589C393.616 190.589 388.785 187.808 394.443 183.439" stroke="#311402" stroke-miterlimit="10"/>
<path d="M393.887 183.892C393.887 183.892 389.812 183.495 389.257 183.217" stroke="#311402" stroke-miterlimit="10"/>
<path d="M339.654 203.843L354.49 209.138C357.711 210.288 361.293 209.752 364.042 207.71L376.177 198.672L399.718 214.713C399.718 214.713 386.389 229.451 370.623 235.618C354.851 241.785 328.991 236.517 328.991 236.517L333.629 199.815L339.654 203.836V203.843Z" fill="#F35629"/>
<path d="M308.685 60.7357L317.397 35.6848L333.496 55.1541L308.685 60.7357Z" fill="#FEDB49"/>
<path d="M348.13 300.75C349.338 279.204 334.947 199.46 334.947 199.46C314.467 203.411 288.184 200.045 288.184 200.045C288.184 200.045 268.253 296.946 267.885 299.238C267.517 301.531 296.452 305.342 314.002 305.314C333.635 305.28 348.137 300.757 348.137 300.757L348.13 300.75Z" fill="#E03B1F"/>
<path d="M286.894 206.288C286.894 206.288 298.244 210.1 312.371 209.563C326.499 209.027 336.141 206.288 336.141 206.288" stroke="#F0C2AA" stroke-miterlimit="10"/>
<path d="M293.161 200.554L291.884 207.613" stroke="#F0C2AA" stroke-miterlimit="10"/>
<path d="M311.302 201.376L311.385 209.605" stroke="#F0C2AA" stroke-miterlimit="10"/>
<path d="M304.291 201.243L303.722 209.382" stroke="#F0C2AA" stroke-miterlimit="10"/>
<path d="M298.633 200.965L297.425 208.658" stroke="#F0C2AA" stroke-miterlimit="10"/>
<path d="M317.175 201.285L317.876 209.229" stroke="#F0C2AA" stroke-miterlimit="10"/>
<path d="M323.45 200.944L324.485 208.518" stroke="#F0C2AA" stroke-miterlimit="10"/>
<path d="M329.511 200.33L330.392 207.57" stroke="#F0C2AA" stroke-miterlimit="10"/>
<path d="M338.494 220.106L315.571 221.702L315.884 241.429L330.316 252.571L342.181 243.297" stroke="#F0C2AA" stroke-miterlimit="10"/>
<g clip-path="url(#clip0_2362_48939)">
<path d="M282.346 407.113C283.8 409.428 286.212 414.313 286.517 417.444C286.821 420.576 285.01 427.131 285.01 427.131L272.452 435.642L269.118 435.2L269.712 422.381C269.712 422.381 268.502 425.663 271.226 421.932C273.951 418.201 274.4 418.501 273.944 416.56C273.487 414.62 273.335 410.155 273.335 410.155L272.924 409.473" fill="#9F4817"/>
<path d="M267.557 440.714C265.289 443.246 258.622 442.654 253.173 441.62C247.723 440.579 245.904 439.245 243.781 438.646C241.665 438.054 239.99 434.93 238.476 432.098C236.999 429.341 240.112 419.924 240.272 419.452C240.12 419.804 238.225 424.104 236.2 428.824C234.084 433.739 235.15 433.739 233.331 436.129C231.52 438.511 230.005 437.32 226.976 436.428C225.918 436.121 225.309 435.754 224.936 435.267C223.909 433.919 223.893 432.12 224.091 430.772C225.575 420.658 232.996 408.671 232.996 408.671C234.625 406.042 236.824 402.73 239.8 399.007C241.399 397.014 242.822 395.403 243.887 394.235C243.887 394.235 243.895 394.227 243.918 394.205C235.386 389.897 229.64 381.806 229.64 372.538C229.64 369.759 230.157 367.092 231.109 364.59C226.04 363.788 222.188 359.855 222.188 355.127C222.188 349.816 227.037 345.515 233.019 345.515C237.494 345.515 241.338 347.92 242.989 351.367C247.35 348.962 252.503 347.576 258.036 347.576C262.374 347.576 266.484 348.43 270.16 349.966C271.264 346.834 274.384 344.572 278.068 344.572C282.665 344.572 286.394 348.108 286.394 352.468C286.394 355.42 284.682 357.997 282.148 359.345C284.865 363.174 286.433 367.699 286.433 372.538C286.433 380.997 281.638 388.481 274.316 392.991L283.198 408.619C280.968 414.29 278.73 419.961 276.493 425.633L271.454 425.917C271.705 426.614 272.002 427.416 272.39 428.337C274.514 433.402 269.825 438.174 267.557 440.714Z" fill="#9F4817"/>
<path d="M273.918 411.579C274.183 404.227 269.821 398.108 264.175 397.911C258.529 397.714 253.737 403.514 253.473 410.866C253.208 418.218 257.57 424.338 263.216 424.535C268.862 424.732 273.653 418.931 273.918 411.579Z" fill="#F0C2AA"/>
<path d="M265.571 393.403C272.132 393.403 277.452 388.975 277.452 383.514C277.452 378.052 272.132 373.625 265.571 373.625C259.009 373.625 253.69 378.052 253.69 383.514C253.69 388.975 259.009 393.403 265.571 393.403Z" fill="#F0C2AA"/>
<path d="M256.561 373.168C258.326 373.168 259.757 371.759 259.757 370.021C259.757 368.284 258.326 366.875 256.561 366.875C254.795 366.875 253.364 368.284 253.364 370.021C253.364 371.759 254.795 373.168 256.561 373.168Z" fill="#512E1A"/>
<path d="M274.399 373.34C276.164 373.34 277.595 371.931 277.595 370.194C277.595 368.456 276.164 367.047 274.399 367.047C272.633 367.047 271.202 368.456 271.202 370.194C271.202 371.931 272.633 373.34 274.399 373.34Z" fill="#512E1A"/>
<path d="M256.789 358.289L251.743 358.289L251.743 360.094L256.789 360.094L256.789 358.289Z" fill="#512E1A"/>
<path d="M277.68 358.656L272.794 358.656L272.794 360.462L277.68 360.462L277.68 358.656Z" fill="#512E1A"/>
<path d="M232.86 359.338C234.979 359.338 236.696 357.573 236.696 355.397C236.696 353.221 234.979 351.456 232.86 351.456C230.742 351.456 229.024 353.221 229.024 355.397C229.024 357.573 230.742 359.338 232.86 359.338Z" fill="#512E1A"/>
<path d="M279.865 354.633C281.609 354.633 283.023 353.134 283.023 351.284C283.023 349.435 281.609 347.935 279.865 347.935C278.12 347.935 276.706 349.435 276.706 351.284C276.706 353.134 278.12 354.633 279.865 354.633Z" fill="#512E1A"/>
<path d="M263.768 378.674C263.837 378.539 263.981 378.307 264.21 378.06C266.113 376.082 271.014 377.056 271.326 378.42C271.379 378.652 271.265 378.892 271.029 379.371C270.618 380.225 270.009 380.712 269.378 381.207C268.715 381.723 268.388 381.978 268.008 382.031C267.178 382.151 266.402 381.656 265.96 381.379C265.709 381.222 265.511 381.027 265.374 380.907C264.88 380.465 264.583 380.068 264.514 379.985C264.286 379.686 264.004 379.251 263.761 378.674L263.768 378.674Z" fill="#512E1A"/>
<path d="M268.006 382.03L267.854 387.604C267.725 387.919 267.367 388.668 266.537 389.208C266.431 389.275 265.053 390.151 263.744 389.672C262.58 389.245 261.727 387.844 261.727 387.844" stroke="#512E1A" stroke-miterlimit="10"/>
<path d="M297.278 434.72C296.829 437.402 295.764 437.552 293.496 439.193C291.228 440.834 290.17 440.242 283.503 439.35C276.843 438.466 271.69 435.792 271.69 435.792L279.4 422.666C281.212 422.808 280.61 421.767 283.335 421.617C286.06 421.467 284.85 419.976 289.386 418.628C293.93 417.287 296.502 421.16 298.481 425.326C300.452 429.498 297.728 432.038 297.278 434.72Z" fill="#9F4817"/>
<path d="M269.591 437.065C269.142 439.747 268.076 439.897 265.808 441.538C263.54 443.178 262.482 442.586 255.815 441.695C249.156 440.811 244.003 438.136 244.003 438.136L251.713 425.011C253.524 425.153 252.923 424.112 255.648 423.962C258.372 423.812 257.162 422.321 261.698 420.973C266.242 419.632 268.815 423.505 270.793 427.67C272.765 431.843 270.04 434.383 269.591 437.065Z" fill="#9F4817"/>
<path d="M268.015 381.641L268.167 387.215C268.365 387.597 268.761 388.241 269.484 388.818C270.191 389.38 270.892 389.635 271.303 389.747C272.307 389.949 273.297 389.627 273.845 388.908C274.286 388.331 274.294 387.694 274.286 387.447" stroke="#512E1A" stroke-miterlimit="10"/>
<path d="M290.809 436.616C292.768 436.616 294.356 434.57 294.356 432.046C294.356 429.522 292.768 427.476 290.809 427.476C288.851 427.476 287.263 429.522 287.263 432.046C287.263 434.57 288.851 436.616 290.809 436.616Z" fill="#F0C2AA"/>
<path d="M257.702 430.098C258.651 430.098 259.422 429.008 259.422 427.663C259.422 426.318 258.651 425.228 257.702 425.228C256.752 425.228 255.981 426.318 255.981 427.663C255.981 429.008 256.752 430.098 257.702 430.098Z" fill="#F0C2AA"/>
<path d="M262.739 427.251C263.593 427.251 264.284 426.184 264.284 424.868C264.284 423.553 263.593 422.486 262.739 422.486C261.886 422.486 261.194 423.553 261.194 424.868C261.194 426.184 261.886 427.251 262.739 427.251Z" fill="#F0C2AA"/>
<path d="M267.846 429.94C268.628 429.94 269.262 429.065 269.262 427.985C269.262 426.905 268.628 426.03 267.846 426.03C267.064 426.03 266.431 426.905 266.431 427.985C266.431 429.065 267.064 429.94 267.846 429.94Z" fill="#F0C2AA"/>
<path d="M285.907 427.588C286.845 427.588 287.605 426.632 287.605 425.453C287.605 424.274 286.845 423.318 285.907 423.318C284.97 423.318 284.21 424.274 284.21 425.453C284.21 426.632 284.97 427.588 285.907 427.588Z" fill="#F0C2AA"/>
<path d="M291.137 425.505C291.919 425.505 292.553 424.549 292.553 423.37C292.553 422.191 291.919 421.235 291.137 421.235C290.355 421.235 289.722 422.191 289.722 423.37C289.722 424.549 290.355 425.505 291.137 425.505Z" fill="#F0C2AA"/>
<path d="M294.927 427.633C295.696 427.633 296.32 426.758 296.32 425.678C296.32 424.598 295.696 423.722 294.927 423.722C294.158 423.722 293.534 424.598 293.534 425.678C293.534 426.758 294.158 427.633 294.927 427.633Z" fill="#F0C2AA"/>
<path d="M262.679 439.38C264.638 439.38 266.225 437.334 266.225 434.81C266.225 432.286 264.638 430.24 262.679 430.24C260.72 430.24 259.132 432.286 259.132 434.81C259.132 437.334 260.72 439.38 262.679 439.38Z" fill="#F0C2AA"/>
</g>
<path d="M125.739 466.048L165.408 439.071L178.71 458.674L133.589 476.831L125.739 466.048Z" fill="#F0C2AA"/>
<path d="M278.791 450.736L236.04 428.973L225.312 450.098L272.361 462.422L278.791 450.736Z" fill="#F0C2AA"/>
<path d="M182.037 399.816L210.624 399.266L213.306 415.209L261.367 441.651C261.367 441.651 246.402 442.431 233.215 461.539C220.028 480.64 180.686 468.669 173.916 464.391C167.146 460.113 161.232 447.001 140.983 455.767C140.983 455.767 152.955 432.463 166.786 426.617C180.611 420.771 183.748 415.922 183.748 415.922L182.037 399.816Z" fill="#04804C"/>
<path d="M167.112 401.126L184.244 457.947L198.476 453.744L182.234 401.812L167.112 401.126Z" fill="#F0C2AA"/>
<path d="M210.624 399.266L211.968 450.098L225.311 450.098L222.921 395.728L210.624 399.266Z" fill="#F0C2AA"/>
<path d="M157.804 404.094C157.804 404.094 154.83 371.568 185.4 371.439C215.97 371.31 215.406 371.215 221.341 377.293C227.275 383.37 231.512 397.819 231.512 397.819L206.701 399.531L157.804 404.094Z" fill="#F3EDA7"/>
<path d="M179.546 374.258L179.655 376.315C179.797 378.882 181.95 380.865 184.516 380.803L202.191 380.355C204.962 380.287 207.08 377.863 206.788 375.106L206.014 367.834C205.695 364.819 202.674 362.877 199.794 363.835L182.778 369.498C180.748 370.177 179.424 372.126 179.539 374.258L179.546 374.258Z" fill="#E5AD95"/>
<path d="M182.235 401.813L173.292 372.194L180.897 371.406L188.788 401.201L182.235 401.813Z" fill="#04804C"/>
<path d="M210.625 400.712L213.307 371.895L206.354 371.521L204.066 400.101L210.625 400.712Z" fill="#04804C"/>
<path d="M214.149 465.607L216.478 465.967C217.443 466.116 218.325 465.396 218.38 464.425C218.468 462.728 217.273 461.227 215.596 460.942L208.303 459.693L201.703 458.199C201.003 458.043 200.413 457.581 200.094 456.943L198.477 453.744L184.245 457.948L184.836 463.251C185.074 465.383 186.214 467.304 187.966 468.54L198.26 475.765C198.946 476.247 199.768 476.505 200.61 476.505L201.078 476.505C201.757 476.505 202.307 475.955 202.307 475.276L202.307 473.015" fill="#F0C2AA"/>
<path d="M201.173 474.732L205.817 474.732C206.442 474.732 206.945 474.23 206.945 473.605L206.945 469.647C206.945 469.307 206.788 468.981 206.524 468.764L201.173 464.472" fill="#F0C2AA"/>
<path d="M205.798 472.037L210.612 472.037C211.142 472.037 211.576 471.609 211.576 471.073L211.576 469.613C211.576 467.583 210.653 465.661 209.071 464.391L205.805 461.77" fill="#F0C2AA"/>
<path d="M209.198 469.939L212.933 469.939C214.06 469.939 214.97 469.029 214.97 467.902L214.97 466.496C214.97 465.118 214.345 463.807 213.266 462.945L209.198 459.679" fill="#F0C2AA"/>
<path d="M202.313 474.733C202.313 473.361 201.6 472.085 200.433 471.358L197.228 469.375" stroke="#311402" stroke-miterlimit="10"/>
<path d="M206.951 472.037C206.951 470.665 206.238 469.389 205.07 468.662L199.122 464.982" stroke="#311402" stroke-miterlimit="10"/>
<path d="M211.575 469.939C211.575 468.567 210.863 467.291 209.695 466.564L201.173 462.877" stroke="#311402" stroke-miterlimit="10"/>
<path d="M214.781 467.27C214.781 465.898 214.068 464.622 212.9 463.895L204.066 461.777" stroke="#311402" stroke-miterlimit="10"/>
<path d="M233.06 463.06L234.907 463.991C235.674 464.378 236.374 463.678 236.679 462.884C237.209 461.492 235.96 460.86 234.636 460.168L230.263 457.791L226.576 455.272C226.039 454.953 225.971 453.683 225.876 453.065L225.387 449.962L211.97 450.098L212.085 455.021C212.085 458.307 213.267 461.383 214.394 462.884L219.283 468.282C219.724 468.873 220.342 469.308 221.041 469.532L221.435 469.661C221.999 469.844 222.61 469.532 222.793 468.968L223.404 467.08" fill="#F0C2AA"/>
<path d="M221.999 468.194L225.876 469.443C226.399 469.613 226.956 469.328 227.119 468.805L228.185 465.498C228.28 465.213 228.232 464.9 228.069 464.649L224.756 459.624" fill="#F0C2AA"/>
<path d="M226.581 467.195L230.594 468.486C231.035 468.628 231.511 468.384 231.653 467.942L232.047 466.727C232.59 465.029 232.339 463.182 231.361 461.695L229.338 458.626" fill="#F0C2AA"/>
<path d="M229.977 466.353L233.094 467.358C234.031 467.664 235.043 467.148 235.342 466.204L235.722 465.029C236.095 463.875 235.919 462.619 235.253 461.607L232.327 459.258" fill="#F0C2AA"/>
<path d="M222.949 468.499C223.316 467.351 223.071 466.095 222.29 465.179L220.151 462.659" stroke="#311402" stroke-miterlimit="10"/>
<path d="M227.54 467.502C227.907 466.354 227.662 465.098 226.881 464.181L222.909 459.51" stroke="#311402" stroke-miterlimit="10"/>
<path d="M231.961 466.992C232.328 465.844 232.083 464.588 231.303 463.671L225.185 458.307" stroke="#311402" stroke-miterlimit="10"/>
<path d="M235.354 465.627C235.721 464.479 235.476 463.223 234.695 462.306L227.892 458.164" stroke="#311402" stroke-miterlimit="10"/>
<path d="M212.085 453.744L210.89 456.657C210.476 457.669 210.679 458.823 211.42 459.631L214.699 463.23C215.473 464.079 216.804 464.072 217.572 463.217L217.843 462.911C218.42 462.266 218.42 461.288 217.843 460.643L215.399 457.947" fill="#F0C2AA"/>
<path d="M218.129 464.779L218.4 464.473C218.977 463.828 218.977 462.85 218.4 462.205L215.956 459.509" stroke="#311402" stroke-miterlimit="10"/>
<path d="M124.77 464.065L123.874 462.008" stroke="#232323" stroke-miterlimit="10"/>
<path d="M134.283 477.129L124.383 481.638C122.814 482.317 120.988 481.815 119.983 480.429L108.426 458.287C108.208 457.791 108.412 457.214 108.887 456.969L110.829 455.985C114.68 454.029 119.385 455.516 121.402 459.332L122.712 461.811C122.875 462.123 123.256 462.259 123.588 462.123L126.209 461.03C126.467 460.921 126.759 461.03 126.882 461.288L134.283 477.123L134.283 477.129Z" fill="#E4277B"/>
<path d="M110.83 455.985L108.888 456.969C108.405 457.214 108.202 457.791 108.426 458.287L119.983 480.429C120.947 481.76 122.685 482.276 124.213 481.699L111.088 456.066L110.83 455.985Z" fill="#1F2023"/>
<path d="M118.692 460.894C119.725 460.473 120.58 459.828 121.246 459.054C119.147 455.448 114.584 454.076 110.829 455.985L109.702 456.555C109.926 457.322 110.293 458.076 110.823 458.769C112.649 461.159 115.908 462.041 118.692 460.894Z" fill="#F6BEC1"/>
<path d="M129.027 466.177L127.893 463.746C127.663 463.257 127.085 463.047 126.596 463.264L123.262 464.751C122.203 465.226 120.954 464.771 120.445 463.726L119.46 461.716" stroke="#232323" stroke-miterlimit="10"/>
<path d="M122.612 461.62L120.038 462.917" stroke="#232323" stroke-miterlimit="10"/>
<path d="M279.214 449.025L279.845 446.873" stroke="#232323" stroke-miterlimit="10"/>
<path d="M271.426 463.182L281.815 466.408C283.458 466.883 285.21 466.157 286.025 464.656L294.703 441.236C294.859 440.72 294.58 440.17 294.078 439.987L292.027 439.254C287.967 437.794 283.485 439.871 281.957 443.912L280.966 446.54C280.844 446.872 280.484 447.056 280.138 446.96L277.401 446.2C277.129 446.125 276.851 446.275 276.77 446.54L271.419 463.182L271.426 463.182Z" fill="#E4277B"/>
<path d="M292.019 439.254L294.07 439.987C294.579 440.171 294.851 440.721 294.695 441.237L286.017 464.656C285.229 466.103 283.572 466.829 281.983 466.449L291.775 439.363L292.019 439.247L292.019 439.254Z" fill="#1F2023"/>
<path d="M284.843 445.114C283.77 444.822 282.833 444.292 282.079 443.606C283.702 439.763 288.061 437.828 292.027 439.247L293.215 439.675C293.086 440.469 292.821 441.257 292.38 442.011C290.866 444.611 287.749 445.895 284.843 445.114Z" fill="#F6BEC1"/>
<path d="M275.255 451.653L276.077 449.1C276.239 448.59 276.789 448.298 277.299 448.455L280.796 449.507C281.909 449.84 283.091 449.235 283.464 448.135L284.191 446.017" stroke="#232323" stroke-miterlimit="10"/>
<path d="M281.048 446.329L283.764 447.287" stroke="#232323" stroke-miterlimit="10"/>
<path d="M129 400.699C141.052 365.111 119.629 343.865 119.629 343.865L129 327.751L129 280.464C129 280.464 74.5147 295.566 93.0249 341.393C110.129 383.737 112.778 412.595 112.907 425.503C112.927 427.282 115.324 427.826 116.118 426.244L128.993 400.706L129 400.699Z" fill="#512E1A"/>
<path d="M208.03 373.286C244.36 362.841 265.442 325.265 255.118 289.357C244.795 253.449 206.975 232.807 170.645 243.252C134.315 253.696 113.233 291.273 123.557 327.181C133.88 363.089 171.7 383.731 208.03 373.286Z" fill="#F0C2AA"/>
<path d="M132.501 345.386C133.267 336.719 126.184 329.013 116.681 328.173C107.178 327.333 98.8527 333.678 98.0869 342.345C97.321 351.011 104.404 358.718 113.907 359.557C123.411 360.397 131.736 354.052 132.501 345.386Z" fill="#F0C2AA"/>
<path d="M111.312 335.723C111.312 335.723 121.904 336.728 122.38 347.056" stroke="#311402" stroke-miterlimit="10"/>
<path d="M276.501 336.451C284.523 331.288 287.211 321.172 282.503 313.856C277.795 306.539 267.474 304.793 259.452 309.955C251.429 315.118 248.741 325.234 253.449 332.551C258.157 339.867 268.478 341.613 276.501 336.451Z" fill="#F0C2AA"/>
<path d="M267.718 314.144C267.718 314.144 258.809 319.963 263.189 329.327" stroke="#311402" stroke-miterlimit="10"/>
<path d="M202.294 301.914C201.873 297.188 204.928 293.06 209.111 292.687C213.294 292.313 217.028 295.844 217.449 300.563" fill="#DA8769"/>
<path d="M179.329 318.039C179.914 311.408 173.27 305.404 164.488 304.628C155.705 303.852 148.111 308.598 147.525 315.228C146.939 321.859 153.583 327.863 162.366 328.639C171.148 329.415 178.743 324.669 179.329 318.039Z" fill="#E79879"/>
<path d="M179.007 298.85C184.038 297.988 187.327 292.681 186.353 286.996C185.379 281.311 180.512 277.401 175.481 278.263C170.45 279.124 167.161 284.432 168.135 290.116C169.109 295.801 173.977 299.711 179.007 298.85Z" fill="#060000"/>
<path d="M249.852 323.18C255.11 319.797 257.302 313.839 254.749 309.871C252.196 305.904 245.865 305.43 240.608 308.813C235.351 312.196 233.158 318.154 235.711 322.122C238.264 326.089 244.595 326.563 249.852 323.18Z" fill="#E79879"/>
<path d="M179.3 300.568C184.331 299.707 187.62 294.4 186.646 288.715C185.672 283.03 180.805 279.12 175.774 279.981C170.743 280.843 167.454 286.15 168.428 291.835C169.402 297.52 174.27 301.43 179.3 300.568Z" fill="#FCFFF8"/>
<path d="M229.113 299.333C234.143 298.471 237.432 293.164 236.458 287.479C235.485 281.794 230.617 277.884 225.586 278.746C220.556 279.608 217.267 284.915 218.241 290.6C219.215 296.285 224.082 300.195 229.113 299.333Z" fill="#060000"/>
<path d="M181.269 294.625C184.419 293.849 186.238 290.241 185.332 286.567C184.426 282.893 181.138 280.544 177.989 281.321C174.839 282.097 173.02 285.705 173.926 289.379C174.832 293.053 178.12 295.402 181.269 294.625Z" fill="#311402"/>
<path d="M229.226 300.378C234.257 299.516 237.546 294.209 236.572 288.524C235.598 282.839 230.73 278.929 225.7 279.791C220.669 280.653 217.38 285.96 218.354 291.645C219.328 297.33 224.195 301.24 229.226 300.378Z" fill="#FCFFF8"/>
<path d="M230.06 294.768C233.289 294.452 235.607 291.143 235.239 287.377C234.87 283.611 231.954 280.814 228.725 281.13C225.497 281.446 223.179 284.755 223.547 288.521C223.916 292.287 226.832 295.084 230.06 294.768Z" fill="#311402"/>
<path d="M210.665 314.286C199.332 314.307 192.386 309.234 186.546 308.562C178.493 307.632 194.783 330.04 211.596 330.922C218.739 331.296 226.439 325.348 228.266 321.375C229.549 318.584 234.513 309.893 232.381 309.486C228.884 308.827 223.003 314.266 210.659 314.286L210.665 314.286Z" fill="#0A0C09"/>
<path d="M223.811 311.991C220.49 313.152 216.233 314.279 210.637 314.293C204.974 314.306 200.411 313.043 196.534 311.699C198.334 314.354 202.808 319.535 210.237 319.107C219.499 318.571 221.862 316.16 223.817 311.991L223.811 311.991Z" fill="#FCFFF8"/>
<path d="M211.603 330.93C214.421 331.079 217.321 330.23 219.921 328.92C217.809 327.358 214.238 325.049 210.014 323.712C205.2 322.19 198.077 322.808 194.288 323.311C199.17 327.29 205.356 330.597 211.61 330.923L211.603 330.93Z" fill="#F49F8A"/>
<path d="M211.596 330.922C203.706 330.508 195.931 325.355 190.729 320.099C190.729 320.106 197.465 334.107 210.17 335.343C219.276 336.232 224.484 328.281 226.711 323.698C223.642 327.31 217.435 331.228 211.596 330.922Z" fill="#EAB198"/>
<path d="M210.666 314.286C217.816 314.273 222.787 312.446 226.392 311.034C219.602 310.715 203.618 311.074 195.456 311.299C199.571 312.786 204.46 314.3 210.666 314.286Z" fill="#EAB198"/>
<path d="M173.937 271.895C178.031 268.846 184.135 270.129 187.585 274.753" stroke="#060000" stroke-miterlimit="10"/>
<path d="M227.465 270.903C222.97 268.493 217.11 270.666 214.393 275.752" stroke="#060000" stroke-miterlimit="10"/>
<path d="M147.706 254.77C126.127 271.311 115.677 299.721 123.567 327.16C124.382 330.005 125.373 332.749 126.521 335.39C162.781 322.041 147.713 254.777 147.706 254.763L147.706 254.77Z" fill="#512E1A"/>
<path d="M170.657 243.24C152.045 248.59 137.432 261.071 128.999 276.79C136.801 276.098 155.814 273.151 166.963 260.65C173.733 253.058 177.182 246.356 178.941 241.393C176.178 241.834 173.407 242.445 170.65 243.24L170.657 243.24Z" fill="#512E1A"/>
<path d="M242.791 265.628C226.793 245.943 200.271 236.212 174.054 242.364C180.81 250.458 200.298 267.671 242.791 265.628Z" fill="#512E1A"/>
<defs>
<clipPath id="clip0_2362_48939">
<rect width="77" height="98" fill="white" transform="translate(222.188 344.572)"/>
</clipPath>
</defs>
</svg>
