<svg width="1441" height="1987" viewBox="0 0 1441 1987" fill="none" xmlns="http://www.w3.org/2000/svg">
<g clip-path="url(#clip0_3365_7711)">
<path opacity="0.5" d="M1402.51 1568.79C1401.91 1568.46 1396.36 1565.4 1387.09 1562.07C1380.13 1559.58 1371.07 1556.92 1360.43 1555.19C1352.44 1553.89 1343.56 1553.11 1334.02 1553.35C1319.71 1553.72 1303.9 1556.39 1287.73 1562.99C1271.56 1569.57 1255.11 1580.09 1239.57 1595.65C1222.13 1613.08 1205.83 1636.75 1191.6 1668.3C1190.24 1671.31 1189.12 1674.51 1188.15 1677.93C1186.48 1683.91 1185.31 1690.55 1184.73 1697.69C1184.31 1703.04 1184.23 1708.63 1184.61 1714.35C1185.18 1722.93 1186.77 1731.8 1189.94 1740.45C1191.53 1744.77 1193.53 1749.03 1196.02 1753.11C1198.52 1757.19 1201.5 1761.09 1205.05 1764.64C1210.27 1769.85 1216.68 1774.27 1224.12 1777.34C1231.55 1780.41 1239.91 1782.15 1249.02 1782.44C1258.07 1782.73 1267 1780.86 1275.26 1777.33C1283.53 1773.79 1291.18 1768.58 1297.78 1761.98C1305.41 1754.36 1311.65 1744.85 1315.71 1733.86C1318.75 1725.63 1320.55 1716.58 1320.77 1706.99C1321.13 1692.6 1317.94 1677.06 1310.6 1661.2C1303.26 1645.34 1291.81 1629.14 1275.6 1612.92C1262.5 1599.83 1246.29 1586.71 1226.47 1573.71L1226.31 1573.61L1226.2 1573.54C1225.58 1573.15 1219.73 1569.53 1209.85 1565.49C1202.43 1562.46 1192.74 1559.18 1181.25 1556.93C1172.63 1555.24 1163 1554.11 1152.61 1554.13C1137.02 1554.14 1119.68 1556.75 1101.75 1563.75C1083.81 1570.74 1065.37 1582.11 1047.52 1599.18C1041.13 1605.28 1040.9 1615.42 1047.02 1621.8C1053.12 1628.19 1063.25 1628.42 1069.64 1622.3C1078.56 1613.78 1087.38 1607.18 1095.98 1602.07C1111.02 1593.16 1125.4 1588.77 1138.77 1587.03C1148.79 1585.72 1158.24 1585.93 1166.82 1586.99C1179.68 1588.58 1190.58 1592.14 1198.12 1595.25C1201.88 1596.81 1204.81 1598.25 1206.72 1599.25C1207.67 1599.76 1208.36 1600.15 1208.79 1600.39C1209 1600.52 1209.14 1600.6 1209.21 1600.65L1209.25 1600.69L1211.4 1597.2L1209.25 1600.67L1209.26 1600.68L1211.4 1597.2L1209.25 1600.67L1213.84 1593.29L1209.24 1600.66L1213.83 1593.29L1209.23 1600.65L1209.26 1600.68L1216.96 1588.26L1209.2 1600.63L1209.27 1600.67L1216.96 1588.26L1209.2 1600.63L1217.7 1587.08L1208.92 1600.46C1227.18 1612.43 1241.67 1624.24 1252.98 1635.54C1265.42 1647.99 1273.99 1659.81 1279.59 1670.63C1283.8 1678.74 1286.34 1686.29 1287.67 1693.2C1289.64 1703.57 1288.9 1712.55 1286.55 1720.25C1284.17 1727.95 1280.11 1734.4 1275.16 1739.35C1271.36 1743.15 1267.03 1746.05 1262.69 1747.9C1258.34 1749.76 1254 1750.58 1250.06 1750.45C1244.33 1750.26 1239.91 1749.22 1236.37 1747.77C1232.82 1746.29 1230.09 1744.39 1227.7 1742.01C1226.05 1740.36 1224.58 1738.48 1223.28 1736.33C1221 1732.57 1219.24 1727.98 1218.08 1722.93C1217.21 1719.15 1216.68 1715.11 1216.47 1711.06C1216.16 1704.99 1216.57 1698.89 1217.43 1693.62C1217.86 1690.98 1218.4 1688.55 1218.99 1686.48C1219.57 1684.4 1220.22 1682.66 1220.77 1681.45C1233.71 1652.77 1247.96 1632.51 1262.19 1618.28C1269.72 1610.75 1277.26 1604.9 1284.67 1600.32C1297.66 1592.34 1310.34 1588.24 1322.31 1586.43C1331.28 1585.08 1339.85 1585.05 1347.7 1585.8C1359.47 1586.91 1369.57 1589.77 1376.59 1592.32C1380.1 1593.6 1382.84 1594.79 1384.62 1595.62C1385.52 1596.03 1386.17 1596.36 1386.56 1596.57C1386.76 1596.67 1386.89 1596.74 1386.95 1596.77L1386.99 1596.81L1389.19 1592.78L1386.98 1596.79L1386.99 1596.8L1389.19 1592.78L1386.98 1596.79L1391.66 1588.3L1386.97 1596.79L1387 1596.82L1394.14 1583.84L1386.94 1596.78L1387.01 1596.82L1394.15 1583.85L1386.95 1596.79C1394.67 1601.08 1404.41 1598.31 1408.71 1590.58C1413.01 1582.86 1410.23 1573.13 1402.51 1568.83L1402.51 1568.79Z" fill="#7FBB53"/>
<path opacity="0.5" d="M1571.13 1501.53L1576.11 1514.47L1571.14 1501.52L1571.09 1501.54C1570.43 1501.79 1563.32 1504.47 1552.51 1507.68C1544.4 1510.09 1534.21 1512.79 1523.11 1515C1514.8 1516.66 1505.99 1518.05 1497.22 1518.85C1490.65 1519.45 1484.09 1519.71 1477.82 1519.55C1468.4 1519.31 1459.63 1518.06 1452.29 1515.69C1448.61 1514.52 1445.3 1513.08 1442.37 1511.39C1439.44 1509.7 1436.89 1507.78 1434.67 1505.55C1431.98 1502.87 1429.73 1499.73 1427.88 1495.8C1426.03 1491.86 1424.6 1487.07 1423.82 1481.12C1422.93 1474.26 1422.8 1468.39 1423.2 1463.33C1423.49 1459.54 1424.08 1456.19 1424.89 1453.19C1426.1 1448.7 1427.78 1444.96 1429.86 1441.55C1431.94 1438.15 1434.44 1435.08 1437.37 1432.15C1440.03 1429.5 1443.03 1426.96 1446.3 1424.47C1451.19 1420.74 1456.67 1417.12 1462.31 1413.21C1467.93 1409.28 1473.74 1405.06 1479.14 1399.68C1482.57 1396.25 1485.82 1392.32 1488.53 1387.71C1490.55 1384.26 1492.24 1380.45 1493.43 1376.34C1495.22 1370.16 1495.82 1363.4 1495.19 1356.35C1494.58 1349.29 1492.79 1341.93 1489.88 1334.06C1488.48 1330.26 1486.72 1326.68 1484.61 1323.38C1482.51 1320.08 1480.08 1317.07 1477.39 1314.38C1473.78 1310.77 1469.72 1307.76 1465.44 1305.29C1461.42 1302.98 1457.19 1301.13 1452.85 1299.62C1444.69 1296.82 1436.09 1295.23 1427.16 1294.26C1411.54 1292.58 1394.8 1292.81 1377.66 1293.24C1364.82 1293.56 1351.76 1294.02 1338.99 1293.99C1329.42 1293.97 1320.02 1293.69 1311 1292.92C1297.48 1291.77 1284.89 1289.5 1273.98 1285.62C1268.52 1283.68 1263.47 1281.34 1258.85 1278.56C1254.23 1275.77 1250.03 1272.54 1246.22 1268.73C1242.64 1265.15 1239.4 1261.06 1236.48 1256.26C1233.56 1251.45 1230.98 1245.94 1228.83 1239.51C1225.6 1229.94 1223.99 1221.34 1223.57 1213.58C1223.25 1207.76 1223.59 1202.39 1224.47 1197.38C1225.8 1189.87 1228.32 1183.12 1231.85 1176.82C1235.38 1170.53 1239.94 1164.7 1245.33 1159.31C1254.08 1150.57 1265.02 1143.02 1276.6 1136.81C1293.97 1127.48 1312.69 1121.14 1326.92 1117.28C1334.03 1115.34 1340.03 1114.01 1344.18 1113.17C1346.26 1112.74 1347.88 1112.45 1348.95 1112.26C1349.48 1112.17 1349.88 1112.11 1350.14 1112.06C1350.26 1112.04 1350.35 1112.04 1350.41 1112.02L1350.46 1112.01L1349.14 1103.39L1350.45 1112.02L1348.05 1096.2L1350.44 1112.02L1348.05 1096.2L1350.43 1112.01C1359.17 1110.7 1365.19 1102.55 1363.87 1093.81C1362.55 1085.07 1354.4 1079.05 1345.66 1080.36C1345.05 1080.47 1325.94 1083.35 1301.23 1091.64C1288.86 1095.79 1275.09 1101.29 1261.46 1108.61C1247.84 1115.93 1234.34 1125.05 1222.7 1136.67C1216.35 1143.03 1210.55 1150.16 1205.71 1158.12C1202.08 1164.09 1199 1170.54 1196.65 1177.44C1193.12 1187.79 1191.25 1199.15 1191.46 1211.26C1191.68 1223.37 1193.96 1236.21 1198.5 1249.7C1201.35 1258.18 1204.91 1265.9 1209.13 1272.85C1213.34 1279.79 1218.21 1285.96 1223.59 1291.34C1232.45 1300.2 1242.66 1306.89 1253.46 1311.8C1262.92 1316.11 1272.84 1319.11 1282.96 1321.21C1300.68 1324.88 1319.02 1325.87 1337.02 1325.97C1350.53 1326.04 1363.84 1325.6 1376.49 1325.26C1385.97 1325.02 1395.09 1324.84 1403.57 1324.96C1409.92 1325.05 1415.92 1325.32 1421.44 1325.83C1429.7 1326.59 1436.86 1327.94 1442.44 1329.87C1445.24 1330.84 1447.64 1331.92 1449.67 1333.12C1451.7 1334.31 1453.36 1335.59 1454.77 1336.99C1455.85 1338.07 1456.78 1339.23 1457.63 1340.55C1458.47 1341.87 1459.22 1343.37 1459.87 1345.13C1461.78 1350.26 1462.78 1354.49 1463.19 1357.88C1463.51 1360.43 1463.49 1362.51 1463.3 1364.27C1463.15 1365.6 1462.91 1366.74 1462.58 1367.8C1462.07 1369.39 1461.39 1370.83 1460.42 1372.34C1459.44 1373.83 1458.16 1375.38 1456.52 1377.02C1454.49 1379.05 1451.9 1381.2 1448.88 1383.45C1444.35 1386.84 1438.82 1390.44 1432.92 1394.6C1427.02 1398.77 1420.73 1403.53 1414.76 1409.49C1410.86 1413.39 1407.12 1417.8 1403.8 1422.87C1401.32 1426.67 1399.08 1430.83 1397.21 1435.35C1394.4 1442.13 1392.45 1449.69 1391.56 1457.99C1390.66 1466.3 1390.82 1475.33 1392.1 1485.19C1393.24 1494.03 1395.53 1502.11 1398.91 1509.34C1402.29 1516.57 1406.78 1522.89 1412.05 1528.15C1419.07 1535.17 1427.37 1540.26 1436.09 1543.81C1443.74 1546.92 1451.74 1548.89 1459.85 1550.07C1474.04 1552.15 1488.62 1551.86 1502.63 1550.43C1523.62 1548.29 1543.38 1543.55 1558.06 1539.35C1572.74 1535.14 1582.3 1531.47 1582.64 1531.34C1590.89 1528.17 1595 1518.91 1591.83 1510.66C1588.65 1502.41 1579.4 1498.3 1571.14 1501.47L1571.13 1501.53Z" fill="#7FBB53"/>
<path opacity="0.5" d="M1261.25 1511.98C1261.65 1511.55 1264.4 1508.6 1268.13 1503.42C1270.92 1499.52 1274.27 1494.38 1277.55 1488.08C1282.48 1478.64 1287.31 1466.57 1289.79 1452.34C1292.28 1438.13 1292.34 1421.69 1287.77 1404.14C1285.04 1393.62 1280.93 1384.25 1276.01 1376.08C1271.1 1367.9 1265.38 1360.9 1259.45 1354.96C1253.52 1349.03 1247.35 1344.15 1241.46 1340.16C1232.62 1334.16 1224.37 1330.14 1218.22 1327.55C1212.06 1324.97 1207.98 1323.82 1207.44 1323.67C1198.92 1321.33 1190.11 1326.34 1187.77 1334.86C1185.43 1343.38 1190.44 1352.18 1198.97 1354.52C1199.62 1354.72 1205.11 1356.4 1212.41 1360.1C1219.71 1363.8 1228.78 1369.53 1236.83 1377.6C1241.13 1381.9 1245.15 1386.85 1248.58 1392.56C1252.01 1398.27 1254.86 1404.74 1256.8 1412.2C1259.75 1423.59 1260.02 1433.97 1258.8 1443.38C1257.87 1450.43 1256.1 1456.93 1253.92 1462.71C1250.65 1471.4 1246.49 1478.47 1243.19 1483.25C1241.55 1485.64 1240.14 1487.45 1239.19 1488.61C1238.72 1489.19 1238.36 1489.6 1238.15 1489.84C1238.03 1489.96 1237.97 1490.03 1237.95 1490.07L1237.93 1490.08L1239.6 1491.63L1237.94 1490.08L1244.57 1496.27L1237.96 1490.06L1237.93 1490.08L1244.57 1496.28L1237.95 1490.07L1237.92 1490.1L1248.94 1500.41L1237.97 1490.05L1237.92 1490.1L1248.94 1500.41L1237.97 1490.05C1231.9 1496.47 1232.19 1506.6 1238.61 1512.67C1245.03 1518.74 1255.17 1518.45 1261.23 1512.03L1261.25 1511.98Z" fill="#7FBB53"/>
<path opacity="0.5" d="M1090.47 1443.4L1000.43 1381.8L1065.75 1350.12C1071.13 1347.51 1074.59 1342.14 1074.76 1336.17C1074.93 1330.2 1071.76 1324.65 1066.55 1321.74L975.513 1271.06L1031.23 1215.35C1034.85 1211.72 1036.53 1206.52 1035.7 1201.45C1034.87 1196.38 1031.63 1191.99 1027.04 1189.71L928.271 1140.59C920.358 1136.66 910.756 1139.88 906.824 1147.8C902.886 1155.71 906.11 1165.31 914.03 1169.25L992.872 1208.45L937.902 1263.42C934.345 1266.98 932.676 1271.97 933.369 1276.95C934.062 1281.92 937.039 1286.27 941.43 1288.71L1024.12 1334.74L961.654 1365.04C956.513 1367.53 953.105 1372.54 952.68 1378.25C952.256 1383.95 954.879 1389.42 959.603 1392.64L1072.4 1469.82C1079.7 1474.81 1089.65 1472.94 1094.64 1465.65C1099.63 1458.35 1097.76 1448.4 1090.47 1443.41V1443.4Z" fill="#7FBB53"/>
<path opacity="0.5" d="M1425.51 1651.24C1418.78 1644.51 1407.87 1644.51 1401.13 1651.24C1394.4 1657.97 1394.4 1668.89 1401.13 1675.62C1407.87 1682.35 1418.78 1682.35 1425.51 1675.62C1432.25 1668.89 1432.25 1657.97 1425.51 1651.24Z" fill="#7FBB53"/>
<path opacity="0.5" d="M1199.48 1422.6C1192.74 1415.87 1181.83 1415.87 1175.09 1422.6C1168.36 1429.34 1168.36 1440.25 1175.09 1446.99C1181.83 1453.72 1192.74 1453.72 1199.48 1446.99C1206.21 1440.25 1206.21 1429.34 1199.48 1422.6Z" fill="#7FBB53"/>
<path opacity="0.5" d="M952.341 1805.59C952.744 1805.16 955.494 1802.21 959.221 1797.03C962.014 1793.14 965.359 1787.99 968.647 1781.69C973.575 1772.25 978.405 1760.18 980.887 1745.95C983.376 1731.74 983.432 1715.3 978.864 1697.75C976.135 1687.23 972.027 1677.86 967.105 1669.69C962.191 1661.51 956.477 1654.51 950.545 1648.57C944.612 1642.64 938.446 1637.76 932.556 1633.77C923.717 1627.77 915.465 1623.75 909.313 1621.16C903.154 1618.58 899.074 1617.43 898.53 1617.28C890.009 1614.94 881.206 1619.95 878.865 1628.47C876.525 1636.99 881.538 1645.8 890.059 1648.14C890.716 1648.33 896.203 1650.01 903.501 1653.72C910.805 1657.41 919.87 1663.14 927.924 1671.21C932.224 1675.51 936.247 1680.47 939.676 1686.17C943.099 1691.88 945.956 1698.35 947.893 1705.81C950.842 1717.21 951.117 1727.58 949.894 1736.99C948.968 1744.04 947.193 1750.54 945.015 1756.32C941.748 1765.01 937.583 1772.08 934.288 1776.87C932.648 1779.26 931.234 1781.07 930.286 1782.22C929.812 1782.8 929.452 1783.21 929.24 1783.46C929.126 1783.57 929.063 1783.65 929.042 1783.68L929.027 1783.7L930.696 1785.24L929.034 1783.69L935.667 1789.88L929.049 1783.67L929.027 1783.7L935.66 1789.89L929.042 1783.68L929.013 1783.71L940.03 1794.02L929.063 1783.66L929.013 1783.71L940.03 1794.02L929.063 1783.66C922.996 1790.08 923.286 1800.21 929.706 1806.28C936.127 1812.35 946.26 1812.06 952.327 1805.64L952.341 1805.59Z" fill="#7FBB53"/>
<path opacity="0.5" d="M621.115 1488.73C620.802 1488.23 618.666 1484.81 614.624 1479.87C611.584 1476.16 607.484 1471.6 602.249 1466.79C594.406 1459.59 583.997 1451.8 570.891 1445.72C557.806 1439.64 541.948 1435.33 523.813 1435.2C512.943 1435.11 502.83 1436.65 493.661 1439.29C484.486 1441.92 476.246 1445.63 468.98 1449.82C461.714 1454.02 455.405 1458.71 450.022 1463.37C441.942 1470.35 435.92 1477.28 431.828 1482.55C427.741 1487.84 425.572 1491.48 425.287 1491.97C420.821 1499.59 423.385 1509.39 431.01 1513.86C438.634 1518.32 448.435 1515.76 452.902 1508.13C453.256 1507.55 456.302 1502.68 461.77 1496.59C467.232 1490.5 475.111 1483.22 484.989 1477.53C490.254 1474.49 496.083 1471.89 502.483 1470.05C508.887 1468.23 515.869 1467.14 523.584 1467.2C535.35 1467.3 545.441 1469.72 554.215 1473.34C560.785 1476.06 566.603 1479.45 571.626 1483.05C579.168 1488.45 584.927 1494.31 588.691 1498.73C590.575 1500.93 591.958 1502.77 592.833 1503.98C593.263 1504.59 593.573 1505.05 593.75 1505.31C593.83 1505.45 593.889 1505.53 593.918 1505.56L593.928 1505.58L595.849 1504.37L593.923 1505.57L601.623 1500.77L593.913 1505.55L593.928 1505.58L601.628 1500.78L593.918 1505.56L593.938 1505.6L606.747 1497.62L593.903 1505.54L593.938 1505.6L606.747 1497.62L593.903 1505.54C598.534 1513.06 608.397 1515.4 615.919 1510.77C623.441 1506.14 625.783 1496.27 621.152 1488.75L621.115 1488.73Z" fill="#7FBB53"/>
<path opacity="0.5" d="M890.569 1716.22C883.836 1709.48 872.92 1709.48 866.188 1716.22C859.455 1722.95 859.455 1733.86 866.188 1740.6C872.92 1747.33 883.836 1747.33 890.569 1740.6C897.301 1733.86 897.301 1722.95 890.569 1716.22Z" fill="#7FBB53"/>
<path opacity="0.5" d="M1310.92 1167.69C1304.19 1160.95 1293.27 1160.95 1286.54 1167.69C1279.81 1174.42 1279.81 1185.33 1286.54 1192.07C1293.27 1198.8 1304.19 1198.8 1310.92 1192.07C1317.66 1185.33 1317.66 1174.42 1310.92 1167.69Z" fill="#7FBB53"/>
<path opacity="0.5" d="M440.421 764.547C439.736 764.495 433.413 763.997 423.837 761.692C416.657 759.962 407.62 757.208 397.774 752.814C390.391 749.513 382.541 745.288 374.694 739.846C362.935 731.692 351.187 720.778 341.292 706.386C331.389 692.006 323.418 674.182 318.967 652.647C313.964 628.5 313.334 599.771 318.753 565.591C319.272 562.328 320.09 559.033 321.165 555.645C323.045 549.731 325.713 543.531 329.151 537.253C331.731 532.552 334.736 527.834 338.19 523.258C343.377 516.403 349.578 509.859 356.98 504.374C360.681 501.636 364.685 499.173 369.011 497.133C373.337 495.093 377.974 493.468 382.89 492.45C390.106 490.955 397.893 490.782 405.795 492.301C413.696 493.809 421.639 496.953 429.404 501.707C437.135 506.437 443.569 512.896 448.541 520.384C453.505 527.882 457.043 536.432 458.938 545.578C461.124 556.134 461.122 567.511 458.482 578.924C456.505 587.473 453.038 596.024 447.963 604.162C440.365 616.388 429.162 627.624 414.324 636.846C399.478 646.079 381.016 653.335 358.563 657.986C340.428 661.743 319.675 663.806 295.98 663.792L295.785 663.792L295.652 663.789C294.924 663.776 288.053 663.586 277.57 661.54C269.705 660.003 259.804 657.418 248.962 652.995C240.829 649.676 232.168 645.333 223.488 639.614C210.469 631.047 197.404 619.344 186.258 603.649C175.105 587.965 165.931 568.328 160.384 544.263C158.397 535.657 163.764 527.059 172.382 525.08C180.988 523.093 189.586 528.461 191.565 537.078C194.342 549.105 198.091 559.46 202.475 568.447C210.161 584.155 219.766 595.717 229.983 604.517C237.64 611.111 245.653 616.12 253.41 619.946C265.034 625.677 276.095 628.686 284.103 630.223C288.101 630.988 291.34 631.39 293.487 631.598C294.561 631.703 295.357 631.752 295.844 631.784C296.091 631.794 296.256 631.801 296.338 631.804L296.397 631.792L296.276 635.892L296.379 631.806L296.399 631.802L296.276 635.892L296.379 631.806L296.167 640.49L296.37 631.808L296.157 640.492L296.36 631.81L296.399 631.802L296.015 646.414L296.319 631.808L296.401 631.812L296.015 646.414L296.319 631.808L295.987 647.808L295.991 631.805C317.827 631.816 336.416 629.905 352.074 626.661C369.308 623.091 382.961 617.914 393.582 611.946C401.551 607.476 407.824 602.561 412.722 597.513C420.065 589.926 424.381 582.016 426.64 574.287C428.877 566.552 429.025 558.934 427.605 552.079C426.514 546.811 424.488 542.012 421.876 538.08C419.262 534.139 416.084 531.07 412.718 529.02C407.82 526.031 403.565 524.472 399.798 523.741C396.026 523.031 392.695 523.119 389.393 523.793C387.111 524.265 384.851 525.04 382.584 526.122C378.613 528.007 374.622 530.876 370.882 534.459C368.078 537.144 365.418 540.228 363.022 543.502C359.422 548.404 356.419 553.724 354.244 558.606C353.156 561.048 352.28 563.374 351.633 565.428C350.977 567.484 350.566 569.295 350.357 570.604C345.428 601.68 346.218 626.445 350.299 646.146C352.46 656.575 355.546 665.607 359.234 673.503C365.709 687.306 374.049 697.691 383.065 705.77C389.824 711.824 396.972 716.553 403.944 720.235C414.384 725.772 424.402 728.926 431.672 730.647C435.302 731.508 438.246 732.012 440.195 732.302C441.165 732.449 441.897 732.532 442.335 732.574C442.555 732.6 442.7 732.611 442.772 732.616L442.821 732.606L442.451 737.176L442.804 732.62L442.823 732.616L442.451 737.176L442.804 732.62L442.058 742.282L442.802 732.61L442.841 732.602L441.683 747.374L442.77 732.606L442.853 732.61L441.693 747.372L442.78 732.604C451.594 733.25 458.207 740.918 457.562 749.732C456.916 758.546 449.248 765.159 440.434 764.513L440.421 764.547Z" fill="#7FBB53"/>
<path opacity="0.5" d="M291.16 734.478C291.26 735.06 291.94 739.035 292.21 745.413C292.406 750.203 292.379 756.335 291.669 763.407C290.606 774.002 288.016 786.743 282.277 800.002C276.555 813.249 267.581 827.015 254.128 839.177C246.071 846.473 237.493 852.049 228.893 856.179C220.294 860.32 211.675 863.035 203.46 864.736C195.244 866.438 187.412 867.132 180.295 867.237C169.616 867.397 160.51 866.23 153.947 865.016C147.382 863.792 143.339 862.516 142.803 862.341C134.396 859.62 129.79 850.596 132.511 842.19C135.232 833.783 144.255 829.177 152.662 831.898C153.317 832.099 158.827 833.705 166.96 834.614C175.096 835.533 185.817 835.722 196.978 833.4C202.932 832.166 209.016 830.232 215.015 827.345C221.012 824.448 226.948 820.615 232.666 815.437C241.385 807.534 247.31 799.015 251.454 790.477C254.55 784.076 256.634 777.67 257.989 771.64C260.025 762.588 260.429 754.386 260.299 748.582C260.24 745.683 260.052 743.394 259.896 741.905C259.815 741.166 259.742 740.619 259.697 740.302C259.665 740.145 259.654 740.045 259.656 740.004L259.652 739.984L261.893 739.612L259.654 739.994L268.598 738.458L259.658 740.014L259.652 739.984L268.596 738.448L259.656 740.004L259.648 739.965L274.516 737.395L259.662 740.033L259.648 739.965L274.516 737.395L259.662 740.033C258.116 731.336 263.92 723.026 272.618 721.479C281.315 719.933 289.625 725.738 291.171 734.435L291.16 734.478Z" fill="#7FBB53"/>
<path opacity="0.5" d="M98.7696 749.59L-10.3104 751.65L26.8986 813.988C29.9619 819.114 29.9078 825.507 26.7734 830.589C23.639 835.67 17.9401 838.577 11.9888 838.145L-91.9272 830.526L-75.9446 907.678C-74.904 912.701 -76.3563 917.965 -79.8311 921.749C-83.3058 925.532 -88.4293 927.421 -93.5189 926.811L-203.037 913.643C-211.813 912.591 -218.069 904.624 -217.007 895.847C-215.956 887.071 -207.989 880.815 -199.211 881.876L-111.791 892.392L-127.56 816.268C-128.581 811.342 -127.235 806.254 -123.923 802.473C-120.611 798.693 -115.735 796.692 -110.726 797.064L-16.3404 803.981L-51.9223 744.37C-54.8489 739.461 -54.9493 733.406 -52.1674 728.398C-49.3933 723.401 -44.2 720.272 -38.4818 720.17L98.1653 717.588C107.005 717.421 114.302 724.447 114.467 733.277C114.633 742.117 107.608 749.414 98.7774 749.579L98.7696 749.59Z" fill="#7FBB53"/>
<path opacity="0.5" d="M504.907 708.26C495.584 710.192 486.46 704.199 484.529 694.876C482.597 685.552 488.59 676.429 497.913 674.497C507.237 672.566 516.36 678.558 518.292 687.882C520.223 697.205 514.231 706.329 504.907 708.26Z" fill="#7FBB53"/>
<path opacity="0.5" d="M730.082 1004.93C720.759 1006.86 711.635 1000.87 709.703 991.546C707.772 982.223 713.764 973.099 723.088 971.167C732.411 969.236 741.535 975.228 743.467 984.552C745.398 993.875 739.406 1003 730.082 1004.93Z" fill="#7FBB53"/>
<path opacity="0.5" d="M190.462 775.273C181.139 777.204 172.015 771.212 170.083 761.889C168.152 752.565 174.144 743.441 183.468 741.51C192.791 739.578 201.915 745.571 203.847 754.894C205.778 764.218 199.785 773.342 190.462 775.273Z" fill="#7FBB53"/>
<path opacity="0.5" d="M458.741 249.367C458.841 249.949 459.521 253.923 459.791 260.301C459.986 265.091 459.96 271.224 459.249 278.295C458.187 288.891 455.597 301.631 449.858 314.891C444.136 328.137 435.162 341.904 421.709 354.066C413.651 361.362 405.074 366.938 396.473 371.068C387.874 375.209 379.256 377.923 371.04 379.625C362.825 381.327 354.993 382.02 347.876 382.126C337.196 382.286 328.09 381.119 321.528 379.905C314.963 378.681 310.92 377.405 310.383 377.23C301.977 374.508 297.37 365.485 300.092 357.078C302.813 348.672 311.836 344.066 320.243 346.787C320.897 346.988 326.408 348.594 334.541 349.503C342.677 350.422 353.398 350.611 364.559 348.288C370.512 347.055 376.597 345.121 382.596 342.234C388.593 339.337 394.528 335.503 400.247 330.326C408.965 322.423 414.89 313.904 419.035 305.366C422.13 298.965 424.214 292.559 425.569 286.528C427.606 277.477 428.01 269.275 427.88 263.47C427.821 260.572 427.632 258.283 427.477 256.793C427.396 256.054 427.323 255.508 427.278 255.19C427.245 255.034 427.235 254.934 427.237 254.893L427.232 254.873L429.474 254.501L427.235 254.883L436.179 253.346L427.239 254.902L427.232 254.873L436.177 253.337L427.237 254.893L427.228 254.853L442.096 252.284L427.243 254.922L427.228 254.853L442.096 252.284L427.243 254.922C425.696 246.225 431.501 237.915 440.198 236.368C448.895 234.822 457.206 240.627 458.752 249.324L458.741 249.367Z" fill="#7FBB53"/>
<path opacity="0.5" d="M358.043 290.162C348.719 292.093 339.595 286.101 337.664 276.777C335.733 267.454 341.725 258.33 351.048 256.399C360.372 254.467 369.496 260.46 371.427 269.783C373.359 279.106 367.366 288.23 358.043 290.162Z" fill="#7FBB53"/>
<path opacity="0.5" d="M66.2413 634.487C65.7842 634.731 62.6603 636.392 57.421 638.374C53.4844 639.856 48.3677 641.523 42.281 642.879C33.1608 644.913 21.8335 646.265 9.20548 645.136C-3.40618 644.018 -17.3473 640.334 -31.1851 632.476C-39.4831 627.773 -46.4911 622.163 -52.3016 616.136C-58.1197 610.113 -62.7554 603.68 -66.4364 597.305C-70.1174 590.929 -72.8524 584.595 -74.9009 578.695C-77.9758 569.842 -79.5119 561.934 -80.3083 556.132C-81.0971 550.326 -81.1474 546.606 -81.1496 546.111C-81.1983 538.357 -74.9497 532.034 -67.1963 531.986C-59.443 531.937 -53.12 538.185 -53.0713 545.939C-53.0588 546.54 -52.8786 551.573 -51.3954 558.599C-49.9198 565.63 -47.1241 574.614 -42.1149 583.273C-39.4474 587.893 -36.1599 592.429 -32.1022 596.631C-28.0369 600.83 -23.2079 604.719 -17.319 608.057C-8.33359 613.143 0.395823 615.732 8.65063 616.833C14.8362 617.649 20.7471 617.621 26.1442 617.088C34.2458 616.291 41.1909 614.369 45.9906 612.662C48.3889 611.814 50.2443 611.026 51.4424 610.487C52.0355 610.215 52.471 610.004 52.7229 609.879C52.8445 609.809 52.9249 609.773 52.9597 609.763L52.9749 609.754L53.9024 611.518L52.9672 609.758L56.711 616.787L52.9521 609.767L52.9749 609.754L56.7186 616.782L52.9597 609.763L52.9901 609.745L59.2262 621.424L52.9369 609.776L52.9901 609.745L59.2262 621.424L52.9369 609.776C59.7566 606.092 68.279 608.639 71.9631 615.458C75.6471 622.278 73.1002 630.801 66.2805 634.485L66.2413 634.487Z" fill="#7FBB53"/>
<path opacity="0.5" d="M198.872 366.031L210.137 357.948L198.874 366.041L198.845 365.996C198.431 365.428 193.962 359.287 186.684 350.674C181.228 344.206 174.189 336.351 166.13 328.411C160.098 322.461 153.495 316.465 146.599 310.98C141.438 306.872 136.103 303.055 130.771 299.747C122.766 294.778 114.745 291.007 107.313 288.951C103.595 287.914 100.038 287.303 96.6668 287.103C93.2863 286.904 90.1028 287.114 87.0182 287.753C83.2972 288.524 79.6942 289.914 75.9875 292.183C72.2827 294.462 68.4549 297.675 64.5363 302.225C60.0263 307.469 56.698 312.304 54.2496 316.753C52.4172 320.084 51.0717 323.202 50.0996 326.151C48.6473 330.577 47.9946 334.624 47.8612 338.614C47.7356 342.592 48.1431 346.531 48.985 350.595C49.7456 354.267 50.864 358.038 52.2281 361.912C54.2685 367.719 56.8654 373.748 59.4292 380.11C61.9756 386.486 64.5105 393.201 66.066 400.661C67.0498 405.41 67.6103 410.482 67.3469 415.816C67.1429 419.811 66.4632 423.924 65.1969 428.016C63.3034 434.158 60.0909 440.144 55.7045 445.689C51.3124 451.256 45.7762 456.426 39.0266 461.409C35.7659 463.81 32.3262 465.84 28.756 467.437C25.1878 469.045 21.501 470.227 17.78 470.998C12.7763 472.035 7.73992 472.322 2.79965 472.038C-1.83266 471.762 -6.37425 470.988 -10.8359 469.859C-19.1936 467.72 -27.2578 464.335 -35.2543 460.242C-49.2302 453.068 -63.0917 443.685 -77.1854 433.921C-87.7399 426.6 -98.4019 419.056 -109.091 412.069C-117.102 406.825 -125.118 401.898 -133.077 397.593C-145.006 391.129 -156.778 386.112 -168.027 383.377C-173.653 382 -179.164 381.181 -184.549 380.969C-189.944 380.759 -195.222 381.158 -200.5 382.251C-205.455 383.278 -210.416 384.918 -215.492 387.328C-220.567 389.748 -225.748 392.935 -231.079 397.123C-239.03 403.356 -245.098 409.658 -249.715 415.914C-253.176 420.604 -255.832 425.28 -257.848 429.946C-260.859 436.952 -262.456 443.982 -262.966 451.186C-263.467 458.377 -262.858 465.757 -261.312 473.218C-258.803 485.331 -253.801 497.642 -247.529 509.19C-238.137 526.525 -225.964 542.1 -216.192 553.137C-211.31 558.662 -207.026 563.074 -204.019 566.056C-202.514 567.552 -201.32 568.683 -200.532 569.429C-200.139 569.797 -199.837 570.072 -199.648 570.247C-199.559 570.33 -199.486 570.387 -199.446 570.43L-199.409 570.463L-205.244 576.951L-199.411 570.453L-210.098 582.358L-199.423 570.445L-210.108 582.36L-199.433 570.447C-192.849 576.345 -192.295 586.462 -198.193 593.046C-204.09 599.629 -214.208 600.183 -220.791 594.285C-221.247 593.859 -235.633 580.959 -251.744 560.471C-259.802 550.213 -268.296 538.053 -275.667 524.455C-283.029 510.856 -289.308 495.827 -292.655 479.721C-294.478 470.918 -295.412 461.777 -295.083 452.467C-294.835 445.482 -293.872 438.399 -292.046 431.342C-289.318 420.748 -284.644 410.232 -277.821 400.23C-270.988 390.226 -262.036 380.742 -250.835 371.958C-243.799 366.436 -236.581 361.938 -229.247 358.448C-221.912 354.957 -214.451 352.472 -206.999 350.928C-194.74 348.389 -182.533 348.403 -170.81 350.223C-160.534 351.811 -150.59 354.755 -140.98 358.555C-124.16 365.211 -108.285 374.453 -93.1831 384.254C-81.8556 391.609 -70.971 399.29 -60.5799 406.513C-52.7901 411.925 -45.2688 417.076 -38.1163 421.63C-32.7525 425.043 -27.5931 428.11 -22.7035 430.713C-15.379 434.618 -8.65253 437.412 -2.92957 438.861C-0.0611668 439.594 2.54614 440.004 4.89842 440.119C7.2507 440.234 9.34222 440.077 11.2831 439.685C12.7813 439.375 14.1981 438.918 15.6273 438.274C17.0565 437.631 18.5079 436.799 20.0221 435.679C24.4263 432.438 27.5869 429.455 29.793 426.843C31.4603 424.884 32.5897 423.139 33.3967 421.562C33.9984 420.376 34.4264 419.286 34.7249 418.213C35.1787 416.608 35.3934 415.032 35.4105 413.241C35.4178 411.452 35.1982 409.455 34.7276 407.183C34.1454 404.373 33.1623 401.156 31.8671 397.615C29.938 392.296 27.2958 386.246 24.6491 379.533C22.0102 372.809 19.3586 365.382 17.6465 357.117C16.5288 351.722 15.8186 345.977 15.8299 339.918C15.8399 335.382 16.2527 330.67 17.169 325.875C18.5453 318.666 21.0675 311.27 24.8801 303.843C28.6906 296.405 33.7738 288.949 40.2586 281.407C46.0684 274.648 52.4143 269.146 59.2164 264.959C66.0087 260.774 73.2282 257.961 80.5135 256.452C90.2371 254.438 99.9707 254.74 109.213 256.563C117.316 258.162 125.083 260.904 132.511 264.369C145.51 270.428 157.532 278.671 168.46 287.549C184.831 300.864 198.746 315.68 208.71 327.249C218.664 338.821 224.646 347.14 224.86 347.433C230.014 354.617 228.367 364.608 221.183 369.763C213.999 374.917 204.008 373.27 198.853 366.086L198.872 366.031Z" fill="#7FBB53"/>
<path opacity="0.5" d="M-7.84004 185.478C-7.73994 186.06 -7.05955 190.035 -6.79017 196.413C-6.59447 201.203 -6.62097 207.335 -7.33136 214.407C-8.39408 225.002 -10.9836 237.743 -16.7231 251.002C-22.4451 264.249 -31.4191 278.015 -44.8718 290.177C-52.9293 297.473 -61.5065 303.049 -70.1075 307.179C-78.7064 311.32 -87.3248 314.035 -95.5404 315.736C-103.756 317.438 -111.588 318.132 -118.705 318.237C-129.384 318.397 -138.49 317.23 -145.053 316.016C-151.618 314.792 -155.661 313.516 -156.197 313.341C-164.604 310.62 -169.21 301.596 -166.489 293.19C-163.768 284.783 -154.745 280.177 -146.338 282.898C-145.683 283.099 -140.173 284.705 -132.04 285.614C-123.904 286.533 -113.183 286.722 -102.022 284.4C-96.0682 283.166 -89.9842 281.232 -83.985 278.345C-77.988 275.448 -72.0522 271.615 -66.3336 266.437C-57.6155 258.534 -51.6904 250.015 -47.5462 241.477C-44.4503 235.076 -42.3664 228.67 -41.0115 222.64C-38.9752 213.588 -38.5707 205.386 -38.7008 199.582C-38.7599 196.683 -38.9482 194.394 -39.1036 192.905C-39.1852 192.166 -39.2576 191.619 -39.3029 191.302C-39.3354 191.145 -39.3459 191.045 -39.3442 191.004L-39.3482 190.984L-37.1072 190.612L-39.3462 190.994L-30.4019 189.458L-39.3422 191.014L-39.3482 190.984L-30.4039 189.448L-39.3442 191.004L-39.3523 190.965L-24.4844 188.395L-39.3381 191.033L-39.3523 190.965L-24.4844 188.395L-39.3381 191.033C-40.8845 182.336 -35.0795 174.026 -26.3824 172.479C-17.6852 170.933 -9.37495 176.738 -7.82858 185.435L-7.84004 185.478Z" fill="#7FBB53"/>
<path opacity="0.5" d="M143.143 212.064C142.459 212.012 136.136 211.514 126.559 209.209C119.379 207.48 110.343 204.726 100.497 200.331C93.1135 197.031 85.2632 192.805 77.4163 187.364C65.6577 179.209 53.9096 168.296 44.0144 153.904C34.1115 139.524 26.1403 121.7 21.6894 100.165C16.6871 76.0178 16.0562 47.2884 21.4755 13.1085C21.9944 9.84544 22.8131 6.55087 23.888 3.16236C25.7674 -2.75183 28.4352 -8.95189 31.8732 -15.2298C34.4532 -19.9309 37.4587 -24.6487 40.9123 -29.2244C46.0997 -36.0791 52.3011 -42.6232 59.7023 -48.1085C63.4039 -50.8463 67.4075 -53.3097 71.7336 -55.3496C76.0597 -57.3896 80.6966 -59.014 85.6123 -60.0323C92.829 -61.5273 100.616 -61.7004 108.518 -60.1819C116.418 -58.6731 124.361 -55.5289 132.127 -50.7754C139.857 -46.0451 146.291 -39.586 151.263 -32.0989C156.228 -24.6 159.766 -16.0499 161.66 -6.90413C163.847 3.65175 163.845 15.0287 161.205 26.4415C159.228 34.9903 155.761 43.5414 150.686 51.68C143.088 63.9054 131.884 75.1417 117.047 84.3633C102.201 93.5967 83.7389 100.853 61.2856 105.504C43.1506 109.261 22.3976 111.323 -1.29781 111.31L-1.49198 111.309L-1.62536 111.306C-2.35306 111.293 -9.22447 111.103 -19.7075 109.057C-27.5727 107.521 -37.473 104.935 -48.3155 100.513C-56.4479 97.1935 -65.109 92.8501 -73.7894 87.132C-86.808 78.5647 -99.8735 66.8618 -111.019 51.1664C-122.172 35.4827 -131.347 15.8455 -136.893 -8.21965C-138.88 -16.8255 -133.513 -25.4231 -124.895 -27.4023C-116.289 -29.3893 -107.692 -24.0218 -105.713 -15.4041C-102.935 -3.37743 -99.1868 6.97748 -94.8025 15.965C-87.1165 31.6724 -77.5114 43.2344 -67.2939 52.0347C-59.6371 58.6286 -51.6245 63.6374 -43.8671 67.4634C-32.2429 73.1945 -21.1825 76.2035 -13.1742 77.741C-9.1759 78.5058 -5.93715 78.9072 -3.79015 79.116C-2.71665 79.2204 -1.92006 79.2698 -1.43346 79.3018C-1.18628 79.3119 -1.02149 79.3186 -0.939101 79.3219L-0.880351 79.3098L-1.00122 83.4095L-0.897894 79.3236L-0.87832 79.3196L-1.00122 83.4095L-0.897894 79.3236L-1.11082 88.0073L-0.907695 79.3257L-1.12063 88.0094L-0.917482 79.3277L-0.87832 79.3196L-1.26231 93.9312L-0.958689 79.326L-0.876293 79.3294L-1.26231 93.9312L-0.958689 79.326L-1.28999 95.3258L-1.28623 79.3224C20.5499 79.3331 39.1388 77.4226 54.7964 74.179C72.0305 70.6089 85.6842 65.4316 96.3043 59.4632C104.273 54.9937 110.547 50.079 115.445 45.0305C122.788 37.4431 127.103 29.5333 129.362 21.8044C131.6 14.0697 131.748 6.45135 130.328 -0.403117C129.236 -5.67127 127.211 -10.4701 124.599 -14.4021C121.985 -18.3438 118.806 -21.4128 115.441 -23.4627C110.542 -26.4512 106.288 -28.0106 102.521 -28.7417C98.7488 -29.4512 95.4173 -29.3636 92.1153 -28.6898C89.8337 -28.2172 87.5739 -27.4426 85.3063 -26.3602C81.336 -24.4756 77.3451 -21.6064 73.6042 -18.023C70.8005 -15.3385 68.1407 -12.2548 65.745 -8.98082C62.1446 -4.07855 59.1413 1.24128 56.9665 6.12394C55.8791 8.56527 55.0028 10.8914 54.356 12.9453C53.6994 15.0013 53.2882 16.8123 53.0795 18.1219C48.1508 49.1977 48.9407 73.9624 53.0221 93.6641C55.1824 104.093 58.2687 113.124 61.9571 121.02C68.4318 134.824 76.7716 145.208 85.7879 153.287C92.5466 159.342 99.6944 164.07 106.666 167.753C117.107 173.29 127.125 176.443 134.395 178.164C138.025 179.026 140.968 179.529 142.918 179.82C143.888 179.966 144.62 180.049 145.057 180.092C145.277 180.117 145.422 180.128 145.495 180.134L145.544 180.123L145.173 184.694L145.526 180.137L145.546 180.133L145.173 184.694L145.526 180.137L144.781 189.799L145.524 180.128L145.564 180.119L144.406 194.891L145.493 180.124L145.575 180.127L144.416 194.889L145.503 180.122C154.317 180.767 160.93 188.435 160.284 197.249C159.639 206.064 151.971 212.677 143.157 212.031L143.143 212.064Z" fill="#7FBB53"/>
<path opacity="0.5" d="M214.12 124.23C204.797 126.161 195.673 120.169 193.742 110.846C191.81 101.522 197.803 92.3983 207.126 90.4669C216.449 88.5355 225.573 94.5279 227.505 103.851C229.436 113.175 223.444 122.299 214.12 124.23Z" fill="#7FBB53"/>
<path opacity="0.5" d="M31.9074 547.26C22.5839 549.192 13.4601 543.199 11.5287 533.876C9.59724 524.552 15.5896 515.429 24.9131 513.497C34.2365 511.566 43.3604 517.558 45.2918 526.882C47.2232 536.205 41.2308 545.329 31.9074 547.26Z" fill="#7FBB53"/>
<path opacity="0.5" d="M311.709 -80.9348C312.21 -80.6221 315.628 -78.4828 320.565 -74.4364C324.269 -71.3926 328.826 -67.2887 333.628 -62.0498C340.825 -54.2007 348.605 -43.7848 354.675 -30.6727C360.746 -17.5829 365.039 -1.72054 365.153 16.4142C365.231 27.2839 363.678 37.3958 361.032 46.5628C358.394 55.7349 354.68 63.9721 350.479 71.2344C346.277 78.4966 341.578 84.8011 336.918 90.1804C329.925 98.2538 322.99 104.27 317.714 108.357C312.43 112.439 308.785 114.606 308.297 114.889C300.669 119.349 290.87 116.776 286.411 109.147C281.952 101.519 284.524 91.7202 292.153 87.2609C292.739 86.9068 297.606 83.8654 303.701 78.4031C309.804 72.9459 317.085 65.0737 322.785 55.2011C325.83 49.9383 328.438 44.1114 330.28 37.7135C332.112 31.3106 333.205 24.3295 333.151 16.6153C333.061 4.84876 330.652 -5.24454 327.042 -14.022C324.329 -20.5943 320.937 -26.4149 317.341 -31.4415C311.945 -38.9881 306.095 -44.7524 301.679 -48.5206C299.477 -50.4066 297.644 -51.7907 296.429 -52.6667C295.824 -53.0978 295.368 -53.4079 295.101 -53.5854C294.962 -53.6656 294.881 -53.7243 294.851 -53.753L294.834 -53.763L296.048 -55.6828L294.842 -53.758L299.653 -61.4536L294.86 -53.748L294.834 -53.763L299.644 -61.4586L294.851 -53.753L294.816 -53.773L302.801 -66.5756L294.877 -53.7379L294.816 -53.773L302.801 -66.5756L294.877 -53.7379C287.359 -58.3761 285.025 -68.2408 289.664 -75.7587C294.302 -83.2766 304.166 -85.6104 311.684 -80.9722L311.709 -80.9348Z" fill="#7FBB53"/>
<path opacity="0.5" d="M949.157 175.963C949.842 176.015 956.164 176.513 965.741 178.818C972.921 180.548 981.958 183.302 991.804 187.696C999.187 190.997 1007.04 195.222 1014.88 200.664C1026.64 208.818 1038.39 219.732 1048.29 234.124C1058.19 248.504 1066.16 266.327 1070.61 287.862C1075.61 312.01 1076.24 340.739 1070.82 374.919C1070.31 378.182 1069.49 381.476 1068.41 384.865C1066.53 390.779 1063.87 396.979 1060.43 403.257C1057.85 407.958 1054.84 412.676 1051.39 417.252C1046.2 424.106 1040 430.65 1032.6 436.136C1028.9 438.874 1024.89 441.337 1020.57 443.377C1016.24 445.417 1011.6 447.041 1006.69 448.06C999.471 449.555 991.684 449.728 983.782 448.209C975.882 446.7 967.939 443.556 960.173 438.803C952.443 434.072 946.009 427.613 941.037 420.126C936.072 412.627 932.535 404.077 930.64 394.931C928.453 384.376 928.455 372.999 931.095 361.586C933.072 353.037 936.54 344.486 941.614 336.347C949.212 324.122 960.416 312.886 975.254 303.664C990.099 294.431 1008.56 287.175 1031.01 282.523C1049.15 278.767 1069.9 276.704 1093.6 276.718L1093.79 276.718L1093.93 276.721C1094.65 276.734 1101.52 276.924 1112.01 278.97C1119.87 280.507 1129.77 283.092 1140.62 287.515C1148.75 290.834 1157.41 295.177 1166.09 300.895C1179.11 309.463 1192.17 321.166 1203.32 336.861C1214.47 352.545 1223.65 372.182 1229.19 396.247C1231.18 404.853 1225.81 413.45 1217.2 415.43C1208.59 417.417 1199.99 412.049 1198.01 403.431C1195.24 391.405 1191.49 381.05 1187.1 372.062C1179.42 356.355 1169.81 344.793 1159.59 335.993C1151.94 329.399 1143.92 324.39 1136.17 320.564C1124.54 314.833 1113.48 311.824 1105.47 310.286C1101.48 309.522 1098.24 309.12 1096.09 308.911C1095.02 308.807 1094.22 308.758 1093.73 308.726C1093.49 308.715 1093.32 308.709 1093.24 308.705L1093.18 308.718L1093.3 304.618L1093.2 308.704L1093.18 308.708L1093.3 304.618L1093.2 308.704L1093.41 300.02L1093.21 308.702L1093.42 300.018L1093.22 308.7L1093.18 308.708L1093.56 294.096L1093.26 308.701L1093.18 308.698L1093.56 294.096L1093.26 308.701L1093.59 292.701L1093.59 308.705C1071.75 308.694 1053.16 310.605 1037.5 313.848C1020.27 317.418 1006.62 322.596 995.996 328.564C988.027 333.034 981.754 337.948 976.856 342.997C969.512 350.584 965.197 358.494 962.938 366.223C960.7 373.958 960.553 381.576 961.973 388.43C963.064 393.699 965.089 398.497 967.701 402.429C970.315 406.371 973.494 409.44 976.86 411.49C981.758 414.479 986.013 416.038 989.779 416.769C993.552 417.479 996.883 417.391 1000.19 416.717C1002.47 416.244 1004.73 415.47 1006.99 414.387C1010.96 412.503 1014.96 409.634 1018.7 406.05C1021.5 403.366 1024.16 400.282 1026.56 397.008C1030.16 392.106 1033.16 386.786 1035.33 381.903C1036.42 379.462 1037.3 377.136 1037.94 375.082C1038.6 373.026 1039.01 371.215 1039.22 369.905C1044.15 338.83 1043.36 314.065 1039.28 294.363C1037.12 283.935 1034.03 274.903 1030.34 267.007C1023.87 253.203 1015.53 242.819 1006.51 234.74C999.754 228.685 992.606 223.957 985.634 220.275C975.194 214.737 965.176 211.584 957.906 209.863C954.275 209.001 951.332 208.498 949.382 208.207C948.413 208.061 947.681 207.978 947.243 207.936C947.023 207.91 946.878 207.899 946.805 207.894L946.756 207.904L947.127 203.334L946.774 207.89L946.754 207.894L947.127 203.334L946.774 207.89L947.519 198.228L946.776 207.9L946.737 207.908L947.894 193.136L946.807 207.904L946.725 207.9L947.885 193.138L946.798 207.906C937.983 207.26 931.37 199.592 932.016 190.778C932.661 181.964 940.329 175.351 949.143 175.996L949.157 175.963Z" fill="#7FBB53"/>
<path opacity="0.5" d="M845.145 27.1789L833.88 35.262L845.143 27.1691L845.172 27.214C845.586 27.7819 850.055 33.9231 857.333 42.5357C862.789 49.0036 869.828 56.8588 877.887 64.7993C883.919 70.7493 890.523 76.7445 897.419 82.2296C902.579 86.3382 907.914 90.1553 913.246 93.4626C921.251 98.4322 929.272 102.203 936.704 104.259C940.422 105.296 943.98 105.907 947.35 106.107C950.731 106.306 953.914 106.096 956.999 105.457C960.72 104.686 964.323 103.296 968.03 101.027C971.734 98.7481 975.562 95.5348 979.481 90.9853C983.991 85.7414 987.319 80.9058 989.767 76.4566C991.6 73.1257 992.945 70.0079 993.918 67.0594C995.37 62.6328 996.022 58.5862 996.156 54.5962C996.282 50.618 995.874 46.6788 995.032 42.6151C994.271 38.943 993.153 35.1715 991.789 31.2977C989.749 25.4908 987.152 19.4623 984.588 13.1001C982.042 6.72406 979.507 0.00865493 977.951 -7.45089C976.967 -12.2001 976.407 -17.2718 976.67 -22.6062C976.874 -26.6006 977.554 -30.714 978.82 -34.8059C980.714 -40.9477 983.926 -46.9338 988.313 -52.4789C992.705 -58.0456 998.241 -63.2161 1004.99 -68.1988C1008.25 -70.6002 1011.69 -72.6301 1015.26 -74.2275C1018.83 -75.8348 1022.52 -77.0172 1026.24 -77.788C1031.24 -78.8246 1036.28 -79.1123 1041.22 -78.8285C1045.85 -78.5524 1050.39 -77.7776 1054.85 -76.6491C1063.21 -74.51 1071.27 -71.1255 1079.27 -67.0325C1093.25 -59.8584 1107.11 -50.4751 1121.2 -40.711C1131.76 -33.3898 1142.42 -25.8458 1153.11 -18.8589C1161.12 -13.6147 1169.13 -8.68836 1177.09 -4.3833C1189.02 2.08123 1200.8 7.09751 1212.04 9.83257C1217.67 11.2099 1223.18 12.0291 1228.57 12.2411C1233.96 12.4512 1239.24 12.0521 1244.52 10.9587C1249.47 9.93229 1254.43 8.29194 1259.51 5.88203C1264.58 3.46232 1269.77 0.275059 1275.1 -3.91346C1283.05 -10.1459 1289.12 -16.4478 1293.73 -22.7044C1297.19 -27.3939 1299.85 -32.07 1301.86 -36.7358C1304.88 -43.7423 1306.47 -50.7725 1306.98 -57.9756C1307.48 -65.1669 1306.87 -72.5466 1305.33 -80.0082C1302.82 -92.121 1297.82 -104.432 1291.55 -115.98C1282.15 -133.315 1269.98 -148.89 1260.21 -159.927C1255.33 -165.452 1251.04 -169.864 1248.04 -172.846C1246.53 -174.342 1245.34 -175.473 1244.55 -176.219C1244.16 -176.587 1243.85 -176.862 1243.66 -177.037C1243.58 -177.121 1243.5 -177.177 1243.46 -177.22L1243.43 -177.253L1249.26 -183.741L1243.43 -177.243L1254.12 -189.148L1243.44 -177.235L1254.12 -189.151L1243.45 -177.237C1236.87 -183.135 1236.31 -193.253 1242.21 -199.836C1248.11 -206.419 1258.22 -206.973 1264.81 -201.076C1265.26 -200.649 1279.65 -187.749 1295.76 -167.261C1303.82 -157.003 1312.31 -144.843 1319.68 -131.245C1327.05 -117.646 1333.32 -102.617 1336.67 -86.5112C1338.5 -77.7081 1339.43 -68.5675 1339.1 -59.2573C1338.85 -52.2718 1337.89 -45.1891 1336.06 -38.1319C1333.33 -27.5383 1328.66 -17.0216 1321.84 -7.01961C1315.01 2.9844 1306.05 12.4676 1294.85 21.2523C1287.82 26.7744 1280.6 31.272 1273.26 34.7624C1265.93 38.2528 1258.47 40.7379 1251.02 42.2816C1238.76 44.8213 1226.55 44.8071 1214.83 42.9873C1204.55 41.3987 1194.61 38.4546 1185 34.6551C1168.18 27.9987 1152.3 18.7568 1137.2 8.95645C1125.87 1.60132 1114.99 -6.08045 1104.6 -13.3028C1096.81 -18.7151 1089.29 -23.8665 1082.13 -28.4203C1076.77 -31.8332 1071.61 -34.9004 1066.72 -37.5026C1059.4 -41.4081 1052.67 -44.2017 1046.95 -45.6509C1044.08 -46.3843 1041.47 -46.7939 1039.12 -46.9091C1036.77 -47.0244 1034.67 -46.8668 1032.73 -46.475C1031.24 -46.1646 1029.82 -45.7077 1028.39 -45.0644C1026.96 -44.4211 1025.51 -43.5894 1023.99 -42.469C1019.59 -39.2282 1016.43 -36.245 1014.22 -33.6332C1012.56 -31.6743 1011.43 -29.9289 1010.62 -28.3524C1010.02 -27.1657 1009.59 -26.0763 1009.29 -25.0034C1008.84 -23.398 1008.62 -21.8216 1008.61 -20.0309C1008.6 -18.2423 1008.82 -16.2453 1009.29 -13.9735C1009.87 -11.1632 1010.85 -7.94574 1012.15 -4.40485C1014.08 0.914414 1016.72 6.96425 1019.37 13.6769C1022.01 20.4014 1024.66 27.8279 1026.37 36.0925C1027.49 41.4879 1028.2 47.2333 1028.19 53.2915C1028.18 57.8279 1027.76 62.5396 1026.85 67.3351C1025.47 74.5442 1022.95 81.9396 1019.14 89.3674C1015.33 96.805 1010.24 104.261 1003.76 111.803C997.949 118.562 991.603 124.064 984.801 128.251C978.008 132.436 970.789 135.249 963.504 136.758C953.78 138.772 944.046 138.47 934.804 136.647C926.702 135.048 918.934 132.306 911.507 128.841C898.507 122.782 886.485 114.539 875.557 105.661C859.186 92.3455 845.271 77.5301 835.307 65.9608C825.353 54.3894 819.371 46.0699 819.157 45.7772C814.003 38.5934 815.65 28.6015 822.834 23.4471C830.018 18.2927 840.01 19.9401 845.164 27.1239L845.145 27.1789Z" fill="#7FBB53"/>
<path opacity="0.5" d="M1098.42 206.031C1098.32 205.45 1097.64 201.475 1097.37 195.097C1097.17 190.307 1097.2 184.174 1097.91 177.103C1098.97 166.507 1101.56 153.767 1107.3 140.507C1113.02 127.261 1122 113.495 1135.45 101.333C1143.51 94.0367 1152.09 88.4609 1160.69 84.3303C1169.29 80.1899 1177.9 77.4752 1186.12 75.7733C1194.34 74.0714 1202.17 73.3782 1209.28 73.2724C1219.96 73.1127 1229.07 74.2798 1235.63 75.4938C1242.2 76.7176 1246.24 77.994 1246.78 78.1688C1255.18 80.8901 1259.79 89.9133 1257.07 98.3201C1254.35 106.727 1245.32 111.333 1236.92 108.612C1236.26 108.41 1230.75 106.805 1222.62 105.896C1214.48 104.977 1203.76 104.788 1192.6 107.11C1186.65 108.343 1180.56 110.278 1174.56 113.165C1168.57 116.061 1162.63 119.895 1156.91 125.073C1148.2 132.976 1142.27 141.495 1138.13 150.033C1135.03 156.434 1132.95 162.84 1131.59 168.87C1129.55 177.921 1129.15 186.124 1129.28 191.928C1129.34 194.826 1129.53 197.116 1129.68 198.605C1129.76 199.344 1129.84 199.891 1129.88 200.208C1129.91 200.365 1129.93 200.465 1129.92 200.506L1129.93 200.526L1127.69 200.898L1129.93 200.516L1120.98 202.052L1129.92 200.496L1129.93 200.526L1120.98 202.062L1129.92 200.506L1129.93 200.545L1115.06 203.115L1129.92 200.477L1129.93 200.545L1115.06 203.115L1129.92 200.477C1131.46 209.174 1125.66 217.484 1116.96 219.03C1108.26 220.577 1099.95 214.772 1098.41 206.075L1098.42 206.031Z" fill="#7FBB53"/>
<path opacity="0.5" d="M1278.81 242.454L1387.89 240.395L1350.68 178.057C1347.62 172.931 1347.67 166.537 1350.81 161.456C1353.94 156.375 1359.64 153.468 1365.59 153.9L1469.51 161.519L1453.52 84.3669C1452.48 79.3436 1453.94 74.0795 1457.41 70.296C1460.89 66.5125 1466.01 64.6239 1471.1 65.2342L1580.62 78.4022C1589.39 79.4538 1595.65 87.4204 1594.59 96.1982C1593.54 104.974 1585.57 111.23 1576.79 110.169L1489.37 99.6533L1505.14 175.777C1506.16 180.703 1504.81 185.791 1501.5 189.572C1498.19 193.352 1493.32 195.353 1488.31 194.981L1393.92 188.064L1429.5 247.675C1432.43 252.583 1432.53 258.639 1429.75 263.647C1426.97 268.644 1421.78 271.773 1416.06 271.875L1279.41 274.457C1270.57 274.624 1263.28 267.598 1263.11 258.768C1262.95 249.928 1269.97 242.631 1278.8 242.466L1278.81 242.454Z" fill="#7FBB53"/>
<path opacity="0.5" d="M884.672 232.249C893.996 230.318 903.12 236.31 905.051 245.634C906.982 254.957 900.99 264.081 891.666 266.013C882.343 267.944 873.219 261.952 871.288 252.628C869.356 243.305 875.349 234.181 884.672 232.249Z" fill="#7FBB53"/>
<path opacity="0.5" d="M1199.12 165.236C1208.44 163.304 1217.56 169.297 1219.5 178.62C1221.43 187.944 1215.44 197.068 1206.11 198.999C1196.79 200.93 1187.66 194.938 1185.73 185.615C1183.8 176.291 1189.79 167.167 1199.12 165.236Z" fill="#7FBB53"/>
<path opacity="0.5" d="M656.193 387.344C656.093 386.762 655.413 382.787 655.143 376.41C654.948 371.62 654.974 365.487 655.685 358.416C656.747 347.82 659.337 335.08 665.076 321.82C670.798 308.574 679.772 294.807 693.225 282.645C701.282 275.349 709.86 269.773 718.461 265.643C727.06 261.502 735.678 258.788 743.894 257.086C752.109 255.384 759.941 254.691 767.058 254.585C777.738 254.425 786.844 255.592 793.406 256.806C799.971 258.03 804.014 259.306 804.551 259.481C812.957 262.202 817.564 271.226 814.842 279.632C812.121 288.039 803.098 292.645 794.691 289.924C794.037 289.723 788.526 288.117 780.393 287.208C772.257 286.289 761.536 286.1 750.375 288.422C744.421 289.656 738.337 291.59 732.338 294.477C726.341 297.374 720.405 301.208 714.687 306.385C705.969 314.288 700.044 322.807 695.899 331.345C692.803 337.746 690.72 344.152 689.365 350.182C687.328 359.234 686.924 367.436 687.054 373.241C687.113 376.139 687.301 378.428 687.457 379.918C687.538 380.656 687.611 381.203 687.656 381.521C687.689 381.677 687.699 381.777 687.697 381.818L687.701 381.838L685.46 382.21L687.699 381.828L678.755 383.364L687.695 381.809L687.701 381.838L678.757 383.374L687.697 381.818L687.706 381.858L672.838 384.427L687.691 381.789L687.706 381.858L672.838 384.427L687.691 381.789C689.238 390.486 683.433 398.796 674.736 400.343C666.038 401.889 657.728 396.084 656.182 387.387L656.193 387.344Z" fill="#7FBB53"/>
<path opacity="0.5" d="M756.891 346.548C766.215 344.617 775.338 350.609 777.27 359.933C779.201 369.256 773.209 378.38 763.885 380.311C754.562 382.243 745.438 376.25 743.507 366.927C741.575 357.603 747.568 348.48 756.891 346.548Z" fill="#7FBB53"/>
<path opacity="0.5" d="M971.861 533.876C981.184 531.945 990.308 537.937 992.24 547.26C994.171 556.584 988.179 565.708 978.855 567.639C969.532 569.571 960.408 563.578 958.477 554.255C956.545 544.931 962.538 535.807 971.861 533.876Z" fill="#7FBB53"/>
<path opacity="0.5" d="M537.62 229.45C544.154 228.096 550.549 232.296 551.902 238.83C553.256 245.364 549.056 251.758 542.522 253.112C535.988 254.465 529.594 250.266 528.24 243.732C526.887 237.198 531.086 230.803 537.62 229.45Z" fill="#7FBB53"/>
<path opacity="0.5" d="M484.81 128.453L593.89 126.394L556.681 64.0556C553.618 58.9304 553.672 52.5365 556.806 47.455C559.941 42.3736 565.639 39.4671 571.591 39.8989L675.507 47.5179L659.524 -29.6341C658.484 -34.6574 659.936 -39.9215 663.411 -43.705C666.885 -47.4885 672.009 -49.377 677.098 -48.7668L786.617 -35.5988C795.392 -34.5471 801.648 -26.5805 800.587 -17.8027C799.535 -9.02694 791.569 -2.77086 782.791 -3.83234L695.37 -14.3477L711.14 61.7761C712.16 66.7015 710.815 71.7903 707.503 75.5707C704.191 79.3512 699.315 81.3518 694.305 80.9802L599.92 74.0626L635.502 133.674C638.428 138.582 638.529 144.638 635.747 149.646C632.973 154.643 627.78 157.772 622.061 157.874L485.414 160.456C476.574 160.623 469.277 153.597 469.113 144.767C468.946 135.927 475.972 128.63 484.802 128.465L484.81 128.453Z" fill="#7FBB53"/>
<path opacity="0.5" d="M801.143 654.773L764.944 551.854L717.438 606.752C713.534 611.269 707.446 613.225 701.638 611.844C695.829 610.464 691.281 605.965 689.822 600.179L664.434 499.125L596.199 538.52C591.757 541.085 586.303 541.358 581.62 539.247C576.937 537.136 573.535 532.864 572.517 527.84L550.638 419.725C548.881 411.063 554.481 402.622 563.149 400.874C571.811 399.118 580.252 404.718 581.999 413.385L599.46 499.687L666.785 460.817C671.141 458.302 676.395 457.982 681.024 459.94C685.653 461.898 689.083 465.899 690.303 470.772L713.365 562.557L758.793 510.06C762.534 505.741 768.252 503.744 773.881 504.813C779.496 505.878 784.096 509.827 785.989 515.224L831.338 644.152C834.272 652.493 829.892 661.627 821.56 664.555C813.219 667.489 804.085 663.109 801.157 654.776L801.143 654.773Z" fill="#7FBB53"/>
<path opacity="0.5" d="M1056.16 792.31L1068.83 786.68L1056.16 792.32L1056.14 792.27C1055.85 791.63 1052.72 784.71 1047.34 774.8C1043.31 767.36 1038.01 758.24 1031.73 748.83C1027.03 741.78 1021.78 734.57 1016.14 727.8C1011.92 722.73 1007.47 717.91 1002.92 713.59C996.086 707.1 988.996 701.78 982.136 698.26C978.706 696.49 975.346 695.17 972.086 694.29C968.816 693.41 965.656 692.97 962.506 692.97C958.706 692.97 954.896 693.6 950.806 695.07C946.716 696.55 942.316 698.92 937.556 702.58C932.076 706.8 927.836 710.86 924.536 714.72C922.066 717.61 920.116 720.39 918.566 723.08C916.246 727.12 914.786 730.95 913.846 734.83C912.916 738.7 912.516 742.64 912.516 746.79C912.516 750.54 912.846 754.46 913.396 758.53C914.216 764.63 915.536 771.06 916.756 777.81C917.956 784.57 919.076 791.66 919.086 799.28C919.086 804.13 918.606 809.21 917.266 814.38C916.256 818.25 914.756 822.14 912.686 825.89C909.586 831.52 905.226 836.73 899.806 841.27C894.376 845.83 887.906 849.77 880.286 853.28C876.606 854.97 872.826 856.26 869.006 857.1C865.186 857.95 861.336 858.36 857.536 858.36C852.426 858.36 847.436 857.62 842.656 856.34C838.176 855.13 833.886 853.45 829.746 851.44C821.996 847.65 814.786 842.7 807.786 837.07C795.556 827.21 783.886 815.21 772.066 802.79C763.216 793.48 754.306 783.93 745.256 774.92C738.476 768.16 731.626 761.71 724.706 755.88C714.336 747.13 703.826 739.83 693.366 734.87C688.136 732.38 682.906 730.46 677.676 729.16C672.436 727.86 667.187 727.18 661.797 727.18C656.737 727.18 651.546 727.78 646.086 729.11C640.626 730.45 634.906 732.52 628.836 735.54C619.786 740.03 612.567 744.97 606.777 750.16C602.437 754.05 598.887 758.09 595.967 762.25C591.597 768.5 588.607 775.06 586.647 782.01C584.697 788.95 583.796 796.3 583.796 803.92C583.796 816.29 586.196 829.36 589.996 841.94C595.676 860.82 604.436 878.54 611.766 891.33C615.426 897.73 618.726 902.92 621.066 906.45C622.236 908.22 623.176 909.57 623.796 910.46C624.106 910.9 624.346 911.23 624.496 911.44C624.566 911.54 624.627 911.61 624.657 911.66L624.686 911.7L617.657 916.87L624.686 911.69L611.806 921.18L624.676 911.68L611.796 921.18L624.666 911.68C629.916 918.79 628.406 928.81 621.296 934.06C614.186 939.31 604.166 937.8 598.916 930.69C598.556 930.18 587.086 914.63 575.467 891.3C569.657 879.62 563.806 865.99 559.346 851.18C554.896 836.37 551.796 820.38 551.786 803.93C551.786 794.94 552.726 785.8 554.936 776.75C556.596 769.96 558.976 763.22 562.196 756.68C567.016 746.86 573.726 737.51 582.436 729.1C591.156 720.69 601.846 713.22 614.596 706.89C622.606 702.91 630.586 699.97 638.476 698.04C646.366 696.11 654.176 695.19 661.786 695.19C674.306 695.19 686.256 697.68 697.366 701.84C707.106 705.48 716.247 710.38 724.887 716.05C740.006 725.98 753.676 738.25 766.476 750.91C776.076 760.41 785.176 770.14 793.886 779.32C800.416 786.2 806.736 792.77 812.816 798.68C817.376 803.11 821.806 807.16 826.066 810.7C832.446 816.01 838.466 820.11 843.776 822.69C846.436 823.99 848.906 824.92 851.186 825.51C853.466 826.1 855.546 826.37 857.526 826.38C859.056 826.38 860.536 826.22 862.066 825.88C863.596 825.54 865.186 825.02 866.896 824.23C871.866 821.95 875.566 819.67 878.256 817.56C880.286 815.98 881.746 814.5 882.856 813.12C883.686 812.08 884.326 811.1 884.836 810.11C885.606 808.63 886.136 807.13 886.516 805.38C886.886 803.63 887.076 801.63 887.076 799.31C887.076 796.44 886.766 793.09 886.216 789.36C885.406 783.76 884.046 777.3 882.816 770.19C881.596 763.07 880.506 755.26 880.506 746.82C880.506 741.31 880.976 735.54 882.216 729.61C883.146 725.17 884.506 720.64 886.376 716.13C889.186 709.35 893.156 702.62 898.396 696.12C903.636 689.61 910.126 683.34 918.006 677.27C925.066 671.83 932.396 667.73 939.906 665.01C947.406 662.29 955.046 661 962.486 661C972.416 661 981.886 663.27 990.566 666.93C998.176 670.14 1005.23 674.4 1011.8 679.3C1023.3 687.87 1033.4 698.38 1042.3 709.29C1055.63 725.65 1066.25 742.98 1073.66 756.33C1081.06 769.68 1085.23 779.04 1085.38 779.37C1088.97 787.45 1085.33 796.9 1077.25 800.49C1069.17 804.08 1059.72 800.44 1056.13 792.36L1056.16 792.31Z" fill="#7FBB53"/>
<path opacity="0.5" d="M1190.71 574.479L1179.44 582.562L1190.7 574.469L1190.73 574.514C1191.15 575.082 1195.62 581.223 1202.89 589.836C1208.35 596.303 1215.39 604.159 1223.45 612.099C1229.48 618.049 1236.08 624.044 1242.98 629.529C1248.14 633.638 1253.48 637.455 1258.81 640.762C1266.81 645.732 1274.83 649.503 1282.26 651.558C1285.98 652.596 1289.54 653.207 1292.91 653.407C1296.29 653.606 1299.47 653.395 1302.56 652.756C1306.28 651.986 1309.88 650.596 1313.59 648.327C1317.29 646.048 1321.12 642.835 1325.04 638.285C1329.55 633.041 1332.88 628.206 1335.33 623.756C1337.16 620.425 1338.51 617.308 1339.48 614.359C1340.93 609.933 1341.58 605.886 1341.72 601.896C1341.84 597.918 1341.43 593.979 1340.59 589.915C1339.83 586.243 1338.71 582.471 1337.35 578.597C1335.31 572.791 1332.71 566.762 1330.15 560.4C1327.6 554.024 1325.07 547.308 1323.51 539.849C1322.53 535.1 1321.97 530.028 1322.23 524.694C1322.43 520.699 1323.11 516.586 1324.38 512.494C1326.27 506.352 1329.49 500.366 1333.87 494.821C1338.27 489.254 1343.8 484.084 1350.55 479.101C1353.81 476.7 1357.25 474.67 1360.82 473.072C1364.39 471.465 1368.08 470.283 1371.8 469.512C1376.8 468.475 1381.84 468.188 1386.78 468.471C1391.41 468.747 1395.95 469.522 1400.41 470.651C1408.77 472.79 1416.84 476.174 1424.83 480.267C1438.81 487.441 1452.67 496.825 1466.76 506.589C1477.32 513.91 1487.98 521.454 1498.67 528.441C1506.68 533.685 1514.7 538.611 1522.65 542.917C1534.58 549.381 1546.36 554.397 1557.6 557.132C1563.23 558.51 1568.74 559.329 1574.13 559.541C1579.52 559.751 1584.8 559.352 1590.08 558.259C1595.03 557.232 1599.99 555.592 1605.07 553.182C1610.14 550.762 1615.33 547.575 1620.66 543.386C1628.61 537.154 1634.68 530.852 1639.29 524.595C1642.75 519.906 1645.41 515.23 1647.43 510.564C1650.44 503.557 1652.03 496.527 1652.54 489.324C1653.04 482.133 1652.44 474.753 1650.89 467.292C1648.38 455.179 1643.38 442.867 1637.11 431.32C1627.71 413.984 1615.54 398.41 1605.77 387.373C1600.89 381.848 1596.6 377.435 1593.6 374.453C1592.09 372.958 1590.9 371.826 1590.11 371.081C1589.72 370.713 1589.41 370.438 1589.23 370.263C1589.14 370.179 1589.06 370.123 1589.02 370.08L1588.99 370.047L1594.82 363.558L1588.99 370.057L1599.68 358.151L1589 370.065L1599.69 358.149L1589.01 370.062C1582.43 364.165 1581.87 354.047 1587.77 347.464C1593.67 340.881 1603.79 340.327 1610.37 346.224C1610.82 346.651 1625.21 359.551 1641.32 380.039C1649.38 390.297 1657.87 402.457 1665.24 416.054C1672.61 429.654 1678.89 444.683 1682.23 460.789C1684.06 469.592 1684.99 478.732 1684.66 488.042C1684.41 495.028 1683.45 502.111 1681.62 509.168C1678.9 519.761 1674.22 530.278 1667.4 540.28C1660.57 550.284 1651.61 559.767 1640.41 568.552C1633.38 574.074 1626.16 578.572 1618.82 582.062C1611.49 585.553 1604.03 588.038 1596.58 589.581C1584.32 592.121 1572.11 592.107 1560.39 590.287C1550.11 588.699 1540.17 585.754 1530.56 581.955C1513.74 575.298 1497.86 566.057 1482.76 556.256C1471.43 548.901 1460.55 541.219 1450.16 533.997C1442.37 528.585 1434.85 523.433 1427.69 518.88C1422.33 515.467 1417.17 512.399 1412.28 509.797C1404.96 505.892 1398.23 503.098 1392.51 501.649C1389.64 500.916 1387.03 500.506 1384.68 500.391C1382.33 500.275 1380.24 500.433 1378.29 500.825C1376.8 501.135 1375.38 501.592 1373.95 502.235C1372.52 502.879 1371.07 503.71 1369.56 504.831C1365.15 508.072 1361.99 511.055 1359.78 513.667C1358.12 515.626 1356.99 517.371 1356.18 518.947C1355.58 520.134 1355.15 521.224 1354.85 522.296C1354.4 523.902 1354.18 525.478 1354.17 527.269C1354.16 529.058 1354.38 531.055 1354.85 533.326C1355.43 536.137 1356.42 539.354 1357.71 542.895C1359.64 548.214 1362.28 554.264 1364.93 560.977C1367.57 567.701 1370.22 575.128 1371.93 583.392C1373.05 588.788 1373.76 594.533 1373.75 600.591C1373.74 605.128 1373.32 609.839 1372.41 614.635C1371.03 621.844 1368.51 629.239 1364.7 636.667C1360.89 644.105 1355.8 651.561 1349.32 659.103C1343.51 665.862 1337.16 671.364 1330.36 675.551C1323.57 679.736 1316.35 682.549 1309.06 684.058C1299.34 686.072 1289.61 685.77 1280.37 683.947C1272.26 682.348 1264.49 679.606 1257.07 676.141C1244.07 670.082 1232.05 661.839 1221.12 652.961C1204.75 639.645 1190.83 624.83 1180.87 613.261C1170.91 601.689 1164.93 593.37 1164.72 593.077C1159.56 585.893 1161.21 575.901 1168.39 570.747C1175.58 565.593 1185.57 567.24 1190.72 574.424L1190.71 574.479Z" fill="#7FBB53"/>
<path opacity="0.5" d="M1397.42 755.031C1397.32 754.45 1396.64 750.475 1396.37 744.097C1396.17 739.307 1396.2 733.174 1396.91 726.103C1397.97 715.507 1400.56 702.767 1406.3 689.507C1412.02 676.261 1421 662.495 1434.45 650.333C1442.51 643.037 1451.08 637.461 1459.69 633.33C1468.28 629.19 1476.9 626.475 1485.12 624.773C1493.33 623.071 1501.17 622.378 1508.28 622.272C1518.96 622.113 1528.07 623.28 1534.63 624.494C1541.2 625.718 1545.24 626.994 1545.78 627.169C1554.18 629.89 1558.79 638.913 1556.07 647.32C1553.35 655.727 1544.32 660.333 1535.92 657.612C1535.26 657.41 1529.75 655.805 1521.62 654.896C1513.48 653.977 1502.76 653.788 1491.6 656.11C1485.65 657.343 1479.56 659.278 1473.56 662.165C1467.57 665.061 1461.63 668.895 1455.91 674.073C1447.19 681.976 1441.27 690.495 1437.12 699.033C1434.03 705.434 1431.94 711.84 1430.59 717.87C1428.55 726.921 1428.15 735.124 1428.28 740.928C1428.34 743.826 1428.53 746.116 1428.68 747.605C1428.76 748.344 1428.84 748.891 1428.88 749.208C1428.91 749.365 1428.92 749.465 1428.92 749.506L1428.93 749.526L1426.68 749.898L1428.92 749.516L1419.98 751.052L1428.92 749.496L1428.93 749.526L1419.98 751.062L1428.92 749.506L1428.93 749.545L1414.06 752.115L1428.92 749.477L1428.93 749.545L1414.06 752.115L1428.92 749.477C1430.46 758.174 1424.66 766.484 1415.96 768.03C1407.26 769.577 1398.95 763.772 1397.41 755.075L1397.42 755.031Z" fill="#7FBB53"/>
<path opacity="0.5" d="M1246.43 728.445C1247.12 728.497 1253.44 728.995 1263.02 731.301C1270.2 733.03 1279.23 735.784 1289.08 740.178C1296.46 743.479 1304.31 747.705 1312.16 753.146C1323.92 761.3 1335.67 772.214 1345.56 786.606C1355.47 800.986 1363.44 818.81 1367.89 840.345C1372.89 864.492 1373.52 893.221 1368.1 927.401C1367.58 930.664 1366.76 933.959 1365.69 937.347C1363.81 943.262 1361.14 949.462 1357.7 955.74C1355.12 960.441 1352.12 965.158 1348.67 969.734C1343.48 976.589 1337.28 983.133 1329.88 988.618C1326.17 991.356 1322.17 993.819 1317.84 995.859C1313.52 997.899 1308.88 999.524 1303.97 1000.54C1296.75 1002.04 1288.96 1002.21 1281.06 1000.69C1273.16 999.183 1265.22 996.039 1257.45 991.285C1249.72 986.555 1243.29 980.096 1238.31 972.609C1233.35 965.11 1229.81 956.56 1227.92 947.414C1225.73 936.858 1225.73 925.481 1228.37 914.068C1230.35 905.52 1233.82 896.968 1238.89 888.83C1246.49 876.604 1257.69 865.368 1272.53 856.146C1287.38 846.913 1305.84 839.657 1328.29 835.006C1346.43 831.249 1367.18 829.186 1390.88 829.2L1391.07 829.201L1391.2 829.204C1391.93 829.216 1398.8 829.406 1409.29 831.452C1417.15 832.989 1427.05 835.574 1437.89 839.997C1446.03 843.316 1454.69 847.66 1463.37 853.378C1476.39 861.945 1489.45 873.648 1500.6 889.343C1511.75 905.027 1520.92 924.664 1526.47 948.729C1528.46 957.335 1523.09 965.933 1514.47 967.912C1505.87 969.899 1497.27 964.532 1495.29 955.914C1492.51 943.887 1488.76 933.532 1484.38 924.545C1476.69 908.837 1467.09 897.275 1456.87 888.475C1449.21 881.881 1441.2 876.872 1433.44 873.046C1421.82 867.315 1410.76 864.306 1402.75 862.769C1398.75 862.004 1395.51 861.603 1393.37 861.394C1392.29 861.289 1391.5 861.24 1391.01 861.208C1390.76 861.198 1390.6 861.191 1390.52 861.188L1390.46 861.2L1390.58 857.1L1390.48 861.186L1390.46 861.19L1390.58 857.1L1390.48 861.186L1390.69 852.502L1390.49 861.184L1390.7 852.5L1390.5 861.182L1390.46 861.19L1390.84 846.579L1390.54 861.184L1390.45 861.18L1390.84 846.579L1390.54 861.184L1390.87 845.184L1390.86 861.187C1369.03 861.177 1350.44 863.087 1334.78 866.331C1317.55 869.901 1303.89 875.078 1293.27 881.047C1285.3 885.516 1279.03 890.431 1274.13 895.479C1266.79 903.067 1262.47 910.976 1260.22 918.705C1257.98 926.44 1257.83 934.058 1259.25 940.913C1260.34 946.181 1262.37 950.98 1264.98 954.912C1267.59 958.854 1270.77 961.923 1274.14 963.972C1279.04 966.961 1283.29 968.52 1287.06 969.251C1290.83 969.961 1294.16 969.873 1297.46 969.2C1299.74 968.727 1302 967.952 1304.27 966.87C1308.24 964.985 1312.23 962.116 1315.97 958.533C1318.78 955.848 1321.44 952.765 1323.83 949.491C1327.43 944.588 1330.44 939.268 1332.61 934.386C1333.7 931.944 1334.57 929.618 1335.22 927.564C1335.88 925.509 1336.29 923.697 1336.5 922.388C1341.43 891.312 1340.64 866.547 1336.56 846.846C1334.4 836.417 1331.31 827.385 1327.62 819.489C1321.15 805.686 1312.81 795.302 1303.79 787.223C1297.03 781.168 1289.88 776.439 1282.91 772.757C1272.47 767.22 1262.45 764.066 1255.18 762.345C1251.55 761.484 1248.61 760.98 1246.66 760.69C1245.69 760.544 1244.96 760.46 1244.52 760.418C1244.3 760.392 1244.16 760.382 1244.08 760.376L1244.03 760.386L1244.4 755.816L1244.05 760.372L1244.03 760.377L1244.4 755.816L1244.05 760.372L1244.8 750.71L1244.05 760.382L1244.01 760.39L1245.17 745.618L1244.08 760.386L1244 760.383L1245.16 745.62L1244.07 760.388C1235.26 759.743 1228.65 752.075 1229.29 743.26C1229.94 734.446 1237.61 727.833 1246.42 728.479L1246.43 728.445Z" fill="#7FBB53"/>
<path opacity="0.5" d="M1175.46 816.28C1184.78 814.348 1193.9 820.341 1195.84 829.664C1197.77 838.988 1191.78 848.111 1182.45 850.043C1173.13 851.974 1164 845.982 1162.07 836.658C1160.14 827.335 1166.13 818.211 1175.46 816.28Z" fill="#7FBB53"/>
<path opacity="0.5" d="M789.698 1531.19C789.038 1531 782.948 1529.23 774.038 1525.03C767.358 1521.88 759.068 1517.35 750.318 1511.05C743.758 1506.32 736.928 1500.59 730.348 1493.67C720.488 1483.3 711.198 1470.23 704.428 1454.13C697.648 1438.04 693.458 1418.97 693.468 1396.98C693.468 1372.32 698.678 1344.06 710.918 1311.69C712.088 1308.6 713.558 1305.54 715.298 1302.44C718.338 1297.03 722.208 1291.5 726.848 1286.05C730.328 1281.97 734.228 1277.96 738.538 1274.18C745.008 1268.52 752.408 1263.37 760.768 1259.5C764.948 1257.57 769.368 1255.97 774.018 1254.85C778.668 1253.73 783.538 1253.08 788.558 1253.08C795.928 1253.08 803.588 1254.49 811.018 1257.58C818.448 1260.66 825.588 1265.35 832.228 1271.58C838.838 1277.78 843.828 1285.41 847.178 1293.75C850.518 1302.1 852.248 1311.19 852.248 1320.53C852.248 1331.31 849.938 1342.45 845.038 1353.09C841.368 1361.06 836.238 1368.73 829.618 1375.67C819.698 1386.1 806.448 1394.83 790.048 1400.85C773.638 1406.88 754.088 1410.24 731.158 1410.24C712.638 1410.24 691.898 1408.05 668.698 1403.23L668.508 1403.19L668.378 1403.16C667.668 1403 660.978 1401.42 651.128 1397.29C643.738 1394.19 634.568 1389.65 624.848 1383.12C617.558 1378.22 609.958 1372.21 602.618 1364.85C591.608 1353.82 581.188 1339.71 573.458 1322.08C565.718 1304.46 560.718 1283.37 560.168 1258.68C559.968 1249.85 566.968 1242.52 575.808 1242.33C584.638 1242.13 591.968 1249.13 592.158 1257.97C592.438 1270.31 594.008 1281.21 596.478 1290.9C600.818 1307.84 607.878 1321.11 616.098 1331.8C622.258 1339.81 629.088 1346.34 635.908 1351.66C646.128 1359.63 656.348 1364.82 663.878 1367.95C667.638 1369.51 670.728 1370.56 672.788 1371.2C673.818 1371.52 674.588 1371.73 675.058 1371.86C675.298 1371.92 675.458 1371.96 675.538 1371.98L675.598 1371.98L674.648 1375.97L675.578 1371.99L675.598 1371.99L674.648 1375.97L675.578 1371.99L673.608 1380.45L675.568 1371.99L673.598 1380.45L675.558 1371.99L675.598 1371.99L672.258 1386.22L675.518 1371.98L675.598 1372L672.258 1386.22L675.518 1371.98L671.948 1387.58L675.198 1371.91C696.578 1376.35 715.168 1378.25 731.158 1378.25C748.758 1378.25 763.178 1375.95 774.788 1372.26C783.498 1369.5 790.638 1365.96 796.458 1362.01C805.188 1356.07 811.018 1349.2 814.798 1342.09C818.558 1334.97 820.248 1327.54 820.248 1320.54C820.248 1315.16 819.238 1310.05 817.478 1305.67C815.718 1301.28 813.228 1297.63 810.348 1294.94C806.158 1291.02 802.308 1288.63 798.768 1287.15C795.218 1285.69 791.938 1285.1 788.568 1285.09C786.238 1285.09 783.868 1285.39 781.428 1285.99C777.158 1287.03 772.668 1289.03 768.278 1291.78C764.988 1293.84 761.758 1296.32 758.748 1299.04C754.228 1303.11 750.208 1307.71 747.088 1312.05C745.528 1314.22 744.198 1316.32 743.148 1318.2C742.088 1320.08 741.318 1321.77 740.848 1323.01C729.718 1352.44 725.468 1376.85 725.468 1396.97C725.468 1407.62 726.658 1417.09 728.668 1425.57C732.208 1440.4 738.268 1452.26 745.458 1462C750.848 1469.3 756.888 1475.38 762.968 1480.4C772.068 1487.94 781.238 1493.06 788.008 1496.22C791.388 1497.8 794.168 1498.89 796.018 1499.57C796.938 1499.91 797.638 1500.14 798.058 1500.27C798.268 1500.34 798.408 1500.38 798.478 1500.4L798.528 1500.4L797.238 1504.8L798.508 1500.41L798.528 1500.41L797.238 1504.8L798.508 1500.41L795.818 1509.72L798.508 1500.4L798.548 1500.4L794.418 1514.63L798.478 1500.39L798.558 1500.41L794.428 1514.63L798.488 1500.39C806.988 1502.81 811.908 1511.66 809.488 1520.16C807.068 1528.66 798.218 1533.58 789.718 1531.16L789.698 1531.19Z" fill="#7FBB53"/>
<path opacity="0.5" d="M898.057 1458.09C907.38 1456.16 916.504 1462.15 918.435 1471.48C920.367 1480.8 914.374 1489.92 905.051 1491.85C895.728 1493.79 886.604 1487.79 884.672 1478.47C882.741 1469.15 888.733 1460.02 898.057 1458.09Z" fill="#7FBB53"/>
<path opacity="0.5" d="M568.89 1658.37C569.575 1658.42 575.897 1658.92 585.474 1661.23C592.654 1662.96 601.691 1665.71 611.537 1670.1C618.92 1673.4 626.77 1677.63 634.617 1683.07C646.376 1691.23 658.124 1702.14 668.019 1716.53C677.922 1730.91 685.893 1748.74 690.344 1770.27C695.346 1794.42 695.977 1823.15 690.558 1857.33C690.039 1860.59 689.22 1863.88 688.145 1867.27C686.266 1873.19 683.598 1879.39 680.16 1885.66C677.58 1890.37 674.575 1895.08 671.121 1899.66C665.934 1906.51 659.732 1913.06 652.331 1918.54C648.629 1921.28 644.626 1923.74 640.3 1925.78C635.974 1927.82 631.337 1929.45 626.421 1930.47C619.204 1931.96 611.418 1932.14 603.515 1930.62C595.615 1929.11 587.672 1925.96 579.906 1921.21C572.176 1916.48 565.742 1910.02 560.77 1902.53C555.806 1895.04 552.268 1886.49 550.373 1877.34C548.186 1866.78 548.188 1855.41 550.828 1843.99C552.805 1835.44 556.273 1826.89 561.347 1818.76C568.945 1806.53 580.149 1795.29 594.987 1786.07C609.832 1776.84 628.294 1769.58 650.748 1764.93C668.883 1761.17 689.636 1759.11 713.331 1759.13L713.525 1759.13L713.659 1759.13C714.386 1759.14 721.258 1759.33 731.741 1761.38C739.606 1762.91 749.506 1765.5 760.349 1769.92C768.481 1773.24 777.142 1777.58 785.823 1783.3C798.841 1791.87 811.907 1803.57 823.052 1819.27C834.206 1834.95 843.38 1854.59 848.927 1878.65C850.914 1887.26 845.546 1895.86 836.929 1897.84C828.323 1899.82 819.725 1894.46 817.746 1885.84C814.969 1873.81 811.22 1863.46 806.836 1854.47C799.15 1838.76 789.545 1827.2 779.327 1818.4C771.67 1811.81 763.658 1806.8 755.9 1802.97C744.276 1797.24 733.216 1794.23 725.208 1792.69C721.209 1791.93 717.97 1791.53 715.823 1791.32C714.75 1791.21 713.953 1791.17 713.467 1791.13C713.22 1791.12 713.055 1791.12 712.972 1791.11L712.914 1791.13L713.035 1787.03L712.931 1791.11L712.912 1791.12L713.035 1787.03L712.931 1791.11L713.144 1782.43L712.941 1791.11L713.154 1782.43L712.951 1791.11L712.912 1791.12L713.296 1776.5L712.992 1791.11L712.91 1791.11L713.296 1776.5L712.992 1791.11L713.323 1775.11L713.32 1791.11C691.483 1791.1 672.894 1793.01 657.237 1796.26C640.003 1799.83 626.349 1805 615.729 1810.97C607.76 1815.44 601.487 1820.36 596.589 1825.4C589.245 1832.99 584.93 1840.9 582.671 1848.63C580.433 1856.37 580.286 1863.98 581.706 1870.84C582.797 1876.11 584.823 1880.91 587.434 1884.84C590.048 1888.78 593.227 1891.85 596.593 1893.9C601.491 1896.89 605.746 1898.45 609.512 1899.18C613.285 1899.89 616.616 1899.8 619.918 1899.12C622.2 1898.65 624.459 1897.88 626.727 1896.8C630.697 1894.91 634.688 1892.04 638.429 1888.46C641.233 1885.77 643.893 1882.69 646.288 1879.42C649.889 1874.51 652.892 1869.19 655.067 1864.31C656.154 1861.87 657.031 1859.54 657.677 1857.49C658.334 1855.43 658.745 1853.62 658.954 1852.31C663.883 1821.24 663.093 1796.47 659.011 1776.77C656.851 1766.34 653.765 1757.31 650.076 1749.41C643.602 1735.61 635.262 1725.23 626.245 1717.15C619.487 1711.09 612.339 1706.36 605.367 1702.68C594.927 1697.15 584.909 1693.99 577.639 1692.27C574.008 1691.41 571.065 1690.91 569.116 1690.62C568.146 1690.47 567.414 1690.39 566.976 1690.34C566.756 1690.32 566.611 1690.31 566.538 1690.3L566.489 1690.31L566.86 1685.74L566.507 1690.3L566.487 1690.3L566.86 1685.74L566.507 1690.3L567.252 1680.64L566.509 1690.31L566.47 1690.32L567.627 1675.54L566.54 1690.31L566.458 1690.31L567.618 1675.55L566.531 1690.31C557.716 1689.67 551.103 1682 551.749 1673.19C552.394 1664.37 560.062 1657.76 568.877 1658.4L568.89 1658.37Z" fill="#7FBB53"/>
<path opacity="0.5" d="M481.897 1692.36C491.22 1690.43 500.344 1696.42 502.275 1705.74C504.207 1715.07 498.214 1724.19 488.891 1726.12C479.567 1728.05 470.444 1722.06 468.512 1712.74C466.581 1703.41 472.573 1694.29 481.897 1692.36Z" fill="#7FBB53"/>
<path opacity="0.5" d="M467.166 1886.28C476.49 1884.35 485.614 1890.34 487.545 1899.67C489.477 1908.99 483.484 1918.12 474.161 1920.05C464.837 1921.98 455.713 1915.99 453.782 1906.66C451.851 1897.34 457.843 1888.22 467.166 1886.28Z" fill="#7FBB53"/>
<path opacity="0.5" d="M518.671 1528.39C527.994 1526.46 537.118 1532.45 539.049 1541.78C540.981 1551.1 534.988 1560.22 525.665 1562.15C516.342 1564.09 507.218 1558.09 505.286 1548.77C503.355 1539.45 509.347 1530.32 518.671 1528.39Z" fill="#7FBB53"/>
<path opacity="0.5" d="M1349.31 394.981C1354.02 394.006 1358.62 397.031 1359.6 401.737C1360.57 406.444 1357.55 411.05 1352.84 412.025C1348.13 413 1343.53 409.975 1342.55 405.268C1341.58 400.562 1344.6 395.956 1349.31 394.981Z" fill="#7FBB53"/>
<path opacity="0.5" d="M331.611 1638.61L342.875 1630.52L331.613 1638.62L331.583 1638.57C331.169 1638 326.701 1631.86 319.422 1623.25C313.967 1616.78 306.927 1608.93 298.869 1600.99C292.836 1595.04 286.233 1589.04 279.337 1583.56C274.176 1579.45 268.841 1575.63 263.509 1572.32C255.505 1567.35 247.483 1563.58 240.051 1561.53C236.334 1560.49 232.776 1559.88 229.405 1559.68C226.025 1559.48 222.841 1559.69 219.757 1560.33C216.036 1561.1 212.433 1562.49 208.726 1564.76C205.021 1567.04 201.193 1570.25 197.275 1574.8C192.765 1580.04 189.436 1584.88 186.988 1589.33C185.156 1592.66 183.81 1595.78 182.838 1598.73C181.386 1603.15 180.733 1607.2 180.599 1611.19C180.474 1615.17 180.881 1619.11 181.723 1623.17C182.484 1626.84 183.602 1630.61 184.966 1634.49C187.007 1640.3 189.604 1646.32 192.168 1652.69C194.714 1659.06 197.249 1665.78 198.804 1673.24C199.788 1677.99 200.349 1683.06 200.085 1688.39C199.881 1692.39 199.201 1696.5 197.935 1700.59C196.042 1706.73 192.829 1712.72 188.443 1718.27C184.051 1723.83 178.514 1729 171.765 1733.98C168.504 1736.39 165.064 1738.42 161.494 1740.01C157.926 1741.62 154.239 1742.8 150.518 1743.57C145.515 1744.61 140.478 1744.9 135.538 1744.61C130.906 1744.34 126.364 1743.56 121.902 1742.44C113.545 1740.3 105.48 1736.91 97.484 1732.82C83.5081 1725.64 69.6465 1716.26 55.5529 1706.5C44.9983 1699.18 34.3364 1691.63 23.6468 1684.65C15.6365 1679.4 7.62052 1674.47 -0.33823 1670.17C-12.2676 1663.7 -24.0399 1658.69 -35.2886 1655.95C-40.9149 1654.58 -46.4257 1653.76 -51.8106 1653.55C-57.2054 1653.33 -62.4842 1653.73 -67.7621 1654.83C-72.7169 1655.85 -77.6773 1657.49 -82.754 1659.9C-87.8287 1662.32 -93.0098 1665.51 -98.341 1669.7C-106.292 1675.93 -112.36 1682.23 -116.977 1688.49C-120.437 1693.18 -123.094 1697.86 -125.109 1702.52C-128.121 1709.53 -129.718 1716.56 -130.227 1723.76C-130.729 1730.95 -130.119 1738.33 -128.574 1745.79C-126.064 1757.91 -121.063 1770.22 -114.79 1781.77C-105.399 1799.1 -93.2261 1814.68 -83.454 1825.71C-78.5719 1831.24 -74.2877 1835.65 -71.2803 1838.63C-69.7756 1840.13 -68.5813 1841.26 -67.7936 1842.01C-67.4008 1842.37 -67.0989 1842.65 -66.9094 1842.82C-66.8206 1842.91 -66.7476 1842.96 -66.7081 1843.01L-66.6706 1843.04L-72.5057 1849.53L-66.6726 1843.03L-77.3598 1854.93L-66.6845 1843.02L-77.3696 1854.94L-66.6943 1843.02C-60.1111 1848.92 -59.5572 1859.04 -65.4544 1865.62C-71.3516 1872.2 -81.4696 1872.76 -88.0527 1866.86C-88.5087 1866.44 -102.895 1853.54 -119.005 1833.05C-127.064 1822.79 -135.557 1810.63 -142.929 1797.03C-150.29 1783.43 -156.57 1768.4 -159.916 1752.3C-161.74 1743.49 -162.673 1734.35 -162.345 1725.04C-162.097 1718.06 -161.134 1710.98 -159.307 1703.92C-156.58 1693.32 -151.906 1682.81 -145.083 1672.81C-138.25 1662.8 -129.298 1653.32 -118.097 1644.53C-111.061 1639.01 -103.843 1634.51 -96.5083 1631.02C-89.1739 1627.53 -81.7129 1625.05 -74.2611 1623.5C-62.0014 1620.96 -49.7947 1620.98 -38.0719 1622.8C-27.796 1624.39 -17.852 1627.33 -8.24149 1631.13C8.57847 1637.79 24.4532 1647.03 39.5552 1656.83C50.8827 1664.18 61.7673 1671.87 72.1583 1679.09C79.9482 1684.5 87.4695 1689.65 94.622 1694.21C99.9858 1697.62 105.145 1700.69 110.035 1703.29C117.359 1707.19 124.086 1709.99 129.809 1711.44C132.677 1712.17 135.284 1712.58 137.637 1712.7C139.989 1712.81 142.08 1712.65 144.021 1712.26C145.52 1711.95 146.936 1711.49 148.366 1710.85C149.795 1710.21 151.246 1709.38 152.76 1708.26C157.165 1705.01 160.325 1702.03 162.531 1699.42C164.199 1697.46 165.328 1695.72 166.135 1694.14C166.737 1692.95 167.165 1691.86 167.463 1690.79C167.917 1689.18 168.132 1687.61 168.149 1685.82C168.156 1684.03 167.936 1682.03 167.466 1679.76C166.884 1676.95 165.901 1673.73 164.605 1670.19C162.676 1664.87 160.034 1658.82 157.387 1652.11C154.748 1645.38 152.097 1637.96 150.385 1629.69C149.267 1624.3 148.557 1618.55 148.568 1612.49C148.578 1607.96 148.991 1603.25 149.907 1598.45C151.284 1591.24 153.806 1583.85 157.618 1576.42C161.429 1568.98 166.512 1561.53 172.997 1553.98C178.807 1547.22 185.153 1541.72 191.955 1537.54C198.747 1533.35 205.966 1530.54 213.252 1529.03C222.975 1527.01 232.709 1527.32 241.951 1529.14C250.054 1530.74 257.821 1533.48 265.249 1536.95C278.248 1543 290.27 1551.25 301.198 1560.12C317.57 1573.44 331.484 1588.26 341.448 1599.83C351.402 1611.4 357.384 1619.72 357.598 1620.01C362.753 1627.19 361.105 1637.18 353.922 1642.34C346.738 1647.49 336.746 1645.85 331.591 1638.66L331.611 1638.61Z" fill="#7FBB53"/>
<path opacity="0.5" d="M124.898 1458.05C124.998 1458.64 125.679 1462.61 125.948 1468.99C126.144 1473.78 126.117 1479.91 125.407 1486.98C124.344 1497.58 121.755 1510.32 116.015 1523.58C110.293 1536.82 101.319 1550.59 87.8665 1562.75C79.809 1570.05 71.2317 1575.63 62.6308 1579.76C54.0319 1583.9 45.4134 1586.61 37.1979 1588.31C28.9823 1590.01 21.1501 1590.71 14.0336 1590.81C3.35394 1590.97 -5.75213 1589.81 -12.3148 1588.59C-18.8796 1587.37 -22.9225 1586.09 -23.4591 1585.92C-31.8659 1583.2 -36.4721 1574.17 -33.7508 1565.77C-31.0295 1557.36 -22.0063 1552.75 -13.5995 1555.47C-12.9451 1555.68 -7.4348 1557.28 0.698691 1558.19C8.83421 1559.11 19.5555 1559.3 30.7164 1556.98C36.67 1555.74 42.7541 1553.81 48.7532 1550.92C54.7503 1548.02 60.686 1544.19 66.4046 1539.01C75.1228 1531.11 81.0479 1522.59 85.1921 1514.05C88.288 1507.65 90.3719 1501.25 91.7268 1495.22C93.7631 1486.16 94.1676 1477.96 94.0375 1472.16C93.9784 1469.26 93.79 1466.97 93.6347 1465.48C93.5531 1464.74 93.4807 1464.2 93.4354 1463.88C93.4029 1463.72 93.3924 1463.62 93.3941 1463.58L93.39 1463.56L95.6311 1463.19L93.3921 1463.57L102.336 1462.03L93.3961 1463.59L93.39 1463.56L102.334 1462.02L93.3941 1463.58L93.386 1463.54L108.254 1460.97L93.4002 1463.61L93.386 1463.54L108.254 1460.97L93.4002 1463.61C91.8538 1454.91 97.6588 1446.6 106.356 1445.06C115.053 1443.51 123.363 1449.31 124.91 1458.01L124.898 1458.05Z" fill="#7FBB53"/>
<path opacity="0.5" d="M-4.57025 1453.96L-113.65 1456.02L-76.4413 1518.36C-73.378 1523.48 -73.4321 1529.88 -76.5665 1534.96C-79.7009 1540.04 -85.3998 1542.95 -91.3511 1542.52L-195.267 1534.9L-179.284 1612.05C-178.244 1617.07 -179.696 1622.34 -183.171 1626.12C-186.646 1629.9 -191.769 1631.79 -196.859 1631.18L-306.377 1618.01C-315.153 1616.96 -321.409 1609 -320.347 1600.22C-319.295 1591.44 -311.329 1585.19 -302.551 1586.25L-215.131 1596.76L-230.9 1520.64C-231.921 1515.71 -230.575 1510.62 -227.263 1506.84C-223.951 1503.06 -219.075 1501.06 -214.066 1501.43L-119.68 1508.35L-155.262 1448.74C-158.189 1443.83 -158.289 1437.78 -155.507 1432.77C-152.733 1427.77 -147.54 1424.64 -141.822 1424.54L-5.17457 1421.96C3.66541 1421.79 10.9623 1428.82 11.1269 1437.65C11.2936 1446.49 4.26771 1453.79 -4.56248 1453.95L-4.57025 1453.96Z" fill="#7FBB53"/>
<path opacity="0.5" d="M275.882 1484.64C275.197 1484.59 268.874 1484.09 259.298 1481.79C252.118 1480.06 243.081 1477.3 233.235 1472.91C225.852 1469.61 218.001 1465.38 210.155 1459.94C198.396 1451.79 186.648 1440.87 176.753 1426.48C166.85 1412.1 158.879 1394.28 154.428 1372.74C149.425 1348.59 148.795 1319.86 154.214 1285.68C154.733 1282.42 155.551 1279.13 156.626 1275.74C158.506 1269.82 161.173 1263.62 164.611 1257.35C167.191 1252.65 170.197 1247.93 173.651 1243.35C178.838 1236.5 185.039 1229.95 192.441 1224.47C196.142 1221.73 200.146 1219.27 204.472 1217.23C208.798 1215.19 213.435 1213.56 218.351 1212.54C225.567 1211.05 233.354 1210.88 241.256 1212.39C249.157 1213.9 257.1 1217.05 264.865 1221.8C272.596 1226.53 279.03 1232.99 284.002 1240.48C288.966 1247.98 292.504 1256.53 294.399 1265.67C296.585 1276.23 296.583 1287.6 293.943 1299.02C291.966 1307.57 288.499 1316.12 283.424 1324.26C275.826 1336.48 264.623 1347.72 249.785 1356.94C234.939 1366.17 216.477 1373.43 194.024 1378.08C175.889 1381.84 155.136 1383.9 131.44 1383.89L131.246 1383.89L131.113 1383.88C130.385 1383.87 123.514 1383.68 113.031 1381.63C105.166 1380.1 95.2653 1377.51 84.4228 1373.09C76.2904 1369.77 67.6293 1365.43 58.9489 1359.71C45.9303 1351.14 32.8648 1339.44 21.7192 1323.74C10.5659 1308.06 1.39175 1288.42 -4.15519 1264.36C-6.14221 1255.75 -0.77465 1247.15 7.84302 1245.17C16.4489 1243.19 25.0464 1248.55 27.0257 1257.17C29.803 1269.2 33.5515 1279.55 37.9357 1288.54C45.6218 1304.25 55.2268 1315.81 65.4444 1324.61C73.1012 1331.2 81.1138 1336.21 88.8712 1340.04C100.495 1345.77 111.556 1348.78 119.564 1350.32C123.562 1351.08 126.801 1351.48 128.948 1351.69C130.022 1351.8 130.818 1351.85 131.305 1351.88C131.552 1351.89 131.717 1351.89 131.799 1351.9L131.858 1351.89L131.737 1355.99L131.84 1351.9L131.86 1351.9L131.737 1355.99L131.84 1351.9L131.627 1360.58L131.831 1351.9L131.618 1360.59L131.821 1351.9L131.86 1351.9L131.476 1366.51L131.78 1351.9L131.862 1351.91L131.476 1366.51L131.78 1351.9L131.448 1367.9L131.452 1351.9C153.288 1351.91 171.877 1350 187.535 1346.76C204.769 1343.19 218.422 1338.01 229.043 1332.04C237.012 1327.57 243.285 1322.66 248.183 1317.61C255.526 1310.02 259.842 1302.11 262.101 1294.38C264.338 1286.65 264.486 1279.03 263.066 1272.17C261.975 1266.9 259.949 1262.11 257.337 1258.17C254.723 1254.23 251.545 1251.16 248.179 1249.11C243.281 1246.12 239.026 1244.57 235.259 1243.83C231.487 1243.12 228.156 1243.21 224.854 1243.89C222.572 1244.36 220.312 1245.13 218.045 1246.22C214.074 1248.1 210.083 1250.97 206.342 1254.55C203.539 1257.24 200.879 1260.32 198.483 1263.6C194.883 1268.5 191.88 1273.82 189.705 1278.7C188.617 1281.14 187.741 1283.47 187.094 1285.52C186.438 1287.58 186.026 1289.39 185.818 1290.7C180.889 1321.77 181.679 1346.54 185.76 1366.24C187.921 1376.67 191.007 1385.7 194.695 1393.6C201.17 1407.4 209.51 1417.78 218.526 1425.86C225.285 1431.92 232.433 1436.65 239.405 1440.33C249.845 1445.87 259.863 1449.02 267.133 1450.74C270.763 1451.6 273.707 1452.11 275.656 1452.4C276.626 1452.54 277.358 1452.63 277.796 1452.67C278.015 1452.69 278.161 1452.7 278.233 1452.71L278.282 1452.7L277.912 1457.27L278.265 1452.71L278.284 1452.71L277.912 1457.27L278.265 1452.71L277.519 1462.38L278.263 1452.7L278.302 1452.7L277.144 1467.47L278.231 1452.7L278.314 1452.7L277.154 1467.47L278.241 1452.7C287.055 1453.34 293.668 1461.01 293.023 1469.83C292.377 1478.64 284.709 1485.25 275.895 1484.61L275.882 1484.64Z" fill="#7FBB53"/>
<path opacity="0.5" d="M346.859 1396.81C337.535 1398.74 328.411 1392.75 326.48 1383.42C324.548 1374.1 330.541 1364.97 339.864 1363.04C349.188 1361.11 358.312 1367.1 360.243 1376.43C362.174 1385.75 356.182 1394.87 346.859 1396.81Z" fill="#7FBB53"/>
<path opacity="0.5" d="M24.2003 1498.85C14.8769 1500.78 5.75305 1494.79 3.82163 1485.46C1.89021 1476.14 7.88261 1467.02 17.2061 1465.09C26.5295 1463.15 35.6534 1469.15 37.5848 1478.47C39.5162 1487.79 33.5238 1496.92 24.2003 1498.85Z" fill="#7FBB53"/>
<path opacity="0.5" d="M164.646 1819.84C155.322 1821.77 146.198 1815.78 144.267 1806.45C142.336 1797.13 148.328 1788 157.651 1786.07C166.975 1784.14 176.099 1790.13 178.03 1799.46C179.962 1808.78 173.969 1817.91 164.646 1819.84Z" fill="#7FBB53"/>
<path opacity="0.5" d="M445.051 1133.07C445.551 1133.38 448.97 1135.52 453.907 1139.56C457.611 1142.61 462.168 1146.71 466.97 1151.95C474.167 1159.8 481.947 1170.22 488.016 1183.33C494.087 1196.42 498.381 1212.28 498.495 1230.41C498.572 1241.28 497.02 1251.4 494.374 1260.56C491.736 1269.73 488.022 1277.97 483.82 1285.23C479.619 1292.5 474.92 1298.8 470.26 1304.18C463.267 1312.25 456.332 1318.27 451.056 1322.36C445.772 1326.44 442.127 1328.61 441.639 1328.89C434.011 1333.35 424.212 1330.78 419.753 1323.15C415.293 1315.52 417.866 1305.72 425.495 1301.26C426.081 1300.91 430.948 1297.87 437.043 1292.4C443.146 1286.95 450.427 1279.07 456.127 1269.2C459.171 1263.94 461.78 1258.11 463.621 1251.71C465.454 1245.31 466.547 1238.33 466.493 1230.62C466.403 1218.85 463.994 1208.76 460.384 1199.98C457.67 1193.41 454.279 1187.59 450.683 1182.56C445.287 1175.01 439.437 1169.25 435.02 1165.48C432.819 1163.59 430.986 1162.21 429.771 1161.33C429.165 1160.9 428.709 1160.59 428.442 1160.41C428.304 1160.33 428.222 1160.28 428.193 1160.25L428.175 1160.24L429.39 1158.32L428.184 1160.24L432.994 1152.55L428.201 1160.25L428.175 1160.24L432.986 1152.54L428.193 1160.25L428.158 1160.23L436.143 1147.42L428.219 1160.26L428.158 1160.23L436.143 1147.42L428.219 1160.26C420.701 1155.62 418.367 1145.76 423.005 1138.24C427.644 1130.72 437.508 1128.39 445.026 1133.03L445.051 1133.07Z" fill="#7FBB53"/>
<path opacity="0.5" d="M762.451 1134.18C761.931 1134.46 758.37 1136.35 752.399 1138.61C747.913 1140.3 742.082 1142.2 735.145 1143.75C724.752 1146.06 711.843 1147.6 697.451 1146.32C683.078 1145.04 667.191 1140.85 651.42 1131.89C641.964 1126.53 633.977 1120.14 627.355 1113.27C620.725 1106.4 615.442 1099.07 611.247 1091.81C607.052 1084.54 603.935 1077.32 601.6 1070.6C598.096 1060.51 596.345 1051.5 595.438 1044.89C594.539 1038.27 594.481 1034.03 594.479 1033.46C594.423 1024.63 601.544 1017.42 610.381 1017.37C619.217 1017.31 626.423 1024.43 626.478 1033.27C626.492 1033.95 626.698 1039.69 628.388 1047.7C630.07 1055.71 633.256 1065.95 638.964 1075.82C642.004 1081.08 645.751 1086.25 650.375 1091.04C655.008 1095.82 660.512 1100.26 667.223 1104.06C677.463 1109.86 687.411 1112.81 696.819 1114.06C703.868 1114.99 710.604 1114.96 716.755 1114.35C725.988 1113.45 733.903 1111.25 739.373 1109.31C742.106 1108.34 744.221 1107.45 745.586 1106.83C746.262 1106.52 746.758 1106.28 747.045 1106.14C747.184 1106.06 747.276 1106.02 747.315 1106.01L747.333 1106L748.39 1108.01L747.324 1106L751.59 1114.01L747.307 1106.01L747.333 1106L751.599 1114.01L747.315 1106.01L747.35 1105.99L754.457 1119.29L747.289 1106.02L747.35 1105.99L754.457 1119.29L747.289 1106.02C755.061 1101.82 764.774 1104.72 768.972 1112.5C773.171 1120.27 770.268 1129.98 762.496 1134.18L762.451 1134.18Z" fill="#7FBB53"/>
<path opacity="0.5" d="M497.87 935.03L509.135 926.947L497.872 935.04L497.843 934.995C497.429 934.427 492.96 928.286 485.682 919.673C480.226 913.205 473.187 905.35 465.128 897.41C459.096 891.46 452.493 885.465 445.597 879.979C440.436 875.871 435.101 872.054 429.769 868.746C421.764 863.777 413.743 860.006 406.311 857.95C402.594 856.913 399.036 856.302 395.665 856.102C392.284 855.903 389.101 856.113 386.016 856.752C382.295 857.523 378.692 858.913 374.986 861.182C371.281 863.461 367.453 866.674 363.534 871.224C359.024 876.468 355.696 881.303 353.248 885.752C351.415 889.083 350.07 892.201 349.098 895.15C347.645 899.576 346.993 903.623 346.859 907.613C346.734 911.591 347.141 915.53 347.983 919.594C348.744 923.266 349.862 927.037 351.226 930.911C353.267 936.718 355.863 942.747 358.427 949.109C360.974 955.485 363.509 962.2 365.064 969.66C366.048 974.409 366.608 979.481 366.345 984.815C366.141 988.81 365.461 992.923 364.195 997.015C362.301 1003.16 359.089 1009.14 354.703 1014.69C350.31 1020.25 344.774 1025.43 338.025 1030.41C334.764 1032.81 331.324 1034.84 327.754 1036.44C324.186 1038.04 320.499 1039.23 316.778 1040C311.774 1041.03 306.738 1041.32 301.798 1041.04C297.165 1040.76 292.624 1039.99 288.162 1038.86C279.804 1036.72 271.74 1033.33 263.744 1029.24C249.768 1022.07 235.906 1012.68 221.813 1002.92C211.258 995.599 200.596 988.055 189.907 981.068C181.896 975.824 173.88 970.897 165.922 966.592C153.992 960.128 142.22 955.111 130.971 952.376C125.345 950.999 119.834 950.18 114.449 949.968C109.054 949.758 103.776 950.157 98.4977 951.25C93.5429 952.277 88.5825 953.917 83.5058 956.327C78.4311 958.747 73.2499 961.934 67.9187 966.122C59.9677 972.355 53.8999 978.657 49.2831 984.913C45.8224 989.603 43.1657 994.279 41.1503 998.945C38.1389 1005.95 36.5418 1012.98 36.0324 1020.18C35.5307 1027.38 36.1403 1034.76 37.686 1042.22C40.1953 1054.33 45.1967 1066.64 51.4695 1078.19C60.8613 1095.52 73.0337 1111.1 82.8057 1122.14C87.6879 1127.66 91.9721 1132.07 94.9795 1135.06C96.4842 1136.55 97.6785 1137.68 98.4661 1138.43C98.8589 1138.8 99.1609 1139.07 99.3504 1139.25C99.4392 1139.33 99.5122 1139.39 99.5517 1139.43L99.5892 1139.46L93.7541 1145.95L99.5871 1139.45L88.9 1151.36L99.5753 1139.44L88.8902 1151.36L99.5655 1139.45C106.149 1145.34 106.703 1155.46 100.805 1162.04C94.9082 1168.63 84.7902 1169.18 78.207 1163.28C77.7511 1162.86 63.3653 1149.96 47.2543 1129.47C39.1958 1119.21 30.7025 1107.05 23.331 1093.45C15.9693 1079.85 9.6902 1064.83 6.34352 1048.72C4.51989 1039.92 3.58632 1030.78 3.91457 1021.47C4.16271 1014.48 5.12602 1007.4 6.95243 1000.34C9.68023 989.747 14.3541 979.231 21.177 969.229C28.0098 959.225 36.9622 949.741 48.1631 940.957C55.1992 935.435 62.417 930.937 69.7514 927.447C77.0859 923.956 84.5469 921.471 91.9987 919.927C104.258 917.388 116.465 917.402 128.188 919.222C138.464 920.81 148.408 923.754 158.018 927.554C174.838 934.21 190.713 943.452 205.815 953.253C217.142 960.608 228.027 968.289 238.418 975.512C246.208 980.924 253.729 986.075 260.882 990.629C266.246 994.042 271.405 997.109 276.295 999.712C283.619 1003.62 290.346 1006.41 296.068 1007.86C298.937 1008.59 301.544 1009 303.896 1009.12C306.249 1009.23 308.34 1009.08 310.281 1008.68C311.779 1008.37 313.196 1007.92 314.625 1007.27C316.055 1006.63 317.506 1005.8 319.02 1004.68C323.424 1001.44 326.585 998.454 328.791 995.842C330.458 993.883 331.588 992.138 332.395 990.561C332.996 989.375 333.424 988.285 333.723 987.212C334.177 985.607 334.391 984.031 334.409 982.24C334.416 980.451 334.196 978.454 333.726 976.183C333.143 973.372 332.16 970.155 330.865 966.614C328.936 961.295 326.294 955.245 323.647 948.532C321.008 941.808 318.357 934.381 316.645 926.117C315.527 920.721 314.817 914.976 314.828 908.917C314.838 904.381 315.251 899.669 316.167 894.874C317.543 887.665 320.066 880.269 323.878 872.842C327.689 865.404 332.772 857.948 339.257 850.406C345.066 843.647 351.412 838.145 358.214 833.958C365.007 829.773 372.226 826.96 379.512 825.451C389.235 823.437 398.969 823.739 408.211 825.562C416.314 827.161 424.081 829.903 431.509 833.368C444.508 839.427 456.53 847.67 467.458 856.548C483.829 869.863 497.744 884.679 507.708 896.248C517.662 907.82 523.644 916.139 523.858 916.432C529.012 923.616 527.365 933.607 520.181 938.762C512.998 943.916 503.006 942.269 497.851 935.085L497.87 935.03Z" fill="#7FBB53"/>
<path opacity="0.5" d="M143.669 1069.53C134.346 1071.46 125.222 1065.47 123.29 1056.14C121.359 1046.82 127.351 1037.7 136.675 1035.76C145.998 1033.83 155.122 1039.82 157.054 1049.15C158.985 1058.47 152.993 1067.6 143.669 1069.53Z" fill="#7FBB53"/>
<path opacity="0.5" d="M113.074 1953.72L222.154 1951.66L184.945 1889.32C181.882 1884.2 181.936 1877.8 185.07 1872.72C188.205 1867.64 193.903 1864.73 199.855 1865.16L303.771 1872.78L287.788 1795.63C286.747 1790.61 288.2 1785.34 291.675 1781.56C295.149 1777.78 300.273 1775.89 305.362 1776.5L414.88 1789.67C423.656 1790.72 429.912 1798.68 428.851 1807.46C427.799 1816.24 419.833 1822.49 411.055 1821.43L323.634 1810.92L339.404 1887.04C340.424 1891.97 339.078 1897.06 335.766 1900.84C332.454 1904.62 327.579 1906.62 322.569 1906.25L228.184 1899.33L263.766 1958.94C266.692 1963.85 266.793 1969.9 264.011 1974.91C261.237 1979.91 256.043 1983.04 250.325 1983.14L113.678 1985.72C104.838 1985.89 97.5413 1978.86 97.3767 1970.03C97.2101 1961.19 104.236 1953.9 113.066 1953.73L113.074 1953.72Z" fill="#7FBB53"/>
<path opacity="0.5" d="M949.922 1912.25L1048.29 1959.43L1043.07 1887.02C1042.63 1881.06 1045.55 1875.38 1050.64 1872.24C1055.72 1869.11 1062.12 1869.08 1067.24 1872.14L1156.65 1925.64L1177.04 1849.54C1178.37 1844.58 1182.03 1840.53 1186.84 1838.71C1191.64 1836.89 1197.07 1837.51 1201.34 1840.34L1293.26 1901.32C1300.63 1906.2 1302.64 1916.13 1297.74 1923.5C1292.86 1930.86 1282.93 1932.87 1275.57 1927.98L1202.2 1879.3L1182.08 1954.39C1180.77 1959.25 1177.28 1963.19 1172.63 1965.08C1167.97 1966.97 1162.72 1966.57 1158.41 1963.98L1077.2 1915.39L1082.2 1984.63C1082.6 1990.33 1079.97 1995.79 1075.24 1999.01C1070.51 2002.23 1064.47 2002.69 1059.31 2000.21L936.081 1941.11C928.109 1937.29 924.748 1927.73 928.569 1919.77C932.392 1911.8 941.948 1908.44 949.91 1912.26L949.922 1912.25Z" fill="#7FBB53"/>
<path opacity="0.5" d="M852.192 926.85L916.363 1015.08L946.147 948.873C948.593 943.427 953.865 939.809 959.826 939.467C965.787 939.125 971.433 942.132 974.489 947.257L1027.77 1036.8L1081.85 979.505C1085.37 975.775 1090.52 973.95 1095.61 974.631C1100.7 975.312 1105.19 978.43 1107.6 982.951L1159.54 1080.26C1163.71 1088.06 1160.76 1097.75 1152.96 1101.91C1145.16 1106.07 1135.47 1103.13 1131.31 1095.32L1089.86 1017.64L1036.49 1074.18C1033.04 1077.83 1028.1 1079.64 1023.1 1079.1C1018.11 1078.55 1013.67 1075.7 1011.11 1071.38L962.713 990.048L934.232 1053.36C931.885 1058.57 926.979 1062.12 921.28 1062.71C915.595 1063.3 910.056 1060.83 906.697 1056.21L826.306 945.677C821.106 938.527 822.685 928.521 829.829 923.328C836.979 918.128 846.985 919.707 852.178 926.851L852.192 926.85Z" fill="#7FBB53"/>
</g>
<defs>
<clipPath id="clip0_3365_7711">
<rect width="1440" height="1987" fill="white" transform="translate(0.786865)"/>
</clipPath>
</defs>
</svg>
