<svg width="64" height="64" viewBox="0 0 64 64" fill="none" xmlns="http://www.w3.org/2000/svg">
<path fill-rule="evenodd" clip-rule="evenodd" d="M32.1331 39.4481V10.3531C32.1331 7.49914 30.9836 4.89593 29.1385 3.03309C27.2935 1.16428 24.7234 0 21.9057 0C19.088 0 16.5179 1.16428 14.6787 3.03309C12.8337 4.9019 11.6842 7.50511 11.6842 10.3531V39.6869C9.40295 42.1946 8 45.5561 8 49.234C8 53.1149 9.5621 56.6555 12.0733 59.193C14.5844 61.7365 18.0741 63.3187 21.9057 63.3187C25.7373 63.3187 29.2328 61.7365 31.7381 59.193C34.2493 56.6495 35.8114 53.1149 35.8114 49.234C35.8114 45.5561 34.4084 42.1946 32.1272 39.6869V39.4481H32.1331ZM28.4076 55.8136C26.7394 57.5033 24.4522 58.5422 21.9057 58.5422C19.3592 58.5422 17.0779 57.5033 15.4038 55.8136C13.7356 54.1239 12.7158 51.8073 12.7099 49.228C12.7099 46.5293 13.8358 44.1171 15.6396 42.4095L16.3882 41.699V40.6601V39.878V10.3531C16.3882 8.80671 17.0013 7.42749 18.0034 6.40651C19.0055 5.3915 20.3672 4.77652 21.8998 4.77055C23.4265 4.77055 24.7882 5.3915 25.7962 6.40651C26.7983 7.42152 27.4055 8.80074 27.4114 10.3531V39.4481V41.705L28.16 42.4155C29.9697 44.1231 31.0897 46.5352 31.0897 49.234C31.0897 51.8133 30.064 54.1239 28.3958 55.8196L28.4076 55.8136ZM39.5503 8.95595H55.4661V13.7325H39.5503V8.95595ZM51.3398 18.5091H39.5503V23.2856H51.3398V18.5091ZM55.4661 28.6593H39.5503V33.4358H55.4661V28.6593ZM24.265 23.7693V45.7413C25.3732 46.5055 26.1042 47.7952 26.1042 49.258C26.1042 51.6045 24.2238 53.5091 21.9071 53.5091C19.5905 53.5091 17.7101 51.6045 17.7101 49.258C17.7101 47.7952 18.441 46.5055 19.5492 45.7413V23.7693H24.265Z" fill="url(#paint0_linear_3014_2877)"/>
<defs>
<linearGradient id="paint0_linear_3014_2877" x1="-13.8612" y1="-44.939" x2="55.509" y2="90.1737" gradientUnits="userSpaceOnUse">
<stop stop-color="#04804C"/>
<stop offset="1" stop-color="#7FBB53"/>
</linearGradient>
</defs>
</svg>
