<svg width="65" height="64" viewBox="0 0 65 64" fill="none" xmlns="http://www.w3.org/2000/svg">
<g clip-path="url(#clip0_3014_1703)">
<path fill-rule="evenodd" clip-rule="evenodd" d="M38.4138 3.55566H53.9651V8.28115H38.4138V3.55566ZM19.3392 31.9203C22.9171 31.9203 26.182 30.4613 28.5259 28.1103C30.8758 25.7653 32.3341 22.4988 32.3341 18.9193C32.3341 15.3397 30.8758 12.0732 28.5259 9.72821C26.182 7.37729 22.9171 5.91829 19.3392 5.91829C15.7614 5.91829 12.4964 7.37729 10.1525 9.72821C7.8027 12.0732 6.3444 15.3397 6.3444 18.9193C6.3444 22.4988 7.8027 25.7653 10.1525 28.1103C12.4964 30.4613 15.7614 31.9203 19.3392 31.9203ZM13.4942 13.0656C14.9998 11.5652 17.0485 10.6438 19.3451 10.6438C21.6359 10.6438 23.6905 11.5652 25.1961 13.0656C26.6957 14.5718 27.6167 16.6215 27.6167 18.9193C27.6167 21.2111 26.6957 23.2667 25.1961 24.773C23.6905 26.2733 21.6418 27.1948 19.3451 27.1948C17.0544 27.1948 14.9998 26.2733 13.4942 24.773C11.9946 23.2667 11.0736 21.217 11.0736 18.9193C11.0736 16.6274 11.9946 14.5718 13.4942 13.0656ZM32.7768 40.373C29.3465 36.9352 24.576 34.8028 19.3391 34.8028C14.0963 34.8028 9.33177 36.9352 5.90151 40.373C2.46535 43.8049 0.333984 48.5717 0.333984 53.817V60.4504H5.05723V53.817C5.05723 49.8653 6.65133 46.3035 9.24321 43.7104C11.8351 41.1232 15.3893 39.5283 19.3451 39.5224C23.2949 39.5224 26.8491 41.1173 29.4469 43.7104C32.0329 46.3035 33.627 49.8594 33.6329 53.817V60.4504H38.3561V53.817C38.3561 48.5717 36.2248 43.8049 32.7886 40.373H32.7768ZM64.3346 3.55566H58.1413V8.28115H64.3346V3.55566ZM38.4138 15.8243H53.9651V20.5498H38.4138V15.8243ZM64.3346 15.8243H58.1413V20.5498H64.3346V15.8243ZM38.4138 28.016H64.3327V32.7414H38.4138V28.016Z" fill="url(#paint0_linear_3014_1703)"/>
</g>
<defs>
<linearGradient id="paint0_linear_3014_1703" x1="-29.1424" y1="-36.824" x2="17.8453" y2="100.507" gradientUnits="userSpaceOnUse">
<stop stop-color="#04804C"/>
<stop offset="1" stop-color="#7FBB53"/>
</linearGradient>
<clipPath id="clip0_3014_1703">
<rect width="64" height="64" fill="white" transform="translate(0.333984)"/>
</clipPath>
</defs>
</svg>
