<svg width="90" height="90" viewBox="0 0 90 90" fill="none" xmlns="http://www.w3.org/2000/svg">
<path d="M87.67 45.33C87.67 68.71 68.72 87.66 45.34 87.66C21.96 87.66 3 68.71 3 45.33C3 21.95 21.95 3 45.33 3C68.71 3 87.66 21.95 87.66 45.33H87.67Z" fill="#ABC726"/>
<path fill-rule="evenodd" clip-rule="evenodd" d="M46.0798 13.92H46.6298C47.8698 14.07 49.1698 14.16 50.4298 14.29C49.8898 20.91 49.3098 27.49 48.7498 34.08C52.0798 28.28 55.3498 22.13 58.6598 16.27C59.9498 16.94 61.2498 17.61 62.4598 18.35C59.2798 24.45 56.0198 30.47 52.7698 36.49C58.3398 32.4 63.9398 28.03 69.5198 23.84C70.4798 24.91 71.3398 26.09 72.1898 27.28C66.8798 31.56 61.3998 35.69 56.0598 39.93C62.7598 38.23 69.3698 36.44 76.0998 34.77C76.4598 36.17 76.8598 37.54 77.1998 38.98C70.2398 40.88 63.2998 42.81 56.3198 44.69C63.4698 46.06 70.7298 47.32 77.8998 48.68V48.94C77.6298 50.25 77.4098 51.62 77.1698 52.96C70.0798 51.82 63.0698 50.6 56.0298 49.41C61.7498 53.41 67.8198 57.37 73.6198 61.41C72.8698 62.68 72.0398 63.86 71.2098 65.03C65.3698 61.22 59.5598 57.4 53.7598 53.55C57.2698 59.1 61.0598 64.68 64.6198 70.3C63.5098 71.19 62.2298 71.91 61.0398 72.71C57.1498 67.14 53.4498 61.38 49.5898 55.78C50.6898 62.46 51.8298 69.1 52.8798 75.82C51.4498 76.06 50.0298 76.31 48.5998 76.55C47.3998 69.96 46.2098 63.36 45.0498 56.73C43.2898 63.42 41.6498 70.22 39.9698 76.99H39.7098C38.3898 76.64 37.0298 76.33 35.6898 76C37.2898 69.14 38.8998 62.29 40.5198 55.44C36.1398 60.93 31.7498 66.74 27.3198 72.3C26.1398 71.45 24.9898 70.58 23.8798 69.67C28.1198 63.89 32.5198 58.27 36.7898 52.52C30.4798 55.89 24.1798 59.28 17.8398 62.61C17.0598 61.4 16.3898 60.09 15.7198 58.77C22.2198 55.2 28.7098 51.62 35.1798 48.02C28.1998 48.33 21.2198 48.64 14.1898 48.9C14.1598 47.7 14.0998 46.53 14.0098 45.39V44.55C20.8098 44.19 27.5498 43.78 34.3498 43.42C28.1498 40.91 21.8898 38.47 15.6598 35.99C16.1598 34.61 16.6798 33.25 17.2298 31.93C23.5898 34.26 29.8498 36.69 36.1398 39.1C31.4998 34.18 26.5998 29.21 21.8798 24.25C22.8298 23.15 23.9398 22.21 24.9498 21.18C29.8898 26 34.6698 30.99 39.5798 35.85C37.3298 29.39 35.0398 22.98 32.8098 16.5C34.1798 16.04 35.4798 15.51 36.8698 15.07C37.1098 15.41 37.2398 15.82 37.3798 16.2C39.6298 22.28 41.7898 28.38 44.0398 34.42C44.7598 27.63 45.4098 20.77 46.0898 13.94L46.0798 13.92Z" fill="#FEEA0C"/>
<path fill-rule="evenodd" clip-rule="evenodd" d="M43.0591 45.42L37.1191 45.39C37.1191 45.39 38.3291 41.26 38.9491 40.9C39.5691 40.53 40.4391 40.6 40.6591 40.65C40.8791 40.7 41.9591 41.32 42.0991 41.62C42.2391 41.92 43.0491 45.43 43.0491 45.43L43.0591 45.42Z" fill="white"/>
<path fill-rule="evenodd" clip-rule="evenodd" d="M47.1509 45.24L52.7409 45.43C52.7409 45.43 52.3709 42.76 52.2809 42.59C52.1809 42.42 51.9309 41.84 51.5809 41.53C51.2309 41.21 50.7109 40.77 50.6109 40.72C50.5109 40.67 50.5109 40.4 50.0109 40.5C49.5009 40.6 48.9809 40.69 48.7909 40.83C48.6009 40.97 48.4609 41.18 48.2709 41.45C48.0809 41.72 47.7909 42.2 47.7809 42.5C47.7609 42.8 47.1309 45.17 47.1309 45.17L47.1609 45.25L47.1509 45.24Z" fill="white"/>
<path fill-rule="evenodd" clip-rule="evenodd" d="M43.5604 45.71H36.9004C36.9004 43.7 37.5204 41.77 38.5804 40.74C39.0204 40.31 39.6704 39.91 40.5904 40.04C40.9604 40.1 41.4204 40.36 41.6904 40.59C42.8804 41.58 43.5004 43.66 43.5504 45.71H43.5604ZM39.9704 40.92C38.5004 41.13 37.9804 43.26 37.9204 44.83H40.1104C40.3304 43.57 40.7904 42.56 41.9404 42.23C41.5004 41.59 41.0604 40.76 39.9604 40.91L39.9704 40.92ZM41.1104 44.83H42.5004C42.5004 44.2 42.4704 43.59 42.2404 43.19C41.4504 43.33 41.1904 43.99 41.1104 44.83Z" fill="black"/>
<path fill-rule="evenodd" clip-rule="evenodd" d="M53.3202 45.71C51.1102 45.68 48.8102 45.76 46.6602 45.67C46.8202 43.12 47.5202 40.64 49.5502 40.07C50.3702 39.84 51.2102 40.32 51.6302 40.73C52.7002 41.77 53.3102 43.7 53.3102 45.7L53.3202 45.71ZM49.7402 40.92C48.3102 41.15 47.7502 43.26 47.7302 44.83H49.8902C50.1602 43.64 50.5302 42.55 51.7202 42.27C51.3602 41.54 50.7902 40.75 49.7402 40.92ZM50.9102 44.83H52.3002C52.2702 44.22 52.2902 43.55 52.0102 43.19C51.2402 43.34 50.9702 43.98 50.9102 44.83Z" fill="black"/>
<path fill-rule="evenodd" clip-rule="evenodd" d="M41.5797 47.94C42.3297 49.63 43.7997 51 46.2197 50.83C48.2097 50.69 49.3997 49.44 50.0997 47.94H51.7497C51.1397 49.92 49.8697 51.25 48.0197 52C47.7397 53.8 45.0097 54.35 43.9597 52.73C43.8397 52.55 43.7497 52.29 43.6997 52.04C41.8497 51.27 40.5197 49.98 39.9297 47.94H41.5797Z" fill="#E4171F"/>
<path d="M18.8712 76.12L16.7012 74.11L17.3112 73.45L18.6812 74.71L19.4312 73.9L18.1512 72.72L18.7512 72.07L20.0312 73.25L21.3512 71.82L22.1612 72.56L18.8812 76.12H18.8712Z" fill="#1D1D1B"/>
<path d="M16.6301 68.51C16.9701 68.21 17.2401 67.95 17.4601 67.74L18.0901 68.45L17.7501 68.82V68.84C18.0201 68.8 18.5001 68.81 18.9201 69.28C19.3901 69.81 19.4001 70.5 18.5901 71.22L17.0501 72.59L16.3201 71.77L17.7301 70.52C18.1101 70.18 18.2301 69.85 17.9801 69.57C17.7801 69.34 17.5101 69.35 17.3301 69.41C17.2601 69.43 17.1901 69.48 17.1301 69.54L15.5601 70.93L14.8301 70.11L16.6201 68.53L16.6301 68.51Z" fill="#1D1D1B"/>
<path d="M15.081 68.59C14.721 68.84 14.421 69.07 14.181 69.26L13.631 68.48L14.001 68.16V68.14C13.721 68.14 13.241 68.05 12.911 67.58C12.501 66.99 12.571 66.28 13.421 65.68L15.121 64.48L15.751 65.37L14.161 66.49C13.791 66.75 13.631 67.06 13.861 67.38C14.031 67.63 14.311 67.65 14.511 67.59C14.581 67.58 14.681 67.53 14.761 67.47L16.421 66.3L17.051 67.19L15.091 68.57L15.081 68.59Z" fill="#1D1D1B"/>
<path d="M8.65039 63.34L12.2004 61.4C12.5504 61.21 12.9104 61 13.1104 60.87L13.5704 61.72L13.1404 62.01C13.5904 62.03 13.9704 62.3 14.1904 62.7C14.5904 63.43 14.2804 64.36 13.3304 64.88C12.2904 65.45 11.3404 65.13 10.9404 64.39C10.7304 64.01 10.7104 63.64 10.8404 63.39L9.17039 64.29L8.65039 63.33V63.34ZM11.8704 62.83C11.8204 62.86 11.7504 62.9 11.7104 62.94C11.4804 63.14 11.3804 63.46 11.5404 63.76C11.7804 64.19 12.2904 64.21 12.7804 63.94C13.3004 63.65 13.4904 63.22 13.2704 62.82C13.1204 62.54 12.8104 62.43 12.5104 62.52C12.4304 62.54 12.3604 62.57 12.2804 62.62L11.8804 62.84L11.8704 62.83Z" fill="#1D1D1B"/>
<path d="M12.0707 58.4L11.7707 58.59V58.61C12.1207 58.72 12.4007 58.99 12.5607 59.38C12.8307 60.04 12.5107 60.63 11.9907 60.84C11.1507 61.19 10.4307 60.6 9.97071 59.44L9.92071 59.46C9.75071 59.53 9.54071 59.73 9.74071 60.22C9.88071 60.55 10.1307 60.86 10.3507 61.02L9.77071 61.47C9.55071 61.3 9.21071 60.92 8.97071 60.33C8.53071 59.25 9.02071 58.64 9.79071 58.33L10.9207 57.87C11.2307 57.74 11.5307 57.61 11.6907 57.5L12.0607 58.41L12.0707 58.4ZM10.5807 59.15C10.7907 59.69 11.0907 60.04 11.4807 59.88C11.7407 59.77 11.7907 59.55 11.7007 59.32C11.6007 59.07 11.3507 58.93 11.1107 58.95C11.0507 58.95 10.9907 58.98 10.9307 59L10.5807 59.14V59.15Z" fill="#1D1D1B"/>
<path d="M10.6407 54.37C10.7807 54.53 10.9507 54.86 11.0707 55.26C11.4007 56.35 10.9507 57.24 9.89066 57.56C8.91066 57.86 7.90066 57.43 7.52066 56.18C7.44066 55.9 7.39066 55.59 7.41066 55.34L8.24066 55.27C8.22066 55.41 8.24066 55.61 8.31066 55.89C8.48066 56.44 8.98066 56.68 9.52066 56.51C10.1407 56.32 10.3407 55.81 10.1807 55.3C10.1107 55.05 10.0107 54.87 9.90066 54.73L10.6307 54.37H10.6407Z" fill="#1D1D1B"/>
<path d="M5.97154 53.63C6.26154 53.57 6.55154 53.73 6.63154 54.09C6.71154 54.43 6.52154 54.7 6.22154 54.76C5.91154 54.83 5.63154 54.66 5.55154 54.31C5.47154 53.97 5.66154 53.7 5.96154 53.63H5.97154ZM11.4215 54.44C11.3315 54.16 11.2215 53.96 11.0515 53.86C10.8515 53.74 10.5715 53.75 9.89154 53.9L7.17154 54.52L6.93154 53.45L9.90154 52.78C10.6515 52.61 11.1415 52.67 11.5115 52.92C11.8815 53.17 12.1115 53.63 12.2315 54.15L11.4215 54.44Z" fill="#1D1D1B"/>
<path d="M9.90022 49.99L9.56022 50.11V50.13C9.87022 50.32 10.0702 50.65 10.1302 51.06C10.2302 51.76 9.78022 52.26 9.23022 52.34C8.33022 52.47 7.78022 51.72 7.61022 50.49H7.56022C7.38022 50.53 7.13022 50.66 7.20022 51.2C7.25022 51.56 7.43022 51.91 7.60022 52.12L6.93022 52.42C6.76022 52.2 6.52022 51.75 6.43022 51.11C6.26022 49.95 6.89022 49.48 7.71022 49.37L8.92022 49.19C9.26022 49.14 9.57022 49.08 9.76022 49.02L9.90022 49.99ZM8.28022 50.36C8.36022 50.93 8.55022 51.35 8.97022 51.29C9.25022 51.25 9.36022 51.04 9.32022 50.8C9.28022 50.53 9.07022 50.34 8.84022 50.3C8.78022 50.3 8.72022 50.3 8.65022 50.3L8.27022 50.35L8.28022 50.36Z" fill="#1D1D1B"/>
<path d="M4.86081 47.07C4.80081 46.73 4.75081 46.26 4.74081 45.59C4.73081 44.91 4.85081 44.43 5.10081 44.1C5.34081 43.79 5.74081 43.57 6.21081 43.56C6.68081 43.56 7.09081 43.7 7.37081 43.99C7.73081 44.36 7.89081 44.91 7.91081 45.55C7.91081 45.69 7.91081 45.82 7.89081 45.92L9.62081 45.89L9.64081 46.97L4.87081 47.05L4.86081 47.07ZM7.04081 45.94C7.06081 45.85 7.06081 45.73 7.06081 45.57C7.06081 44.99 6.75081 44.63 6.26081 44.64C5.81081 44.64 5.55081 44.96 5.56081 45.51C5.56081 45.73 5.59081 45.88 5.61081 45.96L7.04081 45.94Z" fill="#1D1D1B"/>
<path d="M8.21091 39.53C9.49091 39.66 9.98091 40.63 9.88091 41.57C9.77091 42.59 9.02091 43.31 7.89091 43.19C6.76091 43.07 6.12091 42.25 6.24091 41.13C6.35091 40.06 7.16091 39.42 8.21091 39.53ZM7.98091 42.06C8.58091 42.12 9.06091 41.92 9.10091 41.46C9.14091 41.04 8.75091 40.72 8.12091 40.66C7.60091 40.61 7.05091 40.75 7.00091 41.24C6.95091 41.76 7.46091 42.01 7.97091 42.06H7.98091Z" fill="#1D1D1B"/>
<path d="M7.70133 38.66C7.28133 38.55 6.91133 38.48 6.61133 38.42L6.83133 37.53L7.30133 37.6V37.58C7.13133 37.38 6.88133 37 7.03133 36.42C7.14133 35.98 7.45133 35.69 7.84133 35.63C7.70133 35.45 7.60133 35.26 7.54133 35.07C7.48133 34.85 7.47133 34.63 7.54133 34.38C7.70133 33.73 8.29133 33.34 9.30133 33.6L11.3113 34.1L11.0513 35.13L9.20133 34.67C8.70133 34.55 8.38133 34.64 8.29133 34.98C8.23133 35.22 8.35133 35.44 8.54133 35.56C8.61133 35.61 8.72133 35.65 8.80133 35.67L10.7913 36.17L10.5313 37.2L8.62133 36.72C8.19133 36.61 7.86133 36.69 7.77133 37.03C7.70133 37.3 7.87133 37.51 8.03133 37.62C8.11133 37.68 8.20133 37.71 8.28133 37.73L10.2713 38.22L10.0113 39.25L7.69133 38.67L7.70133 38.66Z" fill="#1D1D1B"/>
<path d="M11.2111 29.59C12.4011 30.07 12.6111 31.14 12.2511 32.01C11.8711 32.96 10.9411 33.44 9.89112 33.02C8.84112 32.59 8.45112 31.63 8.87112 30.59C9.27112 29.59 10.2311 29.2 11.2111 29.6V29.59ZM10.2911 31.96C10.8511 32.19 11.3611 32.12 11.5411 31.69C11.7011 31.3 11.4111 30.89 10.8211 30.65C10.3311 30.45 9.77112 30.44 9.58112 30.9C9.38112 31.39 9.81112 31.77 10.2911 31.96Z" fill="#1D1D1B"/>
<path d="M14.2803 27.42C14.2703 27.63 14.1603 27.99 13.9703 28.36C13.4403 29.36 12.4903 29.69 11.5103 29.17C10.6003 28.69 10.1903 27.68 10.7903 26.52C10.9203 26.27 11.1203 26.01 11.3003 25.85L11.9403 26.38C11.8303 26.47 11.6903 26.62 11.5603 26.87C11.2903 27.38 11.4803 27.9 11.9903 28.16C12.5603 28.46 13.0603 28.24 13.3103 27.77C13.4303 27.54 13.4903 27.34 13.5003 27.17L14.2703 27.43L14.2803 27.42Z" fill="#1D1D1B"/>
<path d="M12.1507 24.36L13.8807 24.87C14.0907 24.94 14.3407 25.02 14.5207 25.08V25.06C14.4007 24.92 14.2107 24.72 14.0707 24.57L12.8607 23.26L13.5007 22.28L14.9907 24.23C15.8807 25.41 16.1607 26 16.2407 26.53C16.3107 27.03 16.1807 27.43 16.0607 27.68L15.1607 27.36C15.2207 27.23 15.2607 27.05 15.2607 26.86C15.2807 26.67 15.2307 26.43 15.1407 26.24C15.1207 26.18 15.0807 26.13 15.0407 26.11C15.0107 26.09 14.9607 26.06 14.8607 26.05L11.4707 25.37L12.1407 24.35L12.1507 24.36Z" fill="#1D1D1B"/>
<path d="M13.9316 19.67C14.1516 19.33 14.4816 18.92 14.8516 18.51C15.4716 17.83 15.9916 17.5 16.5616 17.39C17.1716 17.27 17.8316 17.43 18.4616 18.01C19.1516 18.63 19.4016 19.31 19.3816 19.92C19.3516 20.58 18.9816 21.29 18.3516 21.99C17.9716 22.41 17.6716 22.69 17.4616 22.86L13.9416 19.67H13.9316ZM17.6016 21.5C17.6816 21.44 17.7816 21.33 17.8716 21.23C18.5416 20.5 18.5716 19.66 17.7116 18.88C16.9716 18.2 16.1816 18.28 15.5516 18.98C15.3916 19.16 15.3016 19.29 15.2516 19.38L17.6016 21.5Z" fill="#1D1D1B"/>
<path d="M20.111 19.11L20.021 17.34C20.021 17.03 20.021 16.8 20.021 16.5L18.861 17.51L18.291 16.86L20.441 14.96L20.871 15.45L20.961 17.14C20.961 17.44 20.981 17.73 20.961 18L22.221 16.89L22.801 17.54L20.511 19.56L20.101 19.09L20.111 19.11Z" fill="#1D1D1B"/>
<path d="M21.3712 13.03C21.5512 13.27 21.5212 13.6 21.2312 13.82C20.9612 14.03 20.6312 13.98 20.4512 13.73C20.2512 13.48 20.2912 13.16 20.5712 12.94C20.8512 12.73 21.1712 12.78 21.3712 13.03ZM23.2012 17.28L21.0712 14.49L21.9412 13.83L24.0712 16.62L23.2012 17.28Z" fill="#1D1D1B"/>
<path d="M24.6001 14.51C24.8801 14.87 25.3701 14.81 25.8001 14.53C26.1101 14.33 26.3402 14.12 26.5302 13.88L27.0501 14.42C26.8301 14.74 26.5001 15.04 26.1001 15.29C25.1001 15.94 24.1501 15.73 23.5501 14.81C23.0601 14.06 22.9902 12.94 24.0202 12.27C24.9701 11.65 25.8102 12.16 26.2902 12.89C26.3902 13.05 26.4601 13.2 26.4901 13.27L24.5901 14.5L24.6001 14.51ZM25.2701 13.19C25.1201 12.97 24.7902 12.66 24.3602 12.93C23.9702 13.18 24.0501 13.63 24.1801 13.89L25.2601 13.19H25.2701Z" fill="#1D1D1B"/>
<path d="M30.0304 12.91C29.9004 13.08 29.6104 13.31 29.2404 13.5C28.2304 14.03 27.2704 13.75 26.7604 12.77C26.2804 11.86 26.5204 10.79 27.6804 10.18C27.9304 10.05 28.2404 9.95 28.4804 9.91L28.7004 10.71C28.5604 10.71 28.3604 10.76 28.1104 10.9C27.6004 11.17 27.4604 11.7 27.7304 12.21C28.0304 12.78 28.5704 12.88 29.0404 12.64C29.2704 12.52 29.4304 12.39 29.5404 12.25L30.0304 12.9V12.91Z" fill="#1D1D1B"/>
<path d="M29.7404 8.25C29.8604 8.53 29.7404 8.84 29.4204 8.99C29.1004 9.13 28.8004 8.99 28.6804 8.72C28.5504 8.43 28.6604 8.12 28.9804 7.98C29.3004 7.84 29.6004 7.97 29.7304 8.25H29.7404ZM30.5104 12.81L29.1004 9.6L30.1004 9.16L31.5104 12.37L30.5104 12.81Z" fill="#1D1D1B"/>
<path d="M34.8816 9.24C35.3016 10.45 34.6316 11.31 33.7416 11.61C32.7716 11.94 31.8016 11.56 31.4316 10.49C31.0616 9.42 31.5316 8.49 32.6016 8.12C33.6216 7.77 34.5416 8.24 34.8816 9.23V9.24ZM32.4916 10.1C32.6916 10.67 33.0716 11.02 33.5116 10.86C33.9116 10.72 34.0316 10.23 33.8316 9.64C33.6616 9.14 33.3016 8.71 32.8316 8.87C32.3316 9.04 32.3316 9.61 32.4916 10.1Z" fill="#1D1D1B"/>
<path d="M35.4607 8.41C35.3807 7.98 35.2907 7.62 35.2207 7.32L36.1207 7.15L36.2607 7.6H36.2807C36.3907 7.35 36.6307 6.97 37.2207 6.85C37.6607 6.76 38.0607 6.92 38.2807 7.25H38.2907C38.3807 7.05 38.5107 6.88 38.6507 6.75C38.8207 6.6 39.0207 6.5 39.2707 6.45C39.9307 6.32 40.5207 6.69 40.7207 7.72L41.1107 9.75L40.0707 9.95L39.7107 8.08C39.6107 7.58 39.4007 7.32 39.0507 7.39C38.8007 7.44 38.6607 7.64 38.6307 7.86C38.6207 7.94 38.6307 8.06 38.6407 8.14L39.0307 10.15L37.9907 10.35L37.6207 8.42C37.5307 7.98 37.3207 7.72 36.9907 7.78C36.7207 7.83 36.5907 8.08 36.5607 8.26C36.5407 8.35 36.5607 8.45 36.5607 8.54L36.9507 10.55L35.9107 10.75L35.4607 8.4V8.41Z" fill="#1D1D1B"/>
<path d="M42.8906 9.03L43.9606 7.62C44.1506 7.38 44.3106 7.2 44.5006 6.98L42.9606 7L42.9406 6.14L45.8106 6.07L45.8306 6.72L44.8106 8.07C44.6206 8.3 44.4506 8.53 44.2506 8.73L45.9406 8.7L45.9606 9.57L42.9106 9.65L42.8906 9.03Z" fill="#1D1D1B"/>
<path d="M51.3416 9.92C51.1316 10 50.6716 10.05 50.0816 9.98C48.4216 9.79 47.6816 8.66 47.8416 7.29C48.0316 5.65 49.3016 4.87 50.7616 5.04C51.3216 5.11 51.7416 5.27 51.9216 5.39L51.6016 6.23C51.3916 6.11 51.0916 5.99 50.7116 5.95C49.8516 5.85 49.1216 6.29 48.9916 7.36C48.8816 8.32 49.3816 8.99 50.3516 9.11C50.6816 9.15 51.0516 9.11 51.2716 9.06L51.3416 9.93V9.92Z" fill="#1D1D1B"/>
<path d="M52.9605 5.19L54.0205 5.44L53.5705 7.39H53.5805C53.7305 7.27 53.8905 7.19 54.0805 7.14C54.2505 7.09 54.4705 7.09 54.6605 7.14C55.3405 7.3 55.7505 7.89 55.5105 8.91L55.0505 10.91L53.9905 10.66L54.4305 8.78C54.5305 8.33 54.4505 7.99 54.0505 7.9C53.7705 7.84 53.5505 7.98 53.4305 8.15C53.3905 8.21 53.3605 8.3 53.3405 8.38L52.8705 10.41L51.8105 10.16L52.9605 5.2V5.19Z" fill="#1D1D1B"/>
<path d="M59.601 10.57C59.171 11.78 58.121 12.03 57.231 11.72C56.261 11.38 55.741 10.48 56.121 9.41C56.501 8.34 57.441 7.91 58.511 8.28C59.531 8.64 59.961 9.58 59.601 10.57ZM57.191 9.75C56.991 10.32 57.071 10.83 57.511 10.98C57.911 11.12 58.311 10.81 58.521 10.22C58.691 9.73 58.681 9.16 58.221 8.99C57.731 8.82 57.361 9.26 57.191 9.75Z" fill="#1D1D1B"/>
<path d="M60.4605 10.36C60.6805 9.89 60.8105 9.58 60.9205 9.3L61.7705 9.69L61.5305 10.29H61.5605C61.9405 9.91 62.4205 9.9 62.7305 10.04C62.8205 10.08 62.8705 10.1 62.9305 10.15L62.5005 11.08C62.4405 11.03 62.3605 10.98 62.2505 10.93C61.8805 10.76 61.5505 10.84 61.3405 11.12C61.3005 11.18 61.2505 11.25 61.2205 11.33L60.4705 12.95L59.4805 12.49L60.4705 10.35L60.4605 10.36Z" fill="#1D1D1B"/>
<path d="M65.6612 13.73C65.0212 14.84 63.9312 14.9 63.1212 14.43C62.2312 13.92 61.8812 12.94 62.4512 11.96C63.0212 10.98 64.0312 10.72 65.0012 11.29C65.9312 11.83 66.1812 12.83 65.6612 13.74V13.73ZM63.4412 12.49C63.1412 13.01 63.1312 13.53 63.5312 13.76C63.9012 13.97 64.3512 13.74 64.6612 13.19C64.9212 12.74 65.0112 12.18 64.5812 11.93C64.1312 11.67 63.6912 12.04 63.4312 12.49H63.4412Z" fill="#1D1D1B"/>
<path d="M65.1602 15.56C65.3102 15.38 65.5702 15.05 65.8102 14.73L68.2202 11.47L69.1002 12.12L67.9102 13.73H67.9202C68.2702 13.62 68.6802 13.68 69.0702 13.97C69.7502 14.47 69.8302 15.4 69.1802 16.26C68.4302 17.28 67.4002 17.31 66.7602 16.83C66.4302 16.59 66.2002 16.23 66.2502 15.75H66.2402L65.9102 16.11L65.1702 15.56H65.1602ZM66.9502 15.02C66.9102 15.08 66.8702 15.13 66.8502 15.19C66.7302 15.47 66.8002 15.8 67.0602 15.99C67.4402 16.27 67.8802 16.15 68.2602 15.64C68.5802 15.2 68.6402 14.71 68.2402 14.41C68.0002 14.23 67.6502 14.25 67.4002 14.46C67.3502 14.5 67.3102 14.55 67.2602 14.61L66.9502 15.03V15.02Z" fill="#1D1D1B"/>
<path d="M69.9412 19.42L70.1312 19.12H70.1112C69.7512 19.16 69.3912 19.02 69.0812 18.74C68.5612 18.26 68.6012 17.59 68.9812 17.18C69.6012 16.51 70.5012 16.74 71.4012 17.59L71.4412 17.55C71.5712 17.41 71.6712 17.15 71.2812 16.78C71.0112 16.54 70.6512 16.37 70.3912 16.32L70.7212 15.67C70.9912 15.74 71.4612 15.94 71.9312 16.37C72.7912 17.16 72.6012 17.92 72.0412 18.53L71.2112 19.43C70.9812 19.68 70.7712 19.93 70.6712 20.09L69.9512 19.42H69.9412ZM70.9712 18.12C70.5512 17.73 70.1312 17.52 69.8512 17.84C69.6612 18.05 69.7012 18.27 69.8812 18.44C70.0812 18.63 70.3712 18.64 70.5712 18.53C70.6212 18.5 70.6712 18.45 70.7112 18.41L70.9712 18.13V18.12Z" fill="#1D1D1B"/>
<path d="M72.9804 18.96C73.3204 18.68 73.6004 18.43 73.8204 18.22L74.4104 18.93L74.0804 19.27V19.29C74.3604 19.26 74.8104 19.29 75.2004 19.75C75.4904 20.1 75.5404 20.52 75.3604 20.87C75.5804 20.87 75.7904 20.9 75.9804 20.96C76.1904 21.04 76.3704 21.16 76.5404 21.36C76.9704 21.88 76.9304 22.57 76.1304 23.24L74.5404 24.56L73.8604 23.74L75.3304 22.52C75.7204 22.19 75.8404 21.88 75.6204 21.61C75.4604 21.42 75.2104 21.39 75.0104 21.47C74.9304 21.5 74.8304 21.56 74.7704 21.62L73.1904 22.93L72.5104 22.11L74.0204 20.85C74.3604 20.57 74.4904 20.25 74.2704 19.99C74.0904 19.77 73.8204 19.79 73.6404 19.85C73.5504 19.88 73.4704 19.94 73.4004 19.99L71.8304 21.3L71.1504 20.48L72.9904 18.95L72.9804 18.96Z" fill="#1D1D1B"/>
<path d="M74.8613 25.2L77.7913 23.26L78.3913 24.17L75.4613 26.11L74.8613 25.2ZM79.2313 23.67C78.9813 23.84 78.6513 23.78 78.4513 23.48C78.2613 23.19 78.3413 22.87 78.5913 22.71C78.8513 22.53 79.1713 22.59 79.3713 22.88C79.5613 23.17 79.4913 23.49 79.2313 23.67Z" fill="#1D1D1B"/>
<path d="M76.5998 27.92L80.9498 25.8L81.5098 26.95L80.3498 28.63C80.0198 29.11 79.5998 29.63 79.1998 30.07V30.09C79.7498 29.75 80.3299 29.44 80.9799 29.12L82.2498 28.5L82.6898 29.4L78.3398 31.52L77.8398 30.49L79.0698 28.74C79.4098 28.26 79.8298 27.7 80.2398 27.24L80.2198 27.22C79.6598 27.53 79.0498 27.84 78.3398 28.18L77.0298 28.82L76.5898 27.92H76.5998Z" fill="#1D1D1B"/>
<path d="M81.4306 34.88C80.2206 35.3 79.3606 34.63 79.0606 33.74C78.7306 32.77 79.1106 31.8 80.1806 31.43C81.2506 31.06 82.1806 31.53 82.5506 32.6C82.9006 33.62 82.4306 34.54 81.4306 34.88ZM80.5706 32.49C80.0006 32.69 79.6606 33.07 79.8106 33.51C79.9506 33.91 80.4406 34.03 81.0306 33.83C81.5306 33.66 81.9606 33.3 81.8006 32.83C81.6306 32.33 81.0606 32.33 80.5706 32.49Z" fill="#1D1D1B"/>
<path d="M83.4602 35.9L82.1102 36.46C81.7702 36.6 81.4002 36.75 81.0202 36.89C81.4302 36.89 81.8402 36.91 82.2002 36.93L83.6902 37.01L83.8602 37.85L82.5602 38.48C82.1902 38.65 81.8202 38.82 81.4502 38.97C81.8502 38.95 82.2502 38.94 82.6602 38.94L84.0802 38.96L84.2902 40.01L80.6402 39.66L80.4302 38.65L81.5702 38.08C81.8902 37.93 82.1902 37.8 82.5902 37.64C82.1502 37.65 81.8202 37.64 81.4802 37.62L80.2002 37.52L79.9902 36.51L83.2202 34.81L83.4402 35.9H83.4602Z" fill="#1D1D1B"/>
<path d="M82.8899 44.25C81.6099 44.35 80.9499 43.48 80.8799 42.55C80.7999 41.53 81.4199 40.69 82.5499 40.6C83.6799 40.51 84.4599 41.2 84.5499 42.33C84.6299 43.4 83.9499 44.18 82.8999 44.26L82.8899 44.25ZM82.6599 41.72C82.0599 41.77 81.6299 42.05 81.6599 42.52C81.6899 42.94 82.1399 43.18 82.7699 43.13C83.2899 43.09 83.8099 42.85 83.7699 42.35C83.7299 41.83 83.1799 41.67 82.6599 41.71V41.72Z" fill="#1D1D1B"/>
<path d="M85.5701 46.21L84.5701 46.19V46.97L83.7501 46.96V46.18L82.4901 46.16C82.0701 46.16 81.8701 46.25 81.8701 46.58C81.8701 46.72 81.8801 46.82 81.8901 46.9H81.0601C81.0101 46.75 80.9701 46.49 80.9801 46.18C80.9801 45.83 81.1101 45.54 81.2901 45.37C81.5001 45.17 81.8401 45.08 82.3401 45.09L83.7801 45.11V44.64L84.5901 44.65V45.12L85.3401 45.13L85.5701 46.2V46.21Z" fill="#1D1D1B"/>
<path d="M84.4706 48.6L83.0106 48.71C82.6406 48.74 82.2406 48.76 81.8406 48.77C82.2306 48.9 82.6206 49.05 82.9506 49.18L84.3406 49.72L84.2406 50.58L82.8106 50.76C82.4106 50.8 82.0006 50.85 81.6006 50.87C81.9906 50.98 82.3806 51.1 82.7706 51.23L84.1206 51.7L83.9906 52.76L80.6406 51.27L80.7606 50.25L82.0306 50.07C82.3806 50.03 82.7006 50 83.1406 49.98C82.7106 49.85 82.4006 49.74 82.0906 49.6L80.9106 49.1L81.0306 48.08L84.6406 47.49L84.5106 48.59L84.4706 48.6Z" fill="#1D1D1B"/>
<path d="M81.261 56.33C80.011 56.01 79.671 54.99 79.901 54.07C80.151 53.07 81.001 52.47 82.101 52.75C83.201 53.03 83.721 53.93 83.441 55.02C83.181 56.06 82.281 56.58 81.261 56.32V56.33ZM81.851 53.86C81.271 53.71 80.771 53.84 80.651 54.3C80.551 54.71 80.891 55.08 81.501 55.23C82.011 55.36 82.571 55.29 82.691 54.81C82.821 54.3 82.341 53.98 81.841 53.86H81.851Z" fill="#1D1D1B"/>
<path d="M81.5505 57.17C82.0405 57.34 82.3605 57.44 82.6505 57.53L82.3405 58.42L81.7205 58.24V58.27C82.1305 58.61 82.1905 59.09 82.0805 59.4C82.0505 59.49 82.0305 59.54 81.9905 59.61L81.0205 59.27C81.0605 59.2 81.1105 59.12 81.1505 59C81.2805 58.62 81.1705 58.29 80.8805 58.11C80.8205 58.07 80.7405 58.04 80.6605 58.01L78.9805 57.42L79.3405 56.39L81.5605 57.18L81.5505 57.17Z" fill="#1D1D1B"/>
<path d="M78.6716 62.67C77.5016 62.13 77.3516 61.06 77.7416 60.21C78.1716 59.28 79.1116 58.84 80.1416 59.32C81.1716 59.79 81.5216 60.78 81.0516 61.8C80.6016 62.78 79.6316 63.12 78.6716 62.68V62.67ZM79.7016 60.35C79.1516 60.1 78.6416 60.14 78.4416 60.56C78.2616 60.94 78.5316 61.37 79.1116 61.63C79.5916 61.85 80.1516 61.89 80.3616 61.44C80.5816 60.96 80.1716 60.56 79.7016 60.35Z" fill="#1D1D1B"/>
<path d="M79.4403 64.81L78.0703 64.29C77.7203 64.16 77.3603 64.01 76.9803 63.85C77.2803 64.14 77.5703 64.44 77.8203 64.69L78.8503 65.77L78.3903 66.5L77.0203 66.06C76.6403 65.93 76.2503 65.8 75.8703 65.65C76.1803 65.92 76.4803 66.19 76.7803 66.47L77.8003 67.46L77.2303 68.37L74.8203 65.6L75.3603 64.73L76.5803 65.11C76.9203 65.22 77.2203 65.33 77.6203 65.5C77.2803 65.2 77.0503 64.97 76.8203 64.71L75.9603 63.76L76.5003 62.89L80.0203 63.89L79.4303 64.83L79.4403 64.81Z" fill="#1D1D1B"/>
<path d="M76.1217 69.68L74.4617 69C74.2617 68.91 74.0217 68.8 73.8417 68.72V68.74C73.9417 68.9 74.1117 69.11 74.2317 69.28L75.2917 70.7L74.5517 71.61L73.2817 69.51C72.5217 68.24 72.3017 67.62 72.2817 67.09C72.2717 66.59 72.4317 66.2 72.5817 65.97L73.4417 66.38C73.3717 66.5 73.3117 66.67 73.2817 66.86C73.2417 67.04 73.2617 67.29 73.3317 67.49C73.3517 67.55 73.3817 67.6 73.4217 67.63C73.4517 67.65 73.5017 67.68 73.5917 67.7L76.8917 68.74L76.1217 69.68Z" fill="#1D1D1B"/>
<path d="M73.3203 71.35C73.6203 71.67 73.8903 71.93 74.1103 72.15L73.4403 72.78L73.0803 72.47H73.0603C73.1003 72.75 73.1003 73.2 72.6603 73.61C72.3303 73.92 71.9103 74 71.5503 73.83H71.5403C71.5703 74.06 71.5503 74.27 71.5003 74.46C71.4403 74.68 71.3203 74.87 71.1303 75.04C70.6403 75.5 69.9403 75.5 69.2303 74.74L67.8203 73.23L68.5903 72.5L69.9003 73.89C70.2503 74.26 70.5703 74.36 70.8303 74.12C71.0103 73.95 71.0303 73.7 70.9403 73.5C70.9103 73.42 70.8403 73.33 70.7803 73.27L69.3803 71.77L70.1503 71.04L71.4903 72.48C71.7903 72.8 72.1203 72.92 72.3703 72.68C72.5703 72.49 72.5503 72.22 72.4703 72.04C72.4403 71.95 72.3703 71.87 72.3103 71.81L70.9103 70.32L71.6903 69.59L73.3203 71.34V71.35Z" fill="#1D1D1B"/>
<path d="M67.2001 73.6L69.3101 76.41L68.4401 77.06L66.3301 74.25L67.2001 73.6ZM68.9901 77.86C68.8101 77.62 68.8501 77.29 69.1301 77.07C69.4101 76.86 69.7401 76.92 69.9101 77.17C70.1101 77.42 70.0601 77.74 69.7801 77.96C69.5001 78.17 69.1801 78.12 68.9801 77.87L68.9901 77.86Z" fill="#1D1D1B"/>
<path d="M33.7906 78.9C34.0806 78.94 34.4706 79.02 35.0206 79.18C35.5706 79.35 35.9306 79.57 36.1306 79.86C36.3206 80.13 36.3906 80.51 36.2806 80.9C36.1606 81.28 35.9406 81.57 35.6406 81.72C35.2506 81.92 34.7606 81.91 34.2406 81.75C34.1206 81.71 34.0206 81.68 33.9406 81.64L33.5206 83.05L32.6406 82.78L33.8106 78.9H33.7906ZM34.1406 80.95C34.2106 80.99 34.3006 81.02 34.4306 81.06C34.9006 81.2 35.2706 81.06 35.3906 80.65C35.5006 80.29 35.3106 80 34.8706 79.86C34.6906 79.81 34.5606 79.79 34.4906 79.78L34.1406 80.94V80.95Z" fill="#1D1D1B"/>
<path d="M40.2205 82.49C39.9605 83.81 39.0005 84.45 37.8205 84.22C36.6205 83.98 36.1005 82.94 36.3305 81.79C36.5705 80.58 37.5205 79.83 38.7105 80.06C39.9505 80.3 40.4405 81.36 40.2205 82.48V82.49ZM37.2905 81.96C37.1305 82.75 37.4005 83.38 38.0105 83.5C38.6305 83.62 39.0905 83.11 39.2505 82.32C39.3905 81.59 39.1705 80.9 38.5405 80.78C37.9205 80.66 37.4505 81.18 37.2905 81.96Z" fill="#1D1D1B"/>
<path d="M40.3115 84.09L42.5315 81.47V81.45L40.7715 81.28L40.8415 80.52L43.8115 80.8L43.7615 81.34L41.5915 83.93V83.95L43.5215 84.14L43.4515 84.9L40.2715 84.6L40.3215 84.1L40.3115 84.09Z" fill="#1D1D1B"/>
<path d="M44.1598 84.96L44.0898 80.85L45.1698 80.83L46.0498 82.32C46.2998 82.75 46.5498 83.26 46.7398 83.72H46.7598C46.6898 83.18 46.6598 82.62 46.6498 82.01L46.6298 80.81H47.4798L47.5498 84.9L46.5698 84.92L45.6698 83.35C45.4198 82.92 45.1398 82.39 44.9298 81.91H44.9098C44.9398 82.46 44.9598 83.04 44.9798 83.7L44.9998 84.94H44.1498L44.1598 84.96Z" fill="#1D1D1B"/>
<path d="M49.2809 83.74L49.0909 84.82L48.1309 84.92L48.9709 80.71L50.1809 80.59L51.8609 84.55L50.8709 84.65L50.4509 83.63L49.2809 83.75V83.74ZM50.2509 82.94L49.9109 82.1C49.8109 81.87 49.7109 81.57 49.6209 81.33H49.6109C49.5709 81.58 49.5509 81.9 49.5009 82.14L49.3409 83.03L50.2409 82.94H50.2509Z" fill="#1D1D1B"/>
<path d="M52.5214 84.43L51.6914 80.41L52.7514 80.19L53.8914 81.49C54.2214 81.87 54.5614 82.32 54.8314 82.73H54.8514C54.6814 82.21 54.5514 81.67 54.4314 81.07L54.1914 79.89L55.0314 79.72L55.8614 83.74L54.9114 83.94L53.7314 82.57C53.4014 82.19 53.0314 81.72 52.7414 81.29H52.7214C52.8514 81.83 52.9814 82.39 53.1214 83.05L53.3714 84.26L52.5414 84.43H52.5214ZM54.1614 78.91L53.5814 79.79L52.8514 79.94L53.2014 79.1L54.1514 78.9L54.1614 78.91Z" fill="#1D1D1B"/>
</svg>
