<svg width="151" height="24" viewBox="0 0 151 24" fill="none" xmlns="http://www.w3.org/2000/svg">
<path d="M51.4435 22.0008V18.5508H56.2935V6.12578H51.4435V2.67578H64.5935V6.12578H59.7185V18.5508H64.5935V22.0008H51.4435Z" fill="white"/>
<path d="M38.9998 2.67578V18.5508H48.6998V22.0008H35.5498V2.67578H38.9998Z" fill="white"/>
<path d="M17.8496 22.0008V9.75077L27.5496 4.02578V2.67578H30.9996V22.0008H27.5496V14.0508H21.2996V22.0008H17.8496ZM23.5746 10.6258H27.5496V8.27577L23.5746 10.6258Z" fill="white"/>
<path d="M5.04999 13.7755V11.1005L3.54999 9.37548V22.0005H0V2.00049H3.57499V3.55049L6.84999 7.42548L10.05 3.57548V2.00049H13.6V22.0005H10.075V9.40048L8.59999 11.1505V13.7755H5.04999Z" fill="white"/>
<path d="M137.384 22.0008V18.5508H142.234V6.12578H137.384V2.67578H150.534V6.12578H145.659V18.5508H150.534V22.0008H137.384Z" fill="white"/>
<path d="M119.51 2.00049H123.06V3.57549L129.61 11.2755V2.00049H133.135V22.0005H129.61V17.0255L123.06 9.32548V22.0005H119.51V2.00049Z" fill="white"/>
<path d="M91.7615 2.00049C95.6615 2.00049 98.6615 5.12549 98.6615 9.00048V15.0005C98.6615 18.8255 95.4365 22.0005 91.7365 22.0005C87.9865 21.9755 85.0615 18.8505 85.0615 15.0005V9.00048C85.0615 5.12549 88.1365 2.00049 91.7615 2.00049ZM95.0865 15.0005V9.00048C95.0865 7.10048 93.6365 5.55048 91.7615 5.55048C90.0615 5.55048 88.5865 7.10048 88.5865 9.00048V15.0005C88.5865 16.9005 89.9865 18.4505 91.7615 18.4505C93.5615 18.4505 95.0865 16.9005 95.0865 15.0005Z" fill="white"/>
<path d="M72.3869 13.7755V11.1005L70.8869 9.37548V22.0005H67.3369V2.00049H70.9119V3.55048L74.1869 7.42548L77.3869 3.57549V2.00049H80.9369V22.0005H77.4119V9.40048L75.9369 11.1505V13.7755H72.3869Z" fill="white"/>
<path fill-rule="evenodd" clip-rule="evenodd" d="M109.3 22.0005C105.56 21.9632 102.647 18.8429 102.647 15.0004ZM109.322 22.0005L112.077 21.9948H115.526V17.1077H112.077V18.4578L109.346 18.4505C107.571 18.4505 106.172 16.9005 106.172 15.0004V9.00045C106.172 7.10048 107.647 5.5505 109.346 5.5505L112.077 5.54319V6.89321H115.526V2.00615H112.077L109.346 2.00049C105.722 2.00049 102.647 5.12548 102.647 9.00045V15.0004" fill="white"/>
<path d="M102.815 15.0254L104.646 14.6952L105.099 17.2111L103.268 17.5413L102.815 15.0254Z" fill="white"/>
<path d="M109.247 19.4443H111.107V22.0008H109.247V19.4443Z" fill="white"/>
<path d="M108.808 19.3813H110.888V21.9378H108.808V19.3813Z" fill="white"/>
<path d="M107.625 19.0977H109.704V21.6541H107.625V19.0977Z" fill="white"/>
<path d="M106.647 18.7344H108.726V21.2909H106.647V18.7344Z" fill="white"/>
<path d="M103.873 17.6836L105.465 16.7208L106.958 19.1906L105.366 20.1534L103.873 17.6836Z" fill="white"/>
</svg>
