<svg width="440" height="482" viewBox="0 0 440 482" fill="none" xmlns="http://www.w3.org/2000/svg">
<g clip-path="url(#clip0_2362_49112)">
<path d="M188.67 433.295L204.971 433.295L204.31 445.348L187.994 449.417L188.67 433.295Z" fill="#EFEFEF"/>
<path d="M255.769 435.44L239.461 435.44L240.129 446.505L256.445 450.25L255.769 435.44Z" fill="#EFEFEF"/>
<path d="M256.086 447.346L258.51 447.25" stroke="#232323" stroke-miterlimit="10"/>
<path d="M239.175 444.19L239.175 456.044C239.204 457.902 240.74 459.42 242.855 459.693L274.4 459.708C275.083 459.671 275.641 459.184 275.671 458.595L275.796 456.221C276.038 451.51 271.858 447.707 266.407 447.677L262.866 447.662C262.418 447.662 262.066 447.36 262.051 446.977L261.941 443.888C261.933 443.586 261.647 443.357 261.294 443.372L239.182 444.198L239.175 444.19Z" fill="#E95442"/>
<path d="M239.006 447.132C242.26 447.235 245.242 448.466 247.556 450.449C249.966 452.513 251.663 455.388 252.229 458.653C252.287 459 252.331 459.354 252.368 459.708L250.407 459.649C250.377 459.428 250.348 459.206 250.311 458.985C249.826 456.184 248.372 453.707 246.293 451.931C244.324 450.25 241.819 449.196 239.057 449.085L239.013 447.132L239.006 447.132Z" fill="#FCF57C"/>
<path d="M275.788 456.221L275.663 458.595C275.634 459.185 275.076 459.671 274.392 459.708L242.848 459.693C240.806 459.435 239.314 458.013 239.167 456.243L275.553 456.015L275.781 456.221L275.788 456.221Z" fill="white"/>
<path d="M266.018 451.091C265.966 449.882 266.26 448.724 266.804 447.692C272.056 447.899 276.023 451.629 275.788 456.221L275.715 457.6C274.708 457.769 273.658 457.791 272.578 457.629C268.875 457.069 266.15 454.356 266.01 451.091L266.018 451.091Z" fill="white"/>
<path d="M256.865 443.94L259.766 443.895C260.347 443.888 260.832 444.345 260.846 444.935L260.971 448.901C261.008 450.161 262.036 451.164 263.3 451.171L265.717 451.171" stroke="#232323" stroke-miterlimit="10"/>
<path d="M264.32 448.046L264.276 451.171" stroke="#232323" stroke-miterlimit="10"/>
<path d="M205.47 443.564L205.47 455.417C205.44 457.275 203.905 458.793 201.789 459.066L170.245 459.081C169.562 459.044 169.003 458.558 168.974 457.968L168.849 455.594C168.607 450.884 172.787 447.08 178.238 447.05L181.778 447.036C182.227 447.036 182.579 446.733 182.594 446.35L182.704 443.261C182.711 442.959 182.998 442.731 183.351 442.745L205.462 443.571L205.47 443.564Z" fill="#E95442"/>
<path d="M205.646 446.506C202.392 446.609 199.41 447.84 197.096 449.823C194.686 451.887 192.989 454.762 192.423 458.028C192.365 458.374 192.321 458.728 192.284 459.082L194.245 459.023C194.275 458.802 194.304 458.58 194.341 458.359C194.826 455.558 196.28 453.081 198.359 451.305C200.328 449.624 202.833 448.57 205.595 448.459L205.639 446.506L205.646 446.506Z" fill="#FCF57C"/>
<path d="M168.857 455.594L168.982 457.968C169.011 458.558 169.57 459.044 170.253 459.081L201.797 459.066C203.839 458.808 205.331 457.386 205.478 455.616L169.092 455.388L168.864 455.594L168.857 455.594Z" fill="white"/>
<path d="M178.627 450.464C178.679 449.255 178.385 448.098 177.841 447.066C172.589 447.272 168.622 451.002 168.857 455.595L168.93 456.973C169.937 457.143 170.987 457.165 172.067 457.003C175.77 456.442 178.495 453.73 178.635 450.464L178.627 450.464Z" fill="white"/>
<path d="M187.78 443.313L184.879 443.269C184.298 443.262 183.813 443.719 183.799 444.308L183.674 448.274C183.637 449.535 182.609 450.537 181.345 450.545L178.928 450.545" stroke="#232323" stroke-miterlimit="10"/>
<path d="M180.324 447.419L180.368 450.545" stroke="#232323" stroke-miterlimit="10"/>
<path d="M233.511 12.0935C235.347 9.55766 238.374 6.13721 243.002 3.67508C255.784 -3.12159 270.087 3.0706 274.568 5.00197C292.669 12.838 300.794 29.6381 305.694 39.7741C313.958 56.8837 315.009 72.3421 315.185 78.5343C315.949 104.851 305.305 114.014 302.601 135.016C300.669 150.025 302.689 171.867 321.363 200.579C307.237 205.305 293.11 210.03 278.983 214.755C272.173 194.763 269.316 188.173 268.544 188.394C267.773 188.615 268.853 195.729 273.687 216.303L252.5 223.387C248.357 202.518 245.874 192.154 245.051 192.279C244.214 192.412 245.081 203.3 247.645 224.935C239.843 227.221 232.049 229.513 224.247 231.798C223.145 206.536 222.19 193.915 221.375 193.923C221.118 193.923 220.883 195.176 220.655 197.668C220.677 209.411 220.692 221.161 220.714 232.904C211.369 236.229 202.025 239.546 192.681 242.871C190.073 238.993 187.56 234.356 185.621 228.916C177.129 205.128 185.628 182.858 189.154 174.874" fill="#DC6D24"/>
<path d="M295.424 219.222L262.455 250.891C265.827 252.704 269.199 254.518 272.563 256.331C288.078 243.35 303.593 230.375 319.108 217.394C318.175 216.568 317.235 215.743 316.302 214.917C314.466 213.45 312.636 211.99 310.8 210.524C309.602 209.646 308.405 208.776 307.2 207.899L263.241 178.906L259.296 194.859L295.417 219.222L295.424 219.222Z" fill="#F0C2AA"/>
<path d="M194.4 194.852L192.945 256.346L178.503 256.346L181.088 190.576L194.4 194.852Z" fill="#F0C2AA"/>
<path d="M240.46 161.48L240.342 163.713C240.188 166.5 237.859 168.652 235.082 168.586L215.96 168.1C212.963 168.026 210.671 165.394 210.987 162.401L211.824 154.506C212.17 151.233 215.439 149.125 218.554 150.164L236.963 156.312C239.159 157.049 240.592 159.165 240.467 161.48L240.46 161.48Z" fill="#E5AD95"/>
<path d="M189.243 274.355L172.545 420.623C172.545 420.623 180.523 432.934 196.471 435.109C212.42 437.283 222.139 432.212 222.139 432.212L222.139 279.183L189.243 274.355Z" fill="#F35629"/>
<path d="M200.145 280.422C200.145 280.422 197.294 293.875 185.915 292.091" stroke="#2F505B" stroke-miterlimit="10"/>
<path d="M258.429 278.601L275.127 424.869C275.127 424.869 267.149 437.18 251.201 439.355C235.252 441.529 225.533 436.457 225.533 436.457L225.533 283.429L258.429 278.601Z" fill="#E03B1F"/>
<path d="M246.021 282.582C246.021 282.582 248.872 296.035 260.251 294.251" stroke="#A0576A" stroke-miterlimit="10"/>
<path d="M292.899 95.889C292.071 86.4803 299.734 78.1141 310.015 77.2024C320.297 76.2907 329.303 83.1788 330.132 92.5874C330.96 101.996 323.297 110.362 313.016 111.274C302.734 112.186 293.728 105.298 292.899 95.889Z" fill="#F0C2AA"/>
<path d="M315.832 85.3899C315.832 85.3899 304.372 86.4809 303.858 97.6932" stroke="#311402" stroke-miterlimit="10"/>
<path d="M208.121 156.032C168.817 144.692 146.009 103.898 157.178 64.9155C168.346 25.9327 209.263 3.52313 248.567 14.8623C287.871 26.2016 310.679 66.9956 299.51 105.978C288.342 144.961 247.425 167.371 208.121 156.032Z" fill="#F0C2AA"/>
<path d="M239.528 75.2203C234.085 74.2848 230.527 68.5233 231.58 62.3516C232.634 56.1799 237.9 51.9351 243.343 52.8706C248.785 53.8061 252.343 59.5676 251.29 65.7393C250.236 71.911 244.97 76.1558 239.528 75.2203Z" fill="#060000"/>
<path d="M239.204 77.0775C233.762 76.142 230.204 70.3804 231.257 64.2087C232.311 58.037 237.577 53.7923 243.02 54.7278C248.462 55.6633 252.02 61.4248 250.967 67.5965C249.913 73.7682 244.647 78.013 239.204 77.0775Z" fill="#FCFFF8"/>
<path d="M185.319 75.7449C179.876 74.8094 176.318 69.0479 177.372 62.8762C178.425 56.7045 183.691 52.4597 189.134 53.3952C194.576 54.3307 198.134 60.0923 197.081 66.264C196.027 72.4357 190.761 76.6804 185.319 75.7449Z" fill="#060000"/>
<path d="M236.051 74.3558C232.644 73.5128 230.676 69.5961 231.656 65.6076C232.636 61.6192 236.193 59.0693 239.6 59.9123C243.008 60.7553 244.975 64.672 243.995 68.6605C243.015 72.6489 239.459 75.1988 236.051 74.3558Z" fill="#311402"/>
<path d="M185.189 76.8856C179.746 75.9501 176.188 70.1885 177.242 64.0168C178.295 57.8451 183.561 53.6004 189.004 54.5359C194.446 55.4714 198.004 61.2329 196.951 67.4046C195.897 73.5763 190.631 77.8211 185.189 76.8856Z" fill="#FCFFF8"/>
<path d="M183.299 74.5101C179.806 74.167 177.298 70.5747 177.697 66.4863C178.096 62.3979 181.25 59.3618 184.743 59.7048C188.236 60.0478 190.744 63.6402 190.345 67.7286C189.947 71.8169 186.792 74.8531 183.299 74.5101Z" fill="#311402"/>
<path d="M245.008 45.9589C240.578 42.649 233.974 44.0422 230.242 49.0623" stroke="#060000" stroke-miterlimit="10"/>
<path d="M187.097 44.8825C191.96 42.2656 198.3 44.6245 201.238 50.1459" stroke="#060000" stroke-miterlimit="10"/>
<path d="M249.312 12.7644C262.432 16.546 271.13 23.011 273.091 24.5074C285.653 34.0758 291.802 46.0474 294.513 52.387C290.252 52.1954 284.243 51.6056 277.271 49.8438C266.59 47.1384 254.932 44.1824 247.35 34.238C241.356 26.3651 240.239 17.1726 240.342 10.7593C243.332 11.2384 246.329 11.9019 249.312 12.7644Z" fill="#DC6D24"/>
<path d="M182.8 281.063C181.522 258.27 196.75 173.908 196.75 173.908C218.421 178.088 246.234 174.528 246.234 174.528C246.234 174.528 267.325 277.038 267.714 279.463C268.103 281.881 237.485 285.921 218.914 285.891C198.139 285.854 182.793 281.07 182.793 281.07L182.8 281.063Z" fill="#FEDB49"/>
<path d="M171.267 37.0685C188.574 15.6981 217.268 5.13448 245.632 11.8132C241.672 17.1724 235.34 24.1828 225.885 29.8295C202.436 43.8357 177.812 38.6681 171.267 37.0685Z" fill="#DC6D24"/>
<path d="M219.884 98.9022C220.339 93.7716 217.034 89.2896 212.508 88.8842C207.983 88.4787 203.943 92.312 203.487 97.4353" fill="#DA8769"/>
<path d="M212.957 115.702C223.153 116.233 229.735 110.461 232.519 113.446C233.43 114.419 233.423 115.783 233.416 116.601C233.372 123.221 223.094 131.168 213.067 130.836C203.091 130.512 196.993 122.926 195.737 121.238C192.358 116.675 190.301 110.217 191.954 108.935C193.019 108.109 195.047 109.886 199.638 111.928C200.902 112.488 207.131 115.407 212.949 115.709L212.957 115.702Z" fill="#0A0C09"/>
<path d="M195.795 109.996C197.47 110.888 199.784 111.95 202.664 112.812C203.259 112.989 206.065 113.815 210.01 114.228C216.365 114.891 222.322 114.154 225.709 113.586C224.673 114.795 222.719 116.764 219.678 118.142C215.373 120.096 211.516 119.683 209.687 119.462C207.645 119.218 202.473 118.592 198.594 114.375C197.103 112.753 196.258 111.11 195.795 109.996Z" fill="#FCFFF8"/>
<path d="M243.137 93.8088C242.503 86.6104 249.692 80.0919 259.193 79.2494C268.694 78.4068 276.911 83.5593 277.544 90.7577C278.178 97.9561 270.99 104.475 261.488 105.317C251.987 106.16 243.771 101.007 243.137 93.8088Z" fill="#E79879"/>
<path d="M166.838 99.3921C161.15 95.7196 158.779 89.2509 161.54 84.9439C164.302 80.6369 171.152 80.1225 176.839 83.795C182.527 87.4675 184.899 93.9361 182.137 98.2431C179.375 102.55 172.526 103.065 166.838 99.3921Z" fill="#E79879"/>
<path d="M276.846 182.423C274.598 180.772 265.349 174.012 255.99 168.107C253.926 166.81 250.826 164.893 246.455 164.259C245.066 164.06 243.869 164.031 240.291 164.185C234.282 164.443 231.461 164.782 228.787 164.937C222.705 165.291 217.628 164.694 211.766 164.008C206.227 163.36 203.524 162.704 200.167 164.23C198.425 165.026 197.926 166.043 195.024 168.49C177.937 182.902 175.204 188.895 175.028 188.88C174.852 188.866 175.689 189.971 177.041 190.421C182.007 192.647 189.221 195.515 198.212 197.815C212.89 201.574 233.636 206.941 254.609 198.176C259.832 195.994 268.273 191.593 276.846 182.415L276.846 182.423Z" fill="#FEDB49"/>
<path d="M251.583 260.422C253.581 259.648 256.652 257.871 261.397 253.456C262.147 253.264 262.771 252.741 263.094 252.04L264.732 248.517C269.368 249.49 273.996 250.456 278.631 251.429C278.918 253.183 279.197 254.93 279.484 256.685C279.623 257.363 279.954 259.449 278.83 261.631C278.132 262.98 277.177 263.791 276.596 264.211L265.709 272.408C264.982 272.954 264.101 273.263 263.19 273.293L262.683 273.308C261.948 273.33 261.331 272.755 261.309 272.018C261.28 271.199 261.258 270.381 261.228 269.563C256.916 268.273 252.597 266.975 248.284 265.685C248.123 264.978 247.998 263.924 248.453 262.906C249.173 261.299 250.944 260.665 251.568 260.422L251.583 260.422Z" fill="#F0C2AA"/>
<path d="M262.374 271.48L257.349 271.672C256.673 271.694 256.108 271.171 256.086 270.492L255.924 266.195C255.909 265.826 256.064 265.465 256.343 265.222L261.955 260.342" fill="#F0C2AA"/>
<path d="M257.261 268.752L252.06 268.952C251.487 268.974 251.002 268.524 250.98 267.949L250.921 266.371C250.84 264.167 251.751 262.044 253.411 260.607L256.835 257.629" fill="#F0C2AA"/>
<path d="M261.301 271.421C261.257 269.932 261.977 268.524 263.218 267.698L266.612 265.435" stroke="#311402" stroke-miterlimit="10"/>
<path d="M256.203 268.664C256.159 267.175 256.879 265.767 258.121 264.941C259.517 264.027 260.92 263.113 262.315 262.199" stroke="#311402" stroke-miterlimit="10"/>
<path d="M251.133 266.541C251.089 265.052 251.809 263.644 253.051 262.818C255.13 261.639 257.216 260.467 259.295 259.287" stroke="#311402" stroke-miterlimit="10"/>
<path d="M265.188 248.178L264.108 251.422C263.733 252.542 262.749 253.353 261.581 253.493L256.35 254.134C255.123 254.282 254.029 253.338 254.007 252.092L254.007 251.65C253.977 250.706 254.668 249.903 255.601 249.785L259.509 249.298" fill="#F0C2AA"/>
<path d="M244.434 234.636C242.637 234.636 241.18 233.174 241.18 231.371C241.18 229.567 242.637 228.105 244.434 228.105C246.232 228.105 247.689 229.567 247.689 231.371C247.689 233.174 246.232 234.636 244.434 234.636Z" fill="white"/>
<path d="M234.326 220.66C232.528 220.66 231.071 219.198 231.071 217.394C231.071 215.591 232.528 214.129 234.326 214.129C236.123 214.129 237.58 215.591 237.58 217.394C237.58 219.198 236.123 220.66 234.326 220.66Z" fill="white"/>
<path d="M242.863 207.818C241.065 207.818 239.608 206.356 239.608 204.552C239.608 202.749 241.065 201.287 242.863 201.287C244.66 201.287 246.117 202.749 246.117 204.552C246.117 206.356 244.66 207.818 242.863 207.818Z" fill="white"/>
<path d="M223.77 237.563C221.973 237.563 220.516 236.101 220.516 234.297C220.516 232.494 221.973 231.032 223.77 231.032C225.567 231.032 227.024 232.494 227.024 234.297C227.024 236.101 225.567 237.563 223.77 237.563Z" fill="white"/>
<path d="M239.63 274.045C237.833 274.045 236.376 272.583 236.376 270.78C236.376 268.976 237.833 267.514 239.63 267.514C241.428 267.514 242.885 268.976 242.885 270.78C242.885 272.583 241.428 274.045 239.63 274.045Z" fill="white"/>
<path d="M239.299 254.606C237.502 254.606 236.045 253.144 236.045 251.341C236.045 249.537 237.502 248.075 239.299 248.075C241.097 248.075 242.554 249.537 242.554 251.341C242.554 253.144 241.097 254.606 239.299 254.606Z" fill="white"/>
<path d="M217.063 257.99C215.266 257.99 213.809 256.528 213.809 254.724C213.809 252.92 215.266 251.458 217.063 251.458C218.86 251.458 220.317 252.92 220.317 254.724C220.317 256.528 218.86 257.99 217.063 257.99Z" fill="white"/>
<path d="M202.576 232.801C200.778 232.801 199.321 231.339 199.321 229.535C199.321 227.732 200.778 226.27 202.576 226.27C204.373 226.27 205.83 227.732 205.83 229.535C205.83 231.339 204.373 232.801 202.576 232.801Z" fill="white"/>
<path d="M195.333 186.993C193.535 186.993 192.078 185.531 192.078 183.728C192.078 181.924 193.535 180.462 195.333 180.462C197.13 180.462 198.587 181.924 198.587 183.728C198.587 185.531 197.13 186.993 195.333 186.993Z" fill="white"/>
<path d="M243.508 183.109C241.711 183.109 240.254 181.647 240.254 179.843C240.254 178.039 241.711 176.577 243.508 176.577C245.306 176.577 246.763 178.039 246.763 179.843C246.763 181.647 245.306 183.109 243.508 183.109Z" fill="white"/>
<path d="M222.455 180.912C220.657 180.912 219.2 179.45 219.2 177.646C219.2 175.843 220.657 174.38 222.455 174.38C224.252 174.38 225.709 175.843 225.709 177.646C225.709 179.45 224.252 180.912 222.455 180.912Z" fill="white"/>
<path d="M222.954 198.324C221.156 198.324 219.699 196.861 219.699 195.058C219.699 193.254 221.156 191.792 222.954 191.792C224.751 191.792 226.208 193.254 226.208 195.058C226.208 196.861 224.751 198.324 222.954 198.324Z" fill="white"/>
<path d="M194.319 253.257C192.522 253.257 191.065 251.795 191.065 249.991C191.065 248.188 192.522 246.726 194.319 246.726C196.116 246.726 197.573 248.188 197.573 249.991C197.573 251.795 196.116 253.257 194.319 253.257Z" fill="white"/>
<path d="M209.143 216.237C207.346 216.237 205.889 214.775 205.889 212.971C205.889 211.167 207.346 209.705 209.143 209.705C210.94 209.705 212.397 211.167 212.397 212.971C212.397 214.775 210.94 216.237 209.143 216.237Z" fill="white"/>
<path d="M200.725 198.825C198.928 198.825 197.471 197.363 197.471 195.559C197.471 193.756 198.928 192.294 200.725 192.294C202.522 192.294 203.979 193.756 203.979 195.559C203.979 197.363 202.522 198.825 200.725 198.825Z" fill="white"/>
<path d="M262.543 182.091C260.745 182.091 259.288 180.629 259.288 178.825C259.288 177.022 260.745 175.56 262.543 175.56C264.34 175.56 265.797 177.022 265.797 178.825C265.797 180.629 264.34 182.091 262.543 182.091Z" fill="white"/>
<path d="M211.332 273.876C209.535 273.876 208.078 272.414 208.078 270.61C208.078 268.807 209.535 267.344 211.332 267.344C213.13 267.344 214.587 268.807 214.587 270.61C214.587 272.414 213.13 273.876 211.332 273.876Z" fill="white"/>
</g>
<g clip-path="url(#clip1_2362_49112)">
<path d="M153.166 454.202L165.958 448.685L169.158 457.586L157.614 466.034L153.166 454.202Z" fill="#EFEFEF"/>
<path d="M154.86 452.742L159.07 464.31" stroke="#CECECE" stroke-miterlimit="10"/>
<path d="M157.256 451.944L161.459 463.512" stroke="#CECECE" stroke-miterlimit="10"/>
<path d="M159.835 450.604L164.045 462.166" stroke="#CECECE" stroke-miterlimit="10"/>
<path d="M162.382 449.138L166.592 460.7" stroke="#CECECE" stroke-miterlimit="10"/>
<path d="M164.283 447.968L168.487 459.53" stroke="#CECECE" stroke-miterlimit="10"/>
<path d="M105.543 470.287L103.473 470.198" stroke="#232323" stroke-miterlimit="10"/>
<path d="M120.242 467.632L119.997 477.703C119.928 479.282 118.774 480.609 117.218 480.88L94.1495 481.566C93.6539 481.553 93.2524 481.144 93.2461 480.647L93.2085 478.634C93.1332 474.633 96.2701 471.312 100.254 471.174L102.845 471.086C103.171 471.073 103.441 470.815 103.46 470.482L103.604 467.859C103.617 467.601 103.83 467.399 104.087 467.406L120.242 467.638L120.242 467.632Z" fill="#EFF0F1"/>
<path d="M93.2089 478.634L93.2465 480.647C93.2591 481.144 93.6543 481.553 94.15 481.566L117.218 480.88C118.718 480.616 119.841 479.377 119.979 477.873L93.3783 478.452L93.2089 478.634Z" fill="#1F2023"/>
<path d="M100.461 474.067C100.524 473.036 100.335 472.061 99.959 471.193C96.1132 471.482 93.1331 474.734 93.2084 478.634L93.2335 479.804C93.9675 479.93 94.7392 479.924 95.5234 479.766C98.2462 479.207 100.291 476.848 100.461 474.067Z" fill="#1F2023"/>
<path d="M109.019 467.588L106.541 467.55C106.045 467.544 105.631 467.934 105.618 468.437L105.512 471.822C105.48 472.897 104.602 473.753 103.523 473.759L101.459 473.759" stroke="#232323" stroke-miterlimit="10"/>
<path d="M102.645 471.092L102.688 473.759" stroke="#232323" stroke-miterlimit="10"/>
<path d="M169.711 456.007L173.456 465.355C174.014 466.833 173.475 468.506 172.157 469.374L151.235 479.137C150.77 479.32 150.243 479.106 150.043 478.653L149.214 476.816C147.571 473.174 149.145 468.877 152.753 467.173L155.099 466.066C155.394 465.927 155.538 465.581 155.425 465.273L154.522 462.801C154.434 462.555 154.553 462.291 154.792 462.191L169.723 456.007L169.711 456.007Z" fill="#EFF0F1"/>
<path d="M149.214 476.822L150.042 478.659C150.249 479.112 150.776 479.326 151.234 479.144L172.157 469.381C173.431 468.544 173.976 466.959 173.512 465.525L149.302 476.59L149.214 476.822Z" fill="#1F2023"/>
<path d="M154.076 469.752C153.731 468.783 153.173 467.959 152.483 467.311C149.064 469.098 147.608 473.268 149.208 476.822L149.691 477.892C150.413 477.715 151.121 477.407 151.78 476.948C154.064 475.357 155.011 472.381 154.07 469.758L154.076 469.752Z" fill="#1F2023"/>
<path d="M159.384 460.41L157.094 461.36C156.636 461.549 156.41 462.077 156.592 462.537L157.828 465.688C158.223 466.688 157.753 467.827 156.768 468.255L154.873 469.079" stroke="#232323" stroke-miterlimit="10"/>
<path d="M155.319 465.009L157.257 464.266" stroke="#232323" stroke-miterlimit="10"/>
<path d="M154.911 466.154L155.996 468.588" stroke="#232323" stroke-miterlimit="10"/>
<path d="M155.243 391.133L162.307 423.171L180.965 451.641C180.965 451.641 175.388 458.945 162.138 462.26C149.207 465.499 142.093 464.26 142.093 464.26L121.71 428.662L121.195 393.719L155.236 391.133L155.243 391.133Z" fill="#9ED2FA"/>
<path d="M103.133 393.014L87.6749 461.429C87.6749 461.429 94.4881 466.871 108.108 467.833C121.729 468.795 130.029 466.55 130.029 466.55L137.444 393.763L103.14 393.02L103.133 393.014Z" fill="#D7EFFE"/>
<path d="M112.927 393.757C112.927 393.757 110.492 405.237 100.774 403.714" stroke="#2F505B" stroke-miterlimit="10"/>
<path d="M108.799 292.983L109.771 306.577L150.086 305.797L147.238 285.296L108.799 292.983Z" fill="#E5AD95"/>
<path d="M163.059 393.178C164.151 373.728 151.146 301.74 151.146 301.74C132.638 305.306 108.886 302.268 108.886 302.268C108.886 302.268 90.8737 389.743 90.5412 391.813C90.2087 393.882 116.358 397.323 132.218 397.298C149.96 397.267 163.066 393.184 163.066 393.184L163.059 393.178Z" fill="#6FB7F6"/>
<path d="M107.725 307.904C107.725 307.904 117.983 311.345 130.75 310.861C143.517 310.376 152.231 307.904 152.231 307.904" stroke="white" stroke-miterlimit="10"/>
<path d="M67.4042 315.579C67.4042 315.579 61.2622 314.591 56.3247 311.924C52.0021 309.59 37.171 303.016 31.9952 300.381C31.4117 300.085 30.7216 300.129 30.2511 300.582C29.5986 301.211 29.6802 302.274 30.4142 302.803L40.2765 308.389C40.2765 308.389 36.9577 307.2 35.521 310.54C34.0844 313.88 32.8296 319.705 34.6176 323.668C36.4056 327.631 40.5589 326.191 41.845 325.53C43.1311 324.87 47.4349 329.48 55.7036 325.115L66.8521 331.6" fill="#F0C2AA"/>
<path d="M42.9876 325.675C42.9876 325.675 40.4781 325.008 39.7755 323.687" stroke="#311402" stroke-miterlimit="10"/>
<path d="M39.154 317.346L37.7236 317.642C36.9456 317.805 36.243 318.208 35.7285 318.812C34.8941 319.774 33.8841 321.353 34.3232 322.957" stroke="#311402" stroke-miterlimit="10"/>
<path d="M38.7144 311.741L37.2024 312.056C36.7193 312.157 36.2488 312.345 35.841 312.628C35.1509 313.113 34.2412 314.012 34.0655 315.465" stroke="#311402" stroke-miterlimit="10"/>
<path d="M116.309 311.666L104.657 316.83C99.9958 318.007 95.2717 318.271 92.3481 317.258L70.5783 311.666L54.6367 331.89C54.6367 331.89 83.9037 343.854 99.1677 344.861C114.432 345.867 137.444 334.488 137.444 334.488L124.389 311.666L119.161 311.666L116.309 311.666Z" fill="#6FB7F6"/>
<path d="M176.868 262.657L182.639 268.513C186.899 272.835 192.765 275.188 198.819 275.005L223.808 274.257C225.483 274.206 226.248 272.143 225.012 271.004L216.116 262.833C211.969 259.021 206.586 256.832 200.959 256.675L175.205 255.945" fill="#6FB7F6"/>
<path d="M125.399 298.569C160.405 298.569 188.783 271.904 188.783 239.011C188.783 206.118 160.405 179.453 125.399 179.453C90.3934 179.453 62.0156 206.118 62.0156 239.011C62.0156 271.904 90.3934 298.569 125.399 298.569Z" fill="#F0C2AA"/>
<path d="M123.78 216.359C148.931 232.003 165.908 255.064 172.432 278.93C182.59 268.368 188.782 254.372 188.782 239.011C188.782 206.112 160.406 179.446 125.398 179.446C106.452 179.446 89.4623 187.265 77.8496 199.651C93.2579 201.689 109.036 207.187 123.78 216.359Z" fill="#3896EC"/>
<path d="M169.545 247.928C173.983 240.885 172.386 231.884 165.978 227.823C159.569 223.763 150.775 226.18 146.337 233.223C141.898 240.265 143.495 249.266 149.904 253.327C156.313 257.388 165.106 254.97 169.545 247.928Z" fill="#F0C2AA"/>
<path d="M154.402 233.488C154.402 233.488 149.502 241.376 156.403 247.176" stroke="#311402" stroke-miterlimit="10"/>
<path d="M172.421 269.872L176.631 276.942C179.736 282.163 184.868 285.85 190.79 287.133L215.233 292.404C216.87 292.757 218.106 290.939 217.178 289.536L210.496 279.465C207.378 274.766 202.679 271.35 197.252 269.847L172.427 262.952" fill="#3896EC"/>
<path d="M96.9906 206.433C111.483 201.01 123.071 190.197 132.393 179.642C130.103 179.402 127.77 179.283 125.411 179.283C95.4724 179.283 70.3837 198.79 63.7461 225.008C72.9371 217.661 84.2173 211.213 96.9906 206.433Z" fill="#3896EC"/>
<path d="M98.8474 250.68C99.1485 247.283 96.959 244.308 93.9539 244.043C90.9488 243.773 88.2699 246.314 87.9687 249.711" fill="#DA8769"/>
<path d="M92.1666 259.933C95.5544 260.084 105.072 256.631 104.996 262.462C104.915 268.293 96.6021 272.489 91.5016 271.898C86.401 271.306 81.7836 268.01 80.4724 265.154C79.5501 263.147 79.4121 259.122 83.1011 258.379C85.6043 257.876 87.7624 259.738 92.1666 259.933Z" fill="#0A0C09"/>
<path d="M83.119 258.379C85.3399 257.933 87.2911 259.348 90.7855 259.807C90.591 260.977 90.1519 263.16 89.468 263.959C88.5772 264.997 82.523 262.103 80.6221 259.996C81.1177 259.228 81.9082 258.625 83.1253 258.379L83.119 258.379Z" fill="#FCFFF8"/>
<path d="M91.0001 259.833C91.3702 259.87 91.7592 259.908 92.167 259.927C94.94 260.047 101.816 257.763 104.181 260.128C104.169 260.135 97.8071 264.613 94.4883 264.576C91.1695 264.538 91.0001 259.839 91.0001 259.839L91.0001 259.833Z" fill="#FCFFF8"/>
<path d="M86.7515 270.558C86.4692 270.124 86.2747 269.627 86.2182 269.105L86.1743 268.715C86.0739 267.79 86.6574 266.928 87.5482 266.683L87.5922 266.67C90.4404 266.381 92.7241 266.563 95.403 267.809L95.679 267.979C96.5322 268.507 96.8773 269.576 96.5009 270.507L96.1558 271.369C94.5184 271.854 92.8872 272.055 91.4944 271.891C89.8256 271.696 88.2195 271.212 86.7515 270.551L86.7515 270.558Z" fill="#F49F8A"/>
<path d="M127.595 272.815C133.898 272.257 138.666 267.938 138.246 263.169C137.826 258.401 132.376 254.987 126.073 255.546C119.771 256.104 115.003 260.423 115.423 265.192C115.843 269.96 121.293 273.373 127.595 272.815Z" fill="#E79879"/>
<path d="M120.551 241.535C121.273 237.31 118.836 233.365 115.108 232.725C111.381 232.085 107.773 234.991 107.051 239.217C106.33 243.443 108.766 247.387 112.494 248.028C116.222 248.668 119.829 245.761 120.551 241.535Z" fill="#FCFFF8"/>
<path d="M116.466 242.392C117.138 239.661 115.789 236.979 113.455 236.402C111.12 235.825 108.683 237.571 108.012 240.302C107.34 243.033 108.688 245.715 111.023 246.292C113.358 246.869 115.795 245.123 116.466 242.392Z" fill="#311402"/>
<path d="M88.256 234.828C88.9551 230.736 86.5954 226.916 82.9856 226.296C79.3758 225.676 75.8828 228.491 75.1837 232.583C74.4847 236.675 76.8443 240.495 80.4541 241.115C84.0639 241.735 87.557 238.92 88.256 234.828Z" fill="#FCFFF8"/>
<path d="M84.8504 235.697C85.115 232.986 83.451 230.604 81.1336 230.377C78.8163 230.149 76.7232 232.162 76.4586 234.873C76.194 237.584 77.8581 239.966 80.1754 240.193C82.4927 240.421 84.5858 238.408 84.8504 235.697Z" fill="#311402"/>
<path d="M66.6894 247.302C65.2966 246.402 63.8286 245.78 62.373 245.408C63.1071 251.875 64.9453 258.033 67.7057 263.714C69.3432 263.192 70.7359 262.223 71.6394 260.808C74.2241 256.782 72.0032 250.73 66.6831 247.302L66.6894 247.302Z" fill="#E79879"/>
<path d="M100.15 344.686C107.279 346.112 124.39 346.397 135.797 336.131" stroke="white"/>
</g>
<defs>
<clipPath id="clip0_2362_49112">
<rect width="175.86" height="459.136" fill="white" transform="matrix(-1 -1.20908e-08 -1.20908e-08 1 330.193 0.571533)"/>
</clipPath>
<clipPath id="clip1_2362_49112">
<rect width="195.822" height="302.289" fill="white" transform="translate(29.8057 179.283)"/>
</clipPath>
</defs>
</svg>
