<svg width="517" height="2256" viewBox="0 0 517 2256" fill="none" xmlns="http://www.w3.org/2000/svg">
<g clip-path="url(#clip0_3060_8191)">
<g opacity="0.5">
<path d="M621.909 831.48L522.338 833.36L556.303 890.264C559.099 894.943 559.05 900.779 556.189 905.418C553.328 910.056 548.126 912.709 542.693 912.315L447.835 905.36L462.424 975.787C463.374 980.373 462.049 985.178 458.877 988.632C455.705 992.085 451.028 993.809 446.382 993.252L346.41 981.232C338.4 980.272 332.689 973 333.658 964.987C334.618 956.976 341.89 951.266 349.903 952.234L429.703 961.833L415.308 892.345C414.377 887.849 415.605 883.204 418.628 879.753C421.652 876.302 426.102 874.476 430.675 874.815L516.833 881.129L484.353 826.714C481.681 822.233 481.59 816.706 484.129 812.134C486.661 807.573 491.402 804.717 496.622 804.624L621.358 802.266C629.427 802.114 636.088 808.528 636.238 816.588C636.39 824.658 629.977 831.318 621.917 831.469L621.909 831.48Z" fill="#7FBB53"/>
<path d="M357.876 893.76C348.553 895.692 339.429 889.699 337.498 880.376C335.566 871.052 341.559 861.929 350.882 859.997C360.206 858.066 369.329 864.058 371.261 873.382C373.192 882.705 367.2 891.829 357.876 893.76Z" fill="#7FBB53"/>
</g>
<g opacity="0.5" clip-path="url(#clip1_3060_8191)">
<path d="M98.7553 146.748C98.2775 146.712 93.8664 146.364 87.1849 144.756C82.1755 143.549 75.8708 141.628 69.0014 138.562C63.8503 136.259 58.3732 133.311 52.8986 129.515C44.6948 123.826 36.4983 116.211 29.5946 106.17C22.6855 96.1375 17.1241 83.7022 14.0188 68.6777C10.5288 51.8305 10.0886 31.7865 13.8696 7.93977C14.2316 5.66316 14.8028 3.36459 15.5528 1.00048C16.864 -3.12575 18.7253 -7.45144 21.1239 -11.8314C22.9239 -15.1113 25.0208 -18.4028 27.4303 -21.5952C31.0495 -26.3777 35.3761 -30.9433 40.5398 -34.7704C43.1224 -36.6805 45.9156 -38.3991 48.9339 -39.8224C51.9521 -41.2456 55.1872 -42.3789 58.6168 -43.0894C63.6518 -44.1324 69.0845 -44.2532 74.5978 -43.1938C80.1098 -42.1411 85.6514 -39.9475 91.0694 -36.631C96.4627 -33.3308 100.952 -28.8243 104.421 -23.6007C107.884 -18.3689 110.352 -12.4036 111.674 -6.02275C113.2 1.34192 113.198 9.27946 111.357 17.242C109.977 23.2063 107.558 29.1723 104.018 34.8505C98.7167 43.38 90.9001 51.2193 80.5479 57.6531C70.1904 64.0951 57.3098 69.1574 41.6445 72.4026C28.992 75.0236 14.5129 76.4627 -2.019 76.4532L-2.15446 76.4527L-2.24752 76.4506C-2.75522 76.4418 -7.5493 76.3092 -14.8631 74.8817C-20.3505 73.8097 -27.2578 72.0059 -34.8225 68.9203C-40.4963 66.6045 -46.5391 63.5742 -52.5952 59.5848C-61.6781 53.6075 -70.7937 45.4426 -78.5697 34.4921C-86.3512 23.5499 -92.7519 9.84928 -96.6219 -6.94057C-98.0082 -12.9447 -94.2634 -18.9431 -88.251 -20.324C-82.2468 -21.7103 -76.2484 -17.9654 -74.8675 -11.953C-72.9298 -3.56223 -70.3146 3.66223 -67.2557 9.93267C-61.8933 20.8915 -55.192 28.9581 -48.0634 35.098C-42.7214 39.6984 -37.1311 43.193 -31.7189 45.8623C-23.6089 49.8608 -15.8923 51.9601 -10.3049 53.0328C-7.51541 53.5664 -5.25578 53.8464 -3.75786 53.9921C-3.0089 54.065 -2.45312 54.0995 -2.11363 54.1218C-1.94118 54.1288 -1.82621 54.1335 -1.76873 54.1358L-1.72773 54.1273L-1.81207 56.9876L-1.73997 54.137L-1.72632 54.1341L-1.81207 56.9876L-1.73997 54.137L-1.88854 60.1955L-1.74682 54.1384L-1.89537 60.1969L-1.75365 54.1398L-1.72632 54.1341L-1.99423 64.3285L-1.78239 54.1386L-1.7249 54.141L-1.99423 64.3285L-1.78239 54.1386L-2.01354 65.3015L-2.01091 54.1361C13.2238 54.1436 26.193 52.8107 37.1171 50.5477C49.141 48.0568 58.6669 44.4447 66.0764 40.2807C71.6363 37.1624 76.0132 33.7335 79.4303 30.2112C84.5538 24.9176 87.5644 19.3991 89.1406 14.0067C90.7017 8.61035 90.8047 3.29516 89.814 -1.48709C89.0526 -5.1626 87.6394 -8.5107 85.8171 -11.2539C83.9934 -14.004 81.7758 -16.1452 79.4275 -17.5754C76.0102 -19.6604 73.0417 -20.7484 70.4138 -21.2585C67.7819 -21.7535 65.4576 -21.6924 63.1538 -21.2223C61.562 -20.8925 59.9853 -20.3521 58.4033 -19.5969C55.6333 -18.2821 52.8489 -16.2803 50.2389 -13.7802C48.2828 -11.9073 46.4271 -9.75586 44.7557 -7.47162C42.2438 -4.05138 40.1484 -0.339827 38.6311 3.06673C37.8725 4.77001 37.261 6.39292 36.8098 7.82589C36.3517 9.26029 36.0648 10.5238 35.9192 11.4375C32.4805 33.1186 33.0316 50.3965 35.8791 64.1421C37.3864 71.4179 39.5396 77.7192 42.1129 83.2281C46.6302 92.8587 52.4488 100.104 58.7393 105.74C63.4548 109.964 68.4416 113.263 73.3058 115.832C80.5899 119.696 87.5792 121.896 92.6516 123.097C95.1843 123.698 97.2378 124.049 98.5979 124.252C99.2746 124.354 99.7854 124.412 100.091 124.441C100.244 124.459 100.345 124.467 100.396 124.47L100.43 124.463L100.172 127.652L100.418 124.473L100.432 124.47L100.172 127.652L100.418 124.473L99.8978 131.214L100.417 124.466L100.444 124.461L99.6362 134.767L100.395 124.464L100.452 124.466L99.643 134.765L100.401 124.462C106.551 124.913 111.165 130.262 110.714 136.412C110.264 142.561 104.914 147.175 98.7647 146.725L98.7553 146.748Z" fill="#7FBB53"/>
</g>
<path opacity="0.5" d="M85.8729 1000.44C77.3024 1002.59 69.1477 997.274 67.659 988.564C66.1702 979.854 71.9111 971.048 80.4817 968.896C89.0522 966.744 97.2069 972.061 98.6956 980.771C100.184 989.482 94.4435 998.287 85.8729 1000.44Z" fill="#7FBB53"/>
<path opacity="0.5" d="M223.067 1306.46L226.731 1319.41L223.073 1306.45L223.032 1306.47C222.489 1306.69 216.622 1309.08 207.723 1311.85C201.047 1313.93 192.664 1316.23 183.564 1318.01C176.749 1319.34 169.534 1320.39 162.365 1320.86C156.998 1321.21 151.653 1321.23 146.551 1320.84C138.89 1320.26 131.782 1318.71 125.877 1316.11C122.918 1314.82 120.267 1313.28 117.934 1311.51C115.596 1309.73 113.581 1307.74 111.834 1305.46C109.727 1302.72 107.99 1299.54 106.6 1295.59C105.215 1291.63 104.19 1286.86 103.736 1280.95C103.216 1274.15 103.289 1268.36 103.763 1263.37C104.119 1259.65 104.697 1256.37 105.443 1253.44C106.569 1249.04 108.045 1245.41 109.84 1242.12C111.635 1238.85 113.765 1235.91 116.243 1233.12C118.481 1230.6 121.004 1228.21 123.739 1225.87C127.835 1222.36 132.406 1219 137.112 1215.34C141.813 1211.67 146.666 1207.71 151.221 1202.6C154.116 1199.34 156.882 1195.58 159.226 1191.14C160.976 1187.8 162.466 1184.1 163.557 1180.09C165.199 1174.06 165.892 1167.4 165.596 1160.43C165.308 1153.44 164.072 1146.11 161.942 1138.24C160.91 1134.44 159.584 1130.84 157.968 1127.51C156.357 1124.17 154.467 1121.11 152.36 1118.36C149.526 1114.66 146.317 1111.55 142.903 1108.95C139.696 1106.52 136.314 1104.55 132.819 1102.91C126.259 1099.85 119.306 1097.96 112.063 1096.67C99.3954 1094.45 85.7606 1094.07 71.7919 1093.87C61.3267 1093.72 50.685 1093.69 40.288 1093.2C32.4929 1092.84 24.844 1092.22 17.5265 1091.13C6.55274 1089.51 -3.63303 1086.81 -12.3942 1082.57C-16.7807 1080.46 -20.827 1077.97 -24.5031 1075.06C-28.1848 1072.14 -31.502 1068.8 -34.4908 1064.9C-37.2966 1061.24 -39.8163 1057.08 -42.05 1052.24C-44.2777 1047.39 -46.2137 1041.86 -47.7768 1035.43C-50.1147 1025.87 -51.1693 1017.32 -51.2816 1009.65C-51.366 1003.89 -50.9227 998.609 -50.0585 993.701C-48.7507 986.338 -46.4925 979.766 -43.4305 973.677C-40.3688 967.602 -36.4801 962.011 -31.9312 956.89C-24.5467 948.576 -15.4135 941.529 -5.79654 935.824C8.62386 927.245 24.0597 921.674 35.7595 918.381C41.6096 916.728 46.5377 915.628 49.9426 914.949C51.648 914.606 52.9751 914.378 53.8502 914.229C54.2848 914.157 54.6149 914.109 54.8234 914.077C54.9219 914.06 54.997 914.056 55.0435 914.045L55.084 914.039L54.2721 905.478L55.078 914.046L53.6011 898.349L55.0665 914.046L53.5956 898.342L55.0609 914.038C62.2166 913.058 67.3609 905.232 66.5524 896.559C65.7439 887.886 59.2863 881.651 52.1307 882.631C51.6266 882.714 35.9835 884.865 15.6128 892.137C5.41851 895.784 -5.96211 900.711 -17.2763 907.438C-28.585 914.171 -39.8495 922.675 -49.6752 933.723C-55.0419 939.765 -59.977 946.588 -64.1541 954.269C-67.287 960.034 -69.9908 966.285 -72.1095 973.01C-75.299 983.098 -77.1599 994.236 -77.3506 1006.19C-77.5358 1018.15 -76.0674 1030.91 -72.7762 1044.39C-70.7105 1052.86 -68.0406 1060.61 -64.8176 1067.61C-61.5947 1074.62 -57.8132 1080.89 -53.5934 1086.39C-46.6509 1095.45 -38.538 1102.42 -29.894 1107.67C-22.3201 1112.27 -14.3267 1115.59 -6.15094 1118.03C8.16117 1122.29 23.0661 1123.94 37.7215 1124.69C48.716 1125.25 59.5706 1125.3 69.8805 1125.43C77.6086 1125.53 85.0352 1125.69 91.9347 1126.11C97.1078 1126.44 101.982 1126.92 106.458 1127.62C113.165 1128.67 118.951 1130.27 123.436 1132.38C125.687 1133.43 127.611 1134.59 129.228 1135.84C130.844 1137.1 132.159 1138.42 133.263 1139.85C134.111 1140.95 134.836 1142.13 135.482 1143.47C136.127 1144.8 136.699 1146.3 137.175 1148.07C138.57 1153.2 139.261 1157.41 139.493 1160.77C139.675 1163.3 139.601 1165.36 139.393 1167.09C139.232 1168.39 139.002 1169.51 138.694 1170.54C138.237 1172.09 137.636 1173.48 136.802 1174.94C135.962 1176.38 134.874 1177.86 133.489 1179.42C131.775 1181.35 129.604 1183.38 127.072 1185.49C123.28 1188.66 118.669 1192.02 113.743 1195.91C108.816 1199.81 103.549 1204.27 98.5107 1209.94C95.2214 1213.65 92.0376 1217.87 89.1851 1222.75C87.0503 1226.4 85.1001 1230.43 83.4448 1234.82C80.9555 1241.41 79.1393 1248.8 78.1646 1256.96C77.184 1265.13 77.0398 1274.04 77.7857 1283.82C78.4531 1292.58 80.0701 1300.64 82.6107 1307.9C85.1458 1315.16 88.6121 1321.55 92.7377 1326.94C98.244 1334.12 104.85 1339.45 111.848 1343.27C117.984 1346.62 124.437 1348.85 131.005 1350.31C142.498 1352.88 154.373 1353.12 165.821 1352.23C182.979 1350.88 199.213 1346.91 211.292 1343.3C223.365 1339.68 231.265 1336.41 231.545 1336.3C238.359 1333.46 241.982 1324.48 239.645 1316.22C237.307 1307.96 229.894 1303.57 223.08 1306.4L223.067 1306.46Z" fill="#7FBB53"/>
</g>
<defs>
<clipPath id="clip0_3060_8191">
<rect width="517" height="2256" fill="white" transform="matrix(-1 0 0 1 517 0)"/>
</clipPath>
<clipPath id="clip1_3060_8191">
<rect width="675.9" height="595.79" fill="white" transform="matrix(-0.97921 0.202851 0.202851 0.97921 230.848 -144.5)"/>
</clipPath>
</defs>
</svg>
