<svg width="64" height="64" viewBox="0 0 64 64" fill="none" xmlns="http://www.w3.org/2000/svg">
<g filter="url(#filter0_d_2390_19344)">
<circle cx="32" cy="30" r="28" fill="#F36A4C"/>
<path d="M26 15L29 18L26 21" stroke="#41444A"/>
<path d="M38 21L35 18L38 15" stroke="#41444A"/>
<path d="M21.9492 27.4746C21.9492 28.8413 20.8413 29.9492 19.4746 29.9492C18.1079 29.9492 17 28.8413 17 27.4746C17 25 19.4746 23 19.4746 23C19.4746 23 22 25 21.9492 27.4746Z" fill="#41444A"/>
<path d="M46.9492 27.4746C46.9492 28.8413 45.8413 29.9492 44.4746 29.9492C43.1079 29.9492 42 28.8413 42 27.4746C42 25 44.4746 23 44.4746 23C44.4746 23 47 25 46.9492 27.4746Z" fill="#41444A"/>
<path d="M21.9492 36.4746C21.9492 37.8413 20.8413 38.9492 19.4746 38.9492C18.1079 38.9492 17 37.8413 17 36.4746C17 34 19.4746 32 19.4746 32C19.4746 32 22 34 21.9492 36.4746Z" fill="#41444A"/>
<path d="M46.9492 36.4746C46.9492 37.8413 45.8413 38.9492 44.4746 38.9492C43.1079 38.9492 42 37.8413 42 36.4746C42 34 44.4746 32 44.4746 32C44.4746 32 47 34 46.9492 36.4746Z" fill="#41444A"/>
<ellipse cx="32" cy="30" rx="4" ry="6" fill="#41444A"/>
</g>
<defs>
<filter id="filter0_d_2390_19344" x="0" y="0" width="64" height="64" filterUnits="userSpaceOnUse" color-interpolation-filters="sRGB">
<feFlood flood-opacity="0" result="BackgroundImageFix"/>
<feColorMatrix in="SourceAlpha" type="matrix" values="0 0 0 0 0 0 0 0 0 0 0 0 0 0 0 0 0 0 127 0" result="hardAlpha"/>
<feOffset dy="2"/>
<feGaussianBlur stdDeviation="2"/>
<feComposite in2="hardAlpha" operator="out"/>
<feColorMatrix type="matrix" values="0 0 0 0 0.129412 0 0 0 0 0.145098 0 0 0 0 0.180392 0 0 0 0.08 0"/>
<feBlend mode="normal" in2="BackgroundImageFix" result="effect1_dropShadow_2390_19344"/>
<feBlend mode="normal" in="SourceGraphic" in2="effect1_dropShadow_2390_19344" result="shape"/>
</filter>
</defs>
</svg>
