<svg width="270" height="90" viewBox="0 0 270 90" fill="none" xmlns="http://www.w3.org/2000/svg">
<path fill-rule="evenodd" clip-rule="evenodd" d="M48.1237 59.1967V52.3729H50.6186C51.2969 52.3729 51.9292 52.4251 52.2665 52.2005C52.6919 51.8357 52.9065 51.3786 52.9065 50.8294C52.9065 50.1037 52.3278 49.1856 51.1666 48.071C50.768 47.6941 50.4691 47.3934 50.2545 47.1689C49.4305 46.2949 48.825 45.3968 48.4264 44.4747C48.0317 43.5486 47.8362 42.5503 47.8362 41.4838C47.8362 39.2867 48.5721 37.4786 50.0399 36.0633C51.5153 34.648 53.42 33.9384 55.7501 33.9384C56.5702 33.9384 57.7813 33.8382 58.8237 33.9384V40.7621H56.4476C55.1982 40.7621 54.7154 41.0909 54.7192 41.8687C54.7269 42.5583 55.2749 43.2479 56.3939 44.17C56.8423 44.5509 57.1872 44.8556 57.4325 45.0761C58.337 45.898 59.0306 46.8482 59.5058 47.9187C59.981 48.9851 60.2148 50.1278 60.2148 51.3466C60.2148 53.7922 59.4407 55.7086 57.8886 57.1039C56.3326 58.4991 54.1827 59.1927 51.431 59.1927C50.5687 59.1766 49.3194 59.1927 48.1237 59.1927V59.1967ZM36.2816 46.1025H37.0021C37.9947 46.1025 38.765 45.8459 39.3169 45.3327C39.8687 44.8195 40.1408 44.1059 40.1408 43.1917C40.1408 42.2215 39.8687 41.4718 39.3207 40.9546C38.7803 40.4334 37.9947 40.1768 36.9676 40.1768H36.2816V46.1065V46.1025ZM30.2227 34.3193H36.3161C39.6503 34.3193 42.1337 35.0369 43.7624 36.4843C45.3874 37.9276 46.2037 40.1447 46.2037 43.1196C46.2037 46.0944 45.4104 48.2354 43.8352 49.8431C42.2563 51.4428 40.045 52.2406 37.1976 52.2406H36.2855V58.8158H30.2265V34.3233L30.2227 34.3193ZM62.8821 58.8519V34.3072H65.5418L74.2796 45.056V34.3072H80.3348V58.8519H77.5793L68.9565 48.2073V58.8519H62.886H62.8821ZM96.9251 59.1967H95.0473C91.3567 59.1967 88.3713 58.0781 86.091 55.7688C83.8107 53.4554 82.6687 50.4525 82.6687 46.752C82.6687 43.0514 83.8529 39.9683 86.2175 37.5387C88.5859 35.1131 91.5943 33.9344 95.2504 33.9344H96.9328L96.9251 40.7581H95.1891C93.3534 40.7581 91.8587 41.2994 90.7013 42.3819C89.544 43.4684 88.9653 44.8436 88.9653 46.5154C88.9653 48.1873 89.5401 49.5665 90.686 50.6891C91.8319 51.8076 93.2614 52.3689 94.9821 52.3689H96.9251V59.1927V59.1967Z" fill="black"/>
<path fill-rule="evenodd" clip-rule="evenodd" d="M67.4613 71C81.7637 71 94.7631 69.3522 105.455 66.5578C104.769 65.5875 104.367 64.4008 104.367 63.1218C104.367 63.0296 104.367 62.9334 104.375 62.8412C93.713 65.5153 80.3495 67.111 65.844 67.111C55.3701 67.111 45.4903 66.2811 36.7946 64.8097C36.8943 65.1585 36.9479 65.5274 36.9479 65.9083C36.9479 66.7662 36.6796 67.5561 36.2236 68.1975C45.5669 69.9857 56.1903 71 67.4651 71H67.4613ZM112.239 39.2507C112.296 39.367 113.135 39.7719 113.319 39.8561C113.511 39.9403 113.71 40.0325 113.913 40.1047C114.017 40.1408 114.124 40.1769 114.224 40.217C114.32 40.2571 114.458 40.2811 114.538 40.3212C114.534 40.3012 114.293 39.9684 114.258 39.9203C114.17 39.8 114.074 39.6316 113.998 39.4993C113.894 39.3109 113.599 38.7857 113.557 38.5852C113.423 38.5852 112.994 38.8258 112.86 38.8859C112.775 38.922 112.63 39.0102 112.541 39.0623C112.488 39.0944 112.273 39.2467 112.239 39.2547V39.2507ZM109.276 35.0611C109.284 35.3537 109.445 35.899 109.533 36.1315C109.663 36.4843 109.79 36.7129 109.958 37.0136C110.031 37.1459 110.131 37.2902 110.219 37.4105C110.311 37.5388 110.422 37.6591 110.506 37.7793C110.587 37.8956 110.717 38.0199 110.817 38.1241C110.874 38.1843 111.116 38.4048 111.139 38.4449C111.265 38.3767 111.434 38.2003 111.583 38.1041C111.744 37.9998 111.89 37.8916 112.062 37.7994C112.227 37.7112 112.396 37.6069 112.576 37.5308C112.741 37.4626 112.963 37.3784 113.116 37.3022C113.109 37.194 113.036 36.9254 113.005 36.8091C112.963 36.6567 112.955 36.4443 112.917 36.3079C112.875 36.1596 112.798 35.4259 112.798 35.2295V35.017L109.621 34.9809H109.276V35.0571V35.0611ZM117.171 37.8996C116.631 37.8996 115.952 37.9798 115.473 38.06C115.343 38.084 115.201 38.1121 115.082 38.1322C115.01 38.1442 114.952 38.1562 114.883 38.1722C114.776 38.2003 114.776 38.1722 114.826 38.2725C114.933 38.493 115.029 38.6894 115.151 38.9019C115.385 39.3029 115.665 39.6557 115.979 39.9684C116.113 40.1007 116.343 40.2851 116.504 40.3854C116.615 40.4495 117.002 40.674 117.136 40.678L117.171 37.8996ZM118.416 40.666C118.585 40.666 119.06 40.3573 119.187 40.2691C119.413 40.1127 119.605 39.9123 119.796 39.7158C120.168 39.3309 120.463 38.8057 120.716 38.3005C120.655 38.2965 120.275 38.2003 120.206 38.1763C120.053 38.1281 119.85 38.1121 119.685 38.076C119.428 38.0199 118.853 37.9397 118.57 37.9397H118.451L118.416 40.666ZM121 40.3052C121.283 40.237 121.854 40.0205 122.099 39.8922C122.272 39.804 122.437 39.7359 122.609 39.6436C122.709 39.5915 123.035 39.3951 123.1 39.375C123.019 39.2628 122.119 38.7616 121.938 38.7175C121.9 38.8819 121.601 39.4031 121.509 39.5594C121.425 39.6958 121.348 39.82 121.264 39.9483C121.183 40.0686 121.08 40.1889 121.003 40.3092L121 40.3052ZM121.187 37.0336C121.195 36.9334 121.287 36.6968 121.302 36.5846C121.325 36.4443 121.36 36.2638 121.394 36.1235C121.448 35.907 121.505 35.3818 121.505 35.1252L118.482 35.0971L118.466 36.3039V36.5886C118.934 36.5886 119.455 36.6968 119.892 36.749C120.068 36.769 120.379 36.8372 120.547 36.8813C120.643 36.9053 121.13 37.0336 121.183 37.0336H121.187ZM114.347 36.9214C114.492 36.9214 114.826 36.8091 115.01 36.785C115.224 36.757 115.473 36.7129 115.699 36.6728C116.109 36.6046 116.719 36.5605 117.182 36.5605L117.205 35.0731L114.078 35.037C114.078 35.6905 114.232 36.3801 114.35 36.9214H114.347ZM124.196 38.5571C124.514 38.3326 125.2 37.5067 125.399 37.1379C125.552 36.8612 125.725 36.5726 125.832 36.2518C125.882 36.1075 125.959 35.907 125.985 35.7426C126.008 35.5943 126.089 35.3497 126.093 35.1854L123.295 35.1453H122.797C122.797 35.5823 122.701 35.9752 122.655 36.3641C122.636 36.5204 122.582 36.773 122.544 36.9294C122.513 37.0497 122.418 37.3704 122.41 37.4706C122.555 37.5508 122.743 37.619 122.9 37.7032C123.065 37.7874 123.215 37.8635 123.364 37.9598C123.514 38.056 123.663 38.1402 123.797 38.2484C123.885 38.3166 124.123 38.521 124.196 38.5611V38.5571ZM122.513 31.8497C122.521 31.9539 122.582 32.1985 122.609 32.3067C122.644 32.455 122.667 32.6154 122.701 32.7718C122.751 32.9883 122.801 33.5456 122.801 33.7981L126.047 33.8342C126.047 33.6137 125.851 33.0845 125.778 32.9001C125.671 32.6274 125.526 32.3348 125.376 32.1022C125.223 31.8657 125.058 31.6131 124.874 31.4126C124.717 31.2402 124.472 30.9235 124.292 30.7952C124.161 30.8834 124.039 31.0037 123.897 31.1039C123.755 31.2042 123.617 31.2964 123.464 31.3846C123.322 31.4648 123.149 31.565 123 31.6332C122.858 31.6973 122.64 31.7815 122.509 31.8537L122.513 31.8497ZM120.984 33.7701H121.505V33.6699C121.505 33.2369 121.364 32.6234 121.279 32.2546C121.118 32.2666 120.823 32.3588 120.632 32.3949C120.417 32.439 120.176 32.4911 119.949 32.5152C119.49 32.5593 119.007 32.6515 118.505 32.6515V33.742H118.681L120.98 33.7661L120.984 33.7701ZM114.109 33.6338V33.6939L117.225 33.722V32.6435C116.692 32.6435 116.205 32.5553 115.73 32.4951C115.508 32.4671 115.243 32.419 115.033 32.3668C114.925 32.3388 114.803 32.3227 114.691 32.2867C114.638 32.2706 114.396 32.2065 114.354 32.2065C114.347 32.2827 114.293 32.4631 114.274 32.5433C114.247 32.6595 114.235 32.7798 114.209 32.8961C114.17 33.0564 114.105 33.4534 114.105 33.6338H114.109ZM109.334 33.6338L112.817 33.6699V33.6217C112.817 33.3611 112.902 32.9241 112.944 32.6756C112.998 32.3548 113.074 32.0822 113.139 31.7895C112.925 31.7374 112.292 31.3886 112.097 31.2683C111.944 31.1761 111.771 31.0638 111.626 30.9556C111.48 30.8433 111.33 30.695 111.192 30.6028C111.001 30.7391 110.756 31.0278 110.587 31.2082C110.407 31.3966 110.2 31.6732 110.054 31.9018C109.909 32.1263 109.729 32.431 109.629 32.6956C109.56 32.884 109.338 33.4133 109.334 33.6378V33.6338ZM122.099 30.5707C122.149 30.5707 122.613 30.3342 122.682 30.2981C122.782 30.246 123.169 29.9894 123.215 29.9773C123.184 29.853 121.467 29.0031 121.21 28.9991C121.367 29.2476 121.551 29.4762 121.689 29.7528C121.758 29.8891 121.831 30.0134 121.9 30.1537C121.919 30.1978 122.084 30.5747 122.103 30.5747L122.099 30.5707ZM118.528 31.3004C118.896 31.3004 119.421 31.2483 119.743 31.1921C119.938 31.1561 120.118 31.132 120.306 31.0999C120.451 31.0759 120.724 30.9917 120.854 30.9796C120.816 30.8113 120.54 30.3542 120.451 30.1978C120.34 30.0014 120.103 29.6646 119.949 29.5082C119.743 29.2917 119.582 29.1153 119.336 28.9349C119.206 28.8387 118.738 28.542 118.566 28.526L118.528 31.3044V31.3004ZM114.822 30.9396C115.197 31.0318 115.584 31.112 115.983 31.1761C116.328 31.2322 116.88 31.3004 117.251 31.3004L117.274 28.522V28.4739C117.075 28.4899 116.592 28.7585 116.447 28.8588C116.194 29.0311 115.994 29.2116 115.791 29.4361C115.584 29.6606 115.423 29.8611 115.255 30.1257C115.178 30.246 114.833 30.8153 114.822 30.9396ZM112.296 29.7849C112.373 29.9052 113.404 30.4985 113.588 30.5146C113.626 30.3422 113.952 29.7608 114.048 29.6085C114.136 29.4682 114.216 29.3238 114.312 29.1915C114.35 29.1394 114.599 28.8187 114.603 28.7906C114.576 28.8066 114.327 28.8828 114.293 28.8908C114.182 28.9149 114.09 28.955 113.986 28.9911C113.783 29.0632 113.588 29.1354 113.388 29.2196C112.994 29.388 112.649 29.5844 112.289 29.7809L112.296 29.7849ZM110.25 58.5272C112.764 58.5272 114.803 60.58 114.803 63.1138C114.803 65.6476 112.764 67.7004 110.25 67.7004C107.736 67.7004 105.697 65.6476 105.697 63.1138C105.697 60.58 107.736 58.5272 110.25 58.5272ZM116.136 63.0817C116.129 61.7306 115.673 60.4837 114.91 59.4894C123.717 55.9573 128.998 51.4589 128.998 46.5556C128.998 44.0578 127.622 41.6603 125.112 39.4472C126.323 38.3887 127.143 37.0617 127.396 35.5983C132.765 38.505 135.494 42.0091 134.926 46.3231C134.079 52.7579 127.17 58.6635 116.14 63.0817H116.136ZM110.154 29.8049C109.594 30.3101 109.119 30.8754 108.755 31.4848C104.819 30.2981 100.42 29.2717 95.656 28.4418C100.619 28.4739 105.459 28.9069 110.154 29.8049ZM33.2842 68.4261C34.6102 68.4261 35.6871 67.2995 35.6871 65.9123C35.6871 64.5251 34.6102 63.3985 33.2842 63.3985C31.9582 63.3985 30.8813 64.5251 30.8813 65.9123C30.8813 67.2995 31.9582 68.4261 33.2842 68.4261ZM30.3869 63.5709C13.6662 59.8703 2.68266 53.6359 2.68266 46.5636C2.68266 44.0458 4.07765 41.6362 6.62234 39.4071C5.73706 38.8057 5.07789 37.8876 4.80963 36.8131C1.75523 39.5474 0 42.6786 0 46.3311C0 54.8387 11.7884 62.344 29.7162 66.7783C29.6549 66.4976 29.6204 66.2089 29.6204 65.9083C29.6204 65.0262 29.904 64.2123 30.3831 63.5668L30.3869 63.5709ZM78.7629 19C80.9129 19 82.6566 20.7561 82.6566 22.9251C82.6566 25.0941 80.9129 26.8501 78.7629 26.8501C76.613 26.8501 74.8692 25.0941 74.8692 22.9251C74.8692 20.7561 76.613 19 78.7629 19ZM9.07889 32.6395C10.7728 32.6395 12.1486 34.0227 12.1486 35.7306C12.1486 37.4386 10.7728 38.8217 9.07889 38.8217C7.38498 38.8217 6.00916 37.4386 6.00916 35.7306C6.00916 34.0227 7.38498 32.6395 9.07889 32.6395ZM13.4363 35.0971C24.784 29.6205 44.0225 26.0202 65.8402 26.0202C68.8563 26.0202 71.8225 26.0884 74.7274 26.2207C74.0031 25.3226 73.5662 24.1759 73.5662 22.9251C73.5662 21.61 74.0491 20.4113 74.8424 19.4931C60.1951 19.9542 43.21 21.9388 28.8079 25.9721C22.3504 27.7803 16.4945 29.821 11.7769 32.2265C12.6583 32.9161 13.2715 33.9345 13.4363 35.0971ZM82.327 26.7298C86.9872 27.1388 91.4328 27.7161 95.6024 28.4418L105.371 21.6621C100.788 20.2709 92.5518 19.449 82.5915 19.3889C83.4384 20.319 83.9558 21.5619 83.9558 22.9251C83.9558 24.4205 83.3311 25.7716 82.3309 26.7258L82.327 26.7298Z" fill="black"/>
<path d="M198.594 24.7251H203.962V43.2147H207.753V24.7251H213.148V20.9088H198.594V24.7251Z" fill="black"/>
<path d="M270 24.7096V20.8934L256.203 20.8242V30.0594V43.2146H270V39.3983H260.022V33.941H268.616V30.1247L260.022 30.0786V24.7096H270Z" fill="black"/>
<path d="M219.267 40.9164C219.351 41.0048 219.436 41.0894 219.52 41.1739C220.824 42.4191 222.57 43.1877 224.515 43.2146C228.665 43.2146 232.179 39.702 232.179 35.4706V20.9165H228.222V35.4706C228.222 35.6013 228.215 35.732 228.203 35.8588C228.011 37.7804 226.411 39.2869 224.542 39.2869C223.804 39.2869 223.127 39.0448 222.566 38.6336C222.474 38.5644 222.381 38.4914 222.297 38.4145C221.52 37.715 221.028 36.6543 221.028 35.4706V24.7251H215.383V28.5221H217.125V35.4706C217.125 37.5997 217.936 39.5213 219.263 40.9203L219.267 40.9164Z" fill="black"/>
<path d="M190.475 66.0278H183.588V47.5343H179.77V69.844H190.475H194.324V66.0278V64.2022H190.475V66.0278Z" fill="black"/>
<path d="M230.764 58.5606L230.717 58.5183L230.76 58.4722C231.863 57.2501 232.475 55.6898 232.475 54.0795C232.475 50.4938 229.579 47.5729 226.022 47.5729L217.939 47.5307V69.8404H226.341C229.914 69.8404 232.825 66.8927 232.825 63.2647C232.825 61.4891 232.075 59.7751 230.767 58.5568L230.764 58.5606ZM221.635 51.4238H226.022C227.487 51.4238 228.679 52.6152 228.679 54.0795C228.679 55.5437 227.487 56.7351 226.022 56.7351H221.635V51.4238ZM226.338 65.928H221.662V60.6129H226.338C227.803 60.6129 228.995 61.8043 228.995 63.2685C228.995 64.7328 227.776 65.9242 226.338 65.9242V65.928Z" fill="black"/>
<path d="M171.4 25.7666L175.349 23.1994V20.9127H171.4V20.9012L161.482 27.4538V43.2109H165.435V36.2316H174.237V32.3731H165.435V29.9672L171.4 25.7666Z" fill="black"/>
<path d="M175.35 20.9012H171.4V24.752H175.35V20.9012Z" fill="black"/>
<path d="M190.057 24.7558H190.068V35.4707C190.068 37.5729 188.38 39.2869 186.388 39.2869C184.396 39.2869 182.874 37.5729 182.874 35.4707V24.6675H178.971V35.4668C178.971 39.7251 182.208 43.1532 186.358 43.2108C190.507 43.2108 194.021 39.6982 194.021 35.4668V24.7558H195.752V20.9088H190.049V24.7558H190.057Z" fill="black"/>
<path d="M209.092 47.5343L197.982 54.087V69.844H201.932V62.8648H209.092V69.844H213.041V47.542H209.092V47.5343ZM209.092 59.0062H201.932V56.6004L209.092 52.3998V59.0062Z" fill="black"/>
<path d="M243.308 47.5728C239.331 47.5728 235.844 50.9433 235.844 55.0901V56.9348L246.738 63.3875C246.218 64.8556 244.865 65.8933 243.308 65.8933H235.844V69.8402H243.281C247.314 70.0132 250.975 66.4697 250.975 62.3806V60.9394L239.908 54.4021C240.339 52.7611 241.723 51.5505 243.308 51.5505H247.153V53.2184H251.002V47.5766H243.308V47.5728Z" fill="black"/>
<path d="M243.718 20.8703C239.761 20.7857 236.496 24.2446 236.496 28.3376V43.2146H240.288V38.9832L244.191 36.7157L247.205 38.4875V43.2146H250.997V35.9971L248.063 34.4214L251.051 32.6496V28.3376C251.051 24.2177 247.786 20.8972 243.718 20.8703ZM247.232 30.1631L240.315 34.2292V28.3414C240.315 26.3507 241.864 24.6904 243.691 24.6904C245.683 24.6904 247.232 26.3507 247.232 28.3414V30.1669V30.1631Z" fill="black"/>
<mask id="mask0_3033_17542" style="mask-type:luminance" maskUnits="userSpaceOnUse" x="198" y="20" width="16" height="24">
<path d="M198.592 24.7251H203.96V43.2147H207.751V24.7251H213.146V20.9088H198.592V24.7251Z" fill="white"/>
</mask>
<g mask="url(#mask0_3033_17542)">
<path d="M208.245 39.4291H203.473V43.6758H208.245V39.4291Z" fill="#2287C6"/>
</g>
<mask id="mask1_3033_17542" style="mask-type:luminance" maskUnits="userSpaceOnUse" x="256" y="20" width="14" height="24">
<path d="M269.994 24.7095V20.8932L256.197 20.824V30.0592V43.2145H269.994V39.3982H260.016V33.9408H268.61V30.1246L260.016 30.0784V24.7095H269.994Z" fill="white"/>
</mask>
<g mask="url(#mask1_3033_17542)">
<path d="M269.146 29.8478H264.793V34.1983H269.146V29.8478Z" fill="#A93D8A"/>
</g>
<mask id="mask2_3033_17542" style="mask-type:luminance" maskUnits="userSpaceOnUse" x="215" y="20" width="18" height="24">
<path d="M219.27 40.9164C219.355 41.0048 219.44 41.0894 219.524 41.1739C220.828 42.4191 222.574 43.1877 224.519 43.2146C228.669 43.2146 232.183 39.702 232.183 35.4706V20.9165H228.226V35.4706C228.226 35.6013 228.219 35.7319 228.207 35.8588C228.015 37.7804 226.415 39.2869 224.546 39.2869C223.808 39.2869 223.131 39.0448 222.57 38.6336C222.478 38.5644 222.385 38.4914 222.301 38.4145C221.524 37.715 221.032 36.6543 221.032 35.4706V24.7251H215.387V28.5221H217.129V35.4706C217.129 37.5997 217.94 39.5213 219.267 40.9203L219.27 40.9164Z" fill="white"/>
</mask>
<g mask="url(#mask2_3033_17542)">
<path d="M233.229 20.3093H227.33V24.8635H233.229V20.3093Z" fill="#F6CE59"/>
</g>
<mask id="mask3_3033_17542" style="mask-type:luminance" maskUnits="userSpaceOnUse" x="179" y="47" width="16" height="23">
<path d="M190.473 66.0277H183.586V47.5343H179.768V69.844H190.473H194.322V66.0277V64.2022H190.473V66.0277Z" fill="white"/>
</mask>
<g mask="url(#mask3_3033_17542)">
<path d="M184.139 47.2152H179.482V51.3928H184.139V47.2152Z" fill="#A5A1A0"/>
</g>
<mask id="mask4_3033_17542" style="mask-type:luminance" maskUnits="userSpaceOnUse" x="217" y="47" width="16" height="23">
<path d="M230.764 58.5606L230.717 58.5184L230.76 58.4723C231.863 57.2501 232.475 55.6898 232.475 54.0795C232.475 50.4938 229.579 47.573 226.022 47.573L217.939 47.5307V69.8404H226.341C229.914 69.8404 232.825 66.8927 232.825 63.2647C232.825 61.4892 232.075 59.7751 230.767 58.5568L230.764 58.5606ZM221.635 51.4238H226.022C227.487 51.4238 228.679 52.6152 228.679 54.0795C228.679 55.5437 227.487 56.7351 226.022 56.7351H221.635V51.4238ZM226.338 65.928H221.662V60.6129H226.338C227.803 60.6129 228.995 61.8043 228.995 63.2686C228.995 64.7328 227.776 65.9242 226.338 65.9242V65.928Z" fill="white"/>
</mask>
<g mask="url(#mask4_3033_17542)">
<path d="M221.634 47.45H217.77V51.4239H221.634V47.45Z" fill="#E50E6A"/>
</g>
<mask id="mask5_3033_17542" style="mask-type:luminance" maskUnits="userSpaceOnUse" x="161" y="20" width="15" height="24">
<path d="M171.4 20.9012L161.482 27.4576V43.2147H165.435V36.2316H171.4L174.237 36.2393V32.3731H165.435V29.9711L171.4 25.7666L172.961 24.7559H175.349V23.1994V20.9127V20.9012H171.4Z" fill="white"/>
</mask>
<g mask="url(#mask5_3033_17542)">
<path d="M174.584 32.1311H170.377V36.5777H174.584V32.1311Z" fill="#9CBF32"/>
</g>
</svg>
