<svg width="96" height="96" viewBox="0 0 96 96" fill="none" xmlns="http://www.w3.org/2000/svg">
<path d="M48 95.7831C74.2335 95.7831 95.5 74.4533 95.5 48.1416C95.5 21.8299 74.2335 0.5 48 0.5C21.7665 0.5 0.5 21.8299 0.5 48.1416C0.5 74.4533 21.7665 95.7831 48 95.7831Z" fill="#2E963F"/>
<path d="M86.006 55.7596L63.7581 48.1984L86.0627 40.7793C87.5647 40.2818 88.3441 38.6047 87.7348 37.1266L85.8643 32.5642L83.9937 28.0019C83.3844 26.5238 81.6698 25.87 80.2385 26.5806L59.1668 37.0129L69.7097 15.9494C70.4183 14.5281 69.7806 12.7941 68.321 12.183L63.7722 10.2784L59.2234 8.37391C57.7639 7.76275 56.0776 8.51604 55.5674 10.0226L48.0286 32.3368L40.6316 9.96575C40.1356 8.45919 38.4635 7.67748 36.9897 8.28863L32.4409 10.1647L27.8922 12.0408C26.4184 12.652 25.7666 14.3717 26.4751 15.8072L36.8763 36.9418L15.8755 26.3674C14.4584 25.6568 12.7296 26.2963 12.1202 27.7603L10.2214 32.3226L8.3225 36.8849C7.71316 38.3489 8.4642 40.0402 9.96629 40.5519L32.2142 48.1131L9.90961 55.5322C8.40752 56.0297 7.62814 57.7068 8.23747 59.1849L10.108 63.7473L11.9785 68.3096C12.5879 69.7878 14.3025 70.4415 15.7337 69.7309L36.8055 59.2986L26.2625 80.3621C25.554 81.7834 26.1917 83.5174 27.6513 84.1285L32.2 86.0331L36.7488 87.9376C38.2084 88.5487 39.8947 87.7955 40.4048 86.2889L47.9436 63.9747L55.3407 86.3458C55.8367 87.8523 57.5088 88.634 58.9826 88.0229L63.5313 86.1468L68.0801 84.2707C69.5539 83.6595 70.2057 81.9398 69.4972 80.5043L59.0959 59.3697L80.0968 69.9441C81.5139 70.6547 83.2427 70.0152 83.852 68.5512L85.7509 63.9889L87.6498 59.4266C88.2591 57.9626 87.5081 56.2713 86.006 55.7596Z" fill="#FFE73C"/>
<path d="M46.4558 43.6644C46.5408 42.6979 46.8242 41.7457 47.3344 40.8787C47.6886 40.2818 47.5753 39.5285 47.051 39.0879C46.3991 38.5194 45.3647 38.6615 44.9112 39.4148C44.1602 40.6797 43.7209 42.0868 43.6217 43.5081C43.5508 44.3751 44.3302 45.0715 45.1804 44.9862C45.8748 44.9152 46.3849 44.3609 46.4416 43.6644H46.4558Z" fill="#2E963F"/>
<path d="M55.9648 47.5873C55.2704 47.5873 54.7036 48.0847 54.576 48.7669C54.3351 50.103 53.6833 51.2826 52.7764 52.2065C51.586 53.3861 49.9706 54.1252 48.1567 54.1252C46.3571 54.1252 44.7274 53.4003 43.5371 52.2065C42.616 51.2826 41.9783 50.0887 41.7374 48.7669C41.6099 48.0847 41.0431 47.5873 40.3487 47.5873C39.4843 47.5873 38.7899 48.3548 38.9458 49.2075C39.711 53.6278 43.5513 56.982 48.1709 56.982C52.7905 56.982 56.6308 53.6278 57.396 49.2075C57.5377 48.3548 56.8433 47.5873 55.9931 47.5873H55.9648Z" fill="#2E963F"/>
<path d="M51.4011 45.2137C51.4861 44.2473 51.7696 43.295 52.2797 42.428C52.634 41.8311 52.5206 41.0778 51.9963 40.6372C51.3444 40.0687 50.31 40.2108 49.8565 40.9641C49.1055 42.229 48.6662 43.6361 48.567 45.0574C48.4961 45.9244 49.2755 46.6208 50.1258 46.5355C50.8201 46.4645 51.3303 45.9102 51.3869 45.2137H51.4011Z" fill="#2E963F"/>
</svg>
