<?xml version="1.0" standalone="no"?>
<!DOCTYPE svg PUBLIC "-//W3C//DTD SVG 20010904//EN"
 "http://www.w3.org/TR/2001/REC-SVG-20010904/DTD/svg10.dtd">
<svg version="1.0" xmlns="http://www.w3.org/2000/svg"
 width="1120.000000pt" height="1294.000000pt" viewBox="0 0 1120.000000 1294.000000"
 preserveAspectRatio="xMidYMid meet">

<g transform="translate(0.000000,1294.000000) scale(0.100000,-0.100000)"
fill="#000000" stroke="none">
<path d="M3764 10586 c-10 -8 -16 -18 -12 -22 4 -4 14 -1 23 6 16 14 45 7 45
-11 0 -6 -9 -13 -20 -16 -26 -7 -26 -19 1 -26 12 -3 19 -12 17 -19 -6 -18 -39
-23 -49 -7 -11 18 -23 4 -15 -16 4 -12 16 -15 43 -13 31 2 39 7 41 27 2 13 -1
28 -6 33 -7 7 -7 17 1 30 10 16 9 22 -7 34 -25 18 -37 18 -62 0z"/>
<path d="M3944 10586 c-10 -8 -16 -18 -12 -22 4 -4 14 -1 23 6 16 14 45 7 45
-11 0 -6 -9 -13 -20 -16 -26 -7 -26 -19 1 -26 12 -3 19 -12 17 -19 -6 -18 -39
-23 -49 -7 -10 17 -23 4 -16 -16 4 -9 19 -15 41 -15 45 0 62 26 40 58 -9 13
-11 22 -5 22 19 0 12 39 -8 50 -26 13 -33 13 -57 -4z"/>
<path d="M4064 10586 c-10 -8 -16 -18 -12 -22 4 -4 14 -1 23 6 16 14 45 7 45
-11 0 -6 -9 -13 -20 -16 -26 -7 -26 -19 1 -26 12 -3 19 -12 17 -19 -6 -18 -39
-23 -49 -7 -11 18 -23 4 -15 -16 4 -12 16 -15 43 -13 31 2 39 7 41 26 2 13 -2
30 -8 38 -9 10 -9 14 -1 14 19 0 12 39 -8 50 -26 13 -33 13 -57 -4z"/>
<path d="M6743 10584 c-18 -9 -33 -20 -33 -24 0 -16 14 -18 41 -5 36 19 80 19
105 0 25 -19 34 -19 34 1 0 17 -57 44 -92 44 -13 0 -38 -8 -55 -16z"/>
<path d="M3673 10583 c-7 -2 -13 -12 -13 -20 0 -13 3 -13 15 -3 13 11 15 5 15
-45 0 -41 3 -56 13 -53 7 3 13 28 15 66 3 64 -4 72 -45 55z"/>
<path d="M3876 10573 c-11 -11 -6 -23 9 -23 8 0 15 4 15 9 0 13 -16 22 -24 14z"/>
<path d="M6754 10535 c-22 -17 -25 -16 49 -19 59 -3 72 5 38 24 -28 14 -64 12
-87 -5z"/>
<path d="M6464 10526 c-10 -25 0 -61 19 -64 14 -3 17 4 17 37 0 30 -4 41 -15
41 -9 0 -18 -6 -21 -14z"/>
<path d="M3875 10499 c-10 -15 3 -25 16 -12 7 7 7 13 1 17 -6 3 -14 1 -17 -5z"/>
<path d="M6410 10485 c0 -16 6 -25 15 -25 9 0 15 9 15 25 0 16 -6 25 -15 25
-9 0 -15 -9 -15 -25z"/>
<path d="M6780 10493 c0 -5 4 -14 9 -22 8 -12 12 -12 25 -2 9 7 13 17 10 22
-6 11 -44 12 -44 2z"/>
<path d="M5170 10220 c0 -27 5 -50 10 -50 6 0 10 23 10 50 0 28 -4 50 -10 50
-5 0 -10 -22 -10 -50z"/>
<path d="M5793 10215 c0 -33 2 -45 4 -27 2 18 2 45 0 60 -2 15 -4 0 -4 -33z"/>
<path d="M4971 10197 l2 -42 6 35 c4 22 12 35 21 35 9 0 17 -13 21 -35 l6 -35
2 38 c1 46 31 54 31 8 0 -17 5 -33 11 -36 7 -5 9 6 7 31 l-3 39 -52 2 -53 3 1
-43z"/>
<path d="M5100 10231 c0 -5 9 -7 20 -4 11 3 20 1 20 -5 0 -5 -12 -13 -26 -16
-35 -9 -28 -41 10 -42 31 -1 41 14 32 51 -5 18 -13 25 -31 25 -14 0 -25 -4
-25 -9z m40 -40 c0 -14 -18 -23 -30 -16 -6 4 -8 11 -5 16 8 12 35 12 35 0z"/>
<path d="M5213 10200 c0 -25 2 -35 4 -22 2 12 2 32 0 45 -2 12 -4 2 -4 -23z"/>
<path d="M5241 10198 l2 -43 6 35 c4 22 12 36 24 38 14 3 17 -4 18 -35 l2 -38
6 35 c9 50 38 53 44 6 l4 -36 -1 37 -1 38 -52 3 -53 2 1 -42z"/>
<path d="M5377 10233 c-4 -3 -7 -19 -7 -34 0 -34 34 -49 57 -26 23 23 9 67
-21 67 -12 0 -26 -3 -29 -7z m41 -30 c-3 -30 -25 -42 -34 -19 -9 22 2 46 21
46 12 0 15 -8 13 -27z"/>
<path d="M5454 10214 c-8 -33 15 -59 45 -49 11 3 21 11 21 17 0 7 -5 6 -15 -2
-19 -16 -35 -4 -35 27 0 22 3 24 26 19 17 -5 23 -3 19 4 -3 5 -17 10 -30 10
-18 0 -26 -7 -31 -26z"/>
<path d="M5542 10198 l1 -43 4 38 c3 28 9 37 23 37 14 0 20 -9 23 -32 4 -33 4
-33 3 2 -1 30 -5 35 -28 38 -27 3 -28 2 -26 -40z"/>
<path d="M5623 10200 c0 -25 2 -35 4 -22 2 12 2 32 0 45 -2 12 -4 2 -4 -23z"/>
<path d="M5701 10188 c1 -29 3 -46 6 -37 2 10 11 15 22 12 25 -6 45 21 37 52
-5 20 -13 25 -36 25 -30 0 -30 -1 -29 -52z m53 25 c8 -19 -17 -48 -33 -39 -12
8 -15 39 -4 49 12 12 31 7 37 -10z"/>
<path d="M5427 10051 c76 -6 114 -18 86 -28 -17 -6 9 -33 31 -33 9 0 16 -7 16
-15 0 -8 -9 -15 -20 -15 -15 0 -20 -7 -20 -25 0 -18 5 -25 20 -25 13 0 20 -7
20 -20 0 -11 7 -23 15 -26 10 -4 15 -20 15 -50 0 -24 5 -44 10 -44 6 0 10 -20
10 -44 0 -39 3 -45 23 -48 16 -2 23 -11 25 -30 2 -16 8 -28 13 -28 5 0 9 -6 9
-14 0 -7 14 -27 31 -44 l32 -31 -28 7 c-15 4 -43 6 -61 4 l-34 -4 2 -57 2 -56
3 53 4 52 50 0 c31 0 49 -4 49 -12 0 -9 3 -9 12 0 16 16 70 16 86 0 7 -7 12
-27 12 -45 0 -27 -6 -37 -32 -53 -34 -20 -53 -26 -45 -12 3 4 -7 16 -22 27
-16 11 -21 13 -14 4 7 -9 10 -19 6 -22 -3 -4 -1 -7 6 -7 7 0 9 -5 6 -10 -4 -6
-1 -9 6 -8 15 3 26 -38 28 -100 1 -48 18 -72 50 -72 22 0 29 -16 10 -22 -15
-5 -2 -87 14 -90 7 -1 -55 -5 -138 -8 -82 -3 306 -7 863 -8 l1012 -2 0 485 0
485 -1122 -2 c-618 -1 -1086 -4 -1041 -7z m323 -482 c0 -5 5 -7 10 -4 6 3 10
2 10 -4 0 -19 -16 -19 -28 0 -7 11 -8 19 -2 19 5 0 10 -5 10 -11z m156 -61 l7
-23 8 23 c6 17 15 22 31 20 20 -3 23 -10 26 -55 3 -58 -2 -61 -85 -54 l-43 3
0 54 c0 51 2 54 24 54 17 0 27 -7 32 -22z m124 5 c1 -17 1 -17 14 0 7 9 21 17
30 17 13 0 16 -11 16 -55 0 -42 -3 -55 -15 -55 -9 0 -15 9 -15 22 l0 22 -16
-22 c-8 -12 -24 -22 -35 -22 -16 0 -19 7 -19 55 0 48 2 55 20 55 12 0 20 -7
20 -17z m-190 -113 c0 -5 -4 -10 -10 -10 -5 0 -10 5 -10 10 0 6 5 10 10 10 6
0 10 -4 10 -10z m-33 -6 c-3 -3 -12 -4 -19 -1 -8 3 -5 6 6 6 11 1 17 -2 13 -5z
m68 -44 c3 -5 1 -10 -4 -10 -6 0 -11 5 -11 10 0 6 2 10 4 10 3 0 8 -4 11 -10z
m39 -142 c6 -26 4 -28 -24 -28 -16 0 -30 5 -30 10 0 6 9 10 20 10 14 0 20 7
20 22 0 27 5 21 14 -14z"/>
<path d="M5931 9434 c0 -11 3 -14 6 -6 3 7 2 16 -1 19 -3 4 -6 -2 -5 -13z"/>
<path d="M5398 9533 c7 -3 16 -2 19 1 4 3 -2 6 -13 5 -11 0 -14 -3 -6 -6z"/>
<path d="M5468 9533 c7 -3 16 -2 19 1 4 3 -2 6 -13 5 -11 0 -14 -3 -6 -6z"/>
<path d="M5543 9533 c9 -2 23 -2 30 0 6 3 -1 5 -18 5 -16 0 -22 -2 -12 -5z"/>
<path d="M5653 9465 c0 -22 2 -30 4 -17 2 12 2 30 0 40 -3 9 -5 -1 -4 -23z"/>
<path d="M5700 9464 c0 -23 2 -24 15 -10 8 8 15 17 15 19 0 3 -7 7 -15 11 -11
4 -15 -2 -15 -20z"/>
<path d="M5783 9471 c9 -12 9 -13 0 -7 -7 4 -13 2 -13 -3 0 -6 7 -11 15 -11 8
0 15 8 15 18 0 10 -7 19 -15 19 -12 0 -12 -3 -2 -16z"/>
<path d="M5372 9455 c0 -16 2 -22 5 -12 2 9 2 23 0 30 -3 6 -5 -1 -5 -18z"/>
<path d="M5571 9444 c0 -11 3 -14 6 -6 3 7 2 16 -1 19 -3 4 -6 -2 -5 -13z"/>
<path d="M5460 9432 c0 -6 -8 -13 -17 -15 -16 -4 -16 -5 -1 -6 18 -1 34 16 24
26 -3 4 -6 1 -6 -5z"/>
<path d="M5674 9405 c16 -9 34 -14 40 -11 6 2 3 5 -6 5 -10 1 -18 6 -18 11 0
6 -10 10 -22 10 -21 0 -20 -2 6 -15z"/>
<path d="M3410 8665 c0 -3 14 -33 30 -66 31 -61 32 -79 2 -79 -11 0 -13 -3 -5
-11 21 -21 48 8 80 85 23 55 28 76 18 76 -7 0 -21 -22 -30 -50 -9 -27 -18 -50
-21 -50 -2 0 -15 23 -29 50 -14 28 -30 50 -35 50 -6 0 -10 -2 -10 -5z"/>
<path d="M5040 8660 c0 -5 5 -10 10 -10 6 0 10 5 10 10 0 6 -4 10 -10 10 -5 0
-10 -4 -10 -10z"/>
<path d="M5600 8660 c0 -5 5 -10 10 -10 6 0 10 5 10 10 0 6 -4 10 -10 10 -5 0
-10 -4 -10 -10z"/>
<path d="M3567 8623 c-4 -3 -7 -31 -7 -60 l0 -54 48 3 47 3 1 48 c2 43 -1 49
-23 58 -29 11 -57 12 -66 2z m71 -30 c2 -9 -7 -13 -27 -13 -30 0 -39 9 -24 24
11 10 46 3 51 -11z m0 -50 c-4 -20 -35 -30 -50 -15 -15 15 0 32 28 32 19 0 25
-5 22 -17z"/>
<path d="M3700 8615 c-7 -9 -9 -19 -5 -23 4 -4 10 -1 12 6 6 17 53 16 53 -2 0
-7 -13 -16 -29 -19 -39 -8 -57 -40 -35 -61 18 -18 40 -21 49 -6 3 6 18 8 33 5
15 -3 21 -2 15 1 -8 3 -13 24 -13 48 0 23 -5 47 -12 54 -17 17 -53 15 -68 -3z
m58 -72 c-4 -22 -48 -31 -48 -10 0 19 10 27 32 27 13 0 18 -6 16 -17z"/>
<path d="M3810 8625 c0 -4 9 -18 20 -32 20 -25 20 -25 0 -51 -11 -14 -18 -28
-14 -31 3 -3 16 6 28 22 27 34 36 34 36 2 0 -14 5 -25 10 -25 6 0 10 12 10 28
l1 27 22 -27 c13 -16 29 -28 37 -28 9 0 6 8 -10 25 -23 25 -23 26 -7 54 25 43
21 48 -13 16 -28 -27 -30 -28 -30 -7 0 11 -4 24 -10 27 -6 4 -10 -5 -10 -19 0
-30 -13 -34 -32 -8 -15 20 -38 37 -38 27z"/>
<path d="M3998 8624 c-12 -11 -10 -114 2 -114 6 0 10 11 10 25 0 21 5 25 30
25 25 0 30 -4 30 -25 0 -14 5 -25 10 -25 6 0 10 24 10 54 0 30 -4 58 -10 61
-6 4 -10 -5 -10 -19 0 -22 -5 -26 -29 -26 -24 0 -30 5 -33 26 -2 14 -6 22 -10
18z"/>
<path d="M4127 8612 c-25 -27 -22 -78 5 -96 12 -9 28 -16 35 -16 22 0 53 39
53 65 0 29 -32 65 -58 65 -11 0 -26 -8 -35 -18z m64 -23 c8 -16 8 -28 0 -46
-21 -45 -70 -11 -57 40 8 33 40 36 57 6z"/>
<path d="M4314 8616 c-10 -8 -16 -18 -12 -22 4 -4 14 -1 23 6 15 13 45 7 45
-9 0 -5 -10 -12 -22 -15 l-23 -7 23 -9 c12 -5 22 -14 22 -20 0 -16 -30 -24
-43 -11 -14 14 -27 14 -27 1 0 -19 41 -33 66 -21 19 8 23 17 22 53 -2 66 -29
86 -74 54z"/>
<path d="M4430 8615 c-7 -9 -10 -19 -6 -22 4 -4 11 -1 15 6 10 15 43 11 48 -5
2 -7 -12 -15 -31 -18 -43 -8 -59 -42 -30 -63 10 -7 25 -10 34 -7 8 4 24 6 35
6 18 -1 20 4 16 46 -2 26 -8 53 -13 60 -14 17 -53 15 -68 -3z m58 -67 c-7 -21
-36 -34 -49 -21 -6 6 -8 16 -5 22 10 15 59 14 54 -1z"/>
<path d="M4540 8571 c0 -34 4 -61 10 -61 6 0 10 23 10 51 0 49 1 50 28 47 25
-3 27 -7 30 -50 2 -27 8 -48 13 -48 6 0 9 24 7 58 l-3 57 -47 3 -48 3 0 -60z"/>
<path d="M4677 8612 c-26 -29 -22 -78 8 -98 35 -23 71 -7 80 36 14 62 -49 106
-88 62z m64 -23 c8 -16 8 -28 0 -46 -21 -45 -70 -11 -57 40 8 33 40 36 57 6z"/>
<path d="M4798 8624 c-5 -4 -8 -32 -8 -61 l0 -54 48 3 47 3 0 43 c0 24 -3 48
-6 53 -7 13 -72 23 -81 13z m63 -29 c0 -5 -12 -11 -26 -13 -18 -2 -25 1 -25
13 0 12 7 15 25 13 14 -2 26 -7 26 -13z m4 -55 c0 -23 -49 -20 -53 3 -3 15 2
18 25 15 17 -2 28 -9 28 -18z"/>
<path d="M4920 8571 c0 -34 4 -61 10 -61 6 0 10 11 10 25 0 20 5 25 25 25 20
0 25 -5 25 -25 0 -14 5 -25 10 -25 6 0 10 27 10 61 0 37 -4 58 -10 54 -5 -3
-10 -15 -10 -26 0 -14 -7 -19 -25 -19 -18 0 -25 5 -25 19 0 11 -4 23 -10 26
-6 4 -10 -17 -10 -54z"/>
<path d="M5047 8623 c-11 -10 -8 -113 3 -113 6 0 10 27 10 60 0 61 -1 65 -13
53z"/>
<path d="M5085 8620 c-3 -5 3 -10 14 -10 18 0 21 -6 21 -50 0 -27 5 -50 10
-50 6 0 10 23 10 50 0 43 3 50 20 50 11 0 20 5 20 10 0 6 -20 10 -44 10 -25 0
-48 -4 -51 -10z"/>
<path d="M5208 8624 c-5 -4 -8 -31 -8 -61 l0 -53 39 0 c47 0 67 19 51 49 -7
14 -21 21 -40 21 -23 0 -29 5 -32 26 -2 14 -6 22 -10 18z m66 -73 c8 -13 -21
-34 -39 -27 -25 9 -18 36 9 36 14 0 27 -4 30 -9z"/>
<path d="M5370 8618 c0 -7 9 -36 20 -65 18 -48 18 -53 4 -68 -18 -17 -13 -30
8 -22 8 2 24 36 37 73 14 38 27 76 30 84 4 13 2 13 -11 2 -9 -7 -20 -27 -23
-43 -10 -43 -21 -43 -34 1 -12 39 -31 63 -31 38z"/>
<path d="M5509 8620 c-38 -22 -30 -102 12 -115 23 -8 70 28 55 42 -4 4 -12 0
-17 -10 -24 -42 -71 4 -50 49 12 26 30 31 49 12 17 -17 28 -2 12 17 -14 17
-37 19 -61 5z"/>
<path d="M5607 8623 c-11 -10 -8 -113 3 -113 6 0 10 27 10 60 0 61 -1 65 -13
53z"/>
<path d="M5717 8624 c-11 -11 -8 -114 3 -114 6 0 10 23 10 51 0 49 1 50 28 47
25 -3 27 -7 30 -50 2 -27 8 -48 13 -48 6 0 9 24 7 58 l-3 57 -40 3 c-23 2 -44
0 -48 -4z"/>
<path d="M5859 8620 c-22 -13 -31 -53 -20 -83 22 -57 101 -36 101 27 0 51 -41
80 -81 56z m49 -22 c25 -25 8 -78 -25 -78 -22 0 -37 44 -24 69 13 24 31 27 49
9z"/>
<path d="M5986 8618 c-3 -7 -7 -31 -10 -52 -3 -22 -10 -43 -17 -46 -7 -5 -8
-10 -1 -14 15 -9 30 16 38 62 5 32 11 42 25 42 16 0 19 -8 19 -50 0 -27 5 -50
10 -50 6 0 10 27 10 60 l0 60 -35 0 c-20 0 -37 -6 -39 -12z"/>
<path d="M6114 8620 c-18 -7 -22 -17 -22 -59 0 -28 4 -51 9 -51 5 0 9 9 9 20
0 16 7 20 30 20 23 0 30 -4 30 -20 0 -11 5 -20 10 -20 7 0 10 22 8 58 -3 53
-5 57 -28 59 -14 1 -35 -2 -46 -7z m56 -30 c0 -15 -7 -20 -24 -20 -27 0 -41
14 -31 30 3 6 17 10 31 10 17 0 24 -5 24 -20z"/>
<path d="M3558 8022 c-15 -3 -18 -14 -18 -63 l0 -59 34 0 c39 0 62 21 51 47
-4 10 -7 30 -6 44 2 21 -3 27 -21 31 -13 2 -31 2 -40 0z m52 -32 c0 -16 -7
-20 -30 -20 -23 0 -30 4 -30 20 0 16 7 20 30 20 23 0 30 -4 30 -20z m0 -45
c17 -20 4 -35 -31 -35 -24 0 -29 4 -29 25 0 20 5 25 24 25 13 0 29 -7 36 -15z"/>
<path d="M3431 8007 c-1 -12 -5 -16 -13 -11 -10 6 -10 5 -1 -8 7 -8 10 -18 6
-22 -4 -4 0 -4 10 0 19 7 19 10 7 39 -8 18 -9 18 -9 2z"/>
<path d="M3650 7945 c0 -53 10 -57 42 -12 l23 32 6 -35 c6 -33 6 -32 8 13 0
26 -3 47 -7 47 -4 0 -17 -15 -27 -32 l-20 -33 -3 33 c-5 48 -22 39 -22 -13z"/>
<path d="M3761 7943 c2 -46 2 -46 9 -13 7 35 11 33 26 -17 5 -19 24 -16 24 4
0 9 -3 13 -7 9 -4 -4 -12 7 -18 25 -18 52 -35 48 -34 -8z"/>
<path d="M3827 7968 c-4 -12 -4 -24 -2 -27 3 -2 6 2 6 10 1 8 5 -2 9 -21 7
-34 7 -34 9 13 1 49 -12 64 -22 25z"/>
<path d="M3883 7945 c0 -27 2 -38 4 -22 2 15 2 37 0 50 -2 12 -4 0 -4 -28z"/>
<path d="M3921 7921 c1 -36 4 -56 6 -43 3 17 11 22 34 22 23 0 30 5 35 27 9
36 -7 58 -45 59 l-31 1 1 -66z m64 40 c8 -26 -4 -51 -25 -51 -23 0 -36 36 -20
55 17 21 37 19 45 -4z"/>
<path d="M4020 7946 c0 -25 5 -46 10 -46 6 0 10 9 10 20 0 26 17 26 25 -1 5
-16 14 -19 38 -17 27 2 33 8 35 31 6 52 -44 78 -70 37 -15 -23 -28 -26 -28 -6
0 8 -4 18 -10 21 -6 4 -10 -12 -10 -39z m105 -1 c0 -21 -5 -31 -19 -33 -26 -5
-40 12 -32 43 5 20 12 26 29 23 17 -2 22 -10 22 -33z"/>
<path d="M4160 7946 c0 -46 0 -46 35 -46 40 0 48 12 37 55 -7 24 -14 31 -40
33 -32 3 -32 3 -32 -42z m60 19 c0 -16 -35 -21 -44 -6 -8 12 4 21 26 21 10 0
18 -7 18 -15z m5 -35 c8 -13 -20 -24 -41 -16 -20 8 -9 26 16 26 10 0 22 -5 25
-10z"/>
<path d="M4265 7981 c-4 -7 5 -9 26 -4 24 5 31 3 27 -8 -2 -7 -15 -16 -29 -19
-15 -4 -25 -14 -27 -28 -3 -20 1 -22 35 -20 l39 1 -6 41 c-4 35 -9 41 -32 44
-14 2 -29 -2 -33 -7z m53 -53 c-5 -15 -48 -24 -48 -10 0 14 12 22 33 22 10 0
17 -5 15 -12z"/>
<path d="M4361 7945 c0 -40 2 -45 9 -27 12 28 50 30 50 2 0 -11 5 -20 10 -20
6 0 10 18 10 39 0 22 -4 43 -10 46 -5 3 -10 -3 -10 -14 0 -29 -38 -28 -50 2
-7 17 -9 12 -9 -28z"/>
<path d="M4460 7945 c0 -25 5 -45 10 -45 6 0 10 9 10 20 0 13 7 20 20 20 13 0
20 -7 20 -20 0 -11 5 -20 10 -20 6 0 10 21 10 46 0 27 -4 43 -10 39 -5 -3 -10
-13 -10 -21 0 -8 -9 -14 -20 -14 -13 0 -20 7 -20 20 0 11 -4 20 -10 20 -5 0
-10 -20 -10 -45z"/>
<path d="M4569 7988 c-1 -2 -3 -23 -4 -47 -3 -40 -2 -42 11 -22 20 27 41 27
47 -1 2 -13 5 -2 6 25 1 46 0 47 -29 47 -16 0 -31 -1 -31 -2z m51 -23 c0 -9
-9 -15 -25 -15 -24 0 -32 10 -18 23 12 13 43 7 43 -8z"/>
<path d="M4722 7983 c12 -3 18 -17 21 -46 l4 -42 1 42 c2 30 7 43 20 46 9 3
-1 5 -23 5 -22 0 -32 -2 -23 -5z"/>
<path d="M4812 7978 c-13 -13 -15 -37 -6 -62 6 -16 64 -23 64 -8 0 4 -12 8
-27 7 -14 0 -28 6 -30 13 -3 8 7 12 31 12 23 0 36 5 36 13 0 18 -21 37 -40 37
-9 0 -21 -5 -28 -12z m56 -15 c2 -9 -7 -13 -27 -13 -23 0 -29 4 -24 16 6 17
44 15 51 -3z"/>
<path d="M4901 7943 c2 -45 2 -46 8 -13 l6 35 14 -32 c7 -18 17 -33 21 -33 5
0 12 15 16 33 l8 32 7 -35 c6 -33 6 -33 8 13 0 26 -3 47 -9 47 -5 0 -10 -4
-10 -9 0 -5 -5 -22 -11 -38 l-11 -28 -12 34 c-19 54 -36 51 -35 -6z"/>
<path d="M5021 7943 l2 -48 6 40 c5 31 11 41 28 43 19 3 22 -2 26 -40 l4 -43
1 48 2 47 -35 0 -35 0 1 -47z"/>
<path d="M5132 7978 c-13 -13 -15 -37 -6 -62 6 -16 64 -23 64 -8 0 4 -12 8
-27 7 -14 0 -28 6 -30 13 -3 8 7 12 31 12 23 0 36 5 36 13 0 18 -21 37 -40 37
-9 0 -21 -5 -28 -12z m52 -13 c4 -11 -2 -15 -24 -15 -29 0 -38 9 -23 23 12 12
41 7 47 -8z"/>
<path d="M5220 7924 c0 -36 4 -64 10 -64 6 0 10 9 10 19 0 14 8 21 28 23 24 3
27 7 27 43 0 39 -1 40 -37 42 l-38 1 0 -64z m65 21 c0 -23 -5 -31 -22 -33 -19
-3 -23 1 -23 26 0 33 8 44 30 40 9 -2 15 -14 15 -33z"/>
<path d="M5330 7982 c0 -5 11 -7 25 -4 18 3 25 0 25 -11 0 -10 -11 -17 -27
-19 -20 -2 -29 -9 -31 -25 -3 -21 1 -23 35 -21 l39 1 -6 41 c-4 36 -9 41 -32
44 -16 2 -28 -1 -28 -6z m48 -54 c-5 -15 -48 -24 -48 -10 0 14 12 22 33 22 10
0 17 -5 15 -12z"/>
<path d="M5432 7983 c12 -3 18 -17 21 -46 l4 -42 1 42 c2 30 7 43 20 46 9 3
-1 5 -23 5 -22 0 -32 -2 -23 -5z"/>
<path d="M5511 7983 c-1 -7 6 -31 16 -54 16 -40 15 -42 -2 -55 -16 -12 -16
-14 -3 -14 17 0 62 102 55 124 -2 6 -10 -7 -17 -29 l-13 -40 -18 40 c-10 22
-18 34 -18 28z"/>
<path d="M5600 7924 c0 -36 4 -64 10 -64 6 0 10 9 10 19 0 14 8 21 28 23 24 3
27 7 27 43 0 39 -1 40 -37 42 l-38 1 0 -64z m65 21 c0 -23 -4 -30 -20 -30 -21
0 -31 25 -21 51 11 28 41 12 41 -21z"/>
<path d="M5710 7947 c0 -26 4 -47 9 -47 8 0 3 79 -5 89 -2 2 -4 -17 -4 -42z"/>
<path d="M5750 7959 c-12 -16 -20 -33 -17 -35 3 -3 11 5 18 18 13 23 14 23 20
-12 6 -33 6 -33 8 13 0 26 -1 47 -3 47 -3 0 -14 -14 -26 -31z"/>
<path d="M5865 7981 c13 -5 22 -21 26 -47 l6 -39 2 42 c1 30 6 43 19 46 9 3
-3 5 -28 5 -31 0 -39 -2 -25 -7z"/>
<path d="M5953 7945 c0 -27 2 -38 4 -22 2 15 2 37 0 50 -2 12 -4 0 -4 -28z"/>
<path d="M6000 7958 c0 -19 -6 -40 -12 -47 -11 -11 -10 -13 2 -9 8 3 17 20 20
39 3 22 11 35 23 37 14 3 17 -4 17 -37 0 -23 5 -41 11 -41 6 0 9 17 7 43 -3
39 -5 42 -35 45 -31 3 -33 2 -33 -30z"/>
<path d="M6100 7981 c0 -4 11 -6 25 -3 18 3 25 0 25 -11 0 -10 -11 -17 -27
-19 -20 -2 -28 -9 -28 -23 0 -16 8 -21 38 -23 35 -3 37 -2 37 27 0 47 -9 61
-41 61 -16 0 -29 -4 -29 -9z m50 -56 c0 -16 -35 -21 -44 -6 -8 12 4 21 26 21
10 0 18 -7 18 -15z"/>
<path d="M7116 7454 c-12 -30 -6 -72 12 -85 14 -11 15 -11 5 1 -16 18 -17 72
-1 88 8 8 8 12 1 12 -6 0 -14 -7 -17 -16z"/>
<path d="M7170 7466 c0 -2 7 -9 15 -16 13 -11 14 -10 9 4 -5 14 -24 23 -24 12z"/>
<path d="M3426 6584 c-24 -24 -20 -80 6 -98 29 -21 51 -20 71 2 26 29 20 38
-7 12 -29 -26 -51 -22 -68 15 -16 35 3 75 36 75 14 0 28 -4 31 -10 3 -5 11
-10 17 -10 7 0 6 6 -2 15 -16 20 -64 19 -84 -1z"/>
<path d="M3658 6562 c-14 -3 -18 -13 -16 -45 l1 -42 4 38 c4 31 8 37 28 37 21
0 24 -5 28 -42 l4 -43 1 46 c2 49 -9 60 -50 51z"/>
<path d="M4112 6558 c-17 -17 -15 -63 3 -78 16 -13 55 -5 55 12 0 6 -6 6 -15
-2 -21 -17 -45 -5 -45 23 0 34 25 54 45 37 9 -7 15 -8 15 -2 0 9 -22 22 -39
22 -4 0 -12 -5 -19 -12z"/>
<path d="M4622 6558 c-26 -26 -8 -88 24 -88 19 0 44 29 44 50 0 21 -25 50 -44
50 -6 0 -17 -5 -24 -12z m48 -18 c14 -26 -4 -63 -28 -58 -21 4 -28 44 -12 64
17 19 27 18 40 -6z"/>
<path d="M3540 6557 c0 -3 7 -24 15 -48 15 -41 15 -45 -2 -57 -17 -13 -17 -14
1 -10 11 2 25 21 37 53 24 63 24 84 0 30 l-18 -40 -7 32 c-4 18 -12 35 -17 38
-5 4 -9 4 -9 2z"/>
<path d="M3731 6559 c-1 -4 6 -26 14 -50 15 -40 14 -45 -2 -56 -15 -12 -15
-13 -1 -13 11 0 24 20 38 56 11 31 19 59 16 61 -2 3 -10 -12 -17 -32 l-14 -37
-17 39 c-9 21 -17 35 -17 32z"/>
<path d="M3832 6553 c12 -3 18 -17 21 -46 l4 -42 1 42 c2 30 7 43 20 46 9 3
-1 5 -23 5 -22 0 -32 -2 -23 -5z"/>
<path d="M3910 6520 c0 -22 5 -40 10 -40 6 0 10 9 10 20 0 28 38 26 50 -2 7
-19 9 -16 9 20 1 23 -3 42 -9 42 -5 0 -9 -6 -7 -12 1 -7 -8 -14 -20 -16 -16
-2 -23 2 -23 12 0 9 -4 16 -10 16 -5 0 -10 -18 -10 -40z"/>
<path d="M4023 6515 c0 -27 2 -38 4 -22 2 15 2 37 0 50 -2 12 -4 0 -4 -28z"/>
<path d="M4190 6521 c0 -37 13 -61 23 -44 7 13 -5 83 -14 83 -5 0 -9 -18 -9
-39z"/>
<path d="M4235 6534 c-9 -14 -14 -28 -12 -31 3 -2 11 6 19 19 12 22 13 22 19
-17 l6 -40 2 48 c1 53 -9 59 -34 21z"/>
<path d="M4301 6513 l2 -48 7 40 c4 22 8 35 9 28 0 -6 6 -24 12 -40 8 -22 12
-24 19 -13 6 8 10 20 10 25 0 6 -4 4 -9 -4 -6 -10 -12 -4 -21 23 -16 50 -30
45 -29 -11z"/>
<path d="M4366 6544 c-4 -9 -4 -19 -1 -22 3 -3 6 1 6 9 1 8 5 -4 9 -26 l7 -40
2 48 c1 46 -11 63 -23 31z"/>
<path d="M4422 6513 l1 -48 4 43 c4 37 7 42 28 42 21 0 24 -5 28 -42 l4 -43 1
48 2 47 -35 0 -35 0 2 -47z"/>
<path d="M4533 6553 c12 -3 17 -16 19 -41 l1 -37 4 35 c3 19 10 38 16 42 7 4
-4 7 -23 7 -19 -1 -27 -3 -17 -6z"/>
<path d="M4711 6518 l2 -43 7 35 7 35 12 -32 c16 -40 26 -42 39 -5 l10 27 1
-27 c1 -44 21 -32 21 12 0 49 -25 56 -35 10 -4 -16 -10 -30 -15 -30 -5 0 -11
14 -15 30 -10 48 -35 38 -34 -12z"/>
<path d="M4830 6521 c0 -37 13 -61 23 -44 7 13 -5 83 -14 83 -5 0 -9 -18 -9
-39z"/>
<path d="M4875 6534 c-9 -14 -14 -28 -12 -31 3 -2 11 6 19 19 12 22 13 22 19
-17 l6 -40 2 48 c1 53 -9 59 -34 21z"/>
<path d="M3431 6256 c-8 -9 -11 -45 -9 -98 l3 -83 95 0 95 0 3 83 c2 53 -1 89
-9 98 -8 10 -35 14 -89 14 -54 0 -81 -4 -89 -14z m169 -91 l0 -85 -80 0 -80 0
0 85 0 85 80 0 80 0 0 -85z"/>
<path d="M4192 6233 c-28 -6 -44 -35 -40 -75 6 -66 73 -63 73 3 0 30 -4 34
-27 37 -32 4 -38 22 -9 22 11 0 23 5 26 10 3 6 5 9 3 9 -2 -1 -13 -4 -26 -6z
m23 -79 c0 -22 -5 -30 -22 -32 -23 -3 -25 0 -27 49 -2 23 1 25 24 19 19 -5 25
-13 25 -36z"/>
<path d="M3775 6194 c-20 -20 -16 -63 8 -78 39 -25 76 43 42 78 -9 9 -20 16
-25 16 -5 0 -16 -7 -25 -16z m55 -32 c0 -32 -17 -48 -37 -36 -23 14 -28 41
-13 59 15 18 50 2 50 -23z"/>
<path d="M3874 6195 c-11 -8 -14 -15 -8 -15 5 0 14 4 20 10 5 5 15 6 24 0 13
-8 12 -11 -5 -24 -18 -14 -18 -15 -2 -16 9 0 17 -5 17 -10 0 -18 -29 -23 -47
-9 -14 12 -16 12 -11 -1 3 -9 17 -15 34 -15 27 0 29 3 31 38 1 45 -23 65 -53
42z"/>
<path d="M4065 6194 c-34 -35 3 -103 43 -78 24 16 28 65 6 81 -23 17 -29 16
-49 -3z m55 -29 c0 -48 -45 -64 -56 -20 -8 34 12 58 37 44 10 -5 19 -16 19
-24z"/>
<path d="M3963 6155 c0 -27 2 -40 4 -27 3 15 11 22 28 22 17 0 25 -7 28 -22 2
-13 4 0 4 27 1 28 -1 42 -4 33 -3 -11 -14 -18 -28 -18 -14 0 -25 7 -28 18 -3
9 -5 -5 -4 -33z"/>
<path d="M3422 5693 l3 -98 95 0 95 0 3 98 3 97 -101 0 -101 0 3 -97z m129 -7
l-51 -51 -27 27 c-29 30 -25 52 5 24 18 -16 21 -14 61 24 23 22 47 38 52 34 7
-4 -9 -27 -40 -58z"/>
<path d="M4696 5690 c-16 -39 -26 -73 -24 -76 3 -2 17 28 33 67 15 38 25 72
23 75 -3 2 -17 -28 -32 -66z"/>
<path d="M5066 5747 c-13 -10 -17 -24 -14 -57 3 -41 5 -45 32 -48 31 -4 46 10
46 45 0 26 -31 46 -57 36 -16 -6 -16 -5 -5 10 8 8 23 18 35 20 21 4 21 4 1 6
-11 0 -28 -5 -38 -12z m44 -42 c18 -22 3 -57 -23 -53 -37 5 -33 67 4 68 4 0
12 -7 19 -15z"/>
<path d="M3771 5716 c-7 -8 -11 -27 -9 -43 2 -24 8 -28 32 -28 18 0 31 6 33
15 4 12 3 12 -5 2 -16 -23 -47 -10 -50 21 -4 32 20 46 45 26 14 -12 16 -12 11
1 -6 21 -42 24 -57 6z"/>
<path d="M3862 5718 c-14 -14 -15 -47 -3 -66 5 -8 21 -12 37 -10 23 2 30 8 32
31 6 47 -36 75 -66 45z m53 -33 c0 -21 -5 -31 -19 -33 -26 -5 -40 12 -32 43 5
20 12 26 29 23 17 -2 22 -10 22 -33z"/>
<path d="M3963 5685 c0 -27 2 -40 4 -27 3 14 12 22 24 22 11 0 24 -10 29 -22
7 -18 9 -13 9 27 0 40 -2 45 -9 28 -5 -13 -18 -23 -29 -23 -12 0 -21 8 -24 23
-2 12 -4 0 -4 -28z"/>
<path d="M4065 5703 c-4 -16 -8 -36 -10 -45 -2 -10 1 -18 6 -18 5 0 12 18 15
40 9 55 36 51 45 -5 l6 -40 2 48 c1 46 0 47 -29 47 -24 0 -31 -5 -35 -27z"/>
<path d="M4161 5688 c0 -27 3 -48 8 -48 11 0 44 50 38 57 -3 2 -11 -6 -19 -19
-12 -22 -13 -22 -19 17 l-6 40 -2 -47z"/>
<path d="M4217 5723 c-7 -13 5 -83 14 -83 5 0 9 20 9 45 0 40 -11 58 -23 38z"/>
<path d="M4267 5723 c-4 -3 -7 -24 -7 -45 0 -39 0 -39 38 -36 34 3 37 6 37 33
0 17 -4 36 -9 43 -9 13 -48 17 -59 5z m53 -18 c0 -8 -9 -15 -20 -15 -11 0 -20
7 -20 15 0 8 9 15 20 15 11 0 20 -7 20 -15z m5 -40 c0 -5 -10 -11 -22 -13 -16
-2 -23 2 -23 13 0 11 7 15 23 13 12 -2 22 -7 22 -13z"/>
<path d="M4363 5685 c0 -27 2 -38 4 -22 2 15 2 37 0 50 -2 12 -4 0 -4 -28z"/>
<path d="M4411 5716 c-7 -8 -11 -27 -9 -43 2 -24 8 -28 32 -28 18 0 31 6 33
15 4 12 3 12 -5 2 -25 -36 -66 12 -42 48 8 13 13 13 31 2 18 -11 20 -11 17 0
-6 19 -43 22 -57 4z"/>
<path d="M4502 5723 c12 -3 18 -17 21 -46 l4 -42 1 42 c2 30 7 43 20 46 9 3
-1 5 -23 5 -22 0 -32 -2 -23 -5z"/>
<path d="M4588 5724 c-5 -4 -8 -25 -8 -46 0 -37 1 -38 34 -38 33 0 47 13 39
38 -3 6 -15 12 -28 12 -16 0 -25 7 -27 21 -2 11 -6 17 -10 13z m52 -59 c0 -8
-9 -15 -20 -15 -11 0 -20 7 -20 15 0 8 9 15 20 15 11 0 20 -7 20 -15z"/>
<path d="M4762 5718 c-18 -18 -15 -66 6 -77 19 -10 52 3 52 20 0 6 -7 3 -16
-6 -30 -29 -58 17 -34 55 8 13 13 13 31 2 18 -11 20 -11 17 0 -6 18 -40 22
-56 6z"/>
<path d="M4852 5688 c-5 -24 -7 -45 -5 -48 8 -9 23 26 23 53 0 20 5 27 19 27
16 0 21 -8 24 -42 l4 -43 1 48 c2 46 1 47 -27 47 -27 0 -31 -4 -39 -42z"/>
<path d="M4957 5724 c-15 -15 -6 -24 13 -12 15 10 22 10 31 1 13 -13 13 -12
-36 -28 -16 -5 -21 -45 -6 -45 5 0 8 8 7 17 0 12 7 19 22 21 26 4 29 -13 5
-26 -13 -8 -12 -9 8 -9 23 0 25 2 20 41 -5 35 -10 41 -31 44 -14 2 -29 0 -33
-4z"/>
<path d="M5152 5685 c-1 -42 1 -46 9 -26 l9 24 27 -24 27 -24 -18 28 c-17 28
-17 30 1 50 17 21 17 21 -8 0 -14 -13 -28 -23 -31 -23 -4 0 -9 10 -11 23 -2
12 -5 0 -5 -28z"/>
<path d="M5253 5685 c0 -27 2 -38 4 -22 2 15 2 37 0 50 -2 12 -4 0 -4 -28z"/>
<path d="M5289 5709 c-17 -34 4 -71 38 -67 14 2 28 10 31 18 4 12 2 13 -9 3
-25 -24 -49 -16 -49 17 0 36 22 49 48 29 15 -13 16 -12 3 4 -18 23 -48 22 -62
-4z"/>
<path d="M5383 5723 c12 -3 17 -15 17 -44 0 -21 5 -39 10 -39 6 0 10 18 10 39
0 29 5 41 18 44 9 3 -3 5 -28 5 -25 0 -37 -2 -27 -5z"/>
<path d="M5471 5687 l-1 -48 33 3 c24 2 32 8 32 23 0 14 -8 21 -27 23 -18 2
-28 10 -31 25 -2 12 -5 0 -6 -26z m57 -24 c2 -8 -6 -13 -22 -13 -17 0 -26 5
-26 16 0 19 41 16 48 -3z"/>
<path d="M5128 5313 c6 -2 18 -2 25 0 6 3 1 5 -13 5 -14 0 -19 -2 -12 -5z"/>
<path d="M3422 5218 l3 -93 95 0 95 0 0 90 0 90 -98 3 -98 3 3 -93z m178 -3
l0 -85 -80 0 -80 0 0 85 0 85 80 0 80 0 0 -85z"/>
<path d="M4467 5278 c2 -5 10 -8 18 -8 8 0 16 3 18 8 3 4 -5 7 -18 7 -13 0
-21 -3 -18 -7z"/>
<path d="M4631 5281 c-28 -7 -44 -50 -35 -88 8 -32 52 -42 71 -18 27 38 12 69
-37 77 -24 4 -24 5 10 20 36 17 32 21 -9 9z m32 -61 c7 -26 -16 -55 -37 -47
-16 6 -22 47 -9 60 13 14 41 6 46 -13z"/>
<path d="M3858 5253 c-22 -5 -35 -50 -21 -72 24 -38 73 -18 73 30 0 30 -23 48
-52 42z m42 -50 c0 -28 -24 -40 -45 -23 -20 17 -19 47 2 59 23 13 43 -4 43
-36z"/>
<path d="M4056 5247 c-22 -16 -18 -65 7 -81 39 -25 76 43 42 78 -20 19 -26 20
-49 3z m54 -35 c0 -21 -19 -42 -37 -42 -18 0 -28 47 -13 65 15 19 50 2 50 -23z"/>
<path d="M3760 5204 c0 -27 4 -43 10 -39 6 3 10 21 10 40 0 27 4 34 23 38 16
3 13 5 -10 6 -33 1 -33 0 -33 -45z"/>
<path d="M3950 5224 c0 -14 -5 -34 -10 -45 -6 -11 -7 -19 -1 -19 11 0 21 25
21 56 0 17 6 24 19 24 16 0 21 -8 24 -42 l4 -43 1 48 c2 46 1 47 -28 47 -26 0
-30 -4 -30 -26z"/>
<path d="M4140 5204 c0 -45 0 -45 33 -42 30 3 32 5 34 46 2 42 1 42 -33 42
-34 0 -34 0 -34 -46z m58 24 c-3 -7 -13 -13 -23 -13 -10 0 -20 6 -22 13 -3 7
5 12 22 12 17 0 25 -5 23 -12z m2 -43 c0 -9 -9 -15 -25 -15 -16 0 -25 6 -25
15 0 9 9 15 25 15 16 0 25 -6 25 -15z"/>
<path d="M4243 5205 c0 -27 2 -40 4 -27 3 15 11 22 28 22 17 0 25 -7 28 -22 2
-13 4 0 4 27 1 28 -1 42 -4 33 -3 -11 -14 -18 -28 -18 -14 0 -25 7 -28 18 -3
9 -5 -5 -4 -33z"/>
<path d="M4342 5208 c-2 -56 6 -60 33 -16 l19 33 10 -35 11 -35 3 44 c2 23 0
46 -3 49 -4 4 -19 -9 -35 -28 l-28 -35 -5 35 c-3 30 -4 28 -5 -12z"/>
<path d="M4451 5207 c-1 -53 9 -55 36 -4 l18 32 6 -40 6 -40 2 48 c0 26 -3 47
-7 47 -4 0 -16 -15 -27 -32 l-20 -33 -6 35 c-6 33 -6 32 -8 -13z"/>
<path d="M4703 5205 c0 -27 2 -38 4 -22 2 15 2 37 0 50 -2 12 -4 0 -4 -28z"/>
<path d="M4750 5217 c0 -18 -6 -39 -12 -46 -11 -11 -10 -13 2 -9 9 3 16 19 18
41 3 29 7 37 23 37 16 0 19 -7 19 -41 0 -24 4 -38 10 -34 6 3 10 24 10 46 0
38 -1 39 -35 39 -33 0 -35 -2 -35 -33z"/>
<path d="M4842 5208 c3 -38 6 -43 29 -46 34 -4 57 22 39 43 -7 8 -21 15 -31
15 -11 0 -19 7 -19 15 0 8 -5 15 -11 15 -6 0 -9 -17 -7 -42z m53 -18 c0 -8 -8
-16 -17 -18 -13 -2 -18 3 -18 18 0 15 5 20 18 18 9 -2 17 -10 17 -18z"/>
<path d="M3427 4834 c-4 -4 -7 -45 -7 -90 0 -72 3 -85 19 -94 23 -12 150 -13
169 -2 9 6 12 33 10 98 l-3 89 -90 3 c-50 1 -94 0 -98 -4z m166 -13 c4 -1 7
-37 7 -81 l0 -80 -80 0 -80 0 0 79 c0 44 4 81 10 83 8 2 101 2 143 -1z"/>
<path d="M5753 4798 c-26 -33 -20 -108 9 -108 9 0 9 3 0 12 -31 31 0 85 33 58
19 -16 19 -35 -1 -54 -14 -14 -14 -16 0 -16 21 0 31 43 16 70 -8 16 -18 21
-36 17 -28 -5 -21 11 10 23 l21 9 -21 0 c-12 1 -26 -5 -31 -11z"/>
<path d="M3772 4773 c12 -3 18 -17 21 -46 l4 -42 1 42 c2 30 7 43 20 46 9 3
-1 5 -23 5 -22 0 -32 -2 -23 -5z"/>
<path d="M3862 4768 c-14 -14 -15 -47 -3 -66 5 -8 21 -12 37 -10 23 2 30 8 32
31 6 47 -36 75 -66 45z m54 -22 c7 -31 -1 -46 -26 -46 -25 0 -33 15 -26 46 4
15 14 24 26 24 12 0 22 -9 26 -24z"/>
<path d="M3962 4735 c-1 -44 1 -47 10 -25 l10 25 15 -22 c9 -13 20 -23 26 -23
5 0 3 8 -6 18 -10 10 -17 22 -17 27 0 5 7 17 17 27 9 10 12 18 6 18 -5 0 -18
-9 -29 -21 l-19 -21 -6 24 c-5 15 -7 7 -7 -27z"/>
<path d="M4061 4766 c-7 -8 -11 -27 -9 -43 2 -24 8 -28 32 -28 18 0 31 6 33
15 4 12 3 12 -5 2 -25 -36 -66 12 -42 48 8 13 13 13 31 2 18 -11 20 -11 17 0
-6 19 -43 22 -57 4z"/>
<path d="M4140 4735 c0 -53 10 -57 42 -12 l23 32 6 -35 c6 -33 6 -32 8 13 0
26 -3 47 -7 47 -4 0 -17 -15 -27 -32 l-20 -33 -3 33 c-5 48 -22 39 -22 -13z"/>
<path d="M4240 4769 c0 -24 22 -49 45 -49 14 0 25 -7 28 -17 3 -10 5 5 5 32 0
36 -2 43 -7 25 -9 -32 -45 -34 -49 -2 -3 22 -22 32 -22 11z"/>
<path d="M4353 4735 c0 -27 2 -40 4 -27 3 15 11 22 28 22 17 0 25 -7 28 -22 2
-13 4 0 4 27 0 28 -2 40 -4 28 -3 -16 -11 -23 -28 -23 -17 0 -25 7 -28 23 -2
12 -4 0 -4 -28z"/>
<path d="M4453 4735 c0 -27 2 -38 4 -22 2 15 2 37 0 50 -2 12 -4 0 -4 -28z"/>
<path d="M4490 4759 c-7 -11 -9 -32 -6 -45 5 -19 13 -24 36 -24 22 0 30 5 29
18 0 10 -3 12 -6 5 -7 -20 -40 -15 -46 6 -2 10 0 26 5 35 10 17 38 22 38 6 0
-5 5 -10 11 -10 8 0 8 5 -1 15 -18 21 -47 19 -60 -6z"/>
<path d="M4583 4773 c12 -3 17 -16 18 -46 l2 -42 6 39 c4 26 13 42 26 47 14 5
6 7 -25 7 -25 0 -37 -2 -27 -5z"/>
<path d="M4671 4737 l-1 -48 33 3 c24 2 32 8 32 23 0 14 -8 21 -27 23 -18 2
-28 10 -31 25 -2 12 -5 0 -6 -26z m54 -22 c0 -5 -10 -11 -22 -13 -16 -2 -23 2
-23 13 0 11 7 15 23 13 12 -2 22 -7 22 -13z"/>
<path d="M4810 4759 c-7 -11 -9 -32 -6 -45 5 -18 13 -24 35 -24 18 0 31 6 36
18 5 14 4 15 -6 5 -31 -31 -69 -1 -49 38 11 20 40 27 40 9 0 -5 5 -10 11 -10
8 0 8 5 -1 15 -18 21 -47 19 -60 -6z"/>
<path d="M4910 4747 c0 -18 -6 -39 -12 -46 -11 -11 -10 -13 2 -9 9 3 16 19 18
41 2 28 8 37 22 37 15 0 20 -9 23 -42 l4 -43 1 48 c2 46 1 47 -28 47 -27 0
-30 -3 -30 -33z"/>
<path d="M5001 4738 c0 -27 3 -48 8 -48 11 0 44 50 38 57 -3 2 -11 -6 -19 -19
-12 -22 -13 -22 -19 17 l-6 40 -2 -47z"/>
<path d="M5057 4773 c-7 -13 5 -83 14 -83 5 0 9 20 9 45 0 40 -11 58 -23 38z"/>
<path d="M5106 4764 c-5 -14 -4 -15 9 -4 8 7 23 9 32 5 17 -6 17 -7 0 -20 -15
-11 -16 -13 -2 -19 28 -10 16 -28 -15 -24 -19 3 -27 1 -21 -5 5 -5 19 -7 32
-5 21 3 24 9 24 43 0 36 -3 40 -26 43 -18 2 -29 -3 -33 -14z"/>
<path d="M5202 4768 c-14 -14 -15 -47 -3 -66 5 -8 21 -12 37 -10 31 3 40 22
30 64 -7 26 -43 33 -64 12z m54 -22 c7 -31 -1 -46 -26 -46 -23 0 -36 36 -20
55 19 22 39 18 46 -9z"/>
<path d="M5300 4734 c0 -45 0 -45 33 -42 28 3 32 7 32 33 0 39 -12 55 -41 55
-22 0 -24 -4 -24 -46z m50 21 c0 -8 -9 -15 -20 -15 -11 0 -20 7 -20 15 0 8 9
15 20 15 11 0 20 -7 20 -15z m8 -42 c2 -8 -6 -13 -22 -13 -17 0 -26 5 -26 16
0 19 41 16 48 -3z"/>
<path d="M5390 4735 c0 -53 10 -57 42 -12 l23 32 6 -35 c6 -33 6 -32 8 13 0
26 -3 47 -7 47 -4 0 -18 -17 -30 -37 l-22 -38 0 38 c0 20 -4 37 -10 37 -5 0
-10 -20 -10 -45z"/>
<path d="M5500 4775 c0 -6 6 -17 12 -23 10 -10 10 -17 0 -32 -17 -28 -14 -39
4 -15 14 19 16 19 25 3 6 -10 14 -18 20 -18 5 0 3 10 -6 23 -13 21 -13 25 1
45 18 26 7 30 -12 5 -12 -17 -14 -17 -28 2 -8 11 -16 15 -16 10z"/>
<path d="M5640 4760 c-14 -26 -5 -57 20 -70 15 -8 24 -6 40 10 23 23 24 33 10
61 -14 25 -56 25 -70 -1z m58 -6 c15 -27 3 -54 -24 -54 -20 0 -24 5 -24 28 0
44 29 59 48 26z"/>
<path d="M5840 4754 c-13 -34 3 -64 36 -64 32 0 51 38 35 69 -17 31 -59 28
-71 -5z m58 -22 c3 -29 1 -32 -22 -32 -22 0 -26 5 -26 28 0 33 8 44 30 40 9
-2 16 -16 18 -36z"/>
<path d="M5950 4741 c0 -22 -5 -42 -10 -44 -6 -3 -5 -4 2 -3 7 1 15 18 18 37
3 22 11 35 23 37 14 3 17 -4 17 -37 0 -23 5 -41 10 -41 6 0 10 20 10 45 0 45
0 45 -35 45 -34 0 -35 -1 -35 -39z"/>
<path d="M6050 4759 c-7 -11 -9 -32 -6 -46 6 -20 12 -24 39 -21 34 3 43 21 33
64 -8 31 -50 33 -66 3z m55 -24 c0 -23 -5 -31 -22 -33 -26 -4 -41 31 -22 54
20 24 44 13 44 -21z"/>
<path d="M6140 4735 c0 -25 5 -45 10 -45 6 0 10 9 10 20 0 13 7 20 20 20 13 0
20 -7 20 -20 0 -11 5 -20 10 -20 6 0 10 20 10 45 0 25 -4 45 -10 45 -5 0 -10
-9 -10 -20 0 -13 -7 -20 -20 -20 -13 0 -20 7 -20 20 0 11 -4 20 -10 20 -5 0
-10 -20 -10 -45z"/>
<path d="M6252 4768 c-14 -14 -15 -47 -3 -66 5 -8 21 -12 37 -10 31 3 40 22
30 64 -7 26 -43 33 -64 12z m53 -33 c0 -23 -5 -31 -22 -33 -26 -4 -41 31 -22
54 20 24 44 13 44 -21z"/>
<path d="M6352 4735 c-1 -44 1 -47 10 -25 l10 25 15 -22 c21 -32 37 -29 17 2
-16 24 -16 27 2 47 18 21 18 21 -11 -1 l-30 -23 -6 24 c-5 15 -7 6 -7 -27z"/>
<path d="M6662 4710 c0 -14 2 -19 5 -12 2 6 2 18 0 25 -3 6 -5 1 -5 -13z"/>
<path d="M3433 4355 c-10 -8 -13 -32 -11 -95 l3 -85 95 0 95 0 3 92 3 92 -87
3 c-49 2 -93 -1 -101 -7z m167 -90 l0 -86 -77 3 -78 3 -3 83 -3 82 81 0 80 0
0 -85z"/>
<path d="M4555 4333 c-34 -9 -45 -24 -45 -63 0 -40 19 -64 46 -58 25 5 38 31
30 63 -6 23 -11 27 -37 23 -33 -5 -36 15 -3 20 10 2 23 8 29 13 5 5 7 8 5 8
-3 -1 -14 -4 -25 -6z m20 -54 c4 -5 4 -21 1 -35 -5 -19 -12 -25 -29 -22 -37 5
-36 68 2 68 11 0 23 -5 26 -11z"/>
<path d="M3873 4302 c-21 -3 -23 -9 -23 -63 0 -33 4 -59 10 -59 6 0 10 9 10
20 0 13 5 18 15 14 23 -9 45 15 45 47 0 31 -22 47 -57 41z m47 -47 c0 -23 -24
-40 -41 -29 -14 8 -11 62 4 67 18 7 37 -12 37 -38z"/>
<path d="M4169 4293 c-13 -15 -12 -15 8 -2 18 11 25 11 35 1 10 -10 10 -15 -2
-22 -10 -7 -11 -10 -2 -10 18 0 15 -27 -4 -34 -9 -3 -20 -6 -25 -6 -14 0 -11
28 4 33 7 3 4 6 -6 6 -14 1 -18 -5 -15 -21 2 -19 10 -23 38 -24 l35 -1 -4 41
c-5 55 -34 74 -62 39z"/>
<path d="M4378 4299 c-21 -12 -24 -59 -6 -77 17 -17 43 -15 59 5 13 15 12 15
-8 5 -22 -12 -53 -7 -53 8 0 5 14 10 32 12 37 4 45 19 23 42 -19 19 -24 19
-47 5z m47 -19 c8 -13 -20 -24 -41 -16 -20 8 -9 26 16 26 10 0 22 -5 25 -10z"/>
<path d="M4766 4294 c-9 -8 -16 -20 -16 -25 0 -19 -19 -8 -23 14 -2 12 -4 0
-4 -28 0 -27 2 -40 4 -27 5 27 14 28 31 2 24 -38 72 -18 72 30 0 46 -34 64
-64 34z m54 -41 c0 -28 -24 -40 -45 -23 -19 16 -19 35 1 55 21 20 44 3 44 -32z"/>
<path d="M4973 4303 c-7 -2 -13 -9 -13 -15 0 -6 6 -6 15 2 17 14 39 4 31 -15
-3 -8 0 -16 7 -18 16 -5 -9 -37 -29 -37 -17 0 -18 27 -1 33 7 4 6 6 -4 6 -19
1 -31 -20 -21 -36 4 -6 23 -11 42 -10 35 1 35 2 32 36 -6 53 -23 69 -59 54z"/>
<path d="M3772 4293 c12 -3 18 -17 21 -46 l4 -42 1 42 c2 30 7 43 20 46 9 3
-1 5 -23 5 -22 0 -32 -2 -23 -5z"/>
<path d="M3962 4255 l-1 -50 24 30 c14 17 25 35 25 40 0 6 -9 -1 -19 -15 l-19
-24 -5 34 c-3 28 -4 24 -5 -15z"/>
<path d="M4017 4258 c8 -59 13 -61 13 -5 0 26 -4 47 -9 47 -5 0 -7 -19 -4 -42z"/>
<path d="M4060 4255 c0 -43 1 -45 29 -45 33 0 57 23 45 42 -5 7 -7 21 -6 31 3
13 -4 17 -32 17 -36 0 -36 0 -36 -45z m56 3 c-1 -25 -6 -33 -21 -33 -15 0 -20
8 -21 33 -1 27 2 32 21 32 19 0 22 -5 21 -32z"/>
<path d="M4270 4267 c0 -18 -6 -39 -12 -46 -11 -11 -10 -13 2 -9 9 3 16 19 18
41 3 29 7 37 23 37 15 0 19 -7 19 -34 0 -19 5 -38 10 -41 6 -4 10 12 10 39 0
46 0 46 -35 46 -33 0 -35 -2 -35 -33z"/>
<path d="M4620 4267 c0 -18 -6 -39 -12 -46 -11 -11 -10 -13 2 -9 9 3 16 19 18
41 3 29 7 37 23 37 15 0 19 -7 19 -34 0 -19 5 -38 10 -41 6 -4 10 12 10 39 0
46 0 46 -35 46 -33 0 -35 -2 -35 -33z"/>
<path d="M4855 4258 c3 -45 12 -53 50 -44 21 5 24 11 21 44 -3 34 -6 37 -39
40 l-35 3 3 -43z m51 15 c-4 -9 -1 -20 5 -24 16 -10 2 -29 -22 -29 -15 0 -19
7 -19 35 0 29 4 35 21 35 16 0 19 -4 15 -17z"/>
<path d="M5050 4261 c0 -22 5 -43 10 -46 6 -4 10 5 10 20 0 22 4 26 22 23 14
-2 25 -13 29 -28 5 -18 7 -11 7 25 0 28 -2 42 -5 33 -6 -22 -53 -25 -53 -3 0
8 -4 15 -10 15 -5 0 -10 -18 -10 -39z"/>
<path d="M5162 4255 c0 -36 2 -43 7 -25 4 16 14 25 26 25 12 0 22 -9 26 -25 5
-18 7 -11 7 25 0 28 -2 42 -5 33 -3 -11 -14 -18 -28 -18 -14 0 -25 7 -28 18
-3 9 -5 -5 -5 -33z"/>
<path d="M5262 4253 c0 -38 2 -43 9 -25 5 12 17 22 28 22 12 0 21 -8 24 -22 2
-13 5 -2 6 25 l1 47 -34 0 c-34 0 -34 0 -34 -47z m58 22 c0 -9 -9 -15 -25 -15
-16 0 -25 6 -25 15 0 9 9 15 25 15 16 0 25 -6 25 -15z"/>
<path d="M3427 3884 c-4 -4 -7 -47 -7 -96 l0 -88 100 0 101 0 -3 93 -3 92 -90
3 c-50 1 -94 0 -98 -4z m171 -91 l3 -83 -81 0 -80 0 0 78 c0 43 3 82 7 86 4 4
39 5 78 4 l70 -3 3 -82z"/>
<path d="M3775 3793 c-4 -21 -12 -44 -17 -51 -6 -7 -7 -16 -3 -20 4 -4 10 -1
12 6 3 6 20 12 38 12 18 0 36 -6 39 -12 4 -7 4 -2 1 12 -2 14 -5 40 -5 58 0
29 -3 32 -29 32 -25 0 -30 -4 -36 -37z m55 -8 c0 -31 -3 -35 -26 -35 -20 0
-25 4 -20 16 3 9 6 24 6 35 0 12 7 19 20 19 16 0 20 -7 20 -35z"/>
<path d="M3870 3786 c0 -25 5 -46 10 -46 6 0 10 18 10 39 0 22 -4 43 -10 46
-6 4 -10 -12 -10 -39z"/>
<path d="M3926 3821 c-3 -4 6 -6 19 -3 18 3 25 0 25 -11 0 -8 -13 -17 -30 -20
-32 -7 -39 -27 -15 -47 9 -8 15 -9 15 -2 0 6 -5 14 -10 17 -15 9 -2 25 21 25
21 0 26 -25 7 -33 -7 -3 -2 -6 11 -6 17 -1 22 3 17 15 -3 9 -6 29 -6 45 0 24
-4 29 -24 29 -14 0 -27 -4 -30 -9z"/>
<path d="M4011 3761 c1 -36 4 -56 6 -43 3 17 11 22 34 22 23 0 30 5 35 27 9
36 -7 58 -45 59 l-31 1 1 -66z m65 35 c7 -30 -1 -46 -26 -46 -21 0 -31 20 -23
49 8 29 41 27 49 -3z"/>
<path d="M4122 3818 c-30 -30 -1 -91 38 -81 28 7 25 21 -4 16 -15 -3 -25 1
-29 11 -5 13 1 16 28 16 22 0 35 5 35 13 0 18 -21 37 -40 37 -9 0 -21 -5 -28
-12z m56 -15 c2 -9 -7 -13 -28 -13 -28 0 -31 2 -20 15 15 18 41 16 48 -2z"/>
<path d="M4224 3818 c-10 -15 -11 -78 -1 -78 4 0 7 6 7 14 0 8 6 17 13 20 10
5 10 7 0 12 -23 10 -15 36 9 32 18 -2 23 -10 24 -36 3 -52 14 -51 14 1 0 45
-1 47 -29 47 -17 0 -33 -5 -37 -12z"/>
<path d="M3432 3412 c-9 -6 -12 -33 -10 -98 l3 -89 95 0 95 0 3 89 c2 65 -1
92 -10 98 -7 4 -47 8 -88 8 -41 0 -81 -4 -88 -8z m168 -92 l0 -80 -80 0 -80 0
0 80 0 80 80 0 80 0 0 -80z"/>
<path d="M3878 3353 c-15 -4 -18 -15 -17 -66 1 -34 4 -52 6 -41 3 16 9 20 24
17 42 -11 67 48 33 81 -16 17 -17 17 -46 9z m50 -39 c4 -29 -23 -51 -43 -34
-16 13 -20 42 -8 54 14 14 48 1 51 -20z"/>
<path d="M3976 3347 c-39 -29 1 -106 42 -81 24 16 28 65 6 81 -10 7 -21 13
-24 13 -3 0 -14 -6 -24 -13z m52 -33 c4 -29 -23 -51 -43 -34 -16 13 -20 42 -8
54 14 14 48 1 51 -20z"/>
<path d="M4176 3347 c-22 -16 -18 -65 7 -81 40 -25 80 52 41 81 -10 7 -21 13
-24 13 -3 0 -14 -6 -24 -13z m52 -33 c4 -29 -23 -51 -43 -34 -16 13 -20 42 -8
54 14 14 48 1 51 -20z"/>
<path d="M4367 3342 c-10 -10 -17 -27 -17 -38 0 -41 46 -59 71 -27 13 15 12
15 -8 2 -20 -12 -25 -11 -40 4 -16 16 -15 17 20 17 30 0 37 4 37 20 0 10 -9
24 -19 30 -25 13 -25 13 -44 -8z m47 -23 c-3 -5 -14 -9 -25 -9 -21 0 -26 26
-6 33 15 5 39 -12 31 -24z"/>
<path d="M4559 3343 c-13 -15 -12 -15 10 -4 17 10 26 10 34 2 9 -9 8 -14 -3
-21 -11 -7 -11 -10 -2 -10 8 0 12 -9 10 -22 -2 -11 2 -23 7 -25 14 -4 6 80 -9
89 -18 12 -33 9 -47 -9z"/>
<path d="M3760 3310 c0 -22 5 -40 10 -40 6 0 10 7 10 15 0 21 9 19 39 -7 l25
-23 -22 31 c-20 29 -20 32 -4 50 16 18 16 18 -4 1 -25 -21 -34 -21 -34 -2 0 8
-4 15 -10 15 -5 0 -10 -18 -10 -40z"/>
<path d="M4060 3310 c0 -45 14 -56 54 -46 21 5 25 11 23 44 -3 35 -5 37 -40
40 l-37 3 0 -41z m56 13 c-4 -9 -1 -20 5 -24 16 -10 2 -29 -22 -29 -15 0 -19
7 -19 35 0 29 4 35 21 35 16 0 19 -4 15 -17z"/>
<path d="M4272 3343 c12 -3 18 -17 21 -46 l4 -42 1 42 c2 30 7 43 20 46 9 3
-1 5 -23 5 -22 0 -32 -2 -23 -5z"/>
<path d="M4453 3330 c1 -19 9 -26 29 -28 18 -2 28 -10 31 -25 2 -12 4 1 4 28
0 28 -2 40 -4 28 -3 -15 -12 -23 -24 -23 -11 0 -24 10 -29 23 -10 22 -10 22
-7 -3z"/>
<path d="M4554 3295 c-8 -19 4 -35 24 -34 15 1 15 2 0 6 -21 5 -24 29 -5 36 9
4 9 6 -1 6 -7 1 -15 -6 -18 -14z"/>
<path d="M3427 2934 c-12 -13 -8 -169 5 -182 18 -18 162 -16 177 2 8 9 11 45
9 98 l-3 83 -90 3 c-50 1 -94 0 -98 -4z m173 -89 l0 -85 -80 0 -80 0 0 85 0
85 80 0 80 0 0 -85z"/>
<path d="M4127 2849 c-15 -40 -25 -74 -24 -76 2 -2 16 29 32 67 15 39 25 73
23 76 -3 2 -17 -28 -31 -67z"/>
<path d="M3760 2836 c0 -25 5 -46 10 -46 6 0 10 9 10 20 0 13 7 20 20 20 13 0
20 -7 20 -20 0 -11 5 -20 10 -20 6 0 10 20 10 45 0 25 -4 45 -10 45 -5 0 -10
-9 -10 -20 0 -13 -7 -20 -20 -20 -11 0 -20 6 -20 14 0 8 -4 18 -10 21 -6 4
-10 -12 -10 -39z"/>
<path d="M3872 2868 c-14 -14 -15 -47 -3 -66 5 -8 21 -12 37 -10 23 2 30 8 32
31 6 47 -36 75 -66 45z m53 -33 c0 -23 -5 -31 -21 -33 -24 -3 -38 20 -28 50 4
13 13 18 27 16 17 -2 22 -10 22 -33z"/>
<path d="M3960 2836 c0 -46 0 -46 35 -46 40 0 48 12 37 55 -7 24 -14 31 -40
33 -32 3 -32 3 -32 -42z m60 19 c0 -8 -9 -15 -20 -15 -11 0 -20 7 -20 15 0 8
9 15 20 15 11 0 20 -7 20 -15z m5 -40 c0 -5 -10 -11 -22 -13 -16 -2 -23 2 -23
13 0 11 7 15 23 13 12 -2 22 -7 22 -13z"/>
<path d="M4067 2873 c-11 -10 -8 -83 3 -83 6 0 10 20 10 45 0 46 -2 50 -13 38z"/>
<path d="M4192 2868 c-14 -14 -16 -47 -3 -66 10 -17 53 -12 57 6 1 7 0 8 -3 2
-6 -13 -40 -13 -48 1 -12 19 4 59 24 59 11 0 22 -5 24 -10 3 -6 4 -5 3 2 -3
18 -38 22 -54 6z"/>
<path d="M4280 2834 c0 -45 0 -45 33 -42 28 3 32 7 32 33 0 39 -12 55 -41 55
-22 0 -24 -4 -24 -46z m50 21 c0 -8 -9 -15 -20 -15 -11 0 -20 7 -20 15 0 8 9
15 20 15 11 0 20 -7 20 -15z m8 -42 c2 -8 -6 -13 -22 -13 -17 0 -26 5 -26 16
0 19 41 16 48 -3z"/>
<path d="M4370 2835 c0 -25 5 -45 10 -45 6 0 10 20 10 45 0 25 -4 45 -10 45
-5 0 -10 -20 -10 -45z"/>
<path d="M4423 2862 c10 -10 17 -22 17 -27 0 -5 -7 -17 -17 -27 -9 -10 -11
-18 -6 -18 6 0 17 10 26 23 l15 22 10 -25 11 -25 0 24 1 24 27 -24 27 -24 -16
26 c-15 24 -15 28 -1 50 l16 24 -26 -24 -27 -24 -1 24 0 24 -11 -25 -10 -25
-15 23 c-9 12 -20 22 -26 22 -5 0 -3 -8 6 -18z"/>
<path d="M4557 2873 c-11 -10 -8 -83 3 -83 6 0 10 20 10 45 0 46 -2 50 -13 38z"/>
<path d="M4641 2833 l2 -48 6 40 c5 31 11 41 28 43 19 3 22 -2 26 -40 l4 -43
1 48 2 47 -35 0 -35 0 1 -47z"/>
<path d="M4751 2866 c-7 -8 -11 -27 -9 -43 2 -22 9 -29 32 -31 16 -2 33 1 38
6 7 7 -1 10 -22 9 -19 -1 -35 3 -37 11 -3 8 7 12 31 12 37 0 47 15 24 38 -16
16 -43 15 -57 -2z m53 -11 c4 -11 -2 -15 -24 -15 -22 0 -28 4 -24 15 4 8 14
15 24 15 10 0 20 -7 24 -15z"/>
<path d="M4852 2873 c12 -3 18 -17 21 -46 l4 -42 1 42 c2 30 7 43 20 46 9 3
-1 5 -23 5 -22 0 -32 -2 -23 -5z"/>
<path d="M4942 2868 c-13 -13 -15 -37 -6 -62 7 -18 59 -22 69 -6 4 6 -6 7 -25
4 -23 -5 -30 -3 -30 10 0 11 9 16 30 16 31 0 35 6 24 34 -7 19 -45 21 -62 4z
m56 -15 c2 -8 -6 -13 -22 -13 -17 0 -26 5 -26 16 0 19 41 16 48 -3z"/>
<path d="M5044 2858 c14 -20 14 -24 1 -45 -9 -13 -11 -23 -6 -23 5 0 12 7 15
16 6 15 8 15 26 -1 21 -19 28 -7 8 13 -10 10 -10 17 0 32 17 28 14 39 -4 15
-14 -19 -16 -19 -25 -2 -6 9 -15 17 -20 17 -6 0 -3 -10 5 -22z"/>
<path d="M5133 2835 c0 -27 2 -38 4 -22 2 15 2 37 0 50 -2 12 -4 0 -4 -28z"/>
<path d="M5173 2835 c0 -27 2 -38 4 -22 2 15 2 37 0 50 -2 12 -4 0 -4 -28z"/>
<path d="M3424 2457 c-2 -8 -4 -52 -2 -98 l3 -84 95 0 95 0 0 95 0 95 -93 3
c-71 2 -94 0 -98 -11z m174 -89 l-3 -83 -54 -3 c-99 -6 -101 -4 -101 88 l0 80
80 0 81 0 -3 -82z"/>
<path d="M4906 2414 c-10 -26 -7 -79 6 -92 32 -32 76 6 63 55 -5 21 -11 24
-35 21 -33 -5 -39 6 -12 21 15 9 15 10 1 11 -9 0 -20 -7 -23 -16z m59 -45 c8
-26 -16 -54 -39 -46 -16 6 -22 48 -9 60 14 14 42 6 48 -14z"/>
<path d="M3776 2394 c-20 -19 -21 -58 -1 -74 16 -13 55 -5 55 12 0 6 -6 6 -15
-2 -21 -17 -45 -5 -45 23 0 34 25 54 45 37 9 -7 15 -8 15 -2 0 5 -7 13 -16 16
-21 8 -20 8 -38 -10z"/>
<path d="M4105 2384 l-25 -27 -9 24 c-8 20 -10 15 -9 -26 0 -27 3 -40 5 -27 5
27 24 29 41 2 23 -38 72 -15 72 34 0 16 -26 46 -41 46 -6 0 -21 -12 -34 -26z
m55 -4 c14 -26 -4 -63 -28 -58 -21 4 -28 44 -12 64 17 19 27 18 40 -6z"/>
<path d="M4498 2399 c-22 -12 -24 -62 -3 -79 15 -12 55 -5 55 11 0 5 -9 4 -20
-3 -17 -11 -22 -10 -30 2 -23 36 5 85 35 60 9 -7 15 -8 15 -2 0 5 -7 13 -16
16 -19 7 -15 8 -36 -5z"/>
<path d="M4809 2393 c-13 -16 -12 -17 3 -4 19 14 48 9 48 -9 0 -5 -9 -10 -19
-10 -11 0 -27 -7 -36 -16 -22 -22 -3 -42 38 -41 31 1 32 2 28 41 -5 56 -35 74
-62 39z m51 -41 c0 -12 -23 -32 -37 -32 -17 0 -17 27 0 33 19 8 37 8 37 -1z"/>
<path d="M5016 2397 c-22 -16 -18 -65 7 -81 40 -25 80 52 41 81 -10 7 -21 13
-24 13 -3 0 -14 -6 -24 -13z m42 -9 c28 -28 -3 -83 -33 -58 -8 7 -15 20 -15
29 0 17 18 41 30 41 3 0 11 -5 18 -12z"/>
<path d="M5155 2386 c-32 -49 21 -104 56 -58 13 15 12 16 -3 3 -26 -19 -48 -7
-48 28 0 33 16 43 45 28 18 -9 19 -9 6 6 -19 24 -38 21 -56 -7z"/>
<path d="M5753 2403 c-7 -2 -13 -10 -13 -16 0 -8 4 -7 12 1 16 16 38 15 38 -2
0 -8 -13 -19 -30 -25 -49 -16 -35 -50 20 -48 35 1 35 2 32 36 -6 53 -23 69
-59 54z m40 -50 c9 -9 -12 -33 -29 -33 -17 0 -18 27 -1 33 18 8 23 8 30 0z"/>
<path d="M3850 2361 c0 -37 13 -61 23 -44 7 13 -5 83 -14 83 -5 0 -9 -18 -9
-39z"/>
<path d="M3895 2374 c-9 -14 -14 -28 -12 -31 3 -2 11 6 19 19 12 22 13 22 19
-17 l6 -40 2 48 c1 53 -9 59 -34 21z"/>
<path d="M3962 2355 c0 -36 2 -43 7 -25 4 16 14 25 26 25 12 0 22 -9 26 -25 5
-18 7 -11 7 25 0 28 -2 42 -5 33 -3 -11 -14 -18 -28 -18 -14 0 -25 7 -28 18
-3 9 -5 -5 -5 -33z"/>
<path d="M4201 2358 l-1 -48 55 0 55 0 -2 48 -1 47 -4 -43 c-3 -34 -8 -43 -21
-40 -11 2 -19 17 -23 43 l-6 40 -2 -43 c-1 -36 -4 -43 -18 -40 -12 2 -20 16
-24 43 l-6 40 -2 -47z"/>
<path d="M4342 2355 c0 -36 2 -43 7 -25 4 16 14 25 26 25 12 0 22 -9 26 -25 5
-18 7 -11 7 25 0 28 -2 42 -5 33 -3 -11 -14 -18 -28 -18 -14 0 -25 7 -28 18
-3 9 -5 -5 -5 -33z"/>
<path d="M4443 2355 c0 -27 2 -38 4 -22 2 15 2 37 0 50 -2 12 -4 0 -4 -28z"/>
<path d="M4582 2393 c12 -3 18 -17 21 -46 l4 -42 1 42 c2 30 7 43 20 46 9 3
-1 5 -23 5 -22 0 -32 -2 -23 -5z"/>
<path d="M4660 2355 c0 -40 2 -45 23 -45 12 0 28 4 35 9 21 13 10 46 -16 49
-12 2 -22 10 -22 18 0 8 -4 14 -10 14 -5 0 -10 -20 -10 -45z m55 -15 c0 -8 -8
-16 -17 -18 -13 -2 -18 3 -18 18 0 15 5 20 18 18 9 -2 17 -10 17 -18z"/>
<path d="M5241 2358 c0 -27 2 -48 7 -48 4 0 18 17 32 38 l25 37 6 -40 6 -40 2
48 c0 26 -3 47 -8 47 -5 0 -20 -15 -33 -32 l-23 -33 -6 35 c-6 33 -6 32 -8
-12z"/>
<path d="M5346 2378 c1 -13 3 -34 4 -48 l2 -25 7 25 c4 16 14 25 26 25 12 0
22 -9 26 -25 5 -18 7 -11 7 25 0 28 -2 42 -5 33 -6 -22 -53 -25 -53 -3 0 8 -4
15 -8 15 -5 0 -8 -10 -6 -22z"/>
<path d="M5452 2358 l-2 -48 34 0 c19 0 37 -6 40 -12 4 -7 4 -2 1 12 -2 14 -5
41 -6 60 l-2 35 -6 -40 c-5 -31 -11 -41 -28 -43 -19 -3 -22 2 -26 40 l-4 43
-1 -47z"/>
<path d="M5553 2355 c0 -27 2 -38 4 -22 2 15 2 37 0 50 -2 12 -4 0 -4 -28z"/>
<path d="M5642 2355 c0 -36 2 -43 7 -25 4 16 14 25 26 25 12 0 22 -9 26 -25 5
-18 7 -11 7 25 0 28 -2 42 -5 33 -3 -11 -14 -18 -28 -18 -14 0 -25 7 -28 18
-3 9 -5 -5 -5 -33z"/>
<path d="M5898 2393 c6 -2 12 -20 12 -39 0 -19 5 -34 10 -34 6 0 10 15 10 34
0 19 6 37 13 39 6 3 -4 5 -23 5 -19 0 -29 -2 -22 -5z"/>
<path d="M5983 2355 c0 -27 2 -38 4 -22 2 15 2 37 0 50 -2 12 -4 0 -4 -28z"/>
<path d="M6024 2353 c-10 -40 -9 -44 2 -28 8 10 14 29 14 42 0 16 6 23 19 23
16 0 21 -8 24 -42 l4 -43 1 48 c2 45 1 47 -26 47 -25 0 -29 -5 -38 -47z"/>
<path d="M6123 2355 c0 -27 2 -38 4 -22 2 15 2 37 0 50 -2 12 -4 0 -4 -28z"/>
<path d="M3427 1984 c-11 -11 -8 -169 2 -179 6 -6 48 -8 98 -5 l88 5 0 90 0
90 -90 3 c-50 1 -94 0 -98 -4z m173 -89 l0 -85 -80 0 -80 0 0 85 0 85 80 0 80
0 0 -85z"/>
<path d="M5733 1963 c-33 -6 -45 -27 -41 -75 3 -36 7 -44 26 -46 30 -4 52 14
52 43 0 29 -24 49 -51 42 -16 -4 -18 -3 -8 9 6 8 17 14 25 14 7 0 16 5 19 10
3 6 5 9 3 9 -2 -1 -13 -4 -25 -6z m17 -58 c18 -22 3 -57 -23 -53 -22 3 -33 28
-23 54 7 18 30 18 46 -1z"/>
<path d="M4807 1937 c-4 -15 -5 -32 -2 -38 11 -17 -6 -49 -26 -49 -25 0 -27
54 -1 70 16 10 16 11 -2 8 -44 -7 -37 -88 8 -88 18 0 26 -6 29 -22 l4 -23 2
23 c1 14 7 22 19 22 24 0 42 19 42 46 0 26 -24 48 -44 41 -10 -4 -16 2 -18 16
-3 20 -4 19 -11 -6z m53 -32 c16 -19 3 -55 -21 -55 -14 0 -19 7 -19 28 0 43
17 54 40 27z"/>
<path d="M3771 1916 c-7 -8 -11 -27 -9 -43 2 -24 8 -28 32 -28 18 0 31 6 33
15 4 12 3 12 -5 2 -17 -25 -47 -10 -47 23 0 33 30 48 47 23 8 -10 9 -10 5 2
-5 20 -41 24 -56 6z"/>
<path d="M3858 1924 c-12 -11 -9 -84 2 -84 6 0 19 13 28 30 22 38 30 38 35 -2
3 -25 4 -22 5 15 1 26 -2 47 -6 47 -4 0 -16 -15 -27 -32 l-20 -33 -5 33 c-3
19 -8 30 -12 26z"/>
<path d="M3970 1897 c0 -18 -6 -39 -12 -46 -11 -11 -10 -13 2 -9 9 3 16 19 18
41 2 28 8 37 22 37 15 0 20 -9 23 -42 l4 -43 1 48 c2 46 1 47 -28 47 -27 0
-30 -3 -30 -33z"/>
<path d="M4068 1924 c-5 -4 -8 -25 -8 -46 0 -37 1 -38 34 -38 22 0 36 6 40 16
9 22 -1 34 -29 34 -16 0 -25 6 -27 21 -2 11 -6 17 -10 13z m52 -59 c0 -8 -9
-15 -20 -15 -11 0 -20 7 -20 15 0 8 9 15 20 15 11 0 20 -7 20 -15z"/>
<path d="M4163 1885 c0 -27 2 -40 4 -27 3 14 12 22 24 22 11 0 24 -10 29 -22
7 -18 9 -13 9 27 0 40 -2 45 -9 28 -5 -13 -18 -23 -29 -23 -12 0 -21 8 -24 23
-2 12 -4 0 -4 -28z"/>
<path d="M4250 1885 c0 -25 5 -45 10 -45 6 0 10 20 10 45 0 25 -4 45 -10 45
-5 0 -10 -20 -10 -45z"/>
<path d="M4347 1923 c-11 -10 -8 -83 3 -83 6 0 10 18 10 40 0 33 3 40 20 40
17 0 20 -7 20 -40 0 -22 5 -40 10 -40 6 0 10 20 10 45 0 44 0 45 -33 45 -19 0
-37 -3 -40 -7z"/>
<path d="M4451 1916 c-7 -8 -11 -27 -9 -43 2 -21 9 -29 27 -31 13 -2 27 0 32
5 5 5 -3 9 -18 8 -14 0 -28 6 -30 13 -3 8 7 12 31 12 37 0 47 15 24 38 -16 16
-43 15 -57 -2z m49 -11 c0 -9 -9 -15 -25 -15 -24 0 -32 10 -18 23 12 13 43 7
43 -8z"/>
<path d="M4541 1861 c1 -36 4 -56 6 -44 3 16 13 23 36 25 27 2 33 8 35 31 4
37 -12 56 -49 55 l-29 -1 1 -66z m64 24 c0 -23 -5 -31 -21 -33 -26 -4 -38 22
-23 49 16 30 44 20 44 -16z"/>
<path d="M4648 1924 c-11 -11 -10 -84 1 -84 5 0 20 15 33 33 l23 32 6 -35 c6
-32 6 -30 7 15 l1 50 -29 -34 -29 -34 -3 33 c-2 17 -6 28 -10 24z"/>
<path d="M4911 1916 c-7 -8 -11 -27 -9 -43 2 -21 9 -29 27 -31 13 -2 27 0 32
5 5 5 -3 9 -18 8 -14 0 -28 6 -30 13 -3 8 7 12 31 12 37 0 47 15 24 38 -16 16
-43 15 -57 -2z m49 -11 c0 -9 -9 -15 -25 -15 -24 0 -32 10 -18 23 12 13 43 7
43 -8z"/>
<path d="M5001 1861 c1 -36 4 -56 6 -43 3 16 11 22 29 22 17 0 28 8 36 26 16
35 0 59 -41 60 l-31 1 1 -66z m57 21 c3 -30 1 -33 -20 -30 -23 3 -34 27 -24
54 11 28 41 11 44 -24z"/>
<path d="M5102 1888 c-2 -55 9 -61 35 -18 22 38 31 38 36 -2 3 -25 4 -22 5 15
2 54 -9 60 -35 17 -22 -38 -31 -38 -36 3 -3 24 -4 21 -5 -15z"/>
<path d="M5200 1915 c0 -26 18 -45 42 -45 10 0 18 -7 18 -15 0 -8 5 -15 10
-15 6 0 10 18 10 39 0 22 -4 43 -10 46 -6 4 -10 -5 -10 -20 0 -34 -29 -31 -47
5 -11 22 -13 23 -13 5z"/>
<path d="M5363 1910 c-6 -23 -43 -27 -43 -5 0 8 -4 15 -10 15 -5 0 -10 -18
-10 -40 0 -22 5 -40 10 -40 6 0 10 9 10 20 0 13 7 20 20 20 13 0 20 -7 20 -20
0 -11 5 -20 10 -20 6 0 10 20 10 45 0 47 -8 59 -17 25z"/>
<path d="M5413 1885 c0 -27 2 -38 4 -22 2 15 2 37 0 50 -2 12 -4 0 -4 -28z"/>
<path d="M5492 1885 c0 -27 3 -40 5 -27 6 30 53 32 53 2 0 -11 3 -20 8 -20 4
0 5 21 3 48 -3 26 -7 37 -9 25 -2 -15 -10 -23 -23 -23 -11 0 -24 10 -29 23 -7
17 -9 11 -8 -28z"/>
<path d="M5600 1922 c0 -5 11 -7 25 -4 18 3 25 0 25 -11 0 -10 -11 -17 -27
-19 -36 -4 -40 -42 -5 -44 20 -2 20 -1 2 3 -27 6 -21 27 8 31 17 3 22 -2 22
-17 0 -12 4 -21 8 -21 5 0 6 19 3 43 -5 37 -9 42 -33 45 -16 2 -28 -1 -28 -6z"/>
<path d="M5790 1864 c0 -41 4 -63 10 -59 6 3 10 12 10 20 0 7 12 15 28 17 21
2 28 9 30 31 4 37 -13 57 -49 57 l-29 0 0 -66z m65 21 c0 -23 -5 -31 -22 -33
-19 -3 -23 1 -23 26 0 33 8 44 30 40 9 -2 15 -14 15 -33z"/>
<path d="M5903 1918 c-10 -17 -12 -78 -3 -78 4 0 10 9 13 20 7 27 35 25 47 -2
7 -19 9 -14 9 25 1 46 0 47 -28 47 -17 0 -33 -6 -38 -12z m55 -15 c2 -8 -6
-13 -22 -13 -17 0 -26 5 -26 16 0 19 41 16 48 -3z"/>
<path d="M5990 1886 c0 -25 5 -46 10 -46 6 0 10 10 10 22 l0 21 23 -21 c32
-30 46 -28 17 3 l-23 24 24 20 c13 11 20 20 15 21 -6 0 -20 -10 -33 -22 -19
-18 -23 -19 -23 -5 0 9 -4 19 -10 22 -6 4 -10 -12 -10 -39z"/>
<path d="M6098 1924 c-11 -11 -10 -84 1 -84 5 0 20 15 33 33 l23 32 6 -35 c6
-33 6 -32 8 13 0 26 -3 47 -7 47 -4 0 -16 -15 -27 -32 l-20 -33 -5 33 c-3 19
-8 30 -12 26z"/>
<path d="M3433 1513 c-16 -6 -18 -139 -3 -148 6 -4 10 20 10 64 l0 71 80 0 80
0 0 -80 0 -80 -57 0 c-40 0 -54 -3 -46 -11 5 -5 34 -9 64 -7 l54 3 3 89 c2 65
-1 92 -10 98 -14 8 -155 10 -175 1z"/>
<path d="M4456 1438 c-26 -59 -42 -106 -32 -97 9 8 66 149 60 149 -3 0 -15
-24 -28 -52z"/>
<path d="M3776 1444 c-32 -32 -10 -90 30 -82 10 2 20 10 22 18 5 13 3 13 -11
1 -23 -18 -47 -7 -47 22 0 34 25 54 45 37 9 -7 15 -8 15 -2 0 5 -7 13 -16 16
-21 8 -20 8 -38 -10z"/>
<path d="M4066 1447 c-22 -16 -18 -65 7 -81 40 -25 80 52 41 81 -10 7 -21 13
-24 13 -3 0 -14 -6 -24 -13z m42 -9 c28 -28 -3 -83 -33 -58 -8 7 -15 20 -15
29 0 17 18 41 30 41 3 0 11 -5 18 -12z"/>
<path d="M4806 1442 c-22 -13 -30 -14 -33 -4 -5 14 -63 17 -63 2 0 -5 -9 -10
-20 -10 -11 0 -20 6 -20 13 0 8 -4 7 -10 -3 -8 -12 -13 -13 -30 -2 -27 16 -26
17 -26 -25 0 -28 -4 -39 -17 -41 -14 -3 -17 4 -17 37 0 23 -5 41 -11 41 -6 0
-9 -17 -7 -42 l3 -43 63 2 c34 1 62 -2 62 -7 0 -4 20 -5 45 -2 34 3 45 1 45
-9 0 -11 2 -11 10 1 6 10 30 15 74 17 66 3 77 -2 54 -25 -9 -9 -9 -12 -1 -12
7 0 14 8 18 19 5 18 28 18 620 17 660 -1 632 -3 619 49 -4 17 -1 24 13 28 10
3 0 5 -22 5 -31 0 -35 -1 -20 -8 17 -7 14 -9 -13 -9 -20 -1 -31 3 -27 9 8 14
-1 13 -25 -2 -17 -11 -22 -10 -30 2 -6 10 -10 11 -10 3 0 -18 -28 -16 -46 2
-9 8 -19 15 -24 15 -5 0 -15 -7 -24 -15 -8 -8 -27 -15 -43 -14 -25 0 -26 1 -8
9 16 7 11 9 -20 9 -31 0 -36 -2 -20 -9 18 -8 17 -9 -7 -9 -14 -1 -29 5 -32 12
-5 10 -7 10 -12 0 -3 -7 -14 -13 -24 -13 -10 0 -21 6 -23 13 -4 9 -8 9 -15 -2
-8 -11 -14 -10 -34 3 -24 16 -58 13 -58 -5 0 -5 -12 -9 -26 -9 -15 0 -23 4
-19 11 4 6 -3 5 -14 -3 -18 -11 -23 -11 -32 2 -8 11 -12 12 -16 3 -3 -8 -26
-13 -63 -13 -37 0 -60 5 -63 13 -4 10 -6 10 -6 0 -1 -8 -14 -13 -33 -12 -28 0
-30 2 -13 9 16 7 11 9 -20 9 -31 0 -36 -2 -20 -9 18 -8 18 -9 2 -9 -10 -1 -28
6 -41 14 -23 15 -56 11 -56 -6 0 -14 -28 -11 -33 4 -4 10 -6 10 -6 0 -1 -7 -7
-13 -15 -13 -8 0 -17 6 -20 13 -5 10 -7 10 -12 0 -3 -7 -14 -13 -24 -13 -10 0
-21 6 -24 13 -5 10 -7 10 -12 0 -3 -7 -18 -13 -32 -12 -24 0 -25 1 -7 9 16 7
11 9 -20 9 -31 0 -36 -2 -20 -9 18 -8 17 -9 -7 -9 -14 -1 -29 5 -31 12 -4 10
-6 10 -6 0 -1 -7 -12 -13 -26 -13 -14 0 -25 6 -25 13 0 8 -3 8 -9 -2 -8 -12
-12 -12 -26 2 -20 21 -23 21 -59 -1z m49 -2 c3 -5 -3 -10 -15 -10 -12 0 -18 5
-15 10 3 6 10 10 15 10 5 0 12 -4 15 -10z m410 0 c3 -5 -3 -10 -15 -10 -12 0
-18 5 -15 10 3 6 10 10 15 10 5 0 12 -4 15 -10z m420 0 c3 -5 -3 -10 -15 -10
-12 0 -18 5 -15 10 3 6 10 10 15 10 5 0 12 -4 15 -10z m290 0 c3 -5 -3 -10
-15 -10 -12 0 -18 5 -15 10 3 6 10 10 15 10 5 0 12 -4 15 -10z m-1222 -7 c-7
-2 -19 -2 -25 0 -7 3 -2 5 12 5 14 0 19 -2 13 -5z"/>
<path d="M3851 1449 c-1 -4 6 -26 14 -49 11 -32 12 -46 4 -56 -7 -9 -8 -14 -1
-14 11 0 57 108 49 116 -3 3 -11 -12 -18 -33 l-12 -38 -18 40 c-10 22 -18 37
-18 34z"/>
<path d="M3960 1433 c0 -10 -7 -31 -15 -47 -11 -20 -12 -33 -5 -40 7 -7 10 -6
10 2 0 16 67 16 74 0 4 -7 4 2 1 21 -3 18 -5 44 -5 57 0 20 -5 24 -30 24 -22
0 -30 -5 -30 -17z m50 -23 c0 -30 -19 -48 -38 -36 -5 3 -7 19 -4 36 3 21 10
30 23 30 14 0 19 -7 19 -30z"/>
<path d="M4161 1408 c1 -40 2 -41 9 -13 4 17 8 24 9 16 0 -8 3 -12 6 -10 7 8
-6 49 -16 49 -5 0 -8 -19 -8 -42z"/>
<path d="M4219 1424 c-5 -15 -8 -29 -5 -31 2 -3 8 6 12 19 8 21 9 19 15 -17
l6 -40 2 48 c1 52 -14 62 -30 21z"/>
<path d="M4281 1408 c0 -27 1 -48 3 -48 2 0 15 17 28 38 l23 37 6 -40 6 -40 2
48 c0 26 -3 47 -7 47 -4 0 -16 -15 -27 -32 l-20 -33 -6 35 c-6 33 -6 32 -8
-12z"/>
<path d="M6210 1447 c0 -3 7 -24 15 -47 11 -32 12 -46 4 -56 -8 -10 -8 -14 0
-14 12 0 38 57 46 99 4 18 -1 13 -13 -14 l-19 -40 -7 32 c-4 18 -12 35 -17 38
-5 4 -9 4 -9 2z"/>
<path d="M4190 1381 c0 -5 5 -13 10 -16 6 -3 10 -2 10 4 0 5 -4 13 -10 16 -5
3 -10 2 -10 -4z"/>
</g>
</svg>
