<?xml version="1.0" standalone="no"?>
<!DOCTYPE svg PUBLIC "-//W3C//DTD SVG 20010904//EN"
 "http://www.w3.org/TR/2001/REC-SVG-20010904/DTD/svg10.dtd">
<svg version="1.0" xmlns="http://www.w3.org/2000/svg"
 width="1120.000000pt" height="1294.000000pt" viewBox="0 0 1120.000000 1294.000000"
 preserveAspectRatio="xMidYMid meet">

<g transform="translate(0.000000,1294.000000) scale(0.100000,-0.100000)"
fill="#000000" stroke="none">
<path d="M3764 10586 c-10 -8 -16 -18 -12 -22 4 -4 14 -1 23 6 16 14 45 7 45
-11 0 -6 -9 -13 -20 -16 -26 -7 -26 -19 1 -26 12 -3 19 -12 17 -19 -6 -18 -39
-23 -49 -7 -11 18 -23 4 -15 -16 4 -12 16 -15 43 -13 31 2 39 7 41 27 2 13 -1
28 -6 33 -7 7 -7 17 1 30 10 16 9 22 -7 34 -25 18 -37 18 -62 0z"/>
<path d="M3944 10586 c-10 -8 -16 -18 -12 -22 4 -4 14 -1 23 6 16 14 45 7 45
-11 0 -6 -9 -13 -20 -16 -26 -7 -26 -19 1 -26 12 -3 19 -12 17 -19 -6 -18 -39
-23 -49 -7 -10 17 -23 4 -16 -16 4 -9 19 -15 41 -15 45 0 62 26 40 58 -9 13
-11 22 -5 22 19 0 12 39 -8 50 -26 13 -33 13 -57 -4z"/>
<path d="M4064 10586 c-10 -8 -16 -18 -12 -22 4 -4 14 -1 23 6 16 14 45 7 45
-11 0 -6 -9 -13 -20 -16 -26 -7 -26 -19 1 -26 12 -3 19 -12 17 -19 -6 -18 -39
-23 -49 -7 -11 18 -23 4 -15 -16 4 -12 16 -15 43 -13 31 2 39 7 41 26 2 13 -2
30 -8 38 -9 10 -9 14 -1 14 19 0 12 39 -8 50 -26 13 -33 13 -57 -4z"/>
<path d="M6743 10584 c-18 -9 -33 -20 -33 -24 0 -16 14 -18 41 -5 36 19 80 19
105 0 25 -19 34 -19 34 1 0 17 -57 44 -92 44 -13 0 -38 -8 -55 -16z"/>
<path d="M3673 10583 c-7 -2 -13 -12 -13 -20 0 -13 3 -13 15 -3 13 11 15 5 15
-45 0 -41 3 -56 13 -53 7 3 13 28 15 66 3 64 -4 72 -45 55z"/>
<path d="M3876 10573 c-11 -11 -6 -23 9 -23 8 0 15 4 15 9 0 13 -16 22 -24 14z"/>
<path d="M6754 10535 c-22 -17 -25 -16 49 -19 59 -3 72 5 38 24 -28 14 -64 12
-87 -5z"/>
<path d="M6464 10526 c-10 -25 0 -61 19 -64 14 -3 17 4 17 37 0 30 -4 41 -15
41 -9 0 -18 -6 -21 -14z"/>
<path d="M3875 10499 c-10 -15 3 -25 16 -12 7 7 7 13 1 17 -6 3 -14 1 -17 -5z"/>
<path d="M6410 10485 c0 -16 6 -25 15 -25 9 0 15 9 15 25 0 16 -6 25 -15 25
-9 0 -15 -9 -15 -25z"/>
<path d="M6780 10493 c0 -5 4 -14 9 -22 8 -12 12 -12 25 -2 9 7 13 17 10 22
-6 11 -44 12 -44 2z"/>
<path d="M5170 10220 c0 -27 5 -50 10 -50 6 0 10 23 10 50 0 28 -4 50 -10 50
-5 0 -10 -22 -10 -50z"/>
<path d="M5793 10215 c0 -33 2 -45 4 -27 2 18 2 45 0 60 -2 15 -4 0 -4 -33z"/>
<path d="M4971 10197 l2 -42 6 35 c4 22 12 35 21 35 9 0 17 -13 21 -35 l6 -35
2 38 c1 46 31 54 31 8 0 -17 5 -33 11 -36 7 -5 9 6 7 31 l-3 39 -52 2 -53 3 1
-43z"/>
<path d="M5100 10231 c0 -5 9 -7 20 -4 11 3 20 1 20 -5 0 -5 -12 -13 -26 -16
-35 -9 -28 -41 10 -42 31 -1 41 14 32 51 -5 18 -13 25 -31 25 -14 0 -25 -4
-25 -9z m40 -40 c0 -14 -18 -23 -30 -16 -6 4 -8 11 -5 16 8 12 35 12 35 0z"/>
<path d="M5213 10200 c0 -25 2 -35 4 -22 2 12 2 32 0 45 -2 12 -4 2 -4 -23z"/>
<path d="M5241 10198 l2 -43 6 35 c4 22 12 36 24 38 14 3 17 -4 18 -35 l2 -38
6 35 c9 50 38 53 44 6 l4 -36 -1 37 -1 38 -52 3 -53 2 1 -42z"/>
<path d="M5377 10233 c-4 -3 -7 -19 -7 -34 0 -34 34 -49 57 -26 23 23 9 67
-21 67 -12 0 -26 -3 -29 -7z m41 -30 c-3 -30 -25 -42 -34 -19 -9 22 2 46 21
46 12 0 15 -8 13 -27z"/>
<path d="M5454 10214 c-8 -33 15 -59 45 -49 11 3 21 11 21 17 0 7 -5 6 -15 -2
-19 -16 -35 -4 -35 27 0 22 3 24 26 19 17 -5 23 -3 19 4 -3 5 -17 10 -30 10
-18 0 -26 -7 -31 -26z"/>
<path d="M5542 10198 l1 -43 4 38 c3 28 9 37 23 37 14 0 20 -9 23 -32 4 -33 4
-33 3 2 -1 30 -5 35 -28 38 -27 3 -28 2 -26 -40z"/>
<path d="M5623 10200 c0 -25 2 -35 4 -22 2 12 2 32 0 45 -2 12 -4 2 -4 -23z"/>
<path d="M5701 10188 c1 -29 3 -46 6 -37 2 10 11 15 22 12 25 -6 45 21 37 52
-5 20 -13 25 -36 25 -30 0 -30 -1 -29 -52z m53 25 c8 -19 -17 -48 -33 -39 -12
8 -15 39 -4 49 12 12 31 7 37 -10z"/>
<path d="M5375 10053 c102 -8 145 -15 145 -24 0 -5 -12 -9 -27 -10 -16 0 -22
-3 -15 -6 6 -2 12 -16 12 -29 0 -15 6 -24 15 -24 10 0 15 -10 15 -30 0 -19 7
-33 20 -40 13 -7 20 -21 20 -40 0 -20 5 -30 15 -30 11 0 15 -12 15 -50 0 -27
5 -50 10 -50 6 0 10 -11 10 -25 0 -20 5 -25 26 -25 23 0 25 -3 22 -42 -5 -73
52 -115 86 -66 l16 22 0 -27 c0 -16 4 -26 10 -22 6 4 7 -1 3 -11 -4 -11 -8
-13 -11 -6 -2 7 -10 12 -18 12 -9 0 -12 -5 -8 -11 4 -8 0 -7 -15 1 -17 8 -31
8 -56 0 -32 -11 -48 -30 -25 -30 6 0 10 5 10 10 0 6 7 10 15 10 8 0 15 -4 15
-9 0 -5 7 -12 16 -15 12 -5 15 -2 10 11 -6 17 -5 17 8 0 8 -10 17 -14 20 -8 8
12 74 7 88 -7 12 -12 38 7 38 27 0 6 7 11 15 11 8 0 15 -6 15 -14 0 -7 9 -16
21 -19 23 -6 17 -27 -7 -27 -8 0 -14 -10 -14 -25 0 -16 6 -25 15 -25 8 0 15
-7 15 -16 0 -11 -8 -14 -27 -12 -24 3 -28 8 -31 41 -4 43 -22 51 -22 9 0 -33
-32 -67 -55 -59 -10 5 -15 0 -15 -13 0 -12 -7 -20 -16 -20 -14 0 -14 -2 0 -15
8 -8 28 -15 45 -15 17 0 31 -4 31 -10 0 -5 -11 -10 -25 -10 -23 0 -25 -4 -25
-45 0 -41 2 -45 25 -45 23 0 25 -4 25 -43 0 -36 4 -44 28 -54 15 -7 42 -12 60
-11 18 1 35 -2 39 -5 3 -4 -19 -7 -50 -7 -32 0 -57 -4 -57 -10 0 -5 -59 -11
-142 -13 -79 -1 313 -4 870 -5 l1012 -2 0 505 0 505 -1127 -2 c-621 -1 -1110
-3 -1088 -5z m305 -268 c10 -12 10 -15 -4 -15 -9 0 -16 7 -16 15 0 8 2 15 4
15 2 0 9 -7 16 -15z m338 -307 c7 -7 12 -26 12 -43 0 -37 -15 -55 -46 -55 -42
0 -54 10 -54 49 0 44 14 61 50 61 14 0 31 -5 38 -12z m180 0 c6 -6 12 -30 12
-54 0 -37 -3 -44 -20 -44 -17 0 -20 7 -20 40 0 22 -4 40 -10 40 -5 0 -10 -18
-10 -40 0 -33 -3 -40 -20 -40 -17 0 -20 7 -20 40 0 22 -4 40 -10 40 -5 0 -10
-18 -10 -40 0 -33 -3 -40 -20 -40 -18 0 -20 7 -20 55 l0 55 68 -1 c37 -1 73
-6 80 -11z m109 -5 c4 -9 1 -19 -5 -21 -8 -2 -7 -8 3 -18 11 -12 12 -20 4 -35
-14 -27 -82 -23 -87 4 -3 16 1 18 30 13 l33 -7 -32 15 c-34 16 -41 34 -21 54
18 18 68 15 75 -5z m-470 -117 c-8 -8 -17 -13 -20 -10 -3 4 -12 2 -19 -2 -9
-6 -6 -10 12 -15 23 -6 22 -7 -7 -8 -18 -1 -33 2 -33 7 0 7 40 36 52 37 3 0
10 3 14 8 4 4 9 5 12 2 2 -2 -2 -11 -11 -19z"/>
<path d="M5963 9444 c-8 -21 13 -42 28 -27 13 13 5 43 -11 43 -6 0 -13 -7 -17
-16z"/>
<path d="M6260 9460 c0 -5 5 -10 11 -10 5 0 7 5 4 10 -3 6 -8 10 -11 10 -2 0
-4 -4 -4 -10z"/>
<path d="M5562 9750 c0 -14 2 -19 5 -12 2 6 2 18 0 25 -3 6 -5 1 -5 -13z"/>
<path d="M3658 9483 c12 -2 30 -2 40 0 9 3 -1 5 -23 4 -22 0 -30 -2 -17 -4z"/>
<path d="M5553 9425 c0 -33 2 -45 4 -27 2 18 2 45 0 60 -2 15 -4 0 -4 -33z"/>
<path d="M5710 9430 c0 -22 3 -40 8 -40 4 0 8 18 8 40 1 22 -2 40 -7 40 -5 0
-9 -18 -9 -40z"/>
<path d="M5594 9446 c-3 -8 -4 -27 -1 -43 3 -23 4 -21 7 12 l3 40 7 -35 7 -35
2 38 c1 36 -14 51 -25 23z"/>
<path d="M5656 9449 c-2 -8 -6 -28 -8 -46 -4 -27 -2 -30 13 -23 10 6 16 20 15
39 -1 34 -13 51 -20 30z"/>
<path d="M5777 9453 c-13 -12 -7 -43 8 -43 9 0 15 9 15 25 0 24 -10 32 -23 18z
m10 -25 c-3 -8 -6 -5 -6 6 -1 11 2 17 5 13 3 -3 4 -12 1 -19z"/>
<path d="M5680 9371 c0 -5 11 -8 25 -7 33 1 33 16 0 16 -14 0 -25 -4 -25 -9z"/>
<path d="M5690 9350 c-12 -7 -10 -9 7 -7 12 0 19 5 17 9 -6 10 -6 10 -24 -2z"/>
<path d="M3560 8550 c0 -47 4 -80 10 -80 6 0 10 33 10 80 0 47 -4 80 -10 80
-6 0 -10 -33 -10 -80z"/>
<path d="M4163 8613 c-4 -10 -11 -22 -17 -26 -8 -6 -7 -10 2 -14 7 -3 12 -24
12 -54 0 -27 5 -49 10 -49 6 0 10 23 10 50 0 38 4 50 15 50 8 0 15 5 15 10 0
6 -7 10 -15 10 -20 0 -19 17 3 29 15 9 14 10 -6 11 -13 0 -25 -8 -29 -17z"/>
<path d="M4230 8620 c0 -5 5 -10 10 -10 6 0 10 5 10 10 0 6 -4 10 -10 10 -5 0
-10 -4 -10 -10z"/>
<path d="M4290 8550 c0 -47 4 -80 10 -80 6 0 10 33 10 80 0 47 -4 80 -10 80
-6 0 -10 -33 -10 -80z"/>
<path d="M4350 8550 c0 -47 4 -80 10 -80 6 0 10 33 10 80 0 47 -4 80 -10 80
-6 0 -10 -33 -10 -80z"/>
<path d="M4465 8620 c-3 -5 1 -10 10 -10 9 0 13 5 10 10 -3 6 -8 10 -10 10 -2
0 -7 -4 -10 -10z"/>
<path d="M4830 8556 c0 -41 5 -78 10 -81 6 -4 10 23 10 74 0 47 -4 81 -10 81
-6 0 -10 -31 -10 -74z"/>
<path d="M4890 8550 c0 -47 4 -80 10 -80 6 0 10 33 10 80 0 47 -4 80 -10 80
-6 0 -10 -33 -10 -80z"/>
<path d="M5008 8600 c-9 -17 -13 -30 -8 -30 6 0 10 -22 10 -50 0 -27 5 -50 10
-50 6 0 10 23 10 50 0 38 4 50 15 50 8 0 15 5 15 10 0 6 -7 10 -15 10 -20 0
-19 17 3 29 16 10 15 10 -3 11 -12 0 -27 -12 -37 -30z"/>
<path d="M5080 8620 c0 -5 7 -10 16 -10 8 0 12 5 9 10 -3 6 -10 10 -16 10 -5
0 -9 -4 -9 -10z"/>
<path d="M5270 8550 c0 -47 4 -80 10 -80 6 0 10 33 10 80 0 47 -4 80 -10 80
-6 0 -10 -33 -10 -80z"/>
<path d="M5400 8605 c0 -22 -3 -25 -25 -19 -35 9 -55 -11 -55 -56 0 -46 15
-60 63 -58 l37 1 0 79 c0 45 -4 78 -10 78 -5 0 -10 -11 -10 -25z m-12 -47 c16
-16 15 -44 -3 -62 -23 -23 -45 -9 -45 28 0 46 21 61 48 34z"/>
<path d="M6083 8613 c-4 -10 -11 -22 -17 -26 -8 -6 -7 -10 2 -14 7 -3 12 -24
12 -54 0 -27 5 -49 10 -49 6 0 10 23 10 50 0 41 3 50 18 50 15 1 15 2 -3 16
-20 15 -20 15 -1 30 19 14 19 14 -2 14 -13 0 -26 -8 -29 -17z"/>
<path d="M6280 8550 c0 -47 4 -80 10 -80 6 0 10 33 10 80 0 47 -4 80 -10 80
-6 0 -10 -33 -10 -80z"/>
<path d="M6340 8550 c0 -47 4 -80 10 -80 6 0 10 33 10 80 0 47 -4 80 -10 80
-6 0 -10 -33 -10 -80z"/>
<path d="M3420 8545 c0 -43 4 -75 10 -75 6 0 10 14 10 30 0 27 3 30 33 30 38
0 57 15 57 45 0 32 -20 45 -67 45 l-43 0 0 -75z m85 30 c0 -15 -8 -21 -32 -23
-30 -3 -33 -1 -33 23 0 24 3 26 33 23 24 -2 32 -8 32 -23z"/>
<path d="M3628 8579 c-21 -12 -25 -78 -6 -97 15 -15 64 -16 73 -1 10 16 -3 23
-18 10 -17 -14 -47 -4 -47 15 0 10 12 14 40 14 44 0 50 11 24 48 -16 24 -39
27 -66 11z m56 -24 c4 -11 -2 -15 -24 -15 -29 0 -38 9 -23 23 12 12 41 7 47
-8z"/>
<path d="M3753 8583 c-7 -2 -13 -12 -13 -21 0 -12 3 -13 12 -4 17 17 48 15 48
-3 0 -9 -9 -15 -24 -15 -28 0 -49 -22 -44 -47 3 -14 13 -18 48 -18 l45 0 -1
48 c-1 59 -25 79 -71 60z m57 -67 c0 -13 -33 -34 -45 -30 -27 11 -17 34 15 34
17 0 30 -2 30 -4z"/>
<path d="M3864 8576 c-25 -19 -8 -50 30 -54 19 -3 26 -8 24 -20 -4 -18 -20
-20 -52 -7 -14 6 -18 4 -14 -6 7 -22 77 -24 85 -3 8 22 -8 47 -36 54 -12 3
-22 10 -22 15 0 16 33 19 42 4 4 -7 11 -10 15 -6 10 10 -16 37 -35 37 -10 0
-26 -6 -37 -14z"/>
<path d="M3982 8578 c-16 -16 -16 -80 0 -96 15 -15 64 -16 73 -1 10 16 -1 22
-22 11 -22 -12 -43 -5 -43 14 0 9 11 14 35 14 30 0 35 3 35 23 0 29 -18 47
-45 47 -12 0 -26 -5 -33 -12z m58 -23 c0 -9 -9 -15 -25 -15 -24 0 -32 10 -18
23 12 13 43 7 43 -8z"/>
<path d="M4237 8583 c-11 -10 -8 -113 3 -113 6 0 10 27 10 60 0 61 -1 65 -13
53z"/>
<path d="M4468 8534 c-1 -31 0 -58 5 -61 4 -2 7 23 7 56 0 76 -7 79 -12 5z"/>
<path d="M4543 8583 c-21 -4 -23 -10 -23 -59 0 -63 17 -73 22 -13 2 26 10 46
20 53 23 14 31 4 39 -52 l6 -47 2 56 c1 44 -3 58 -15 63 -9 3 -19 5 -22 5 -4
-1 -17 -4 -29 -6z"/>
<path d="M4723 8583 c-7 -2 -13 -11 -13 -19 0 -11 4 -12 19 -3 20 13 51 6 51
-11 0 -5 -13 -10 -29 -10 -35 0 -55 -22 -46 -50 5 -17 14 -20 51 -18 l44 1 0
43 c0 59 -31 86 -77 67z m57 -73 c0 -15 -35 -29 -49 -20 -8 4 -10 13 -7 19 9
14 56 15 56 1z"/>
<path d="M5087 8583 c-11 -10 -8 -113 3 -113 6 0 10 27 10 60 0 61 -1 65 -13
53z"/>
<path d="M5152 8578 c-7 -7 -12 -28 -12 -48 0 -20 5 -41 12 -48 15 -15 64 -16
73 -1 10 16 -3 23 -18 10 -17 -14 -47 -4 -47 15 0 9 12 14 34 14 43 0 52 14
32 45 -18 27 -54 33 -74 13z m62 -23 c4 -11 -2 -15 -24 -15 -29 0 -38 9 -23
23 12 12 41 7 47 -8z"/>
<path d="M5462 8578 c-22 -22 -14 -47 20 -56 17 -4 33 -13 35 -19 6 -16 -27
-25 -44 -12 -15 13 -28 6 -18 -10 3 -6 21 -11 40 -11 26 0 35 5 41 22 7 24
-17 48 -48 48 -10 0 -18 7 -18 15 0 18 31 20 48 3 9 -9 12 -8 12 4 0 26 -47
37 -68 16z"/>
<path d="M5638 8579 c-21 -12 -25 -78 -6 -97 17 -17 67 -15 75 3 8 24 -4 30
-23 11 -23 -23 -46 -3 -42 38 3 33 34 49 49 25 4 -7 11 -10 15 -6 10 10 -16
37 -35 37 -9 0 -24 -5 -33 -11z"/>
<path d="M5754 8576 c-10 -8 -16 -18 -11 -22 4 -4 13 -2 19 4 17 17 48 15 48
-3 0 -9 -9 -15 -24 -15 -28 0 -49 -22 -44 -47 3 -14 13 -18 46 -18 l42 -1 0
46 c0 66 -31 89 -76 56z m56 -70 c0 -16 -27 -29 -41 -20 -19 11 -9 34 16 34
15 0 25 -6 25 -14z"/>
<path d="M5870 8528 c0 -32 4 -58 10 -58 6 0 10 18 10 40 0 29 5 43 20 52 28
18 25 25 -10 24 -30 -1 -30 -2 -30 -58z"/>
<path d="M5956 8568 c-31 -44 -13 -98 33 -98 16 0 34 7 41 15 14 17 7 19 -20
5 -14 -7 -23 -6 -36 8 -17 16 -16 17 24 20 37 3 42 6 42 27 0 44 -59 60 -84
23z m62 -15 c2 -9 -7 -13 -27 -13 -23 0 -29 4 -24 16 6 17 44 15 51 -3z"/>
<path d="M6152 8533 l3 -58 43 -1 42 -2 0 61 c0 67 -17 69 -22 2 -2 -33 -7
-41 -25 -43 -21 -3 -23 1 -23 42 0 25 -5 48 -11 51 -7 5 -9 -13 -7 -52z"/>
<path d="M6380 8585 c0 -2 10 -30 21 -61 21 -55 21 -58 4 -71 -20 -14 -14 -29
9 -20 16 6 60 130 53 150 -3 6 -10 -1 -16 -18 -6 -16 -14 -37 -17 -45 -4 -10
-11 0 -21 28 -8 23 -19 42 -24 42 -5 0 -9 -2 -9 -5z"/>
<path d="M3820 7971 c0 -15 -8 -21 -32 -23 -35 -3 -44 -21 -34 -64 5 -20 12
-24 41 -21 l35 2 0 63 c0 34 -2 62 -5 62 -3 0 -5 -9 -5 -19z m-11 -48 c11 -21
-3 -53 -24 -53 -16 0 -31 43 -20 59 10 17 33 13 44 -6z"/>
<path d="M3431 7968 c0 -9 -3 -22 -4 -30 -2 -7 -2 -9 1 -5 2 4 11 2 20 -5 13
-11 14 -11 8 1 -5 8 -3 17 5 23 11 8 10 9 -3 4 -10 -3 -18 1 -21 12 -4 16 -5
16 -6 0z"/>
<path d="M3540 7921 l0 -61 35 0 c33 0 64 28 48 44 -3 3 -6 20 -7 38 -1 31 -4
33 -38 36 l-38 3 0 -60z m65 29 c0 -9 -11 -16 -27 -18 -23 -3 -28 1 -28 18 0
17 5 21 28 18 16 -2 27 -9 27 -18z m0 -55 c0 -14 -8 -21 -27 -23 -22 -3 -28 1
-28 16 0 25 10 33 35 30 12 -2 20 -10 20 -23z"/>
<path d="M6191 7964 c0 -11 3 -14 6 -6 3 7 2 16 -1 19 -3 4 -6 -2 -5 -13z"/>
<path d="M3992 7953 c-7 -7 -8 -13 -3 -13 5 0 11 -17 13 -37 2 -29 8 -39 23
-41 18 -2 18 -2 3 8 -19 11 -25 66 -9 72 5 2 4 8 -3 14 -8 8 -15 7 -24 -3z"/>
<path d="M4672 7953 c-7 -7 -8 -13 -3 -13 5 0 11 -17 13 -37 2 -20 9 -38 16
-39 7 -1 8 0 2 3 -12 6 -13 70 -1 75 5 2 4 8 -3 14 -8 8 -15 7 -24 -3z"/>
<path d="M6119 7958 c-5 -51 9 -98 29 -97 10 0 12 3 5 6 -16 6 -17 73 -2 73 6
0 4 7 -5 15 -18 18 -26 19 -27 3z"/>
<path d="M3662 7938 c-28 -28 -3 -84 34 -76 43 8 44 88 1 88 -13 0 -28 -5 -35
-12z m53 -17 c8 -26 -4 -51 -26 -51 -15 0 -19 7 -19 35 0 28 4 35 19 35 11 0
22 -8 26 -19z"/>
<path d="M3854 7938 c24 -61 29 -90 15 -100 -11 -7 -11 -9 0 -6 7 2 22 26 32
53 23 60 24 85 2 35 l-16 -35 -13 33 c-8 17 -17 32 -20 32 -3 0 -3 -6 0 -12z"/>
<path d="M4054 7923 c-4 -14 -2 -33 3 -42 12 -19 42 -26 55 -13 6 6 1 8 -15 5
-16 -3 -26 1 -30 11 -5 13 1 16 28 16 36 0 46 15 23 38 -22 22 -57 14 -64 -15z
m56 2 c0 -8 -9 -15 -20 -15 -11 0 -20 7 -20 15 0 8 9 15 20 15 11 0 20 -7 20
-15z"/>
<path d="M4168 7943 c-13 -3 -18 -14 -18 -38 0 -47 18 -54 22 -8 2 27 8 39 21
41 14 3 17 -4 18 -40 1 -24 3 -34 6 -23 2 11 6 30 9 43 8 39 38 23 45 -23 l7
-40 -2 45 -1 45 -45 1 c-25 1 -53 -1 -62 -3z"/>
<path d="M4311 7885 c1 -33 4 -50 6 -38 3 16 11 21 30 20 31 -2 48 22 39 57
-6 23 -11 26 -41 24 l-35 -2 1 -61z m64 36 c14 -44 -24 -67 -48 -29 -8 12 -7
21 2 32 18 21 38 20 46 -3z"/>
<path d="M4419 7929 c-8 -16 -8 -28 0 -45 10 -23 44 -33 55 -15 3 4 -6 6 -19
3 -18 -3 -25 0 -25 12 0 11 9 16 30 16 31 0 35 6 24 34 -9 23 -51 20 -65 -5z
m56 -4 c0 -5 -10 -11 -22 -13 -16 -2 -23 2 -23 13 0 11 7 15 23 13 12 -2 22
-7 22 -13z"/>
<path d="M4522 7900 c1 -40 2 -41 5 -10 2 19 11 40 20 47 13 10 13 12 -6 10
-18 -1 -21 -7 -19 -47z"/>
<path d="M4586 7941 c-3 -4 6 -6 19 -3 18 3 25 0 25 -12 0 -10 -9 -16 -24 -16
-25 0 -39 -19 -27 -38 4 -6 21 -11 39 -9 27 2 32 6 32 29 0 14 -3 33 -6 42 -6
17 -49 22 -58 7z m42 -53 c-7 -19 -38 -22 -38 -4 0 10 9 16 21 16 12 0 19 -5
17 -12z"/>
<path d="M4744 7908 c1 -42 2 -43 34 -43 32 -1 32 0 31 45 -1 41 -2 42 -8 14
-17 -68 -48 -76 -54 -14 l-4 40 1 -42z"/>
<path d="M4840 7902 c0 -26 4 -41 10 -37 6 3 10 19 10 35 0 17 7 33 18 39 14
9 13 10 -10 9 -26 -2 -28 -6 -28 -46z"/>
<path d="M4912 7938 c-27 -27 -7 -78 29 -78 10 0 20 4 23 9 3 4 -6 6 -19 3
-18 -3 -25 0 -25 12 0 11 9 16 30 16 31 0 35 6 24 34 -7 19 -45 21 -62 4z m53
-13 c0 -5 -10 -11 -22 -13 -16 -2 -23 2 -23 13 0 11 7 15 23 13 12 -2 22 -7
22 -13z"/>
<path d="M5050 7904 c0 -54 18 -59 22 -7 2 27 8 39 21 41 14 3 17 -4 18 -40 1
-24 3 -34 6 -23 2 11 6 30 9 43 2 12 11 22 19 22 8 0 17 -10 19 -22 13 -58 14
-60 13 -18 l-2 45 -62 1 -63 2 0 -44z"/>
<path d="M5211 7931 c-24 -44 18 -88 59 -61 11 7 6 8 -17 4 -26 -5 -33 -3 -33
10 0 11 9 16 31 16 26 0 30 3 27 23 -4 30 -52 37 -67 8z m54 -6 c0 -5 -10 -11
-22 -13 -16 -2 -23 2 -23 13 0 11 7 15 23 13 12 -2 22 -7 22 -13z"/>
<path d="M5316 7941 c-3 -4 6 -6 19 -3 18 3 25 0 25 -12 0 -10 -9 -16 -24 -16
-25 0 -39 -19 -27 -38 4 -6 21 -11 39 -9 27 2 32 6 32 29 0 14 -3 33 -6 42 -6
17 -49 22 -58 7z m42 -53 c-7 -19 -38 -22 -38 -4 0 10 9 16 21 16 12 0 19 -5
17 -12z"/>
<path d="M5405 7940 c-9 -14 3 -30 31 -40 37 -14 30 -34 -8 -26 -24 5 -29 3
-21 -5 16 -16 57 -7 61 13 2 12 -6 21 -22 28 -35 13 -34 34 0 26 17 -5 23 -3
19 4 -8 13 -52 13 -60 0z"/>
<path d="M5490 7928 c1 -63 25 -84 64 -55 15 11 17 20 10 48 l-8 34 -6 -40
c-3 -27 -11 -41 -22 -43 -15 -3 -18 4 -18 37 0 23 -4 41 -10 41 -5 0 -10 -10
-10 -22z"/>
<path d="M5601 7900 c2 -34 3 -37 6 -15 3 17 12 38 20 47 14 15 13 17 -6 15
-18 -1 -21 -7 -20 -47z"/>
<path d="M5667 7944 c-4 -4 -7 -22 -7 -40 0 -28 5 -35 26 -40 14 -4 30 -2 35
3 5 5 -2 9 -18 8 -14 0 -28 6 -30 13 -3 8 6 12 27 12 27 0 31 3 28 23 -2 15
-11 23 -28 25 -14 2 -29 0 -33 -4z m53 -19 c0 -16 -35 -21 -44 -6 -8 12 4 21
26 21 10 0 18 -7 18 -15z"/>
<path d="M5762 7901 c1 -36 2 -39 5 -14 4 34 26 59 43 48 5 -3 11 -23 11 -43
l2 -37 6 40 c4 27 12 41 24 43 14 3 17 -4 17 -37 0 -23 5 -41 10 -41 12 0 13
59 2 76 -4 7 -32 11 -64 11 l-58 -1 2 -45z"/>
<path d="M5924 7937 c-3 -9 -4 -28 -2 -44 2 -24 8 -28 32 -28 17 0 31 6 34 15
5 13 3 13 -11 1 -18 -14 -47 -9 -47 9 0 5 14 10 31 10 26 0 30 3 27 23 -4 27
-54 38 -64 14z m54 -14 c2 -8 -6 -13 -22 -13 -25 0 -33 10 -19 24 10 10 36 3
41 -11z"/>
<path d="M6021 7901 l2 -46 6 40 c5 31 10 40 26 40 16 0 21 -9 26 -40 l7 -40
-2 45 c-1 44 -2 45 -33 46 -33 1 -33 1 -32 -45z"/>
<path d="M7126 7424 c-9 -8 -15 -30 -15 -47 l2 -32 6 35 c4 23 14 39 31 47 17
9 20 13 8 13 -9 0 -24 -7 -32 -16z"/>
<path d="M7050 7396 c7 -7 13 -7 20 0 6 6 3 10 -10 10 -13 0 -16 -4 -10 -10z"/>
<path d="M7127 7328 c2 -5 15 -8 28 -8 13 0 26 3 28 8 3 4 -10 7 -28 7 -18 0
-31 -3 -28 -7z"/>
<path d="M3445 6545 c-4 -11 -14 -35 -21 -54 -16 -39 -18 -64 -3 -38 5 9 19
17 31 17 11 0 27 -8 35 -17 13 -16 13 -16 7 7 -3 14 -14 43 -24 65 -15 35 -18
38 -25 20z m22 -61 c-3 -3 -12 -4 -20 -2 -11 2 -12 9 -5 28 l10 25 11 -23 c5
-12 8 -25 4 -28z"/>
<path d="M4270 6539 c0 -15 -5 -19 -15 -15 -27 10 -45 -5 -45 -39 0 -39 18
-56 48 -48 20 5 22 12 22 64 0 33 -2 59 -5 59 -3 0 -5 -9 -5 -21z m-7 -41 c14
-22 1 -48 -23 -48 -15 0 -20 7 -20 28 0 44 22 54 43 20z"/>
<path d="M4048 6539 c-2 -7 -1 -30 2 -53 4 -31 10 -41 25 -44 18 -2 18 -2 3 8
-20 12 -24 50 -8 66 8 8 6 15 -4 23 -11 9 -15 9 -18 0z"/>
<path d="M4798 6537 c-3 -7 -3 -31 0 -54 3 -32 8 -43 21 -42 10 0 11 2 4 6
-15 5 -17 54 -4 69 6 5 4 14 -4 21 -10 9 -14 9 -17 0z"/>
<path d="M3537 6524 c-15 -15 -7 -44 12 -44 22 0 35 -15 26 -30 -4 -7 -13 -7
-26 0 -12 7 -19 7 -19 1 0 -19 42 -24 59 -6 15 15 15 17 -3 31 -11 8 -26 14
-33 14 -7 0 -13 4 -13 9 0 18 21 23 37 9 14 -11 16 -11 11 2 -5 16 -39 25 -51
14z"/>
<path d="M3621 6516 c-16 -19 -6 -36 19 -36 10 0 22 -5 26 -11 10 -16 -17 -29
-38 -18 -10 5 -18 7 -18 5 0 -11 40 -26 54 -20 25 10 19 43 -9 50 -26 6 -32
18 -15 29 6 4 18 1 27 -7 14 -11 16 -11 11 2 -6 21 -42 24 -57 6z"/>
<path d="M3723 6523 c-18 -7 -16 -68 3 -84 22 -18 48 0 52 35 5 42 -19 64 -55
49z m35 -12 c22 -13 11 -56 -15 -59 -19 -3 -23 1 -23 26 0 40 12 50 38 33z"/>
<path d="M3821 6516 c-17 -20 -10 -67 11 -80 14 -8 22 -7 35 7 17 17 16 17
-15 11 -31 -6 -32 -5 -32 25 0 37 22 50 48 30 15 -13 16 -12 3 4 -16 21 -35
22 -50 3z"/>
<path d="M3913 6485 c0 -27 2 -38 4 -22 2 15 2 37 0 50 -2 12 -4 0 -4 -28z"/>
<path d="M3963 6523 c-7 -2 -13 -9 -13 -15 0 -6 6 -6 15 2 8 6 19 9 25 5 17
-11 11 -23 -12 -27 -17 -2 -23 -10 -23 -28 0 -14 6 -25 13 -24 6 1 21 2 32 3
16 1 20 8 20 34 0 46 -21 65 -57 50z m42 -52 c7 -12 -29 -33 -39 -24 -3 3 -6
12 -6 20 0 15 36 18 45 4z"/>
<path d="M4123 6523 c-7 -2 -13 -22 -13 -43 0 -31 4 -40 21 -45 14 -5 27 -1
37 9 10 10 12 16 5 16 -7 0 -14 -4 -18 -10 -8 -13 -35 -1 -35 16 0 9 11 14 30
14 31 0 39 17 18 38 -13 13 -24 14 -45 5z m37 -18 c11 -13 8 -15 -14 -15 -25
0 -33 10 -19 23 10 11 19 8 33 -8z"/>
<path d="M4367 6524 c-15 -15 -7 -44 12 -44 24 0 37 -18 23 -32 -8 -8 -16 -7
-27 2 -8 7 -15 8 -15 2 0 -13 26 -23 45 -16 25 10 18 43 -10 50 -26 6 -32 18
-15 29 6 4 18 1 27 -7 14 -11 16 -11 11 2 -5 16 -39 25 -51 14z"/>
<path d="M4440 6525 c0 -2 7 -23 17 -46 13 -32 14 -46 5 -60 -9 -14 -9 -17 1
-13 13 5 50 104 42 112 -2 2 -7 -7 -11 -22 -8 -34 -20 -33 -33 4 -8 26 -21 40
-21 25z"/>
<path d="M4548 6523 c-14 -3 -18 -15 -18 -44 0 -21 5 -39 10 -39 6 0 10 16 10
35 0 19 5 35 10 35 6 0 13 0 18 0 4 1 10 -16 13 -37 6 -36 6 -36 8 -7 1 31 25
63 38 51 3 -4 9 -24 13 -44 l8 -38 1 37 c0 20 -5 40 -11 45 -14 8 -74 12 -100
6z"/>
<path d="M4708 6523 c-14 -4 -18 -15 -18 -59 0 -30 5 -54 10 -54 6 0 10 7 10
16 0 11 5 14 16 10 23 -9 44 12 44 43 0 42 -19 56 -62 44z m45 -25 c14 -22 1
-48 -23 -48 -15 0 -20 7 -20 28 0 44 22 54 43 20z"/>
<path d="M4866 6514 c-21 -21 -20 -47 3 -68 27 -24 61 -6 61 32 0 48 -34 67
-64 36z m42 -3 c22 -13 11 -56 -15 -59 -19 -3 -23 1 -23 26 0 40 12 50 38 33z"/>
<path d="M4962 6480 c1 -35 2 -38 5 -13 4 32 28 61 40 50 3 -4 9 -24 13 -44
l8 -38 1 38 c0 20 6 37 11 37 6 0 13 0 18 0 4 1 10 -16 13 -37 7 -38 7 -37 5
7 l-1 45 -57 0 -58 1 2 -46z"/>
<path d="M5123 6523 c-22 -8 -14 -33 12 -43 14 -5 25 -13 25 -18 0 -17 -13
-21 -31 -11 -12 6 -19 6 -19 0 0 -16 40 -24 55 -11 24 20 17 40 -15 47 -34 6
-35 28 -2 27 12 0 19 3 16 8 -6 9 -22 9 -41 1z"/>
<path d="M3424 6217 c-2 -8 -4 -52 -2 -98 l3 -84 95 0 95 0 0 95 0 95 -93 3
c-71 2 -94 0 -98 -11z m176 -87 l0 -80 -80 0 -80 0 0 80 0 80 80 0 80 0 0 -80z"/>
<path d="M3788 6193 c-20 -5 -33 -60 -23 -92 3 -11 15 -23 25 -26 22 -7 60 10
60 27 0 6 -8 4 -19 -6 -34 -31 -64 2 -54 58 6 28 39 36 61 14 7 -7 12 -9 12
-6 0 9 -30 38 -38 37 -4 -1 -15 -3 -24 -6z"/>
<path d="M3883 6135 c0 -54 1 -61 6 -30 5 31 10 40 26 40 16 0 21 -9 26 -40
l6 -40 2 46 c1 48 -12 65 -43 53 -9 -4 -16 3 -19 18 -2 13 -4 -8 -4 -47z"/>
<path d="M4033 6140 c0 -36 2 -50 4 -32 2 17 2 47 0 65 -2 17 -4 3 -4 -33z"/>
<path d="M4073 6140 c0 -36 2 -50 4 -32 2 17 2 47 0 65 -2 17 -4 3 -4 -33z"/>
<path d="M4133 6163 c-23 -9 -14 -40 12 -47 14 -4 25 -11 25 -16 0 -17 -19
-21 -42 -9 -21 11 -22 11 -9 -5 19 -23 55 -17 59 10 2 16 -4 23 -22 28 -15 3
-26 11 -26 16 0 16 21 22 35 10 9 -7 15 -8 15 -2 0 8 -26 25 -33 21 -1 0 -8
-3 -14 -6z"/>
<path d="M3983 6115 c0 -27 2 -38 4 -22 2 15 2 37 0 50 -2 12 -4 0 -4 -28z"/>
<path d="M3432 5752 c-9 -6 -12 -34 -10 -103 l3 -94 95 0 95 0 3 94 c2 69 -1
97 -10 103 -7 4 -47 8 -88 8 -41 0 -81 -4 -88 -8z m158 -52 c0 -5 -21 -30 -47
-55 l-46 -45 -28 26 c-16 15 -26 31 -23 36 4 5 16 0 28 -11 l22 -21 39 40 c39
40 55 49 55 30z"/>
<path d="M5142 5665 c-1 -56 1 -66 10 -50 6 11 12 22 14 24 2 2 12 -7 23 -20
23 -27 28 -14 6 15 -13 17 -13 22 2 38 9 10 12 18 7 18 -5 0 -15 -9 -22 -20
-19 -31 -31 -24 -35 23 -2 28 -4 19 -5 -28z"/>
<path d="M3770 5660 c0 -57 1 -60 24 -60 46 0 56 10 56 54 0 49 -13 66 -52 66
-28 0 -28 -1 -28 -60z m58 41 c8 -5 12 -23 10 -47 -3 -34 -6 -39 -30 -42 -27
-3 -28 -2 -28 47 0 42 3 51 18 51 9 0 23 -4 30 -9z"/>
<path d="M4727 5653 c-15 -37 -25 -68 -23 -70 2 -2 16 26 30 63 15 36 25 68
23 70 -2 2 -16 -26 -30 -63z"/>
<path d="M4780 5712 c0 -25 32 -112 40 -107 5 3 12 21 16 40 8 46 18 44 33 -5
7 -22 16 -38 20 -35 11 6 35 104 28 111 -2 3 -10 -17 -17 -43 l-13 -48 -14 48
c-8 26 -17 47 -22 47 -4 0 -13 -21 -20 -47 l-13 -48 -14 48 c-13 42 -24 60
-24 39z"/>
<path d="M3880 5643 c0 -24 5 -43 10 -43 6 0 10 16 10 35 0 22 6 37 17 44 14
7 12 9 -10 8 -25 -2 -27 -5 -27 -44z"/>
<path d="M3948 5665 c-15 -34 -1 -59 35 -63 21 -3 28 2 33 24 14 55 -45 89
-68 39z m57 -20 c0 -23 -5 -31 -21 -33 -24 -3 -38 20 -28 50 4 13 13 18 27 16
17 -2 22 -10 22 -33z"/>
<path d="M4041 5686 c-2 -17 22 -86 30 -86 4 0 13 15 19 33 l13 32 10 -32 c5
-18 13 -33 18 -33 4 0 14 21 23 48 13 40 13 44 1 28 -8 -11 -15 -29 -16 -40 0
-15 -6 -9 -19 19 l-18 40 -11 -28 c-6 -16 -11 -34 -12 -40 0 -7 -9 6 -19 28
-10 22 -19 36 -19 31z"/>
<path d="M4187 5683 c-15 -14 -5 -32 23 -42 41 -14 40 -35 -2 -27 -24 5 -29 3
-21 -5 6 -6 21 -9 34 -7 32 4 33 42 2 46 -13 2 -23 10 -23 19 0 11 6 14 26 9
17 -5 23 -3 19 4 -7 11 -48 14 -58 3z"/>
<path d="M4283 5645 c0 -27 2 -38 4 -22 2 15 2 37 0 50 -2 12 -4 0 -4 -28z"/>
<path d="M4320 5643 c0 -53 18 -57 22 -6 2 27 8 39 21 41 14 3 17 -4 17 -38 0
-24 4 -39 10 -35 5 3 8 16 6 28 -3 12 -5 30 -5 39 -1 14 -9 17 -36 15 -34 -2
-35 -3 -35 -44z"/>
<path d="M4432 5678 c-13 -13 -15 -37 -6 -62 6 -16 49 -22 58 -8 2 4 -7 8 -21
7 -14 0 -28 6 -30 13 -3 8 7 12 31 12 23 0 36 5 36 13 0 18 -21 37 -40 37 -9
0 -21 -5 -28 -12z m48 -13 c0 -9 -9 -15 -25 -15 -24 0 -32 10 -18 23 12 13 43
7 43 -8z"/>
<path d="M4527 5683 c-15 -14 -5 -32 23 -42 41 -14 40 -35 -2 -27 -24 5 -29 3
-21 -5 6 -6 21 -9 34 -7 32 4 33 40 1 48 -31 7 -28 26 4 23 13 -1 22 2 19 8
-7 10 -48 12 -58 2z"/>
<path d="M4614 5675 c-8 -20 4 -35 27 -35 11 0 19 -7 19 -16 0 -12 -7 -15 -25
-12 -14 3 -25 1 -25 -3 0 -12 57 -11 64 0 10 16 -5 40 -27 43 -11 2 -22 9 -25
17 -3 10 2 13 22 9 14 -3 26 -1 26 3 0 15 -50 10 -56 -6z"/>
<path d="M4952 5678 c-13 -13 -15 -37 -6 -62 6 -16 49 -22 58 -8 2 4 -7 8 -21
7 -14 0 -28 6 -30 13 -3 8 6 12 25 12 36 0 44 8 31 31 -11 22 -39 25 -57 7z
m48 -13 c0 -16 -35 -21 -44 -6 -8 12 4 21 26 21 10 0 18 -7 18 -15z"/>
<path d="M5046 5681 c-4 -6 5 -9 20 -8 36 3 43 -21 7 -25 -20 -2 -29 -9 -31
-26 -3 -20 0 -22 33 -20 36 2 36 3 33 43 -3 35 -6 40 -30 43 -14 2 -29 -1 -32
-7z m52 -53 c-7 -20 -48 -23 -48 -4 0 11 9 16 26 16 16 0 24 -5 22 -12z"/>
<path d="M5241 5641 l2 -46 6 40 c5 31 10 40 26 40 16 0 21 -9 26 -40 l7 -40
-2 45 c-1 44 -2 45 -33 46 -33 1 -33 1 -32 -45z"/>
<path d="M5344 5677 c-3 -9 -4 -28 -2 -44 2 -21 9 -29 27 -31 13 -2 28 1 34 7
7 7 2 10 -18 8 -15 -1 -30 4 -32 11 -3 8 6 12 27 12 27 0 31 3 28 23 -4 27
-54 38 -64 14z m54 -14 c2 -8 -6 -13 -22 -13 -25 0 -33 10 -19 24 10 10 36 3
41 -11z"/>
<path d="M5436 5674 c-8 -22 -9 -21 24 -33 41 -14 40 -35 -2 -27 -24 5 -29 3
-21 -5 6 -6 21 -9 34 -7 32 4 33 40 1 48 -31 7 -28 26 4 23 13 -1 22 2 19 8
-10 15 -52 10 -59 -7z"/>
<path d="M5526 5674 c-8 -22 -9 -21 24 -33 41 -14 40 -35 -2 -27 -24 5 -29 3
-21 -5 6 -6 21 -9 34 -7 32 4 33 42 2 46 -13 2 -23 10 -23 19 0 11 6 14 26 9
17 -5 23 -3 19 4 -10 16 -52 12 -59 -6z"/>
<path d="M3424 5267 c-2 -8 -4 -52 -2 -98 l3 -84 95 0 95 0 0 95 0 95 -93 3
c-71 2 -94 0 -98 -11z m176 -87 l0 -80 -80 0 -80 0 0 80 0 80 80 0 80 0 0 -80z"/>
<path d="M4150 5229 c0 -15 -5 -19 -15 -15 -29 11 -45 -5 -45 -44 0 -41 13
-52 49 -43 18 5 21 13 21 64 0 33 -2 59 -5 59 -3 0 -5 -9 -5 -21z m-6 -42 c8
-12 8 -22 0 -34 -16 -25 -38 -22 -42 5 -7 50 18 67 42 29z"/>
<path d="M4380 5190 c0 -33 4 -60 10 -60 6 0 10 16 10 35 0 28 4 35 19 35 15
0 21 -9 24 -37 4 -33 4 -32 3 7 -1 40 -3 45 -23 43 -17 -2 -23 2 -23 17 0 11
-4 20 -10 20 -6 0 -10 -27 -10 -60z"/>
<path d="M3773 5180 c0 -36 2 -50 4 -32 4 28 8 32 34 32 24 0 29 -4 29 -25 0
-14 5 -25 10 -25 6 0 10 25 10 55 0 30 -4 55 -10 55 -5 0 -10 -11 -10 -25 0
-21 -5 -25 -29 -25 -25 0 -30 5 -34 28 -2 15 -4 -2 -4 -38z"/>
<path d="M3902 5208 c-7 -7 -12 -27 -12 -44 0 -41 33 -56 59 -28 15 17 15 17
-1 5 -21 -16 -48 -8 -48 14 0 10 10 15 30 15 35 0 41 23 11 40 -24 13 -24 13
-39 -2z m48 -19 c0 -5 -11 -9 -25 -9 -26 0 -34 15 -12 23 16 5 37 -3 37 -14z"/>
<path d="M3999 5203 c-13 -15 -12 -15 7 -5 17 9 24 9 33 -2 9 -11 5 -15 -19
-19 -21 -5 -30 -12 -30 -26 0 -26 13 -33 45 -25 20 5 25 12 25 38 0 51 -34 73
-61 39z m45 -42 c9 -15 -23 -36 -36 -23 -5 5 -7 15 -4 21 9 13 33 14 40 2z"/>
<path d="M4204 5205 c-10 -8 -14 -15 -7 -15 6 0 14 4 18 10 6 10 35 2 35 -10
0 -5 -8 -11 -17 -13 -17 -4 -17 -5 0 -6 21 -1 22 -14 2 -31 -17 -14 -39 -4
-31 16 3 8 1 14 -4 14 -13 0 -13 -37 0 -45 5 -3 21 -3 35 1 21 5 25 12 25 44
0 25 -5 40 -16 44 -20 8 -17 8 -40 -9z"/>
<path d="M4306 5207 c-22 -16 -18 -65 6 -81 14 -8 21 -6 35 9 14 14 14 16 2 7
-22 -17 -49 -5 -49 22 0 33 19 47 44 34 19 -10 20 -10 7 5 -16 20 -22 21 -45
4z"/>
<path d="M4503 5212 c-12 -8 -18 -31 -15 -64 3 -26 41 -33 61 -12 15 17 15 17
-1 5 -21 -16 -48 -8 -48 14 0 10 10 15 30 15 35 0 41 23 11 40 -23 12 -23 12
-38 2z m28 -30 c-28 -4 -40 6 -21 18 9 6 20 4 29 -3 12 -10 11 -13 -8 -15z"/>
<path d="M3424 4787 c-3 -8 -4 -49 -2 -93 l3 -79 95 0 95 0 0 90 0 90 -93 3
c-71 2 -94 0 -98 -11z m176 -82 l0 -85 -80 0 -80 0 0 85 0 85 80 0 80 0 0 -85z"/>
<path d="M4413 4715 c0 -38 2 -53 4 -32 2 20 2 52 0 70 -2 17 -4 1 -4 -38z"/>
<path d="M3772 4708 c2 -61 2 -61 6 -13 l4 50 23 -50 23 -50 18 43 c9 23 21
42 25 42 4 0 10 -19 12 -42 3 -34 4 -30 5 20 2 73 -18 86 -37 22 -16 -55 -27
-57 -43 -8 -22 66 -38 60 -36 -14z"/>
<path d="M4502 4743 c-7 -7 -8 -13 -3 -13 5 0 11 -17 13 -37 2 -20 9 -38 16
-39 7 -1 8 0 2 3 -12 6 -13 70 -1 75 5 2 4 8 -3 14 -8 8 -15 7 -24 -3z"/>
<path d="M4940 4745 c-7 -9 -8 -15 0 -20 5 -3 10 -22 10 -41 0 -26 4 -34 18
-33 10 0 12 3 5 6 -15 5 -18 70 -4 75 5 2 3 8 -4 15 -10 10 -16 9 -25 -2z"/>
<path d="M3924 4700 c1 -44 2 -45 34 -46 32 -1 32 -1 31 45 l-2 46 -6 -40 c-5
-31 -10 -40 -26 -40 -16 0 -21 9 -26 40 l-7 40 2 -45z"/>
<path d="M4032 4728 c-14 -14 -16 -47 -3 -66 10 -17 53 -12 57 6 1 7 0 8 -3 2
-8 -16 -40 -12 -47 6 -10 25 3 54 24 54 10 0 21 -5 23 -10 3 -6 4 -5 3 2 -3
18 -38 22 -54 6z"/>
<path d="M4124 4727 c-3 -9 -4 -28 -2 -44 3 -24 7 -28 33 -28 28 0 30 2 30 40
0 36 -3 40 -28 43 -17 2 -29 -2 -33 -11z m51 -32 c0 -23 -4 -30 -20 -30 -21 0
-31 25 -21 51 11 28 41 12 41 -21z"/>
<path d="M4224 4725 c-8 -20 4 -35 27 -35 11 0 19 -7 19 -16 0 -12 -7 -15 -25
-12 -14 3 -25 1 -25 -3 0 -15 58 -10 63 5 6 15 -6 29 -35 39 -28 10 -22 30 7
25 13 -3 22 -1 19 3 -9 14 -44 10 -50 -6z"/>
<path d="M4316 4731 c-4 -6 5 -9 20 -8 36 3 43 -21 7 -25 -20 -2 -29 -9 -31
-26 -3 -20 0 -22 33 -20 36 2 36 3 33 43 -3 35 -6 40 -30 43 -14 2 -29 -1 -32
-7z m48 -56 c-4 -8 -15 -15 -25 -15 -10 0 -19 7 -19 15 0 9 9 15 25 15 18 0
23 -4 19 -15z"/>
<path d="M4569 4719 c-18 -34 4 -71 38 -67 30 3 39 23 29 64 -8 31 -50 33 -67
3z m56 -24 c0 -23 -5 -31 -22 -33 -20 -3 -23 1 -23 33 0 32 3 36 23 33 17 -2
22 -10 22 -33z"/>
<path d="M4671 4717 c10 -21 10 -30 1 -39 -7 -7 -12 -17 -12 -22 0 -6 8 -2 16
9 15 20 15 20 30 1 7 -11 16 -17 19 -15 3 3 -1 14 -9 24 -12 16 -11 23 2 45
16 25 16 25 -4 8 -19 -17 -21 -17 -38 0 -17 16 -17 16 -5 -11z"/>
<path d="M4763 4695 c0 -27 2 -38 4 -22 2 15 2 37 0 50 -2 12 -4 0 -4 -28z"/>
<path d="M4804 4727 c-3 -9 -4 -28 -2 -44 2 -24 8 -28 32 -28 17 0 31 6 34 15
5 13 3 13 -11 1 -23 -19 -47 -7 -47 24 0 31 24 43 47 24 14 -12 16 -12 11 1
-6 20 -56 26 -64 7z"/>
<path d="M4903 4695 c0 -27 2 -38 4 -22 2 15 2 37 0 50 -2 12 -4 0 -4 -28z"/>
<path d="M5003 4695 c0 -27 2 -38 4 -22 2 15 2 37 0 50 -2 12 -4 0 -4 -28z"/>
<path d="M5052 4728 c-29 -29 -7 -78 35 -78 13 0 23 4 23 9 0 4 -11 6 -24 4
-15 -3 -25 1 -29 11 -5 13 1 16 28 16 22 0 35 5 35 13 0 18 -21 37 -40 37 -9
0 -21 -5 -28 -12z m48 -13 c0 -8 -9 -15 -20 -15 -11 0 -20 7 -20 15 0 8 9 15
20 15 11 0 20 -7 20 -15z"/>
<path d="M5145 4730 c-9 -14 3 -30 31 -40 37 -14 30 -34 -8 -26 -24 5 -29 3
-21 -5 6 -6 21 -9 34 -7 32 4 33 42 2 46 -13 2 -23 10 -23 19 0 11 6 14 26 9
17 -5 23 -3 19 4 -8 13 -52 13 -60 0z"/>
<path d="M3424 4317 c-2 -8 -4 -52 -2 -98 l3 -84 95 0 95 0 0 95 0 95 -93 3
c-71 2 -94 0 -98 -11z m176 -87 l0 -80 -80 0 -80 0 0 80 0 80 80 0 80 0 0 -80z"/>
<path d="M3771 4233 c1 -32 4 -48 6 -35 3 15 12 22 26 22 33 0 49 15 45 41 -2
20 -10 25 -40 27 l-38 3 1 -58z m66 31 c7 -18 -12 -34 -39 -34 -13 0 -18 8
-18 25 0 20 5 25 25 25 14 0 28 -7 32 -16z"/>
<path d="M4270 4238 c0 -49 3 -58 18 -58 14 0 14 2 3 9 -10 6 -12 20 -8 43 3
19 1 41 -4 49 -6 9 -9 -6 -9 -43z"/>
<path d="M4538 4277 c-13 -31 -9 -75 8 -92 9 -9 19 -13 22 -10 4 3 1 9 -5 13
-7 4 -13 30 -15 57 -2 34 -5 44 -10 32z"/>
<path d="M5028 4280 c-8 -25 7 -93 22 -98 13 -5 13 -3 1 11 -8 10 -11 28 -8
45 6 30 -7 66 -15 42z"/>
<path d="M3893 4263 c-7 -2 -13 -22 -13 -43 0 -31 4 -40 21 -45 14 -5 27 -1
38 10 15 16 15 17 -7 6 -25 -13 -42 -7 -42 15 0 9 11 14 30 14 35 0 41 23 11
40 -11 5 -21 10 -23 9 -2 0 -9 -3 -15 -6z m37 -18 c11 -13 8 -15 -14 -15 -25
0 -33 10 -19 23 10 11 19 8 33 -8z"/>
<path d="M3998 4262 c-14 -3 -18 -13 -17 -45 2 -34 3 -36 6 -12 2 17 12 36 20
42 19 15 15 21 -9 15z"/>
<path d="M4051 4261 c-17 -11 -7 -41 12 -41 8 0 20 -7 27 -15 10 -12 9 -16 -4
-21 -9 -3 -23 -1 -31 6 -9 8 -15 8 -15 2 0 -20 41 -25 59 -7 15 15 15 17 -3
31 -11 8 -26 14 -33 14 -7 0 -13 4 -13 9 0 18 21 23 37 9 14 -11 15 -11 11 2
-6 18 -28 23 -47 11z"/>
<path d="M4193 4263 c-23 -9 -14 -40 12 -47 14 -4 25 -11 25 -16 0 -16 -21
-22 -36 -9 -8 6 -17 10 -19 7 -11 -11 25 -29 45 -23 29 9 26 43 -5 51 -14 3
-25 10 -25 14 0 16 21 22 35 10 9 -7 15 -8 15 -2 0 8 -26 25 -33 21 -1 0 -8
-3 -14 -6z"/>
<path d="M4343 4263 c-7 -2 -13 -22 -13 -43 0 -29 5 -40 19 -45 22 -7 51 3 51
17 0 6 -6 5 -15 -2 -18 -15 -45 -6 -45 15 0 10 10 15 30 15 31 0 39 17 18 38
-13 13 -24 14 -45 5z m45 -20 c2 -8 -6 -13 -22 -13 -25 0 -33 10 -19 24 10 10
36 3 41 -11z"/>
<path d="M4448 4263 c-14 -3 -18 -14 -16 -46 1 -36 2 -37 5 -10 5 35 29 62 43
47 5 -5 10 -25 13 -44 4 -34 4 -34 5 6 2 30 -3 44 -14 48 -9 3 -16 5 -17 5 -1
-1 -10 -3 -19 -6z"/>
<path d="M4736 4254 c-9 -8 -16 -24 -16 -34 0 -17 24 -50 36 -50 22 0 44 25
44 50 0 19 -7 33 -19 40 -25 13 -27 13 -45 -6z m48 -17 c12 -18 0 -47 -22 -55
-17 -5 -32 39 -20 61 11 21 27 18 42 -6z"/>
<path d="M4848 4262 c-14 -3 -18 -13 -17 -45 2 -34 3 -37 6 -12 9 62 43 69 43
9 0 -19 5 -34 10 -34 6 0 10 16 10 35 0 19 5 35 10 35 6 0 13 0 18 0 4 1 10
-16 13 -37 l6 -38 2 43 c0 23 -2 42 -6 43 -55 4 -81 4 -95 1z"/>
<path d="M5158 4263 c-14 -3 -18 -14 -16 -46 1 -36 2 -37 5 -10 8 64 46 62 56
-2 4 -29 4 -28 6 6 1 31 -13 61 -28 58 -4 -1 -14 -3 -23 -6z"/>
<path d="M5254 4262 c-36 -25 -19 -87 22 -79 19 3 24 1 22 -12 -2 -10 -13 -16
-31 -16 -16 1 -23 -3 -18 -8 5 -5 21 -7 35 -3 24 6 26 11 26 61 0 30 -4 55 -9
55 -5 0 -15 2 -23 5 -7 3 -18 1 -24 -3z m36 -17 c16 -19 3 -55 -21 -55 -14 0
-19 7 -19 28 0 43 17 54 40 27z"/>
<path d="M4133 4220 c0 -25 2 -35 4 -22 2 12 2 32 0 45 -2 12 -4 2 -4 -23z"/>
<path d="M4630 4256 c0 -13 32 -76 38 -76 10 0 36 69 29 76 -3 3 -10 -10 -17
-28 l-12 -33 -14 33 c-12 27 -24 42 -24 28z"/>
<path d="M4980 4220 c0 -22 5 -40 10 -40 6 0 10 18 10 40 0 22 -4 40 -10 40
-5 0 -10 -18 -10 -40z"/>
<path d="M5093 4220 c0 -25 2 -35 4 -22 2 12 2 32 0 45 -2 12 -4 2 -4 -23z"/>
<path d="M3424 3837 c-3 -8 -4 -49 -2 -93 l3 -79 95 0 95 0 0 90 0 90 -93 3
c-71 2 -94 0 -98 -11z m176 -82 l0 -85 -80 0 -80 0 0 85 0 85 80 0 80 0 0 -85z"/>
<path d="M4163 3765 c0 -54 1 -61 6 -30 5 31 10 40 26 40 16 0 21 -9 26 -40
l7 -40 -2 45 c-1 41 -3 45 -26 45 -18 0 -27 7 -31 25 -4 14 -7 -6 -6 -45z"/>
<path d="M3770 3760 c0 -57 1 -60 24 -60 46 0 56 10 56 54 0 49 -13 66 -52 66
-28 0 -28 -1 -28 -60z m54 44 c16 -6 21 -48 10 -78 -3 -9 -17 -16 -30 -16 -22
0 -24 4 -24 50 0 51 7 58 44 44z"/>
<path d="M3880 3745 c0 -25 5 -45 10 -45 6 0 10 20 10 45 0 25 -4 45 -10 45
-5 0 -10 -20 -10 -45z"/>
<path d="M3936 3782 c-3 -5 6 -7 19 -4 18 3 25 0 25 -11 0 -10 -11 -17 -27
-19 -20 -2 -28 -9 -28 -23 0 -16 7 -20 33 -21 33 -1 33 0 30 40 -2 33 -7 42
-25 44 -11 2 -24 -1 -27 -6z m44 -51 c0 -6 -5 -13 -10 -16 -15 -9 -43 3 -35
15 8 13 45 13 45 1z"/>
<path d="M4032 3740 c1 -40 2 -41 5 -10 2 19 11 40 20 47 13 10 13 12 -6 10
-18 -1 -21 -7 -19 -47z"/>
<path d="M4090 3743 c0 -24 5 -43 10 -43 6 0 10 16 10 35 0 22 6 37 17 44 14
7 12 9 -10 8 -25 -2 -27 -5 -27 -44z"/>
<path d="M4264 3776 c-3 -8 -4 -27 -2 -43 2 -21 9 -29 27 -31 13 -2 28 1 34 7
8 8 3 10 -21 5 -25 -5 -32 -3 -32 10 0 11 9 16 30 16 31 0 35 6 24 34 -8 20
-53 21 -60 2z m54 -13 c2 -8 -6 -13 -22 -13 -17 0 -26 5 -26 16 0 19 41 16 48
-3z"/>
<path d="M4366 3781 c-3 -4 6 -6 19 -3 18 3 25 0 25 -11 0 -9 -10 -17 -22 -19
-15 -2 -24 -11 -26 -26 -3 -20 0 -22 32 -20 32 2 36 5 36 29 0 15 -3 34 -6 43
-6 17 -49 22 -58 7z m48 -56 c-4 -8 -15 -15 -25 -15 -10 0 -19 7 -19 15 0 9 9
15 25 15 18 0 23 -4 19 -15z"/>
<path d="M3424 3367 c-2 -8 -4 -52 -2 -98 l3 -84 95 0 95 0 0 95 0 95 -93 3
c-71 2 -94 0 -98 -11z m176 -87 l0 -80 -80 0 -80 0 0 80 0 80 80 0 80 0 0 -80z"/>
<path d="M3880 3290 c0 -33 4 -60 10 -60 6 0 10 27 10 60 0 33 -4 60 -10 60
-6 0 -10 -27 -10 -60z"/>
<path d="M4190 3330 c0 -17 -5 -19 -24 -14 -29 7 -51 -25 -42 -61 7 -26 25
-36 55 -28 18 5 21 13 21 64 0 33 -2 59 -5 59 -3 0 -5 -9 -5 -20z m-12 -32
c18 -18 15 -46 -7 -57 -23 -13 -31 -5 -31 29 0 39 15 51 38 28z"/>
<path d="M3770 3286 l0 -56 40 0 40 0 -3 53 -2 52 -38 3 -37 3 0 -55z m65 24
c0 -9 -11 -16 -27 -18 -23 -3 -28 1 -28 18 0 17 5 21 28 18 16 -2 27 -9 27
-18z m3 -52 c3 -14 -3 -18 -27 -18 -25 0 -31 4 -31 21 0 16 5 20 27 17 17 -2
29 -10 31 -20z"/>
<path d="M3943 3312 c-23 -14 -21 -77 3 -86 16 -6 60 12 50 21 -3 3 -12 0 -20
-6 -17 -15 -36 -7 -36 15 0 9 11 14 30 14 35 0 41 23 11 40 -23 12 -23 12 -38
2z m37 -17 c11 -13 8 -15 -14 -15 -25 0 -33 10 -19 23 10 11 19 8 33 -8z"/>
<path d="M4043 3313 c-7 -2 -13 -22 -13 -43 0 -31 4 -40 21 -45 14 -5 27 -1
38 10 15 16 15 17 -4 8 -24 -12 -45 -6 -45 13 0 9 11 14 30 14 31 0 39 17 18
38 -13 13 -24 14 -45 5z m31 -9 c25 -9 19 -24 -9 -24 -24 0 -32 10 -18 23 8 8
8 8 27 1z"/>
<path d="M4298 3313 c-14 -3 -18 -14 -17 -46 l2 -42 6 35 c4 26 12 36 29 38
19 3 22 -1 24 -35 1 -38 1 -38 5 -5 4 30 -10 64 -26 61 -3 -1 -14 -3 -23 -6z"/>
<path d="M4392 3311 c-8 -5 -12 -22 -10 -42 3 -30 6 -34 31 -34 20 1 27 -4 24
-15 -2 -10 -12 -14 -31 -13 -21 2 -26 -1 -18 -9 6 -6 22 -8 36 -4 24 6 26 11
26 61 0 30 -4 55 -9 55 -5 0 -15 2 -23 5 -7 3 -19 1 -26 -4z m38 -16 c17 -20
8 -50 -15 -50 -20 0 -31 25 -21 51 7 18 20 18 36 -1z"/>
<path d="M4230 3270 c0 -22 5 -40 10 -40 6 0 10 18 10 40 0 22 -4 40 -10 40
-5 0 -10 -18 -10 -40z"/>
<path d="M3424 2887 c-3 -8 -4 -49 -2 -93 l3 -79 95 0 95 0 0 90 0 90 -93 3
c-71 2 -94 0 -98 -11z m176 -82 l0 -85 -80 0 -80 0 0 85 0 85 80 0 80 0 0 -85z"/>
<path d="M4143 2805 c-17 -41 -27 -75 -23 -75 8 0 63 140 57 146 -2 2 -17 -30
-34 -71z"/>
<path d="M4550 2815 c0 -69 17 -90 22 -28 2 27 8 39 21 41 14 3 17 -4 17 -39
0 -32 3 -40 11 -32 7 7 9 25 5 48 -6 33 -10 37 -32 32 -20 -3 -24 0 -24 19 0
13 -4 24 -10 24 -6 0 -10 -28 -10 -65z"/>
<path d="M5173 2815 c0 -38 2 -56 4 -38 5 35 29 62 43 47 5 -5 11 -25 13 -44
3 -27 4 -25 3 10 -1 41 -3 45 -26 45 -18 0 -27 7 -31 25 -4 14 -6 -6 -6 -45z"/>
<path d="M3772 2808 l1 -63 6 50 6 50 28 -47 c16 -27 33 -48 38 -48 5 0 9 27
9 60 0 68 -17 82 -22 18 l-3 -43 -24 43 c-14 23 -28 42 -33 42 -4 0 -7 -28 -6
-62z"/>
<path d="M4206 2862 c-8 -14 -5 -102 5 -108 5 -3 9 8 9 25 0 25 5 30 28 34
l27 4 -27 2 c-21 1 -28 6 -28 20 0 15 8 21 33 24 l32 4 -37 1 c-20 1 -39 -1
-42 -6z"/>
<path d="M4711 2808 c1 -35 4 -51 6 -36 3 22 10 27 36 30 57 5 44 68 -14 68
l-29 0 1 -62z m63 36 c9 -22 -1 -34 -30 -34 -19 0 -24 5 -24 25 0 20 5 25 24
25 13 0 27 -7 30 -16z"/>
<path d="M4912 2843 c-7 -7 -8 -13 -3 -13 5 0 11 -17 13 -37 2 -22 9 -38 18
-41 12 -4 13 -2 3 9 -15 15 -17 66 -4 71 5 2 4 8 -3 14 -8 8 -15 7 -24 -3z"/>
<path d="M3894 2827 c-3 -9 -4 -28 -2 -44 2 -21 9 -29 27 -31 13 -2 28 1 34 7
7 7 2 10 -18 8 -15 -1 -30 4 -32 11 -3 8 6 12 27 12 27 0 31 3 28 23 -4 27
-54 38 -64 14z m54 -14 c2 -8 -6 -13 -22 -13 -25 0 -33 10 -19 24 10 10 36 3
41 -11z"/>
<path d="M3981 2836 c-2 -17 22 -86 30 -86 4 0 13 15 19 33 l13 32 10 -32 c5
-18 13 -33 18 -33 4 0 14 20 22 45 9 25 12 45 8 45 -5 0 -13 -15 -18 -32 l-10
-33 -13 33 c-13 35 -30 43 -30 15 0 -10 -4 -24 -9 -32 -7 -11 -13 -7 -24 20
-9 19 -16 30 -16 25z"/>
<path d="M4302 2790 c1 -36 2 -39 5 -13 3 19 14 39 26 48 22 15 22 15 -6 13
-25 -2 -27 -5 -25 -48z"/>
<path d="M4364 2813 c-4 -14 -2 -33 3 -42 12 -19 41 -27 54 -14 5 5 -2 9 -18
8 -14 0 -28 6 -30 13 -3 8 6 12 25 12 36 0 44 8 31 31 -15 30 -57 25 -65 -8z
m56 2 c0 -16 -35 -21 -44 -6 -8 12 4 21 26 21 10 0 18 -7 18 -15z"/>
<path d="M4467 2833 c-15 -14 -5 -32 24 -42 37 -13 29 -36 -10 -26 -19 5 -23
4 -15 -5 7 -6 22 -10 35 -8 32 4 33 40 1 48 -31 7 -28 26 4 23 13 -1 22 2 19
8 -7 10 -48 12 -58 2z"/>
<path d="M4814 2816 c-8 -34 12 -66 41 -66 14 0 25 4 25 9 0 4 -11 6 -25 3
-18 -3 -25 0 -25 12 0 11 9 16 30 16 31 0 39 17 18 38 -21 21 -57 14 -64 -12z
m56 -1 c0 -8 -9 -15 -20 -15 -11 0 -20 7 -20 15 0 8 9 15 20 15 11 0 20 -7 20
-15z"/>
<path d="M4979 2819 c-16 -31 3 -69 35 -69 14 0 27 4 31 9 3 6 -7 9 -21 8 -15
-1 -29 4 -31 11 -3 8 6 12 26 12 31 0 36 6 25 34 -9 23 -51 20 -65 -5z m56 -4
c0 -5 -10 -11 -22 -13 -16 -2 -23 2 -23 13 0 11 7 15 23 13 12 -2 22 -7 22
-13z"/>
<path d="M5082 2828 c-16 -16 -15 -53 3 -68 17 -14 47 -10 51 8 1 7 0 8 -3 2
-2 -5 -13 -10 -23 -10 -21 0 -34 29 -24 54 7 18 39 22 47 6 3 -6 4 -5 3 2 -3
18 -38 22 -54 6z"/>
<path d="M5270 2795 c0 -25 5 -45 10 -45 6 0 10 20 10 45 0 25 -4 45 -10 45
-5 0 -10 -20 -10 -45z"/>
<path d="M5320 2832 c0 -5 11 -7 25 -4 18 3 25 0 25 -11 0 -10 -11 -17 -27
-19 -20 -2 -28 -9 -28 -23 0 -16 7 -20 33 -21 33 -1 33 0 30 40 -3 36 -6 41
-30 44 -16 2 -28 -1 -28 -6z m50 -51 c0 -6 -5 -13 -10 -16 -15 -9 -43 3 -35
15 8 13 45 13 45 1z"/>
<path d="M5414 2813 c-4 -14 -2 -33 3 -42 12 -19 42 -26 55 -13 6 6 1 8 -15 5
-16 -3 -26 1 -30 11 -5 12 0 16 23 16 34 0 47 15 30 35 -21 25 -59 19 -66 -12z
m56 2 c0 -16 -35 -21 -44 -6 -8 12 4 21 26 21 10 0 18 -7 18 -15z"/>
<path d="M3424 2417 c-2 -8 -4 -52 -2 -98 l3 -84 95 0 95 0 0 95 0 95 -93 3
c-71 2 -94 0 -98 -11z m176 -87 l0 -80 -80 0 -80 0 0 80 0 80 80 0 80 0 0 -80z"/>
<path d="M3776 2384 c-27 -26 -17 -99 14 -109 22 -7 47 2 54 21 5 12 2 12 -17
-1 -31 -20 -51 -5 -51 40 0 45 20 60 51 39 13 -8 23 -10 23 -5 0 11 -32 31
-49 31 -5 0 -17 -7 -25 -16z"/>
<path d="M4751 2344 c-1 -55 1 -62 20 -67 44 -12 67 22 48 70 -7 20 -14 24
-33 19 -20 -5 -25 -2 -29 16 -2 13 -5 -5 -6 -38z m57 -18 c4 -36 -12 -54 -33
-36 -18 15 -20 41 -3 58 18 18 33 9 36 -22z"/>
<path d="M5020 2379 c0 -16 -4 -19 -20 -14 -28 9 -50 -11 -50 -45 0 -35 21
-53 54 -44 24 6 26 10 26 65 0 32 -2 59 -5 59 -3 0 -5 -9 -5 -21z m-10 -34
c14 -17 5 -51 -16 -59 -22 -8 -41 38 -24 59 16 19 24 19 40 0z"/>
<path d="M5190 2341 c0 -56 1 -59 28 -64 34 -7 52 8 52 43 0 32 -23 55 -45 46
-10 -4 -15 1 -15 14 0 11 -4 20 -10 20 -6 0 -10 -26 -10 -59z m70 -20 c0 -23
-19 -41 -36 -34 -17 6 -18 60 -1 66 16 6 37 -12 37 -32z"/>
<path d="M3871 2369 c-1 -3 6 -27 15 -52 14 -40 14 -50 3 -65 -13 -15 -12 -16
3 -4 17 14 54 109 45 118 -3 3 -11 -12 -18 -33 l-12 -38 -18 40 c-10 22 -18
37 -18 34z"/>
<path d="M3973 2363 c-7 -2 -13 -9 -13 -15 0 -6 6 -5 16 2 12 11 18 11 30 -2
14 -14 12 -16 -15 -21 -34 -7 -44 -40 -15 -51 14 -5 15 -4 4 9 -16 20 1 41 25
31 14 -5 15 -9 5 -21 -10 -12 -9 -15 4 -15 11 0 16 9 16 33 0 46 -21 65 -57
50z"/>
<path d="M4062 2320 c1 -36 2 -39 5 -13 3 19 12 37 24 43 21 12 25 7 32 -45 3
-16 4 -10 3 15 -1 44 -2 45 -33 45 -33 1 -33 0 -31 -45z"/>
<path d="M4172 2358 c-7 -7 -12 -24 -12 -40 0 -30 28 -52 54 -42 22 8 22 80 0
88 -22 8 -28 8 -42 -6z m46 -33 c4 -29 -12 -47 -35 -38 -17 6 -17 60 0 66 22
9 32 1 35 -28z"/>
<path d="M4267 2364 c-15 -15 -7 -44 12 -44 24 0 37 -18 23 -32 -8 -8 -16 -7
-27 2 -8 7 -15 8 -15 2 0 -16 30 -23 51 -12 27 15 24 30 -11 43 -16 6 -30 15
-30 19 0 15 22 19 37 6 14 -11 16 -11 11 2 -5 16 -39 25 -51 14z"/>
<path d="M4402 2358 c-19 -19 -15 -28 18 -39 17 -6 30 -15 30 -19 0 -17 -20
-21 -42 -9 -22 11 -22 10 -7 -6 11 -11 24 -15 38 -10 30 9 27 43 -4 51 -26 6
-32 18 -15 29 6 4 18 1 27 -7 14 -11 16 -11 11 2 -6 19 -40 24 -56 8z"/>
<path d="M4546 2354 c-9 -8 -16 -24 -16 -34 0 -17 24 -50 36 -50 22 0 44 25
44 48 0 48 -34 67 -64 36z m48 -17 c8 -12 8 -22 0 -34 -16 -25 -38 -22 -42 5
-7 50 18 67 42 29z"/>
<path d="M4653 2363 c-8 -3 -12 -21 -11 -46 1 -38 2 -39 5 -9 3 18 11 36 19
39 8 3 14 9 14 14 0 10 -8 10 -27 2z"/>
<path d="M4862 2358 c-7 -7 -12 -24 -12 -40 0 -50 64 -61 76 -13 12 47 -33 84
-64 53z m48 -18 c11 -20 -1 -60 -18 -60 -14 0 -32 23 -32 40 0 17 18 40 32 40
4 0 12 -9 18 -20z"/>
<path d="M5050 2365 c0 -2 7 -23 17 -46 13 -34 14 -45 4 -61 -10 -16 -10 -19
0 -16 13 4 53 108 44 116 -2 2 -7 -7 -11 -22 -8 -34 -20 -33 -33 4 -8 26 -21
40 -21 25z"/>
<path d="M5302 2320 c1 -37 2 -39 5 -12 3 18 11 36 19 39 21 8 17 19 -6 19
-17 0 -20 -6 -18 -46z"/>
<path d="M5420 2336 c0 -66 -43 -67 -53 -1 -4 28 -4 28 -6 -6 -1 -42 15 -61
47 -52 18 4 22 12 22 49 0 24 -2 44 -5 44 -3 0 -5 -15 -5 -34z"/>
<path d="M5473 2325 c0 -27 2 -38 4 -22 2 15 2 37 0 50 -2 12 -4 0 -4 -28z"/>
<path d="M5517 2364 c-14 -15 -6 -35 18 -44 14 -5 25 -14 25 -19 0 -17 -20
-23 -35 -11 -10 8 -15 9 -15 2 0 -20 41 -25 59 -7 15 15 15 17 -3 31 -11 8
-26 14 -33 14 -7 0 -13 4 -13 9 0 18 21 23 37 9 14 -11 16 -11 11 2 -5 16 -39
25 -51 14z"/>
<path d="M5652 2320 c1 -35 2 -38 5 -13 5 35 29 62 43 47 5 -5 11 -25 13 -44
3 -27 4 -25 3 10 -1 44 -2 45 -33 45 -33 1 -33 0 -31 -45z"/>
<path d="M5754 2356 c-3 -8 -4 -27 -2 -43 2 -23 8 -28 31 -28 20 1 27 -4 24
-15 -2 -10 -12 -14 -31 -13 -20 2 -26 -1 -19 -8 6 -6 21 -9 34 -7 22 3 24 9
27 59 3 52 1 57 -20 63 -33 8 -38 8 -44 -8z m46 -11 c17 -20 8 -50 -15 -50
-20 0 -31 25 -21 51 7 18 20 18 36 -1z"/>
<path d="M4350 2320 c0 -22 5 -40 10 -40 6 0 10 18 10 40 0 22 -4 40 -10 40
-5 0 -10 -18 -10 -40z"/>
<path d="M5600 2320 c0 -22 5 -40 10 -40 6 0 10 18 10 40 0 22 -4 40 -10 40
-5 0 -10 -18 -10 -40z"/>
<path d="M3424 1937 c-3 -8 -4 -49 -2 -93 l3 -79 95 0 95 0 0 90 0 90 -93 3
c-71 2 -94 0 -98 -11z m176 -82 l0 -85 -80 0 -80 0 0 85 0 85 80 0 80 0 0 -85z"/>
<path d="M4793 1865 c0 -38 2 -56 4 -38 5 35 29 62 43 47 5 -5 11 -25 13 -44
3 -27 4 -25 3 10 -1 41 -3 45 -26 45 -18 0 -27 7 -31 25 -4 14 -6 -6 -6 -45z"/>
<path d="M5153 1865 c0 -38 2 -53 4 -32 2 20 2 52 0 70 -2 17 -4 1 -4 -38z"/>
<path d="M5410 1907 c0 -18 -5 -23 -27 -22 -26 0 -28 -3 -28 -40 0 -38 1 -40
33 -41 l32 -1 0 64 c0 34 -2 63 -5 63 -3 0 -5 -10 -5 -23z m-5 -62 c0 -23 -4
-30 -20 -30 -21 0 -31 25 -21 51 11 28 41 12 41 -21z"/>
<path d="M3767 1914 c-18 -18 -5 -45 28 -58 19 -8 35 -20 35 -26 0 -18 -31
-24 -52 -11 -16 10 -19 10 -16 -1 7 -21 67 -23 75 -2 8 22 -9 47 -37 54 -13 3
-25 11 -28 18 -6 18 28 27 50 13 16 -10 19 -10 16 1 -5 14 -59 23 -71 12z"/>
<path d="M4360 1859 c0 -37 4 -58 10 -54 6 3 10 15 10 25 0 13 8 20 26 22 63
7 51 68 -12 68 l-34 0 0 -61z m65 26 c0 -13 -8 -21 -22 -23 -19 -3 -23 1 -23
23 0 22 4 26 23 23 14 -2 22 -10 22 -23z"/>
<path d="M5250 1860 l0 -60 43 2 42 1 -37 4 c-32 4 -38 8 -38 28 0 18 6 25 28
28 l27 4 -27 2 c-21 1 -28 6 -28 20 0 15 8 21 33 24 31 4 31 4 -5 5 l-38 2 0
-60z"/>
<path d="M3870 1874 c-21 -24 -1 -68 33 -72 15 -2 27 1 27 6 0 5 -11 7 -25 4
-18 -3 -25 0 -25 12 0 11 9 16 30 16 31 0 35 6 24 34 -8 20 -48 21 -64 0z m55
-9 c0 -5 -10 -11 -22 -13 -16 -2 -23 2 -23 13 0 11 7 15 23 13 12 -2 22 -7 22
-13z"/>
<path d="M3965 1869 c15 -46 25 -69 30 -69 8 0 35 66 34 82 0 7 -8 -5 -18 -27
l-18 -40 -7 32 c-4 18 -12 36 -18 39 -7 4 -8 -2 -3 -17z"/>
<path d="M4054 1877 c-3 -9 -4 -28 -2 -44 2 -21 9 -29 27 -31 13 -2 28 1 34 7
7 7 2 10 -18 8 -15 -1 -30 4 -32 11 -3 8 6 12 27 12 27 0 31 3 28 23 -4 27
-54 38 -64 14z m54 -14 c2 -8 -6 -13 -22 -13 -25 0 -33 10 -19 24 10 10 36 3
41 -11z"/>
<path d="M4151 1840 c2 -34 3 -37 6 -15 3 17 12 38 20 47 14 15 13 17 -6 15
-18 -1 -21 -7 -20 -47z"/>
<path d="M4219 1869 c-16 -31 3 -69 35 -69 14 0 27 4 31 9 3 6 -7 9 -21 8 -15
-1 -29 4 -31 11 -3 8 6 12 26 12 31 0 36 6 25 34 -9 23 -51 20 -65 -5z m56 -4
c0 -5 -10 -11 -22 -13 -16 -2 -23 2 -23 13 0 11 7 15 23 13 12 -2 22 -7 22
-13z"/>
<path d="M4474 1866 c-9 -38 4 -66 31 -66 13 0 26 4 29 8 2 4 -7 8 -21 7 -14
0 -28 6 -30 13 -3 8 6 12 27 12 27 0 31 3 28 23 -2 16 -11 23 -30 25 -22 3
-29 -2 -34 -22z m56 -1 c0 -9 -9 -15 -25 -15 -24 0 -32 10 -18 23 12 13 43 7
43 -8z"/>
<path d="M4572 1840 c1 -36 2 -39 5 -13 3 19 14 39 26 48 22 15 22 15 -6 13
-25 -2 -27 -5 -25 -48z"/>
<path d="M4643 1845 c0 -27 2 -38 4 -22 2 15 2 37 0 50 -2 12 -4 0 -4 -28z"/>
<path d="M4691 1826 c1 -34 4 -52 7 -41 5 13 16 20 32 20 23 0 25 4 25 40 0
38 -1 40 -32 41 l-33 1 1 -61z m54 19 c0 -23 -4 -30 -20 -30 -21 0 -31 25 -21
51 11 28 41 12 41 -21z"/>
<path d="M4894 1877 c-3 -9 -4 -28 -2 -44 2 -21 9 -29 27 -31 13 -2 28 1 34 7
7 7 2 10 -18 8 -15 -1 -30 4 -32 11 -3 8 6 12 27 12 27 0 31 3 28 23 -4 27
-54 38 -64 14z m54 -14 c2 -8 -6 -13 -22 -13 -25 0 -33 10 -19 24 10 10 36 3
41 -11z"/>
<path d="M4991 1840 c2 -34 3 -37 6 -15 3 17 12 38 20 47 14 15 13 17 -6 15
-18 -1 -21 -7 -20 -47z"/>
<path d="M5056 1881 c-4 -6 5 -9 20 -8 36 3 43 -21 7 -25 -20 -2 -28 -9 -28
-23 0 -16 7 -20 33 -21 33 -1 33 0 30 40 -3 36 -6 41 -30 44 -14 2 -29 -1 -32
-7z m52 -53 c-7 -20 -48 -23 -48 -4 0 11 9 16 26 16 16 0 24 -5 22 -12z"/>
<path d="M5462 1878 c-27 -27 -7 -78 29 -78 10 0 20 4 23 9 3 4 -6 6 -19 3
-18 -3 -25 0 -25 12 0 11 9 16 30 16 31 0 35 6 24 34 -7 19 -45 21 -62 4z m53
-13 c0 -5 -10 -11 -22 -13 -16 -2 -23 2 -23 13 0 11 7 15 23 13 12 -2 22 -7
22 -13z"/>
<path d="M5562 1841 c1 -45 1 -45 5 -8 7 66 51 60 54 -8 2 -26 3 -24 8 10 4
26 12 41 23 43 13 3 18 -6 21 -40 l4 -43 1 47 2 46 -60 -1 -60 -1 2 -45z"/>
<path d="M5716 1881 c-4 -6 4 -9 18 -8 35 3 37 -17 3 -21 -23 -3 -28 -8 -25
-25 2 -17 10 -22 36 -23 33 -1 33 0 30 40 -3 36 -6 41 -30 44 -14 2 -29 -1
-32 -7z m48 -56 c-4 -8 -15 -15 -25 -15 -10 0 -19 7 -19 15 0 9 9 15 25 15 18
0 23 -4 19 -15z"/>
<path d="M3427 1474 c-11 -11 -8 -102 3 -109 6 -4 10 13 10 44 l0 51 81 0 80
0 -3 -85 c-2 -64 0 -85 10 -85 10 0 12 22 10 93 l-3 92 -90 3 c-50 1 -94 0
-98 -4z"/>
<path d="M3769 1434 c-16 -20 -1 -46 31 -54 13 -3 25 -11 28 -18 6 -18 -28
-27 -49 -13 -11 6 -19 7 -19 1 0 -19 39 -31 61 -20 27 15 22 54 -8 58 -32 5
-47 26 -28 42 12 10 19 10 27 2 17 -17 33 -15 18 3 -16 20 -44 19 -61 -1z"/>
<path d="M4521 1373 c-17 -43 -27 -73 -21 -67 12 12 61 136 56 141 -2 2 -17
-31 -35 -74z"/>
<path d="M4631 1441 c-1 -8 -9 -20 -18 -26 -17 -13 -17 -14 0 -32 9 -11 17
-25 17 -31 0 -17 38 -34 60 -27 10 3 22 15 25 26 9 26 33 24 38 -3 l4 -23 2
23 c1 16 7 22 25 22 18 0 26 -7 29 -22 l4 -23 2 23 c0 12 7 22 15 22 8 0 17
-10 19 -22 l4 -23 2 23 c1 16 7 22 26 22 15 0 25 -6 25 -15 0 -8 9 -19 19 -25
21 -11 51 -4 51 12 0 6 -6 5 -15 -2 -12 -10 -18 -10 -30 0 -27 22 -16 30 44
30 62 0 91 -6 91 -20 0 -14 -32 -21 -46 -9 -9 8 -14 8 -14 1 0 -14 33 -24 54
-16 9 3 16 15 16 25 0 10 7 19 15 19 11 0 15 -12 16 -42 1 -25 4 -33 6 -20 3
15 10 22 19 18 22 -8 44 4 44 25 0 10 7 19 15 19 8 0 15 -7 15 -15 0 -18 34
-37 53 -29 8 3 17 14 20 25 7 26 25 24 30 -3 l4 -23 2 23 c1 16 7 22 25 22 18
0 26 -7 29 -22 l4 -23 2 23 c1 17 7 22 30 22 53 0 80 -21 45 -34 -9 -4 -23 -1
-30 5 -9 8 -14 8 -14 1 0 -17 39 -25 55 -12 8 7 15 19 15 26 0 23 28 16 33 -8
l4 -23 2 23 c1 28 37 30 44 2 3 -11 10 -20 15 -20 6 0 14 9 17 20 7 23 35 27
35 5 0 -8 9 -19 19 -25 21 -11 51 -4 51 12 0 6 -6 5 -15 -2 -12 -10 -18 -10
-30 0 -26 21 -17 30 30 30 38 0 47 -4 55 -22 l9 -23 0 23 c1 29 41 32 41 2 0
-11 5 -20 10 -20 6 0 10 9 10 20 0 25 17 26 25 1 3 -11 13 -22 21 -25 17 -6
59 12 50 21 -3 3 -12 0 -20 -6 -17 -15 -36 -7 -36 15 0 10 14 14 58 14 65 0
94 -12 75 -31 -9 -9 -16 -9 -28 1 -8 7 -18 11 -20 8 -3 -3 1 -11 9 -17 20 -17
56 -4 56 20 0 13 7 19 24 19 30 0 56 -9 56 -20 0 -14 -32 -21 -46 -9 -9 8 -14
8 -14 1 0 -6 9 -14 20 -17 23 -7 50 10 50 31 0 8 15 14 37 16 43 3 57 30 25
47 -14 7 -264 11 -765 11 -575 1 -747 3 -750 13 -4 8 -6 8 -6 -2z m69 -86 c0
-9 -9 -15 -25 -15 -16 0 -25 6 -25 15 0 9 9 15 25 15 16 0 25 -6 25 -15z m470
1 c0 -22 -19 -30 -35 -16 -22 18 -18 30 10 30 15 0 25 -6 25 -14z m100 0 c0
-19 -25 -27 -39 -13 -18 18 -13 27 14 27 15 0 25 -6 25 -14z m320 10 c0 -3 -4
-8 -10 -11 -5 -3 -10 -1 -10 4 0 6 5 11 10 11 6 0 10 -2 10 -4z"/>
<path d="M3876 1404 c-9 -8 -16 -24 -16 -34 0 -21 25 -50 44 -50 8 0 19 7 26
15 14 17 0 21 -17 4 -13 -13 -33 -4 -33 17 0 9 11 14 30 14 31 0 39 17 18 38
-16 16 -33 15 -52 -4z m44 -9 c11 -13 8 -15 -14 -15 -25 0 -33 10 -19 23 10
11 19 8 33 -8z"/>
<path d="M3973 1375 c0 -27 2 -38 4 -22 2 15 2 37 0 50 -2 12 -4 0 -4 -28z"/>
<path d="M4028 1413 c27 -5 28 -13 2 -46 -27 -34 -26 -37 13 -36 23 1 26 3 10
6 -28 5 -28 8 -3 40 28 35 25 43 -12 42 -24 -1 -27 -3 -10 -6z"/>
<path d="M4102 1378 c-2 -52 5 -62 43 -52 23 6 25 11 24 53 l-2 46 -6 -40 c-5
-31 -11 -41 -28 -43 -19 -3 -22 2 -26 40 l-4 43 -1 -47z"/>
<path d="M4218 1412 c-14 -2 -18 -13 -18 -43 0 -21 5 -39 10 -39 6 0 10 15 10
34 0 19 6 36 13 39 17 6 5 14 -15 9z"/>
<path d="M4270 1399 c-14 -26 -6 -65 16 -73 16 -6 60 12 50 21 -3 3 -12 0 -20
-6 -17 -15 -36 -7 -36 15 0 9 11 14 30 14 31 0 39 17 18 38 -18 18 -46 14 -58
-9z m48 -7 c2 -7 -6 -12 -17 -12 -21 0 -27 11 -14 24 9 9 26 2 31 -12z"/>
<path d="M4373 1413 c-23 -9 -13 -34 17 -44 17 -6 30 -15 30 -19 0 -14 -32
-21 -46 -9 -9 8 -14 8 -14 1 0 -19 41 -25 58 -9 13 13 13 19 2 31 -7 9 -21 16
-32 16 -11 0 -18 5 -15 13 2 6 13 12 25 11 12 0 19 3 16 8 -6 9 -22 9 -41 1z"/>
<path d="M6279 1287 c5 -5 30 -7 57 -5 l49 3 -57 5 c-31 3 -53 1 -49 -3z"/>
</g>
</svg>
