<?xml version="1.0" standalone="no"?>
<!DOCTYPE svg PUBLIC "-//W3C//DTD SVG 20010904//EN"
 "http://www.w3.org/TR/2001/REC-SVG-20010904/DTD/svg10.dtd">
<svg version="1.0" xmlns="http://www.w3.org/2000/svg"
 width="1120.000000pt" height="1294.000000pt" viewBox="0 0 1120.000000 1294.000000"
 preserveAspectRatio="xMidYMid meet">

<g transform="translate(0.000000,1294.000000) scale(0.100000,-0.100000)"
fill="#000000" stroke="none">
<path d="M3765 10584 c-21 -21 -13 -29 15 -14 15 8 25 9 32 2 13 -13 2 -32
-18 -32 -8 0 -14 -4 -14 -10 0 -5 9 -10 20 -10 13 0 20 -7 20 -20 0 -22 -29
-27 -48 -8 -17 17 -28 2 -12 -17 30 -36 107 -4 83 35 -7 10 -9 28 -6 40 4 16
0 27 -12 36 -25 18 -40 18 -60 -2z"/>
<path d="M3944 10583 c-20 -20 -2 -32 21 -13 16 14 35 5 35 -16 0 -8 -9 -14
-20 -14 -11 0 -20 -4 -20 -9 0 -5 9 -11 20 -14 11 -3 20 -12 20 -21 0 -19 -31
-21 -48 -4 -17 17 -28 2 -12 -17 30 -36 107 -4 83 35 -7 10 -9 28 -6 40 4 16
0 27 -12 36 -25 18 -40 18 -61 -3z"/>
<path d="M4065 10584 c-21 -21 -13 -29 14 -14 22 11 41 6 41 -11 0 -5 -16 -26
-35 -48 -19 -21 -35 -41 -35 -45 0 -3 20 -6 45 -6 25 0 45 5 45 10 0 6 -12 10
-26 10 l-26 0 26 31 c31 36 33 64 7 79 -27 14 -37 13 -56 -6z"/>
<path d="M6743 10584 c-18 -9 -33 -20 -33 -24 0 -16 14 -18 41 -5 36 19 80 19
105 0 25 -19 34 -19 34 1 0 17 -57 44 -92 44 -13 0 -38 -8 -55 -16z"/>
<path d="M3672 10578 c-18 -18 -15 -27 8 -21 18 5 20 0 20 -46 0 -28 5 -51 10
-51 6 0 10 28 10 65 0 56 -3 65 -18 65 -10 0 -23 -5 -30 -12z"/>
<path d="M3876 10573 c-11 -11 -6 -23 9 -23 8 0 15 4 15 9 0 13 -16 22 -24 14z"/>
<path d="M6754 10535 c-22 -17 -25 -16 49 -19 59 -3 72 5 38 24 -28 14 -64 12
-87 -5z"/>
<path d="M6464 10526 c-10 -25 0 -61 19 -64 14 -3 17 4 17 37 0 30 -4 41 -15
41 -9 0 -18 -6 -21 -14z"/>
<path d="M3876 10502 c-3 -6 -1 -14 5 -17 15 -10 25 3 12 16 -7 7 -13 7 -17 1z"/>
<path d="M6410 10485 c0 -16 6 -25 15 -25 9 0 15 9 15 25 0 16 -6 25 -15 25
-9 0 -15 -9 -15 -25z"/>
<path d="M6780 10493 c0 -5 4 -14 9 -22 8 -12 12 -12 25 -2 9 7 13 17 10 22
-6 11 -44 12 -44 2z"/>
<path d="M5170 10220 c0 -27 5 -50 10 -50 6 0 10 23 10 50 0 28 -4 50 -10 50
-5 0 -10 -22 -10 -50z"/>
<path d="M5793 10215 c0 -33 2 -45 4 -27 2 18 2 45 0 60 -2 15 -4 0 -4 -33z"/>
<path d="M4971 10197 l2 -42 6 35 c4 22 12 35 21 35 9 0 17 -13 21 -35 l6 -35
2 38 c1 46 31 54 31 8 0 -17 5 -33 11 -36 7 -5 9 6 7 31 l-3 39 -52 2 -53 3 1
-43z"/>
<path d="M5100 10231 c0 -5 9 -7 20 -4 11 3 20 1 20 -5 0 -5 -12 -13 -26 -16
-35 -9 -28 -41 10 -42 31 -1 41 14 32 51 -5 18 -13 25 -31 25 -14 0 -25 -4
-25 -9z m40 -40 c0 -14 -18 -23 -30 -16 -6 4 -8 11 -5 16 8 12 35 12 35 0z"/>
<path d="M5213 10200 c0 -25 2 -35 4 -22 2 12 2 32 0 45 -2 12 -4 2 -4 -23z"/>
<path d="M5241 10198 l2 -43 6 35 c4 22 12 36 24 38 14 3 17 -4 18 -35 l2 -38
6 35 c9 50 38 53 44 6 l4 -36 -1 37 -1 38 -52 3 -53 2 1 -42z"/>
<path d="M5377 10233 c-4 -3 -7 -19 -7 -34 0 -34 34 -49 57 -26 23 23 9 67
-21 67 -12 0 -26 -3 -29 -7z m41 -30 c-3 -30 -25 -42 -34 -19 -9 22 2 46 21
46 12 0 15 -8 13 -27z"/>
<path d="M5454 10214 c-8 -33 15 -59 45 -49 11 3 21 11 21 17 0 7 -5 6 -15 -2
-19 -16 -35 -4 -35 27 0 22 3 24 26 19 17 -5 23 -3 19 4 -3 5 -17 10 -30 10
-18 0 -26 -7 -31 -26z"/>
<path d="M5542 10198 l1 -43 4 38 c3 28 9 37 23 37 14 0 20 -9 23 -32 4 -33 4
-33 3 2 -1 30 -5 35 -28 38 -27 3 -28 2 -26 -40z"/>
<path d="M5623 10200 c0 -25 2 -35 4 -22 2 12 2 32 0 45 -2 12 -4 2 -4 -23z"/>
<path d="M5701 10188 c1 -29 3 -46 6 -37 2 10 11 15 22 12 25 -6 45 21 37 52
-5 20 -13 25 -36 25 -30 0 -30 -1 -29 -52z m53 25 c8 -19 -17 -48 -33 -39 -12
8 -15 39 -4 49 12 12 31 7 37 -10z"/>
<path d="M5375 10053 c102 -8 145 -15 145 -24 0 -5 -12 -9 -26 -9 -23 0 -24
-1 -9 -16 10 -11 27 -15 50 -12 29 3 35 1 35 -14 0 -13 -8 -18 -25 -18 -21 0
-25 -5 -25 -30 0 -19 7 -33 20 -40 13 -7 20 -21 20 -40 0 -20 5 -30 15 -30 11
0 15 -12 15 -50 0 -27 5 -50 10 -50 6 0 10 -11 10 -25 0 -20 5 -25 25 -25 23
0 25 -4 25 -45 0 -25 4 -45 8 -45 4 0 9 -11 10 -25 1 -14 -3 -25 -10 -25 -6 0
-9 -2 -6 -5 2 -3 19 2 37 11 19 9 42 13 56 10 28 -7 35 -39 8 -34 -10 2 -17
-2 -16 -9 2 -7 -4 -10 -12 -7 -18 7 -21 -22 -2 -32 6 -4 9 -4 5 1 -11 12 23
34 53 35 34 0 50 -20 52 -67 1 -21 6 -41 11 -44 4 -4 3 -10 -3 -13 -6 -4 -11
-2 -11 5 0 8 -11 9 -36 5 -42 -8 -64 6 -64 40 0 13 -4 24 -10 24 -5 0 -9 -17
-7 -39 1 -28 6 -37 16 -33 10 4 11 -1 6 -18 -5 -14 -3 -20 3 -16 25 15 37 -5
34 -54 -3 -32 0 -50 7 -50 6 0 11 -9 11 -20 0 -11 7 -20 15 -20 11 0 15 -12
15 -49 0 -55 6 -60 95 -62 73 -2 29 -8 -130 -18 -92 -5 193 -9 828 -10 l967
-1 0 500 0 500 -1127 -2 c-621 -1 -1110 -3 -1088 -5z m235 -33 c0 -5 -4 -10
-10 -10 -5 0 -10 5 -10 10 0 6 5 10 10 10 6 0 10 -4 10 -10z m125 -440 c3 -5
-1 -10 -9 -10 -9 0 -16 5 -16 10 0 6 4 10 9 10 6 0 13 -4 16 -10z m151 -81 c3
-49 6 -54 13 -29 9 33 38 38 51 8 l9 -23 7 23 c9 32 71 32 83 0 l8 -22 12 22
c11 20 41 31 41 16 0 -4 -10 -34 -22 -68 -22 -61 -32 -76 -55 -76 -16 0 -17
27 -2 32 9 3 9 14 -1 43 -19 59 -26 61 -40 11 -14 -52 -44 -63 -60 -23 l-9 22
0 -22 c-1 -17 -7 -23 -24 -23 -19 0 -26 8 -36 41 -7 23 -15 47 -18 55 -3 10 2
14 18 14 20 0 21 2 9 11 -13 9 -13 10 0 6 8 -2 15 -10 16 -18z m-81 -140 c-16
-4 -33 -5 -37 -1 -4 4 10 8 30 9 37 1 37 1 7 -8z"/>
<path d="M5562 9750 c0 -14 2 -19 5 -12 2 6 2 18 0 25 -3 6 -5 1 -5 -13z"/>
<path d="M5606 9559 c10 -15 23 -25 27 -22 5 3 7 6 5 7 -2 0 -14 10 -27 21
l-25 20 20 -26z"/>
<path d="M5568 9549 c-10 -5 -18 -21 -18 -34 0 -13 -4 -25 -9 -27 -5 -1 -3 -9
5 -16 12 -11 14 -7 14 28 0 29 4 40 15 40 8 0 15 5 15 10 0 12 0 12 -22 -1z"/>
<path d="M3649 9523 c-13 -16 -12 -17 4 -4 9 7 17 15 17 17 0 8 -8 3 -21 -13z"/>
<path d="M5723 9525 c0 -8 4 -15 9 -15 4 0 8 7 8 15 0 8 -4 15 -8 15 -5 0 -9
-7 -9 -15z"/>
<path d="M5485 9510 c-16 -7 -17 -9 -3 -9 9 -1 20 4 23 9 7 11 7 11 -20 0z"/>
<path d="M5620 9503 c13 -3 29 -11 35 -18 8 -10 14 -8 28 6 14 16 14 19 2 19
-8 0 -15 -5 -15 -12 0 -9 -3 -9 -12 0 -7 7 -23 11 -37 11 l-26 -2 25 -4z"/>
<path d="M5603 9454 c0 -7 5 -10 11 -7 6 4 5 0 -2 -9 -12 -15 -2 -34 12 -21
11 11 6 41 -7 46 -8 3 -14 -1 -14 -9z"/>
<path d="M5432 9440 c0 -14 2 -19 5 -12 2 6 2 18 0 25 -3 6 -5 1 -5 -13z"/>
<path d="M5671 9443 c-1 -6 -4 -20 -7 -30 -5 -17 -5 -17 6 0 6 10 9 23 6 30
-3 9 -5 9 -5 0z"/>
<path d="M5780 9419 c0 -5 5 -7 10 -4 6 3 10 8 10 11 0 2 -4 4 -10 4 -5 0 -10
-5 -10 -11z"/>
<path d="M5578 9383 c7 -3 16 -2 19 1 4 3 -2 6 -13 5 -11 0 -14 -3 -6 -6z"/>
<path d="M5685 9340 c3 -5 8 -10 11 -10 2 0 4 5 4 10 0 6 -5 10 -11 10 -5 0
-7 -4 -4 -10z"/>
<path d="M5715 9300 c3 -5 8 -10 11 -10 2 0 4 5 4 10 0 6 -5 10 -11 10 -5 0
-7 -4 -4 -10z"/>
<path d="M5798 9125 c-3 -14 -1 -25 3 -25 5 0 9 11 9 25 0 14 -2 25 -4 25 -2
0 -6 -11 -8 -25z"/>
<path d="M3885 8631 c-3 -5 -1 -12 5 -16 5 -3 10 1 10 9 0 18 -6 21 -15 7z"/>
<path d="M4090 8631 c0 -6 5 -13 10 -16 6 -3 10 1 10 9 0 9 -4 16 -10 16 -5 0
-10 -4 -10 -9z"/>
<path d="M4870 8601 c0 -22 -4 -43 -10 -46 -5 -3 -10 -11 -10 -16 0 -6 5 -7
10 -4 6 4 10 -7 10 -24 0 -17 5 -31 10 -31 6 0 10 18 10 39 0 22 5 43 10 46 6
3 10 11 10 16 0 6 -4 7 -10 4 -6 -4 -10 7 -10 24 0 17 -4 31 -10 31 -5 0 -10
-18 -10 -39z"/>
<path d="M5060 8631 c0 -6 5 -13 10 -16 6 -3 10 1 10 9 0 9 -4 16 -10 16 -5 0
-10 -4 -10 -9z"/>
<path d="M5120 8630 c0 -5 5 -10 10 -10 6 0 10 5 10 10 0 6 -4 10 -10 10 -5 0
-10 -4 -10 -10z"/>
<path d="M5920 8560 c0 -47 4 -80 10 -80 6 0 10 6 10 14 0 7 6 19 13 25 11 8
17 5 27 -14 7 -14 20 -25 27 -25 11 0 9 8 -7 30 -21 29 -21 32 -6 55 20 30 6
33 -19 5 -27 -30 -35 -25 -35 25 0 25 -4 45 -10 45 -6 0 -10 -33 -10 -80z"/>
<path d="M6040 8630 c0 -5 5 -10 10 -10 6 0 10 5 10 10 0 6 -4 10 -10 10 -5 0
-10 -4 -10 -10z"/>
<path d="M6540 8560 c0 -47 4 -80 10 -80 6 0 10 33 10 80 0 47 -4 80 -10 80
-6 0 -10 -33 -10 -80z"/>
<path d="M3420 8560 c0 -66 2 -71 25 -80 30 -11 70 1 79 25 10 27 7 125 -4
125 -6 0 -10 -26 -10 -59 0 -64 -15 -87 -50 -76 -17 6 -20 15 -20 71 0 36 -4
64 -10 64 -6 0 -10 -30 -10 -70z"/>
<path d="M5842 8600 c-7 -11 -8 -20 -3 -20 6 0 11 -21 13 -47 3 -43 6 -48 28
-51 22 -2 23 -1 8 8 -12 7 -18 24 -18 50 0 28 5 40 18 43 16 4 16 5 0 6 -10 0
-18 8 -18 16 0 21 -13 19 -28 -5z"/>
<path d="M3758 8589 c-10 -5 -18 -15 -18 -21 0 -9 3 -9 12 0 17 17 45 15 52
-3 4 -10 -1 -15 -15 -15 -31 0 -59 -19 -59 -40 0 -24 29 -40 55 -30 11 4 26 5
34 2 22 -8 8 88 -15 105 -21 15 -24 16 -46 2z m42 -74 c0 -9 -7 -18 -16 -22
-18 -7 -39 11 -30 26 11 17 46 13 46 -4z"/>
<path d="M4001 8591 c-8 -5 -20 -7 -28 -4 -10 4 -13 -8 -13 -51 0 -31 5 -56
10 -56 6 0 10 14 10 31 0 37 16 69 34 69 17 0 26 -22 26 -66 0 -19 5 -34 10
-34 17 0 12 87 -6 104 -18 18 -24 19 -43 7z"/>
<path d="M4160 8580 c-38 -38 -17 -102 34 -102 28 0 55 17 44 28 -3 3 -15 0
-26 -7 -17 -10 -23 -10 -36 0 -26 22 -19 31 24 31 36 0 40 3 40 25 0 23 -24
45 -49 45 -6 0 -20 -9 -31 -20z m58 -17 c2 -9 -7 -13 -28 -13 -28 0 -31 2 -20
15 15 18 41 16 48 -2z"/>
<path d="M4650 8591 c-8 -6 -18 -7 -22 -5 -4 3 -8 -29 -8 -70 0 -44 4 -76 10
-76 6 0 10 10 10 21 0 16 5 20 20 16 31 -8 54 16 54 58 0 25 -6 42 -19 51 -22
16 -25 17 -45 5z m40 -30 c13 -25 13 -33 -3 -55 -20 -27 -47 -10 -47 29 0 30
9 42 32 44 4 1 12 -8 18 -18z"/>
<path d="M4763 8590 c-19 -8 -23 -17 -23 -55 0 -38 4 -47 22 -54 25 -9 55 -4
64 11 10 16 -5 22 -21 8 -18 -15 -45 -6 -45 15 0 11 11 15 40 15 46 0 53 17
20 50 -22 22 -25 23 -57 10z m47 -25 c11 -13 8 -15 -19 -15 -30 0 -39 9 -24
23 11 11 30 8 43 -8z"/>
<path d="M4971 8591 c-8 -5 -20 -7 -28 -4 -10 4 -13 -8 -13 -51 0 -65 17 -76
22 -15 2 26 10 46 20 53 23 14 29 5 35 -49 3 -25 10 -45 16 -45 15 0 2 101
-14 111 -17 11 -21 11 -38 0z"/>
<path d="M5428 8593 c-39 -10 -28 -59 15 -65 29 -4 36 -38 8 -38 -11 0 -23 5
-26 10 -9 14 -28 13 -23 -2 6 -17 40 -26 66 -17 35 13 28 47 -13 65 -20 8 -33
19 -30 24 9 14 43 12 48 -2 2 -7 8 -9 13 -5 8 8 -22 39 -35 36 -3 -1 -13 -3
-23 -6z"/>
<path d="M5748 8593 c-39 -10 -28 -59 15 -65 29 -4 36 -38 8 -38 -11 0 -23 5
-26 10 -8 13 -25 13 -25 0 0 -18 49 -31 71 -20 32 18 24 49 -17 66 -28 12 -34
18 -25 27 9 9 17 8 32 -1 27 -17 40 -5 15 14 -11 8 -22 13 -25 13 -3 -1 -13
-3 -23 -6z"/>
<path d="M6120 8593 c-22 -9 -30 -24 -30 -60 0 -24 7 -37 25 -49 23 -15 27
-15 51 1 30 19 26 33 -4 14 -23 -14 -52 -6 -52 16 0 11 11 15 40 15 33 0 40 3
40 19 0 11 -10 27 -22 35 -24 17 -25 17 -48 9z m48 -30 c2 -9 -7 -13 -27 -13
-30 0 -39 9 -24 24 11 10 46 3 51 -11z"/>
<path d="M6321 8591 c-8 -5 -20 -7 -28 -4 -10 4 -13 -11 -13 -71 0 -44 4 -76
10 -76 6 0 10 11 10 25 0 21 3 24 18 17 19 -10 43 -5 54 12 13 19 8 74 -8 90
-18 18 -24 19 -43 7z m37 -54 c2 -27 -1 -39 -13 -43 -35 -14 -61 46 -33 74 23
23 43 9 46 -31z"/>
<path d="M6428 8589 c-13 -7 -18 -23 -18 -55 0 -37 4 -46 23 -53 61 -23 104
52 57 99 -22 22 -37 24 -62 9z m50 -21 c28 -28 2 -88 -33 -74 -15 5 -22 66 -8
79 10 11 28 8 41 -5z"/>
<path d="M6618 8593 c-9 -2 -19 -11 -22 -19 -6 -17 5 -19 21 -3 12 12 43 6 43
-9 0 -4 -15 -12 -32 -17 -38 -11 -49 -42 -23 -61 11 -9 25 -10 40 -4 13 5 26
6 29 3 3 -4 6 17 6 45 0 40 -4 53 -19 62 -11 5 -21 9 -23 9 -2 -1 -10 -3 -20
-6z m42 -77 c0 -18 -30 -30 -43 -17 -5 5 -6 14 -3 20 10 16 46 13 46 -3z"/>
<path d="M3550 8582 c0 -25 34 -102 45 -102 7 0 16 16 19 35 9 44 20 45 32 3
14 -47 30 -44 48 8 19 55 19 64 6 64 -5 0 -12 -16 -16 -35 -8 -44 -18 -45 -30
-2 -13 44 -35 40 -49 -8 l-12 -40 -13 43 c-11 37 -30 58 -30 34z"/>
<path d="M3873 8583 c34 -5 34 -17 2 -55 -14 -16 -25 -34 -25 -39 0 -5 21 -8
48 -7 36 1 39 2 15 5 -39 5 -40 7 -10 47 42 56 42 56 -10 55 -29 -1 -37 -4
-20 -6z"/>
<path d="M4090 8535 c0 -30 5 -55 10 -55 6 0 10 25 10 55 0 30 -4 55 -10 55
-5 0 -10 -25 -10 -55z"/>
<path d="M4323 8576 c3 -8 11 -32 18 -55 7 -23 18 -41 26 -41 7 0 13 4 13 9 0
5 5 22 11 38 l11 28 13 -35 c6 -19 18 -35 25 -35 13 0 38 55 39 88 2 31 -17
18 -23 -18 -4 -19 -11 -35 -16 -35 -5 0 -12 16 -16 35 -9 47 -30 44 -46 -6
l-12 -42 -14 42 c-7 22 -18 41 -24 41 -6 0 -8 -6 -5 -14z"/>
<path d="M4513 8529 c22 -60 22 -61 3 -75 -19 -14 -19 -14 1 -14 17 0 26 13
46 75 26 76 22 106 -5 38 l-15 -38 -16 38 c-26 61 -37 42 -14 -24z"/>
<path d="M5060 8535 c0 -30 5 -55 10 -55 6 0 10 25 10 55 0 30 -4 55 -10 55
-5 0 -10 -25 -10 -55z"/>
<path d="M5120 8527 c0 -37 -5 -68 -12 -76 -11 -10 -9 -12 7 -9 17 3 20 12 23
76 2 45 -1 72 -8 72 -6 0 -10 -26 -10 -63z"/>
<path d="M5239 8535 c9 -30 21 -55 28 -55 6 0 18 19 25 41 l14 42 12 -42 c16
-52 35 -52 51 0 7 23 15 47 18 55 3 8 1 14 -5 14 -6 0 -17 -19 -25 -42 l-14
-43 -13 43 c-16 51 -37 55 -46 7 -8 -43 -18 -45 -30 -3 -5 17 -14 33 -20 35
-8 3 -6 -15 5 -52z"/>
<path d="M5543 8583 c15 -2 27 -7 27 -10 0 -3 -13 -22 -30 -43 -16 -21 -30
-41 -30 -44 0 -3 21 -5 48 -5 42 2 44 2 14 8 l-34 6 31 42 c17 24 31 45 31 48
0 3 -19 4 -42 4 -30 -2 -35 -3 -15 -6z"/>
<path d="M5620 8580 c0 -6 7 -27 15 -47 20 -47 19 -70 -2 -82 -16 -9 -16 -10
4 -11 21 0 38 32 67 128 12 37 -11 25 -24 -13 -13 -40 -25 -38 -35 5 -6 28
-25 43 -25 20z"/>
<path d="M6040 8535 c0 -30 5 -55 10 -55 6 0 10 25 10 55 0 30 -4 55 -10 55
-5 0 -10 -25 -10 -55z"/>
<path d="M5449 7965 c-2 -22 -2 -54 2 -70 5 -29 5 -29 10 10 3 22 3 53 -1 70
-6 29 -7 29 -11 -10z"/>
<path d="M3431 7977 c-1 -12 -5 -16 -13 -11 -10 6 -10 5 -1 -8 7 -8 10 -18 6
-22 -4 -4 0 -4 10 0 19 7 19 10 7 39 -8 18 -9 18 -9 2z"/>
<path d="M3541 7928 c1 -43 3 -55 8 -38 5 17 16 26 36 30 55 9 40 70 -16 70
-29 0 -29 0 -28 -62z m58 43 c21 -13 5 -41 -24 -41 -18 0 -25 5 -25 18 0 31
21 41 49 23z"/>
<path d="M4162 7964 c-7 -8 -8 -15 -2 -19 6 -3 10 -22 10 -41 0 -26 4 -34 18
-33 10 0 12 3 5 6 -15 5 -18 70 -4 75 5 2 4 8 -3 14 -8 8 -15 7 -24 -2z"/>
<path d="M4842 7963 c-8 -8 -9 -13 -2 -13 5 0 10 -18 10 -40 0 -32 4 -40 18
-39 10 0 12 3 5 6 -15 5 -18 70 -4 75 5 2 4 8 -3 14 -8 8 -15 7 -24 -3z"/>
<path d="M3654 7946 c-3 -8 -4 -27 -2 -43 3 -24 7 -28 33 -28 25 0 30 4 33 28
2 16 -2 35 -9 43 -15 18 -48 18 -55 0z m51 -31 c0 -23 -5 -31 -22 -33 -19 -3
-23 1 -23 26 0 33 8 44 30 40 9 -2 15 -14 15 -33z"/>
<path d="M3752 7910 c1 -35 2 -38 5 -13 4 34 26 59 43 48 5 -3 11 -23 11 -43
l2 -37 6 40 c4 27 12 41 24 43 14 3 17 -4 17 -37 0 -23 4 -41 8 -41 5 0 6 19
3 43 l-6 42 -57 0 -58 1 2 -46z"/>
<path d="M3908 7915 c-2 -25 0 -45 4 -45 5 0 8 20 8 45 0 25 -2 45 -4 45 -2 0
-6 -20 -8 -45z"/>
<path d="M3957 7953 c-4 -3 -7 -11 -7 -17 0 -6 5 -5 12 2 16 16 38 15 38 -2 0
-8 -10 -16 -22 -18 -15 -2 -24 -11 -26 -25 -3 -20 1 -23 32 -23 34 0 36 2 36
33 0 18 -5 38 -12 45 -13 13 -41 16 -51 5z m43 -58 c0 -8 -9 -15 -20 -15 -11
0 -20 7 -20 15 0 8 9 15 20 15 11 0 20 -7 20 -15z"/>
<path d="M4051 7910 c2 -34 3 -37 6 -15 3 17 12 38 20 47 14 15 13 17 -6 15
-18 -1 -21 -7 -20 -47z"/>
<path d="M4232 7948 c-13 -13 -15 -37 -6 -62 6 -17 64 -23 64 -7 0 4 -11 6
-24 4 -15 -3 -25 1 -29 11 -5 13 1 16 28 16 38 0 40 2 25 31 -12 21 -40 25
-58 7z m48 -13 c0 -9 -9 -15 -25 -15 -18 0 -23 4 -19 15 4 8 15 15 25 15 10 0
19 -7 19 -15z"/>
<path d="M4320 7913 c0 -53 18 -57 22 -5 4 52 31 50 39 -3 6 -36 6 -37 8 -9 1
31 25 63 38 51 3 -4 9 -24 13 -44 l8 -38 1 35 c1 52 -7 58 -71 56 l-58 -1 0
-42z"/>
<path d="M4481 7896 c1 -34 3 -53 6 -44 2 9 16 18 31 20 24 3 27 7 27 43 0 38
-1 40 -32 41 l-33 1 1 -61z m57 16 c3 -26 0 -32 -17 -32 -26 0 -34 15 -27 46
10 37 40 28 44 -14z"/>
<path d="M4591 7946 c-21 -25 -10 -70 18 -74 13 -2 27 0 32 5 5 5 -3 9 -18 8
-14 0 -28 6 -30 13 -3 8 6 12 27 12 27 0 31 3 28 23 -4 26 -39 35 -57 13z m47
-13 c2 -8 -6 -13 -22 -13 -25 0 -33 10 -19 24 10 10 36 3 41 -11z"/>
<path d="M4681 7910 c1 -43 1 -44 9 -13 4 18 12 39 18 46 8 10 6 13 -9 13 -16
0 -19 -7 -18 -46z"/>
<path d="M4749 7943 c-13 -16 -12 -17 3 -4 18 14 48 9 48 -8 0 -5 -12 -11 -27
-13 -20 -2 -28 -9 -28 -23 0 -16 7 -20 33 -21 33 -1 33 0 30 40 -2 33 -7 42
-24 44 -11 2 -27 -5 -35 -15z m49 -45 c-5 -15 -48 -24 -48 -10 0 14 12 22 33
22 10 0 17 -5 15 -12z"/>
<path d="M4912 7917 l-2 -48 35 3 c35 2 35 2 34 48 -1 25 -3 36 -6 25 -2 -11
-6 -30 -9 -42 -3 -14 -12 -23 -24 -23 -15 0 -20 9 -23 43 l-4 42 -1 -48z"/>
<path d="M5011 7910 c2 -34 3 -37 6 -15 3 17 12 38 20 47 14 15 13 17 -6 15
-18 -1 -21 -7 -20 -47z"/>
<path d="M5071 7952 c-1 -7 6 -29 14 -49 11 -27 12 -39 4 -49 -8 -9 -8 -14 -1
-14 6 0 20 25 32 56 22 61 20 88 -3 33 l-14 -34 -16 35 c-8 19 -16 29 -16 22z"/>
<path d="M5210 7934 c-13 -34 3 -64 35 -64 14 0 25 4 25 9 0 4 -11 6 -25 3
-22 -4 -25 -1 -25 27 0 32 30 57 38 33 2 -7 8 -12 14 -12 6 0 6 6 -2 15 -19
23 -49 18 -60 -11z"/>
<path d="M5303 7915 c0 -27 2 -38 4 -22 2 15 2 37 0 50 -2 12 -4 0 -4 -28z"/>
<path d="M5356 7952 c-3 -5 6 -7 19 -4 18 3 25 0 25 -11 0 -10 -11 -17 -27
-19 -20 -2 -28 -9 -28 -23 0 -15 8 -21 33 -23 l33 -3 -3 43 c-2 35 -7 44 -25
46 -11 2 -24 -1 -27 -6z m44 -51 c0 -6 -5 -13 -10 -16 -15 -9 -43 3 -35 15 8
13 45 13 45 1z"/>
<path d="M5496 7944 c-5 -14 -4 -15 9 -4 16 13 45 7 45 -9 0 -5 -12 -11 -27
-13 -20 -2 -28 -9 -28 -23 0 -16 7 -20 33 -21 33 -1 33 0 30 40 -3 36 -6 41
-29 44 -18 2 -29 -3 -33 -14z m52 -46 c-5 -15 -48 -24 -48 -10 0 14 12 22 33
22 10 0 17 -5 15 -12z"/>
<path d="M7116 7424 c-12 -30 -6 -72 12 -85 14 -11 15 -11 5 1 -16 18 -17 72
-1 88 8 8 8 12 1 12 -6 0 -14 -7 -17 -16z"/>
<path d="M7170 7436 c0 -2 7 -9 15 -16 13 -11 14 -10 9 4 -5 14 -24 23 -24 12z"/>
<path d="M3417 6554 c-18 -18 -5 -43 28 -54 37 -12 46 -34 19 -44 -21 -8 -20
-8 -40 11 -12 12 -16 13 -13 4 15 -43 71 -37 77 8 3 17 -3 22 -27 27 -16 4
-32 13 -35 21 -8 19 23 29 46 14 16 -10 19 -10 16 1 -5 14 -59 23 -71 12z"/>
<path d="M4312 6540 c-7 -11 -8 -20 -3 -20 6 0 11 -17 13 -37 2 -22 9 -38 18
-41 12 -4 13 -2 3 9 -7 7 -13 26 -13 41 0 16 6 28 13 28 8 0 9 3 1 8 -6 4 -13
13 -15 20 -3 8 -8 5 -17 -8z"/>
<path d="M3859 6538 c-5 -54 11 -98 34 -98 7 0 7 4 -1 12 -15 15 -16 68 -1 68
6 0 4 7 -5 15 -18 18 -26 19 -27 3z"/>
<path d="M3630 6530 c-8 -5 -18 -6 -22 -4 -4 3 -7 -16 -7 -43 l2 -48 6 40 c5
31 10 40 26 40 16 0 21 -8 24 -40 l5 -40 5 40 c8 56 38 61 44 8 l4 -38 1 41
c2 44 -12 60 -39 44 -7 -5 -18 -5 -24 0 -6 5 -17 5 -25 0z"/>
<path d="M3790 6530 c-8 -5 -18 -6 -22 -4 -4 3 -7 -23 -7 -58 1 -35 4 -53 6
-40 4 18 9 21 29 16 19 -5 26 -1 33 19 17 45 -7 87 -39 67z m28 -42 c-3 -36
-24 -44 -41 -17 -14 23 -2 49 23 49 18 0 21 -5 18 -32z"/>
<path d="M4624 6524 c-18 -14 -18 -15 2 -5 17 8 25 7 33 -3 10 -12 6 -16 -19
-21 -25 -5 -31 -11 -28 -28 2 -17 10 -22 36 -22 30 -1 32 1 32 37 0 46 -26 66
-56 42z m40 -43 c3 -5 -1 -14 -10 -21 -11 -10 -18 -10 -27 -1 -9 9 -9 14 3 21
19 12 27 12 34 1z"/>
<path d="M4957 6529 c-26 -15 -20 -33 15 -47 26 -9 30 -14 20 -24 -10 -10 -17
-10 -33 1 -18 10 -20 10 -17 -1 7 -20 43 -21 58 -2 12 14 12 18 -5 30 -10 8
-25 14 -32 14 -7 0 -13 4 -13 9 0 14 27 20 39 8 6 -6 13 -8 17 -5 12 12 -31
27 -49 17z"/>
<path d="M3510 6525 c0 -2 7 -23 17 -46 16 -40 15 -42 -2 -55 -10 -8 -14 -14
-8 -14 15 0 27 18 46 69 20 52 15 69 -6 20 l-13 -34 -12 33 c-9 27 -22 43 -22
27z"/>
<path d="M3927 6523 c-12 -12 -7 -60 8 -73 32 -27 74 15 60 60 -6 20 -53 29
-68 13z m51 -35 c-3 -36 -24 -44 -41 -17 -14 23 -2 49 23 49 18 0 21 -5 18
-32z"/>
<path d="M4031 6483 l2 -48 6 40 c4 27 12 41 24 43 14 3 17 -4 18 -35 1 -39 3
-38 13 10 4 18 13 27 26 27 15 0 20 -9 23 -40 l4 -40 -1 42 -1 43 -57 3 -58 2
1 -47z"/>
<path d="M4187 6485 c13 -38 13 -48 2 -62 -12 -14 -12 -16 0 -12 14 5 55 108
47 116 -2 2 -9 -11 -15 -29 l-12 -33 -14 33 c-21 47 -26 39 -8 -13z"/>
<path d="M4374 6504 c-8 -32 5 -58 33 -62 27 -4 45 21 41 55 -2 23 -8 29 -35
31 -28 3 -33 0 -39 -24z m63 0 c7 -18 -6 -45 -25 -52 -15 -5 -33 33 -26 52 8
21 43 21 51 0z"/>
<path d="M4471 6515 c0 -11 6 -33 13 -50 l14 -30 12 33 c13 35 30 43 30 15 0
-10 4 -25 10 -33 7 -12 11 -10 18 10 19 50 22 76 5 40 l-16 -35 -10 33 c-5 17
-13 32 -17 32 -5 0 -13 -15 -20 -32 l-12 -33 -13 35 c-9 23 -14 28 -14 15z"/>
<path d="M4711 6480 l1 -45 8 39 c4 21 13 42 21 47 10 6 7 8 -9 6 -19 -1 -22
-6 -21 -47z"/>
<path d="M4788 6523 c27 -5 27 -8 2 -40 -28 -35 -25 -43 13 -42 23 1 26 3 10
6 -28 5 -28 11 -3 43 27 34 25 40 -12 39 -24 -1 -27 -3 -10 -6z"/>
<path d="M4850 6525 c0 -2 7 -23 17 -46 16 -40 15 -42 -2 -55 -15 -11 -16 -14
-3 -14 9 0 23 21 37 56 23 61 21 89 -2 33 l-13 -34 -12 33 c-9 27 -22 43 -22
27z"/>
<path d="M5048 6523 c27 -5 27 -8 2 -40 -28 -35 -25 -43 13 -42 23 1 26 3 10
6 -28 5 -29 13 -3 46 27 34 26 37 -12 36 -24 -1 -27 -3 -10 -6z"/>
<path d="M5120 6521 c0 -4 11 -6 25 -3 35 6 31 -11 -6 -25 -34 -13 -35 -33 -1
-48 12 -5 22 -15 22 -22 0 -7 3 -13 8 -13 4 0 9 27 10 60 l3 60 -30 0 c-17 0
-31 -4 -31 -9z m48 -55 c-1 -14 -5 -23 -8 -22 -3 2 -13 6 -24 10 -15 5 -16 9
-6 21 19 23 40 18 38 -9z"/>
<path d="M5217 6523 c-12 -12 -7 -60 8 -73 16 -13 55 -5 55 12 0 6 -6 6 -15
-2 -20 -17 -47 5 -43 34 2 16 10 21 31 21 15 -1 27 3 27 7 0 10 -54 11 -63 1z"/>
<path d="M5317 6523 c-4 -3 -7 -21 -7 -39 0 -41 33 -56 59 -28 15 17 15 17 -1
5 -21 -16 -48 -8 -48 14 0 10 10 15 31 15 23 0 30 4 27 17 -2 9 -9 18 -16 19
-7 1 -8 0 -2 -3 19 -9 10 -23 -15 -23 -26 0 -34 15 -12 23 6 3 7 6 1 6 -6 1
-14 -2 -17 -6z"/>
<path d="M3433 6225 c-10 -8 -13 -32 -11 -95 l3 -85 95 0 95 0 3 84 c2 46 -1
88 -6 93 -13 13 -162 15 -179 3z m167 -90 l0 -85 -80 0 -80 0 0 85 0 85 80 0
80 0 0 -85z"/>
<path d="M3830 6190 c0 -16 -7 -20 -30 -20 -24 0 -31 -5 -36 -27 -9 -36 7 -58
45 -58 l31 -1 0 63 c0 35 -2 63 -5 63 -3 0 -5 -9 -5 -20z m-5 -50 c7 -23 -10
-50 -31 -50 -15 0 -29 43 -19 59 11 18 43 12 50 -9z"/>
<path d="M3871 6120 c2 -34 3 -37 6 -15 3 17 12 38 20 47 14 15 13 17 -6 15
-18 -1 -21 -7 -20 -47z"/>
<path d="M3934 6143 c-4 -14 -2 -33 3 -42 12 -19 42 -26 55 -13 6 6 1 8 -15 5
-16 -3 -26 1 -30 11 -5 12 0 16 22 16 35 0 43 8 30 31 -15 30 -57 25 -65 -8z
m56 2 c0 -8 -9 -15 -20 -15 -11 0 -20 7 -20 15 0 8 9 15 20 15 11 0 20 -7 20
-15z"/>
<path d="M4037 6163 c-15 -14 -5 -32 24 -42 17 -6 28 -15 24 -21 -8 -13 -42
-13 -48 0 -3 6 -4 5 -3 -2 4 -18 47 -23 57 -6 14 22 10 29 -21 39 -36 13 -40
33 -5 27 14 -3 25 -1 25 3 0 10 -44 12 -53 2z"/>
<path d="M4138 6163 c28 -5 28 -7 -4 -49 l-26 -34 38 1 c23 1 30 3 17 6 -28 5
-29 13 -3 46 27 34 26 37 -12 36 -24 -1 -27 -3 -10 -6z"/>
<path d="M4214 6156 c-3 -8 -4 -27 -2 -43 4 -33 37 -43 58 -18 7 9 8 15 2 15
-6 0 -12 -5 -14 -12 -8 -24 -38 1 -38 32 0 33 24 41 49 18 10 -11 11 -10 6 5
-8 21 -53 23 -61 3z"/>
<path d="M4318 6163 l23 -5 -25 -33 c-14 -19 -26 -36 -26 -39 0 -3 17 -5 38
-5 34 1 35 2 9 8 l-28 6 26 34 c14 19 25 36 25 38 0 2 -15 2 -32 2 -25 -1 -27
-3 -10 -6z"/>
<path d="M4390 6154 c-28 -33 22 -96 52 -66 6 6 0 8 -16 5 -19 -4 -26 -1 -26
11 0 10 9 16 24 16 29 0 39 12 30 34 -8 20 -48 21 -64 0z m55 -9 c0 -5 -10
-11 -22 -13 -16 -2 -23 2 -23 13 0 11 7 15 23 13 12 -2 22 -7 22 -13z"/>
<path d="M3422 5663 l3 -98 95 0 95 0 3 98 3 97 -101 0 -101 0 3 -97z m129 -7
l-51 -51 -32 33 c-33 32 -21 47 13 16 15 -14 20 -12 59 25 62 59 72 38 11 -23z"/>
<path d="M4466 5659 c-35 -93 -28 -100 9 -8 15 38 25 72 22 75 -2 3 -16 -28
-31 -67z"/>
<path d="M4709 5698 c-5 -44 0 -88 11 -88 9 0 17 63 12 98 -5 33 -19 27 -23
-10z"/>
<path d="M4861 5674 l-1 -61 38 1 c33 1 37 4 40 29 4 37 -15 60 -44 53 -18 -5
-24 -1 -27 16 -2 13 -5 -4 -6 -38z m59 1 c16 -19 3 -55 -20 -55 -23 0 -33 26
-20 51 13 23 23 24 40 4z"/>
<path d="M3771 5691 c-19 -12 -7 -39 20 -43 12 -2 24 -9 27 -17 3 -10 -3 -12
-27 -9 -19 3 -28 1 -22 -5 14 -14 55 -4 59 14 2 11 -8 21 -29 28 -26 9 -30 14
-21 23 10 10 17 9 35 -1 20 -13 21 -13 8 2 -15 19 -29 21 -50 8z"/>
<path d="M3862 5688 c-13 -13 -15 -37 -6 -62 6 -17 64 -23 64 -7 0 4 -11 6
-25 3 -18 -3 -25 0 -25 12 0 11 9 16 30 16 18 0 30 5 30 13 0 18 -21 37 -40
37 -9 0 -21 -5 -28 -12z m46 -16 c2 -7 -6 -12 -17 -12 -21 0 -27 11 -14 24 9
9 26 2 31 -12z"/>
<path d="M3968 5693 c-13 -3 -18 -15 -18 -44 0 -21 5 -39 10 -39 6 0 10 15 10
34 0 20 6 36 14 39 20 8 26 -2 26 -40 0 -18 5 -33 10 -33 13 0 13 46 0 71 -11
19 -19 21 -52 12z"/>
<path d="M4062 5650 c1 -35 2 -38 5 -13 5 35 29 62 43 47 5 -5 11 -25 13 -44
3 -27 4 -25 3 10 -1 44 -2 45 -33 45 -33 1 -33 0 -31 -45z"/>
<path d="M4172 5691 c-8 -5 -12 -22 -10 -42 3 -30 6 -34 33 -34 27 0 30 4 33
34 3 32 -9 51 -33 51 -5 0 -16 -4 -23 -9z m46 -39 c3 -29 1 -32 -22 -32 -22 0
-26 5 -26 28 0 33 8 44 30 40 9 -2 16 -16 18 -36z"/>
<path d="M4267 5693 c-14 -14 -6 -34 18 -43 14 -5 25 -15 25 -21 0 -7 -10 -9
-25 -7 -14 3 -25 1 -25 -3 0 -13 58 -11 65 1 9 15 -14 40 -37 40 -11 0 -18 5
-15 13 2 6 13 12 25 11 12 0 19 3 16 8 -6 10 -38 11 -47 1z"/>
<path d="M4361 5686 c-7 -8 -11 -27 -9 -43 2 -24 8 -28 32 -28 18 0 31 6 33
15 4 12 3 12 -5 2 -16 -23 -47 -10 -50 21 -4 31 20 46 43 27 9 -7 15 -8 15 -2
0 9 -22 22 -40 22 -4 0 -13 -6 -19 -14z"/>
<path d="M4531 5686 c-7 -8 -11 -27 -9 -43 4 -34 44 -45 65 -17 17 23 16 39
-3 58 -19 20 -38 20 -53 2z m47 -34 c3 -30 1 -33 -20 -30 -23 3 -34 27 -24 54
11 28 41 11 44 -24z"/>
<path d="M4627 5694 c-15 -15 -6 -43 15 -46 12 -2 24 -9 26 -17 4 -11 -2 -13
-27 -8 -20 4 -30 3 -26 -3 3 -6 20 -10 36 -10 26 0 30 3 27 23 -2 14 -11 23
-25 25 -13 2 -23 10 -23 18 0 17 21 18 39 2 11 -11 13 -10 9 2 -5 16 -39 25
-51 14z"/>
<path d="M4769 5683 c-13 -16 -12 -17 3 -4 18 14 48 9 48 -8 0 -5 -12 -11 -27
-13 -20 -2 -29 -9 -31 -26 -3 -20 0 -22 32 -20 34 2 36 4 36 39 0 24 -5 39
-16 43 -24 9 -30 8 -45 -11z m49 -45 c-5 -15 -48 -24 -48 -10 0 14 12 22 33
22 10 0 17 -5 15 -12z"/>
<path d="M4973 5655 c0 -27 2 -38 4 -22 2 15 2 37 0 50 -2 12 -4 0 -4 -28z"/>
<path d="M5021 5686 c-7 -8 -11 -27 -9 -43 2 -21 9 -29 27 -31 13 -2 27 0 32
5 5 5 -3 9 -18 8 -14 0 -28 6 -30 13 -3 8 6 12 26 12 24 0 31 4 31 19 0 30
-39 41 -59 17z m47 -13 c2 -8 -6 -13 -22 -13 -25 0 -33 10 -19 24 10 10 36 3
41 -11z"/>
<path d="M5112 5650 c1 -35 2 -38 5 -13 5 35 29 62 43 47 5 -5 11 -25 13 -44
3 -27 4 -25 3 10 -1 44 -2 45 -33 45 -33 1 -33 0 -31 -45z"/>
<path d="M5272 5691 c-8 -5 -12 -22 -10 -42 2 -27 8 -35 27 -37 13 -2 27 0 32
5 6 6 -2 8 -21 5 -23 -3 -30 0 -30 12 0 11 9 16 30 16 31 0 39 17 18 38 -14
14 -28 15 -46 3z m46 -18 c2 -8 -6 -13 -22 -13 -25 0 -33 10 -19 24 10 10 36
3 41 -11z"/>
<path d="M5213 5650 c0 -25 2 -35 4 -22 2 12 2 32 0 45 -2 12 -4 2 -4 -23z"/>
<path d="M3422 5188 l3 -93 95 0 95 0 3 93 3 92 -101 0 -101 0 3 -92z m178 -3
l0 -85 -80 0 -80 0 0 85 0 85 80 0 80 0 0 -85z"/>
<path d="M3771 5199 l-1 -66 33 1 c31 1 32 3 32 41 0 36 -3 40 -27 43 -18 2
-28 10 -31 25 -2 12 -5 -8 -6 -44z m57 -18 c4 -29 -9 -44 -31 -35 -17 6 -23
44 -10 58 14 14 38 0 41 -23z"/>
<path d="M3970 5194 c0 -41 4 -63 10 -59 6 3 10 33 10 66 0 33 -4 59 -10 59
-6 0 -10 -29 -10 -66z"/>
<path d="M4169 5225 c-2 -22 -1 -54 2 -70 6 -29 7 -29 8 7 0 20 7 39 14 41 9
4 9 8 1 14 -7 4 -14 17 -16 28 -3 12 -6 4 -9 -20z"/>
<path d="M3877 5214 c-4 -4 -7 -22 -7 -40 0 -28 5 -35 26 -40 33 -9 46 6 42
47 -2 28 -8 35 -28 37 -14 2 -29 0 -33 -4z m51 -36 c-2 -25 -8 -33 -23 -33
-20 0 -31 25 -21 51 3 8 15 14 26 14 18 0 21 -5 18 -32z"/>
<path d="M4065 5200 c-11 -36 3 -60 37 -60 19 0 28 -4 25 -12 -2 -7 -16 -13
-30 -13 -15 1 -27 -3 -27 -8 0 -4 15 -7 33 -5 31 3 32 4 35 58 l3 56 -35 2
c-27 2 -36 -2 -41 -18z m60 -20 c0 -18 -6 -26 -22 -28 -20 -3 -23 1 -23 28 0
27 3 31 23 28 16 -2 22 -10 22 -28z"/>
<path d="M4227 5214 c-4 -4 -7 -22 -7 -40 0 -28 5 -35 26 -40 33 -9 46 6 42
47 -2 28 -8 35 -28 37 -14 2 -29 0 -33 -4z m51 -36 c-2 -25 -8 -33 -23 -33
-20 0 -31 25 -21 51 3 8 15 14 26 14 18 0 21 -5 18 -32z"/>
<path d="M4315 5199 c4 -13 12 -35 17 -49 10 -25 10 -25 27 14 l17 39 10 -32
c13 -45 25 -43 39 7 7 23 9 42 5 42 -4 0 -10 -14 -14 -32 -6 -33 -21 -30 -28
6 -5 32 -25 29 -32 -4 -6 -33 -26 -33 -26 0 0 10 -5 22 -11 26 -8 4 -9 -1 -4
-17z"/>
<path d="M4465 5184 c17 -42 19 -70 5 -77 -6 -3 -5 -4 2 -3 15 3 61 116 47
116 -5 0 -12 -13 -15 -30 -4 -16 -10 -30 -14 -30 -5 0 -11 14 -15 30 -4 17
-11 30 -16 30 -5 0 -2 -16 6 -36z"/>
<path d="M3427 4804 c-4 -4 -7 -47 -7 -95 0 -70 3 -88 16 -93 23 -9 157 -7
172 2 9 6 12 33 10 98 l-3 89 -90 3 c-50 1 -94 0 -98 -4z m173 -94 l0 -80 -80
0 -80 0 0 80 0 80 80 0 80 0 0 -80z"/>
<path d="M3932 4720 c-1 -53 1 -60 9 -40 l10 25 19 -22 c25 -31 34 -29 14 2
-16 24 -16 27 1 45 10 11 14 20 9 20 -5 0 -15 -9 -22 -20 -18 -30 -30 -24 -35
18 -2 22 -4 11 -5 -28z"/>
<path d="M4880 4769 c0 -5 5 -7 10 -4 6 3 10 8 10 11 0 2 -4 4 -10 4 -5 0 -10
-5 -10 -11z"/>
<path d="M4953 4720 c0 -36 2 -50 4 -32 2 17 2 47 0 65 -2 17 -4 3 -4 -33z"/>
<path d="M5422 4720 c-1 -53 1 -60 9 -40 l10 25 19 -22 c25 -31 36 -29 15 3
-16 24 -16 27 2 47 17 21 17 21 -8 0 -34 -30 -37 -29 -42 15 -2 22 -4 11 -5
-28z"/>
<path d="M3762 4753 c-8 -8 -9 -13 -2 -13 5 0 10 -18 10 -40 0 -32 4 -40 18
-39 10 0 12 3 5 6 -15 5 -18 70 -4 75 5 2 4 8 -3 14 -8 8 -15 7 -24 -3z"/>
<path d="M3832 4738 c-28 -28 -10 -78 29 -78 23 0 30 6 35 27 12 46 -33 82
-64 51z m51 -20 c14 -21 2 -48 -22 -48 -24 0 -37 36 -20 56 14 17 28 14 42 -8z"/>
<path d="M4023 4734 c-7 -18 4 -31 31 -36 11 -1 21 -9 24 -17 3 -10 -3 -12
-27 -9 -19 3 -28 1 -22 -5 14 -14 55 -4 59 14 2 11 -8 20 -28 28 -34 11 -32
37 1 28 11 -3 19 -1 19 4 0 16 -50 10 -57 -7z"/>
<path d="M4118 4701 c13 -42 14 -55 4 -59 -6 -2 -12 -8 -12 -13 0 -4 6 -6 13
-3 16 6 51 98 44 116 -2 7 -7 -2 -11 -19 -7 -32 -26 -46 -26 -20 0 7 -7 22
-15 33 -11 15 -11 8 3 -35z"/>
<path d="M4201 4728 c-4 -11 -6 -32 -3 -45 3 -18 11 -23 33 -23 16 0 29 4 29
9 0 4 -11 6 -25 3 -22 -4 -25 -1 -25 27 0 32 30 57 38 33 2 -7 8 -12 14 -12 6
0 6 6 -2 15 -18 22 -49 18 -59 -7z"/>
<path d="M4308 4743 c27 -5 27 -11 2 -43 -27 -34 -25 -40 13 -39 23 1 26 3 10
6 -28 5 -28 8 -3 40 28 35 25 43 -12 42 -24 -1 -27 -3 -10 -6z"/>
<path d="M4382 4700 c1 -42 2 -43 5 -8 3 21 11 39 20 42 21 8 25 3 33 -41 l8
-38 1 35 c1 46 -9 61 -42 58 -25 -2 -27 -5 -25 -48z"/>
<path d="M4480 4730 c-6 -11 -8 -31 -4 -45 5 -22 11 -26 38 -23 26 2 32 8 34
31 6 51 -45 79 -68 37z m55 -25 c0 -23 -5 -31 -22 -33 -19 -3 -23 1 -23 26 0
33 8 44 30 40 9 -2 15 -14 15 -33z"/>
<path d="M4582 4738 c-13 -17 -3 -34 22 -39 11 -2 21 -10 24 -18 4 -11 -2 -13
-27 -8 -20 4 -30 3 -26 -3 3 -6 20 -10 36 -10 26 0 30 3 27 23 -2 14 -11 23
-25 25 -13 2 -23 10 -23 18 0 17 21 18 39 2 11 -11 13 -10 9 2 -6 20 -42 25
-56 8z"/>
<path d="M4674 4736 c-3 -8 -4 -27 -2 -43 2 -21 9 -29 27 -31 13 -2 28 1 34 7
8 8 3 10 -21 5 -31 -6 -32 -5 -32 25 0 32 30 57 38 33 2 -7 8 -12 14 -12 6 0
6 6 -2 15 -16 19 -49 19 -56 1z"/>
<path d="M4767 4743 c-11 -10 -8 -83 3 -83 6 0 10 20 10 45 0 46 -2 50 -13 38z"/>
<path d="M4860 4735 c-15 -18 -6 -31 24 -37 11 -1 21 -9 24 -17 3 -10 -3 -13
-26 -9 -17 2 -29 1 -26 -4 3 -4 18 -8 35 -8 38 0 42 36 4 46 -14 3 -25 12 -25
20 0 17 22 18 39 2 11 -11 13 -10 9 2 -6 21 -42 24 -58 5z"/>
<path d="M4991 4723 c-2 -48 8 -63 40 -63 28 0 29 1 28 48 l-2 47 -6 -40 c-7
-46 -37 -62 -45 -23 -3 13 -7 32 -9 43 -3 12 -5 8 -6 -12z"/>
<path d="M5108 4743 c27 -5 28 -13 2 -46 -27 -34 -26 -37 13 -36 23 1 26 3 10
6 -28 5 -28 8 -3 40 28 35 25 43 -12 42 -24 -1 -27 -3 -10 -6z"/>
<path d="M5180 4726 c-5 -13 -6 -34 -3 -45 4 -18 12 -21 37 -19 26 2 32 8 34
31 6 53 -50 81 -68 33z m55 -21 c0 -23 -5 -31 -22 -33 -19 -3 -23 1 -23 26 0
33 8 44 30 40 9 -2 15 -14 15 -33z"/>
<path d="M5275 4735 c14 -63 18 -75 26 -75 5 0 15 15 22 33 l14 32 7 -32 c12
-53 26 -43 51 36 5 15 4 21 -3 17 -6 -3 -14 -21 -18 -39 l-7 -32 -17 40 -18
40 -11 -28 c-6 -16 -11 -34 -12 -40 0 -7 -9 6 -20 28 -10 22 -17 31 -14 20z"/>
<path d="M5521 4736 c-7 -8 -11 -27 -9 -43 2 -23 8 -28 32 -28 38 0 54 25 38
59 -13 29 -43 34 -61 12z m47 -34 c3 -30 1 -33 -20 -30 -23 3 -34 27 -24 54
11 28 41 11 44 -24z"/>
<path d="M5617 4705 c8 -25 18 -45 22 -45 5 0 13 15 18 33 l10 32 13 -32 c6
-18 15 -33 19 -33 9 0 34 80 28 87 -3 2 -8 -9 -12 -26 -8 -39 -22 -40 -30 -1
-4 17 -10 30 -15 30 -5 0 -11 -13 -15 -30 -4 -16 -10 -30 -15 -30 -5 0 -11 14
-15 30 -4 17 -10 30 -15 30 -5 0 -2 -20 7 -45z"/>
<path d="M5754 4736 c-3 -8 -4 -27 -2 -43 2 -21 9 -29 27 -31 13 -2 27 0 32 5
6 6 -2 8 -21 5 -23 -3 -30 0 -30 12 0 11 9 16 30 16 18 0 30 5 30 13 0 32 -55
51 -66 23z m54 -13 c2 -8 -6 -13 -22 -13 -25 0 -33 10 -19 24 10 10 36 3 41
-11z"/>
<path d="M3424 4317 c-3 -8 -4 -49 -2 -93 l3 -79 95 0 95 0 0 90 0 90 -93 3
c-71 2 -94 0 -98 -11z m176 -82 l0 -85 -80 0 -80 0 0 85 0 85 80 0 80 0 0 -85z"/>
<path d="M3872 4280 c-7 -11 -8 -20 -3 -20 6 0 11 -17 13 -37 2 -20 9 -38 16
-39 7 -1 8 0 2 3 -15 7 -13 73 3 73 8 0 9 3 1 8 -6 4 -13 13 -15 20 -3 8 -8 5
-17 -8z"/>
<path d="M5619 4278 c-5 -49 9 -98 27 -98 14 0 14 2 0 16 -20 20 -21 62 -1 66
13 2 12 6 -5 16 -16 10 -20 10 -21 0z"/>
<path d="M3774 4230 c1 -44 2 -45 34 -45 31 -1 32 0 32 42 0 53 -18 57 -22 6
-4 -53 -31 -51 -39 2 l-7 40 2 -45z"/>
<path d="M3931 4220 l1 -45 10 42 c5 25 16 43 26 46 9 3 5 4 -10 4 -26 -1 -28
-4 -27 -47z"/>
<path d="M4008 4263 c27 -5 27 -8 2 -40 -28 -35 -25 -43 13 -42 23 1 26 3 10
6 -28 5 -28 11 -3 43 27 34 25 40 -12 39 -24 -1 -27 -3 -10 -6z"/>
<path d="M4070 4265 c0 -2 7 -23 16 -45 13 -32 14 -43 4 -55 -7 -8 -8 -15 -3
-15 6 0 20 25 32 56 23 61 21 89 -2 33 l-13 -34 -12 33 c-9 27 -22 43 -22 27z"/>
<path d="M4171 4223 l2 -48 6 40 c4 27 12 41 24 43 14 3 17 -4 18 -40 1 -24 3
-34 6 -23 2 11 6 30 9 43 8 39 38 23 45 -23 l7 -40 -2 45 -1 45 -57 3 -58 2 1
-47z"/>
<path d="M4324 4230 c1 -44 2 -45 34 -45 32 -1 32 0 30 45 -1 35 -2 38 -5 13
-5 -35 -29 -62 -43 -47 -5 5 -11 25 -13 44 -3 27 -4 25 -3 -10z"/>
<path d="M4432 4225 c-1 -28 -7 -56 -14 -63 -9 -9 -9 -12 0 -12 18 0 24 21 19
76 l-3 49 -2 -50z"/>
<path d="M4476 4261 c-3 -4 6 -6 20 -3 24 4 25 2 22 -29 -2 -23 -9 -35 -20
-37 -21 -4 -25 24 -5 31 7 4 6 6 -4 6 -21 1 -32 -24 -16 -37 7 -5 24 -10 40
-10 23 0 27 5 27 28 0 16 -3 35 -6 44 -6 17 -49 22 -58 7z"/>
<path d="M4566 4245 c-9 -35 10 -67 36 -63 12 2 24 10 26 18 5 13 3 13 -11 2
-22 -19 -37 -7 -37 30 0 27 3 30 25 26 14 -3 25 -1 25 3 0 5 -13 9 -29 9 -22
0 -30 -6 -35 -25z"/>
<path d="M4667 4264 c-4 -4 -7 -22 -7 -40 0 -27 5 -35 24 -40 27 -6 46 1 46
18 0 7 -5 6 -15 -2 -23 -19 -44 -5 -41 27 4 32 41 46 49 18 4 -12 5 -11 3 2
-1 18 -45 31 -59 17z"/>
<path d="M4806 4254 c-4 -11 3 -19 24 -27 34 -13 35 -32 1 -31 -13 0 -18 -3
-12 -9 15 -15 46 -3 49 20 2 16 -3 22 -19 25 -12 2 -24 9 -27 17 -3 10 2 13
21 9 15 -3 24 -1 21 3 -9 15 -52 10 -58 -7z"/>
<path d="M4903 4225 c0 -27 2 -38 4 -22 2 15 2 37 0 50 -2 12 -4 0 -4 -28z"/>
<path d="M4947 4263 c-15 -14 -6 -63 13 -75 11 -7 20 -18 20 -25 0 -7 8 -13
18 -12 10 0 12 3 5 6 -10 3 -10 10 -2 25 6 11 8 22 5 26 -3 3 -6 0 -6 -6 0
-15 -40 -16 -41 -2 -5 46 -2 55 19 58 15 2 22 -2 22 -12 0 -9 5 -16 10 -16 7
0 7 6 0 20 -10 19 -49 27 -63 13z"/>
<path d="M5092 4233 c13 -48 25 -62 34 -37 18 59 21 61 31 24 5 -19 13 -35 18
-35 10 0 37 76 30 83 -3 3 -10 -10 -17 -29 l-12 -34 -11 28 c-14 34 -26 34
-42 -2 l-11 -26 -7 33 c-4 17 -11 32 -15 32 -5 0 -4 -17 2 -37z"/>
<path d="M5237 4225 c12 -36 13 -49 3 -60 -9 -10 -9 -15 -1 -15 12 0 39 57 46
99 4 20 2 18 -11 -9 l-16 -35 -13 33 c-21 48 -26 39 -8 -13z"/>
<path d="M5321 4221 l2 -46 6 40 c4 27 12 41 24 43 14 3 17 -4 17 -32 0 -20 5
-36 10 -36 6 0 10 16 10 35 0 28 4 35 19 35 16 0 21 -8 24 -40 l4 -40 -1 42
-1 43 -57 1 -58 1 1 -46z"/>
<path d="M5470 4223 c0 -25 3 -43 6 -40 10 9 11 87 2 87 -5 0 -8 -21 -8 -47z"/>
<path d="M5527 4264 c-11 -11 -8 -72 4 -79 5 -4 21 -4 35 -1 22 6 25 11 22 44
-3 31 -7 37 -28 40 -14 2 -29 0 -33 -4z m51 -36 c-2 -25 -8 -33 -23 -33 -15 0
-21 8 -23 33 -3 29 -1 32 23 32 24 0 26 -3 23 -32z"/>
<path d="M5685 4234 c18 -44 19 -71 3 -77 -10 -4 -10 -6 0 -6 14 -1 37 46 46
95 6 26 5 26 -8 -6 l-14 -35 -13 33 c-8 17 -17 32 -21 32 -5 0 -1 -16 7 -36z"/>
<path d="M4510 4160 c0 -5 5 -10 11 -10 5 0 7 5 4 10 -3 6 -8 10 -11 10 -2 0
-4 -4 -4 -10z"/>
<path d="M3427 3854 c-4 -4 -7 -47 -7 -95 0 -70 3 -88 16 -93 23 -9 157 -7
172 2 9 6 12 33 10 98 l-3 89 -90 3 c-50 1 -94 0 -98 -4z m171 -91 l3 -83 -81
0 -80 0 0 78 c0 43 3 82 7 86 4 4 39 5 78 4 l70 -3 3 -82z"/>
<path d="M3771 3779 l-1 -66 33 1 c31 1 32 3 32 41 0 36 -2 40 -25 40 -18 0
-27 7 -31 25 -4 15 -7 -1 -8 -41z m54 -24 c0 -23 -4 -30 -20 -30 -21 0 -31 25
-21 51 11 28 41 12 41 -21z"/>
<path d="M4332 3775 c-1 -56 1 -65 9 -45 l10 25 19 -22 c25 -31 34 -29 14 2
-16 24 -16 27 1 45 10 11 13 20 7 20 -6 0 -16 -9 -22 -20 -17 -32 -29 -24 -33
23 -2 27 -4 17 -5 -28z"/>
<path d="M3873 3755 c0 -27 2 -38 4 -22 2 15 2 37 0 50 -2 12 -4 0 -4 -28z"/>
<path d="M3922 3788 c-13 -13 -15 -37 -6 -62 6 -17 64 -23 64 -7 0 4 -11 6
-25 3 -18 -3 -25 0 -25 12 0 11 9 16 30 16 18 0 30 5 30 13 0 18 -21 37 -40
37 -9 0 -21 -5 -28 -12z m48 -13 c0 -8 -9 -15 -20 -15 -11 0 -20 7 -20 15 0 8
9 15 20 15 11 0 20 -7 20 -15z"/>
<path d="M4022 3788 c-28 -28 -2 -88 33 -74 9 3 15 0 15 -9 0 -20 -20 -29 -33
-16 -17 17 -31 13 -17 -4 30 -36 70 -3 70 60 0 36 -4 44 -22 49 -31 8 -32 8
-46 -6z m43 -33 c0 -33 -28 -47 -39 -19 -10 25 3 56 22 52 11 -2 17 -13 17
-33z"/>
<path d="M4124 3760 c1 -44 2 -45 34 -46 32 -1 32 -1 31 45 l-2 46 -6 -40 c-5
-31 -10 -40 -26 -40 -16 0 -21 9 -26 40 l-7 40 2 -45z"/>
<path d="M4243 3793 c-8 -3 -12 -21 -11 -46 l1 -42 4 38 c7 66 51 60 54 -8 1
-25 2 -26 6 -6 11 54 -12 81 -54 64z"/>
<path d="M4429 3783 c-13 -16 -12 -17 3 -4 18 14 48 9 48 -8 0 -5 -12 -11 -27
-13 -20 -2 -28 -9 -28 -23 0 -15 8 -21 33 -23 l33 -3 -3 43 c-2 35 -7 44 -24
46 -11 2 -27 -5 -35 -15z m49 -45 c-5 -15 -48 -24 -48 -10 0 14 12 22 33 22
10 0 17 -5 15 -12z"/>
<path d="M3425 3367 c-3 -12 -5 -56 -3 -97 l3 -75 95 0 95 0 3 75 c5 123 7
120 -98 120 -85 0 -90 -1 -95 -23z m175 -77 l0 -80 -80 0 -80 0 0 80 0 80 80
0 80 0 0 -80z"/>
<path d="M3773 3295 c0 -38 2 -60 4 -47 2 12 7 22 11 22 3 0 17 -10 30 -22
l25 -23 -18 32 c-16 27 -17 34 -5 50 8 10 2 7 -12 -6 l-27 -23 -4 43 c-2 28
-4 18 -4 -26z"/>
<path d="M3861 3270 l1 -45 8 39 c4 21 13 42 21 47 10 6 7 8 -9 6 -19 -1 -22
-6 -21 -47z"/>
<path d="M3927 3295 c3 -16 10 -38 15 -49 8 -15 12 -16 19 -5 5 8 9 22 9 32 0
28 17 19 30 -15 13 -38 23 -27 34 32 l6 35 -14 -35 -14 -35 -12 33 c-7 17 -15
32 -20 32 -4 0 -12 -15 -17 -32 l-10 -33 -16 35 c-16 34 -16 34 -10 5z"/>
<path d="M4070 3311 c0 -4 12 -6 26 -3 20 4 25 1 22 -9 -3 -8 -15 -15 -27 -17
-26 -4 -39 -28 -23 -44 6 -6 22 -8 36 -4 23 6 26 12 26 46 0 38 -2 40 -30 40
-16 0 -30 -4 -30 -9z m50 -50 c0 -6 -5 -13 -10 -16 -15 -9 -43 3 -35 15 8 13
45 13 45 1z"/>
<path d="M4162 3283 c14 -55 25 -60 41 -22 10 23 16 29 20 19 3 -8 8 -24 11
-34 4 -11 10 -15 15 -10 12 13 32 76 26 82 -3 3 -10 -10 -17 -29 l-12 -34 -11
28 c-14 34 -26 34 -41 -2 l-10 -26 -12 33 c-15 44 -23 40 -10 -5z"/>
<path d="M4300 3281 c0 -22 5 -43 10 -46 6 -4 10 12 10 39 0 25 -4 46 -10 46
-5 0 -10 -18 -10 -39z"/>
<path d="M4357 3314 c-4 -4 -7 -22 -7 -40 0 -23 5 -34 19 -39 22 -7 51 3 51
17 0 6 -6 5 -15 -2 -16 -13 -45 -7 -45 10 0 5 14 10 31 10 26 0 30 3 27 23 -2
15 -11 23 -28 25 -14 2 -29 0 -33 -4z m48 -19 c0 -5 -10 -11 -22 -13 -16 -2
-23 2 -23 13 0 11 7 15 23 13 12 -2 22 -7 22 -13z"/>
<path d="M4451 3271 l2 -46 6 40 c5 31 10 40 26 40 16 0 21 -9 26 -40 l7 -40
-2 45 c-1 44 -2 45 -33 46 -33 1 -33 1 -32 -45z"/>
<path d="M4553 3275 c0 -27 2 -38 4 -22 2 15 2 37 0 50 -2 12 -4 0 -4 -28z"/>
<path d="M4596 3295 c-13 -52 34 -87 65 -47 13 15 12 16 -3 3 -18 -14 -48 -9
-48 8 0 5 12 11 28 13 19 2 27 9 27 23 0 15 -8 21 -31 23 -27 3 -33 -1 -38
-23z m59 0 c0 -5 -10 -11 -22 -13 -16 -2 -23 2 -23 13 0 11 7 15 23 13 12 -2
22 -7 22 -13z"/>
<path d="M3427 2904 c-12 -13 -8 -169 5 -182 14 -14 155 -16 176 -4 9 6 12 33
10 98 l-3 89 -90 3 c-50 1 -94 0 -98 -4z m173 -89 l0 -85 -80 0 -80 0 0 85 0
85 80 0 80 0 0 -85z"/>
<path d="M5111 2830 l-1 -66 35 -2 c30 -2 35 1 41 24 9 35 -8 59 -39 57 -21
-1 -27 4 -30 25 -2 15 -5 -2 -6 -38z m62 -11 c8 -29 -2 -49 -23 -49 -23 0 -36
36 -20 55 18 21 37 18 43 -6z"/>
<path d="M4226 2814 c-14 -37 -24 -69 -22 -71 2 -2 16 26 30 63 15 36 25 68
23 71 -3 2 -16 -26 -31 -63z"/>
<path d="M3783 2843 c-8 -3 -12 -21 -12 -46 l2 -42 6 40 c9 58 37 60 49 3 l10
-43 1 36 c1 48 -19 67 -56 52z"/>
<path d="M3868 2824 c-16 -34 0 -59 38 -59 24 0 30 5 32 28 7 55 -48 79 -70
31z m57 -19 c0 -23 -5 -31 -22 -33 -19 -3 -23 1 -23 26 0 33 8 44 30 40 9 -2
15 -14 15 -33z"/>
<path d="M3961 2846 c-1 -5 4 -26 11 -47 12 -40 25 -50 33 -24 16 49 18 50 28
18 5 -18 14 -33 19 -33 10 0 28 45 27 68 0 9 -6 1 -13 -18 l-13 -35 -12 38
c-14 43 -26 41 -37 -6 l-7 -32 -18 40 c-10 22 -18 36 -18 31z"/>
<path d="M4114 2836 c-3 -8 -4 -27 -2 -43 2 -21 9 -29 27 -31 13 -2 28 1 34 7
8 8 3 10 -21 5 -25 -5 -32 -3 -32 10 0 11 9 16 30 16 18 0 30 5 30 13 0 32
-55 51 -66 23z m54 -13 c2 -8 -6 -13 -22 -13 -25 0 -33 10 -19 24 10 10 36 3
41 -11z"/>
<path d="M4287 2843 c-14 -14 -6 -34 18 -43 14 -5 25 -15 25 -21 0 -7 -10 -9
-25 -7 -14 3 -25 1 -25 -3 0 -13 58 -11 65 1 9 15 -14 40 -36 40 -11 0 -19 7
-19 16 0 12 7 15 25 12 13 -3 22 -1 19 3 -6 11 -38 12 -47 2z"/>
<path d="M4365 2829 c14 -45 25 -69 30 -69 3 0 11 15 18 32 l13 33 12 -33 c13
-39 28 -41 36 -4 15 63 15 65 -3 27 -11 -22 -20 -35 -20 -28 -1 6 -6 24 -12
40 l-11 28 -18 -40 -17 -40 -7 32 c-4 18 -12 36 -18 39 -7 4 -8 -2 -3 -17z"/>
<path d="M4510 2807 c0 -26 4 -47 9 -47 10 0 8 77 -3 87 -3 3 -6 -15 -6 -40z"/>
<path d="M4558 2824 c-8 -18 -9 -30 -1 -42 12 -21 51 -28 66 -13 8 8 3 10 -21
5 -25 -5 -32 -3 -32 10 0 11 9 16 30 16 31 0 39 17 18 38 -20 20 -48 14 -60
-14z m52 1 c0 -8 -9 -15 -20 -15 -11 0 -20 7 -20 15 0 8 9 15 20 15 11 0 20
-7 20 -15z"/>
<path d="M4668 2843 c27 -5 27 -11 2 -43 -27 -34 -25 -40 13 -39 23 1 26 3 10
6 -28 5 -28 8 -3 40 28 35 25 43 -12 42 -24 -1 -27 -3 -10 -6z"/>
<path d="M4738 2824 c-8 -18 -9 -30 -1 -42 12 -21 51 -28 66 -13 8 8 3 10 -21
5 -25 -5 -32 -3 -32 10 0 11 9 16 30 16 31 0 39 17 18 38 -20 20 -48 14 -60
-14z m52 1 c0 -8 -9 -15 -20 -15 -20 0 -26 11 -13 23 12 13 33 7 33 -8z"/>
<path d="M4924 2820 c-9 -42 -21 -46 -29 -9 -4 17 -9 28 -12 25 -7 -7 17 -76
26 -76 5 0 13 15 18 33 l10 32 13 -32 c6 -18 15 -33 19 -33 10 0 34 80 27 88
-3 3 -9 -9 -12 -27 -9 -43 -21 -48 -29 -11 -9 42 -24 47 -31 10z"/>
<path d="M5233 2843 c-8 -3 -12 -21 -11 -46 1 -40 1 -40 5 -8 3 19 12 41 21
48 17 12 8 16 -15 6z"/>
<path d="M5292 2841 c-8 -5 -12 -22 -10 -42 3 -30 6 -34 33 -34 27 0 30 4 33
34 3 32 -9 51 -33 51 -5 0 -16 -4 -23 -9z m43 -36 c0 -23 -5 -31 -22 -33 -19
-3 -23 1 -23 26 0 33 8 44 30 40 9 -2 15 -14 15 -33z"/>
<path d="M5392 2841 c-8 -5 -12 -22 -10 -42 3 -30 6 -34 32 -34 17 0 31 6 34
15 4 12 2 13 -9 3 -25 -24 -49 -16 -49 17 0 36 22 49 48 29 15 -13 16 -12 3 4
-15 19 -29 21 -49 8z"/>
<path d="M5488 2843 c27 -5 28 -13 2 -46 -27 -34 -26 -37 13 -36 23 1 26 3 10
6 -28 5 -28 8 -3 40 28 35 25 43 -12 42 -24 -1 -27 -3 -10 -6z"/>
<path d="M5550 2849 c0 -4 7 -26 15 -49 12 -35 13 -46 3 -58 -11 -12 -10 -14
1 -11 7 3 22 27 32 54 22 59 24 85 2 35 l-15 -35 -19 35 c-10 19 -18 32 -19
29z"/>
<path d="M5642 2800 c1 -35 2 -38 5 -13 5 35 29 62 43 47 5 -5 11 -25 13 -44
3 -27 4 -25 3 10 -1 44 -2 45 -33 45 -33 1 -33 0 -31 -45z"/>
<path d="M5741 2842 c-1 -7 6 -29 14 -49 12 -29 13 -39 3 -51 -11 -12 -10 -14
1 -11 8 3 23 29 33 59 20 60 17 81 -5 29 l-14 -34 -16 35 c-8 19 -16 29 -16
22z"/>
<path d="M5028 2820 c14 -56 14 -73 1 -81 -11 -7 -11 -9 3 -9 11 0 22 17 33
51 9 28 15 53 12 56 -4 3 -9 -6 -13 -21 -8 -32 -17 -33 -30 -3 -6 12 -8 15 -6
7z"/>
<path d="M3432 2432 c-9 -6 -12 -33 -10 -98 l3 -89 95 0 95 0 0 95 0 95 -85 3
c-47 1 -91 -2 -98 -6z m168 -97 l0 -86 -77 3 -78 3 -3 83 -3 82 81 0 80 0 0
-85z"/>
<path d="M4290 2344 c0 -41 4 -63 10 -59 6 3 10 33 10 66 0 33 -4 59 -10 59
-6 0 -10 -29 -10 -66z"/>
<path d="M4441 2350 l-1 -65 30 -2 c35 -3 55 25 46 63 -5 18 -13 24 -35 24
-23 0 -31 5 -34 23 -2 12 -5 -7 -6 -43z m57 -22 c-3 -36 -24 -44 -41 -17 -14
23 -2 49 23 49 18 0 21 -5 18 -32z"/>
<path d="M5688 2372 c-4 -45 5 -101 14 -87 6 11 12 66 9 103 -2 36 -19 25 -23
-16z"/>
<path d="M3765 2360 c-9 -15 14 -40 36 -40 11 0 19 -5 19 -10 0 -18 -29 -23
-47 -9 -14 12 -16 12 -11 -1 3 -9 17 -15 34 -15 40 0 45 31 7 47 -38 17 -39
18 -23 28 9 6 10 10 3 10 -6 0 -15 -5 -18 -10z"/>
<path d="M3800 2366 c0 -2 7 -7 16 -10 8 -3 12 -2 9 4 -6 10 -25 14 -25 6z"/>
<path d="M3863 2325 c0 -27 2 -38 4 -22 2 15 2 37 0 50 -2 12 -4 0 -4 -28z"/>
<path d="M3901 2323 c1 -27 3 -39 6 -28 2 11 6 30 9 43 3 13 12 22 24 22 15 0
20 -9 23 -42 l4 -43 1 48 2 47 -35 0 -35 0 1 -47z"/>
<path d="M4000 2330 c0 -22 5 -40 10 -40 6 0 10 18 10 40 0 22 -4 40 -10 40
-5 0 -10 -18 -10 -40z"/>
<path d="M4054 2356 c-9 -24 0 -58 18 -70 14 -8 21 -6 35 9 16 17 17 18 1 6
-10 -7 -25 -11 -33 -7 -18 6 -20 47 -3 64 9 9 9 12 0 12 -7 0 -15 -6 -18 -14z"/>
<path d="M4100 2355 c7 -9 15 -13 17 -11 7 7 -7 26 -19 26 -6 0 -6 -6 2 -15z"/>
<path d="M4145 2360 c-3 -5 -2 -10 4 -10 5 0 13 5 16 10 3 6 2 10 -4 10 -5 0
-13 -4 -16 -10z"/>
<path d="M4190 2360 c16 -10 15 -11 -23 -28 -39 -17 -33 -47 11 -48 31 -1 32
0 32 43 0 34 -3 43 -17 43 -15 0 -16 -2 -3 -10z m8 -52 c-3 -7 -13 -13 -23
-13 -10 0 -20 6 -22 13 -3 7 5 12 22 12 17 0 25 -5 23 -12z"/>
<path d="M4344 2330 c1 -44 2 -45 34 -45 32 -1 32 0 30 45 -1 35 -2 38 -5 13
-5 -35 -29 -62 -43 -47 -5 5 -11 25 -13 44 -3 27 -4 25 -3 -10z"/>
<path d="M4608 2363 c27 -5 28 -15 2 -38 -30 -28 -25 -45 13 -44 23 1 26 3 10
6 -28 5 -28 11 -3 43 27 34 25 40 -12 39 -24 -1 -27 -3 -10 -6z"/>
<path d="M4680 2359 c0 -5 5 -7 10 -4 6 3 10 8 10 11 0 2 -4 4 -10 4 -5 0 -10
-5 -10 -11z"/>
<path d="M4720 2360 c16 -10 15 -12 -22 -28 -47 -20 -32 -60 18 -48 20 5 24
12 24 46 0 31 -4 40 -17 40 -15 0 -16 -2 -3 -10z m10 -49 c0 -6 -5 -13 -10
-16 -15 -9 -43 3 -35 15 8 13 45 13 45 1z"/>
<path d="M4777 2363 c-15 -15 -5 -32 25 -42 25 -9 29 -14 20 -23 -10 -10 -17
-10 -32 0 -11 7 -20 8 -20 3 0 -16 20 -23 46 -17 32 8 31 34 -3 48 -38 16 -39
18 -23 28 8 6 10 10 4 10 -6 0 -14 -3 -17 -7z"/>
<path d="M4815 2360 c3 -5 11 -10 16 -10 6 0 7 5 4 10 -3 6 -11 10 -16 10 -6
0 -7 -4 -4 -10z"/>
<path d="M4873 2325 c0 -27 2 -38 4 -22 2 15 2 37 0 50 -2 12 -4 0 -4 -28z"/>
<path d="M4911 2320 l2 -45 6 40 c5 31 11 41 28 43 19 3 22 -2 26 -40 l4 -43
1 48 2 48 -35 -3 c-35 -2 -35 -2 -34 -48z"/>
<path d="M5023 2325 c0 -27 2 -38 4 -22 2 15 2 37 0 50 -2 12 -4 0 -4 -28z"/>
<path d="M5067 2363 c-4 -3 -7 -21 -7 -39 0 -27 5 -35 24 -40 26 -6 46 1 46
17 0 5 -9 4 -20 -3 -15 -10 -22 -10 -32 0 -16 16 5 32 34 27 15 -3 19 1 16 17
-2 12 -9 23 -16 24 -7 1 -8 0 -2 -3 19 -9 10 -23 -16 -23 -22 0 -25 2 -14 15
12 14 0 22 -13 8z"/>
<path d="M5161 2323 l2 -48 6 40 c5 31 11 41 28 43 19 3 22 -2 26 -40 l4 -43
1 48 2 47 -35 0 -35 0 1 -47z"/>
<path d="M5263 2325 c0 -27 2 -38 4 -22 2 15 2 37 0 50 -2 12 -4 0 -4 -28z"/>
<path d="M5312 2328 c2 -35 7 -44 24 -46 11 -2 27 5 35 15 13 16 12 17 -3 4
-20 -15 -52 -7 -46 11 2 6 14 12 26 13 12 1 25 4 28 8 10 10 -4 37 -18 36 -10
0 -10 -2 0 -6 21 -8 13 -23 -13 -23 -26 0 -34 15 -12 23 7 3 4 6 -6 6 -15 1
-18 -6 -15 -41z"/>
<path d="M5454 2346 c-8 -34 12 -68 38 -64 12 2 24 10 26 18 5 13 3 13 -11 2
-22 -19 -37 -7 -37 30 0 27 3 30 25 26 14 -3 25 -1 25 3 0 5 -13 9 -30 9 -23
0 -31 -5 -36 -24z"/>
<path d="M5553 2325 c0 -27 2 -38 4 -22 2 15 2 37 0 50 -2 12 -4 0 -4 -28z"/>
<path d="M5595 2360 c-3 -5 -2 -10 4 -10 5 0 13 5 16 10 3 6 2 10 -4 10 -5 0
-13 -4 -16 -10z"/>
<path d="M5640 2360 c16 -10 15 -11 -23 -28 -39 -17 -33 -47 11 -48 31 -1 32
0 32 43 0 34 -3 43 -17 43 -15 0 -16 -2 -3 -10z m3 -61 c-13 -13 -43 -5 -43
10 0 13 33 20 45 9 5 -5 5 -12 -2 -19z"/>
<path d="M5745 2360 c-3 -6 1 -7 9 -4 18 7 21 14 7 14 -6 0 -13 -4 -16 -10z"/>
<path d="M5788 2358 c11 -14 9 -17 -18 -23 -25 -5 -31 -11 -28 -28 2 -17 10
-22 36 -22 32 -1 33 0 30 39 -2 24 -9 41 -18 44 -13 4 -13 3 -2 -10z m0 -54
c-9 -9 -21 -13 -27 -10 -20 13 -11 26 16 26 25 0 26 -1 11 -16z"/>
<path d="M3427 1954 c-13 -13 -8 -181 6 -187 20 -8 162 -6 176 2 8 5 11 34 9
97 l-3 89 -90 3 c-50 1 -94 0 -98 -4z m171 -91 l3 -83 -81 0 -80 0 0 85 0 86
78 -3 77 -3 3 -82z"/>
<path d="M4103 1875 c0 -38 2 -53 4 -32 2 20 2 52 0 70 -2 17 -4 1 -4 -38z"/>
<path d="M4601 1879 l-1 -66 38 1 c33 1 37 4 40 29 4 35 -14 59 -41 55 -15 -2
-23 4 -28 22 -5 17 -7 3 -8 -41z m65 -13 c7 -31 -1 -46 -26 -46 -23 0 -36 36
-20 55 19 22 39 18 46 -9z"/>
<path d="M4950 1876 c0 -37 4 -66 10 -66 6 0 10 9 10 20 0 26 16 26 30 -1 7
-11 14 -19 17 -16 2 3 -2 14 -9 26 -11 17 -10 25 1 44 13 21 13 21 -13 -2
l-26 -24 0 36 c0 20 -4 39 -10 42 -6 4 -10 -18 -10 -59z"/>
<path d="M5240 1879 l0 -65 35 -2 c29 -2 35 1 41 22 10 41 -4 68 -34 64 -20
-2 -27 2 -27 14 0 9 -4 20 -8 24 -4 4 -7 -22 -7 -57z m66 -13 c7 -30 -1 -46
-26 -46 -22 0 -30 18 -19 48 11 29 37 28 45 -2z"/>
<path d="M5648 1918 c-2 -18 -8 -22 -30 -20 -22 3 -29 -2 -34 -22 -11 -46 -2
-61 39 -62 l37 -1 0 63 c0 64 -6 84 -12 42z m-8 -47 c13 -25 3 -51 -20 -51
-25 0 -33 16 -26 46 8 29 31 32 46 5z"/>
<path d="M3772 1850 c1 -42 2 -43 5 -8 4 38 30 59 45 36 5 -7 7 -25 5 -40 -2
-16 0 -28 5 -28 10 0 10 61 0 78 -5 6 -20 11 -35 10 -25 -2 -27 -5 -25 -48z"/>
<path d="M3876 1892 c-3 -5 4 -8 16 -8 34 1 32 -21 -2 -28 -44 -8 -38 -40 8
-44 l33 -3 -3 43 c-2 35 -7 44 -25 46 -11 2 -24 -1 -27 -6z m44 -51 c0 -6 -5
-13 -10 -16 -15 -9 -43 3 -35 15 8 13 45 13 45 1z"/>
<path d="M3963 1884 c-7 -18 4 -31 31 -36 11 -1 21 -9 24 -17 3 -10 -3 -12
-27 -9 -19 3 -28 1 -22 -5 14 -14 55 -4 59 14 2 11 -8 20 -28 28 -37 12 -31
36 7 26 16 -4 22 -2 18 5 -10 16 -55 12 -62 -6z"/>
<path d="M4063 1855 c0 -27 2 -38 4 -22 2 15 2 37 0 50 -2 12 -4 0 -4 -28z"/>
<path d="M4154 1887 c-3 -9 -4 -28 -2 -44 3 -24 7 -28 33 -28 28 0 30 2 30 40
0 36 -3 40 -28 43 -17 2 -29 -2 -33 -11z m51 -32 c0 -23 -5 -31 -22 -33 -19
-3 -23 1 -23 26 0 33 8 44 30 40 9 -2 15 -14 15 -33z"/>
<path d="M4252 1851 c1 -35 2 -39 5 -14 5 35 29 62 43 47 5 -5 11 -25 13 -44
3 -27 4 -25 3 10 -1 44 -2 45 -33 46 -33 1 -33 1 -31 -45z"/>
<path d="M4361 1886 c-21 -25 -10 -70 18 -74 13 -2 27 0 32 5 5 5 -3 9 -18 8
-14 0 -28 6 -30 13 -3 8 6 12 27 12 27 0 31 3 28 23 -4 26 -39 35 -57 13z m47
-13 c2 -8 -6 -13 -22 -13 -25 0 -33 10 -19 24 10 10 36 3 41 -11z"/>
<path d="M4504 1887 c-3 -9 -4 -28 -2 -44 3 -24 7 -28 33 -28 28 0 30 2 30 40
0 36 -3 40 -28 43 -17 2 -29 -2 -33 -11z m54 -35 c3 -29 1 -32 -22 -32 -22 0
-26 5 -26 28 0 33 8 44 30 40 9 -2 16 -16 18 -36z"/>
<path d="M4718 1893 c-13 -3 -18 -15 -18 -44 0 -21 5 -39 10 -39 6 0 10 16 10
35 0 22 6 38 18 44 18 11 10 12 -20 4z"/>
<path d="M4788 1893 c28 -5 28 -7 -4 -49 l-26 -34 38 1 c30 2 33 3 11 6 l-27
4 25 33 c32 42 32 46 -7 45 -24 -1 -27 -3 -10 -6z"/>
<path d="M4862 1888 c-20 -20 -15 -69 7 -75 11 -3 21 -13 24 -24 3 -10 11 -19
19 -19 10 0 9 3 -2 10 -12 7 -12 12 -2 22 18 18 15 24 -15 23 -14 0 -28 6 -30
13 -3 8 6 12 27 12 27 0 31 3 28 23 -3 25 -36 35 -56 15z m46 -15 c2 -8 -6
-13 -22 -13 -19 0 -24 4 -19 15 6 18 34 16 41 -2z"/>
<path d="M5053 1855 c0 -27 2 -38 4 -22 2 15 2 37 0 50 -2 12 -4 0 -4 -28z"/>
<path d="M5144 1887 c-3 -9 -4 -28 -2 -44 3 -24 7 -28 33 -28 28 0 30 2 30 40
0 36 -3 40 -28 43 -17 2 -29 -2 -33 -11z m51 -32 c0 -23 -4 -30 -20 -30 -21 0
-31 25 -21 51 11 28 41 12 41 -21z"/>
<path d="M5340 1896 c0 -19 24 -86 31 -86 4 0 13 15 19 33 l13 32 10 -32 c5
-18 13 -33 18 -33 4 0 14 20 22 45 9 25 12 45 7 45 -5 0 -12 -16 -16 -35 -7
-40 -19 -38 -27 5 -8 38 -24 39 -32 0 -7 -32 -25 -41 -25 -12 0 17 -20 55 -20
38z"/>
<path d="M5488 1874 c-16 -34 0 -59 38 -59 24 0 30 5 32 28 7 55 -48 79 -70
31z m57 -19 c0 -23 -5 -31 -22 -33 -19 -3 -23 1 -23 26 0 33 8 44 30 40 9 -2
15 -14 15 -33z"/>
<path d="M5694 1887 c-3 -9 -4 -28 -2 -44 3 -24 7 -28 33 -28 28 0 30 2 30 40
0 36 -3 40 -28 43 -17 2 -29 -2 -33 -11z m51 -32 c0 -23 -5 -31 -22 -33 -19
-3 -23 1 -23 26 0 33 8 44 30 40 9 -2 15 -14 15 -33z"/>
<path d="M5785 1879 c14 -45 25 -69 30 -69 3 0 11 15 18 32 l13 33 12 -33 c13
-39 28 -41 35 -4 3 15 8 36 12 47 3 11 -3 2 -14 -20 -11 -22 -20 -35 -20 -28
-1 6 -6 24 -12 40 l-11 28 -18 -40 -17 -40 -7 32 c-4 18 -12 36 -18 39 -7 4
-8 -2 -3 -17z"/>
<path d="M5934 1887 c-3 -9 -4 -28 -2 -44 2 -21 9 -29 27 -31 13 -2 27 0 32 5
5 5 -3 9 -18 8 -14 0 -28 6 -30 13 -3 8 6 12 27 12 27 0 31 3 28 23 -4 27 -54
38 -64 14z m54 -14 c2 -8 -6 -13 -22 -13 -25 0 -33 10 -19 24 10 10 36 3 41
-11z"/>
<path d="M3433 1483 c-16 -6 -18 -109 -3 -118 6 -4 10 15 10 49 l0 56 81 0 81
0 -4 -90 c-2 -57 1 -89 7 -87 16 6 19 179 3 189 -14 8 -155 10 -175 1z"/>
<path d="M3830 1439 c0 -16 -5 -20 -20 -16 -25 7 -50 -17 -50 -47 0 -30 18
-45 52 -43 27 2 28 3 28 65 0 34 -2 62 -5 62 -3 0 -5 -10 -5 -21z m-5 -50 c10
-30 -18 -57 -39 -39 -16 13 -21 42 -9 53 14 14 42 6 48 -14z"/>
<path d="M4282 1395 c0 -51 2 -64 8 -47 12 28 21 28 38 1 7 -12 16 -19 18 -16
3 3 -2 17 -11 31 -15 22 -15 29 -4 44 7 9 1 6 -13 -7 l-27 -23 -4 43 c-2 30
-4 22 -5 -26z"/>
<path d="M4486 1390 c-16 -39 -26 -73 -24 -76 3 -2 17 28 33 67 15 38 25 72
23 75 -3 2 -17 -28 -32 -66z"/>
<path d="M4601 1403 c-1 -55 1 -62 21 -69 16 -5 27 -1 39 15 22 27 37 27 42
-1 l4 -23 2 23 c1 29 46 32 54 2 7 -26 67 -24 67 3 0 26 30 21 31 -5 l0 -23 9
23 c5 12 13 22 18 22 5 0 17 -10 26 -22 l17 -23 -6 23 c-6 20 -3 22 35 22 33
0 42 -4 50 -22 l9 -23 0 23 c1 27 17 29 33 2 7 -11 16 -20 21 -20 4 0 3 9 -3
20 -9 17 -8 20 10 20 11 0 20 -6 20 -14 0 -26 42 -31 61 -7 22 27 37 27 42 -1
l4 -23 2 23 c1 16 7 22 25 22 18 0 26 -7 29 -22 l4 -23 2 23 c1 28 37 30 44 2
3 -11 11 -20 18 -20 10 0 10 3 1 12 -17 17 -15 28 7 28 10 0 21 -9 24 -20 7
-27 67 -25 67 2 0 23 26 23 39 1 10 -17 10 -17 11 0 0 23 17 22 32 -3 7 -11
17 -20 22 -20 6 0 5 5 -2 12 -17 17 -15 28 6 28 9 0 23 -9 30 -20 7 -11 18
-20 25 -20 7 1 5 6 -5 14 -10 7 -15 16 -11 19 13 13 38 7 51 -13 15 -25 62
-24 62 2 0 16 11 18 118 17 76 -1 120 -5 124 -13 6 -8 8 -8 8 1 0 8 30 12 105
12 111 0 125 3 125 26 0 31 -40 36 -319 35 -214 0 -281 3 -284 13 -4 9 -6 9
-6 0 -2 -21 -79 -17 -84 5 -4 16 -5 16 -6 0 -1 -15 -12 -18 -75 -18 -50 0 -76
4 -79 13 -4 10 -6 10 -6 0 -1 -10 -37 -13 -145 -13 -129 0 -145 2 -149 18 -4
16 -5 16 -6 0 -1 -15 -11 -18 -70 -18 -58 0 -70 3 -74 18 -4 16 -5 16 -6 0 -1
-16 -13 -18 -110 -18 -60 0 -116 -3 -124 -6 -11 -4 -17 2 -20 18 -2 13 -5 -5
-6 -39z m59 -44 c0 -13 -17 -20 -34 -13 -27 10 -19 32 9 26 14 -2 25 -8 25
-13z m160 2 c0 -12 -29 -23 -41 -15 -18 10 -9 24 16 24 14 0 25 -4 25 -9z
m338 -3 c-3 -7 -13 -13 -23 -13 -10 0 -20 6 -22 13 -3 7 5 12 22 12 17 0 25
-5 23 -12z m262 3 c0 -12 -29 -23 -41 -15 -18 10 -9 24 16 24 14 0 25 -4 25
-9z m260 0 c0 -11 -26 -22 -34 -14 -12 12 -5 23 14 23 11 0 20 -4 20 -9z"/>
<path d="M4058 1423 c-28 -7 -21 -21 7 -15 15 2 25 0 25 -7 0 -6 -5 -11 -12
-11 -6 0 -4 -6 6 -13 16 -12 16 -14 2 -26 -18 -15 -40 -5 -32 15 3 8 1 14 -3
14 -15 0 -20 -28 -8 -38 7 -6 24 -10 39 -9 25 2 28 6 28 39 0 40 -19 58 -52
51z"/>
<path d="M3871 1370 l1 -45 8 39 c4 21 13 42 21 47 10 6 7 8 -9 6 -19 -1 -22
-6 -21 -47z"/>
<path d="M3934 1406 c-13 -34 0 -61 33 -66 25 -4 30 -8 24 -19 -5 -8 -18 -12
-30 -8 -12 3 -19 1 -15 -4 8 -13 38 -11 52 3 7 7 12 34 12 60 l0 48 -35 0
c-22 0 -38 -6 -41 -14z m60 -12 c7 -19 -10 -44 -29 -44 -16 0 -26 25 -19 45 8
20 40 19 48 -1z"/>
<path d="M4137 1395 c3 -16 10 -39 16 -50 9 -18 12 -16 27 20 l17 40 7 -32
c11 -49 22 -48 39 2 9 25 12 45 8 45 -5 0 -13 -15 -18 -32 l-10 -33 -13 33
c-6 17 -15 32 -20 32 -4 0 -12 -15 -17 -32 l-10 -33 -16 35 c-16 34 -16 34
-10 5z"/>
<path d="M4370 1373 c0 -25 3 -43 6 -40 10 9 11 87 2 87 -5 0 -8 -21 -8 -47z"/>
<path d="M5923 1283 c9 -2 25 -2 35 0 9 3 1 5 -18 5 -19 0 -27 -2 -17 -5z"/>
</g>
</svg>
